<svg width="12" height="13" viewBox="0 0 12 13" fill="none" xmlns="http://www.w3.org/2000/svg">
<path d="M8 1.3H1.33333V11.7H10.6667V3.9H8V1.3ZM0 0.6448C0 0.2886 0.298 0 0.666 0H8.66667L12 3.25V12.3454C12.0006 12.4308 11.984 12.5155 11.951 12.5945C11.9181 12.6736 11.8695 12.7456 11.808 12.8064C11.7466 12.8672 11.6734 12.9156 11.5928 12.9488C11.5121 12.982 11.4255 12.9994 11.338 13H0.662C0.486919 12.9988 0.319345 12.9305 0.195478 12.8099C0.0716119 12.6892 0.00139643 12.5259 0 12.3552V0.6448ZM7.01933 8.0899C6.46022 8.40842 5.80137 8.5178 5.16564 8.39765C4.52992 8.2775 3.96071 7.93603 3.56415 7.43689C3.16759 6.93775 2.97076 6.31503 3.01035 5.68484C3.04994 5.05465 3.32326 4.46001 3.77933 4.0118C4.2383 3.56439 4.84886 3.29554 5.49658 3.25562C6.1443 3.21571 6.78472 3.40748 7.29781 3.795C7.81089 4.18251 8.16142 4.73916 8.28369 5.36062C8.40596 5.98207 8.29159 6.62568 7.962 7.1708L9.43533 8.6073L8.49267 9.52705L7.01933 8.09055V8.0899ZM6.60733 6.7691C6.73468 6.64918 6.83626 6.50573 6.90613 6.34713C6.97601 6.18852 7.01279 6.01793 7.01433 5.84532C7.01587 5.67271 6.98214 5.50152 6.9151 5.34176C6.84805 5.18199 6.74905 5.03685 6.62386 4.91479C6.49867 4.79273 6.3498 4.6962 6.18594 4.63083C6.02208 4.56547 5.8465 4.53257 5.66947 4.53407C5.49243 4.53557 5.31747 4.57144 5.15479 4.63957C4.99212 4.7077 4.845 4.80674 4.722 4.9309C4.47912 5.17608 4.34473 5.50447 4.34777 5.84532C4.35081 6.18618 4.49103 6.51223 4.73824 6.75326C4.98545 6.99429 5.31987 7.13101 5.66947 7.13398C6.01906 7.13694 6.35586 7.00591 6.60733 6.7691Z" fill="#3E78D0"/>
</svg>
