<svg width="41" height="40" viewBox="0 0 41 40" fill="none" xmlns="http://www.w3.org/2000/svg">
<rect opacity="0.1" x="0.5" width="40" height="40" rx="4" fill="#3E78D0"/>
<path fill-rule="evenodd" clip-rule="evenodd" d="M19.6784 31.5172C25.9902 31.5172 31.1069 26.4005 31.1069 20.0887C31.1069 13.7769 25.9902 8.66016 19.6784 8.66016C13.3667 8.66016 8.25 13.7769 8.25 20.0887C8.25 26.4005 13.3667 31.5172 19.6784 31.5172ZM23.071 21.5342L25.4329 19.2294C25.7377 18.9247 25.5662 18.4104 25.1281 18.3533L21.871 17.8961C21.6996 17.8771 21.5663 17.7628 21.4901 17.6104L20.0425 14.658C19.852 14.2771 19.3187 14.2771 19.1282 14.658L17.6806 17.6104C17.6044 17.7628 17.452 17.8771 17.2997 17.8961L14.0235 18.3533C13.6045 18.4104 13.433 18.9437 13.7378 19.2294L16.1378 21.5342C16.2711 21.6485 16.3092 21.8389 16.2902 21.9913L15.7378 25.2294C15.6616 25.6485 16.0997 25.9913 16.4806 25.7818L19.3758 24.258C19.4901 24.1818 19.6806 24.1818 19.833 24.258L22.7282 25.7818C23.1091 25.9723 23.5472 25.6485 23.471 25.2294L22.9186 21.9913C22.8805 21.8199 22.9377 21.6675 23.071 21.5342Z" fill="url(#paint0_linear_2170_67413)"/>
<g filter="url(#filter0_biii_2170_67413)">
<path d="M33.8249 31.7358H23.2702C23.034 31.7358 22.8215 31.5473 22.8215 31.2882V29.0972C22.8215 28.3669 23.4118 27.7779 24.1438 27.7779H26.9537C26.8593 27.2596 26.5995 26.7413 26.2217 26.3172C25.7259 25.7518 25.4425 25.0215 25.4425 24.2676C25.4425 23.4431 25.7731 22.6421 26.387 22.0531C27.0009 21.4641 27.8038 21.1814 28.6538 21.205C30.2358 21.2756 31.5818 22.6421 31.6054 24.2205C31.629 25.0215 31.322 25.7754 30.8025 26.3644C30.4247 26.7649 30.2122 27.236 30.1178 27.8015H32.9277C33.6596 27.8015 34.25 28.3904 34.25 29.1208V31.3117C34.25 31.5473 34.0611 31.7358 33.8249 31.7358Z" fill="#E3C07B"/>
</g>
<defs>
<filter id="filter0_biii_2170_67413" x="20.5807" y="18.9627" width="15.9102" height="15.014" filterUnits="userSpaceOnUse" color-interpolation-filters="sRGB">
<feFlood flood-opacity="0" result="BackgroundImageFix"/>
<feGaussianBlur in="BackgroundImageFix" stdDeviation="1.12044"/>
<feComposite in2="SourceAlpha" operator="in" result="effect1_backgroundBlur_2170_67413"/>
<feBlend mode="normal" in="SourceGraphic" in2="effect1_backgroundBlur_2170_67413" result="shape"/>
<feColorMatrix in="SourceAlpha" type="matrix" values="0 0 0 0 0 0 0 0 0 0 0 0 0 0 0 0 0 0 127 0" result="hardAlpha"/>
<feOffset dx="-0.448176" dy="-0.448176"/>
<feGaussianBlur stdDeviation="0.336132"/>
<feComposite in2="hardAlpha" operator="arithmetic" k2="-1" k3="1"/>
<feColorMatrix type="matrix" values="0 0 0 0 0.243137 0 0 0 0 0.470588 0 0 0 0 0.815686 0 0 0 0.22 0"/>
<feBlend mode="normal" in2="shape" result="effect2_innerShadow_2170_67413"/>
<feColorMatrix in="SourceAlpha" type="matrix" values="0 0 0 0 0 0 0 0 0 0 0 0 0 0 0 0 0 0 127 0" result="hardAlpha"/>
<feOffset dx="0.224088" dy="0.224088"/>
<feGaussianBlur stdDeviation="0.224088"/>
<feComposite in2="hardAlpha" operator="arithmetic" k2="-1" k3="1"/>
<feColorMatrix type="matrix" values="0 0 0 0 1 0 0 0 0 1 0 0 0 0 1 0 0 0 0.25 0"/>
<feBlend mode="normal" in2="effect2_innerShadow_2170_67413" result="effect3_innerShadow_2170_67413"/>
<feColorMatrix in="SourceAlpha" type="matrix" values="0 0 0 0 0 0 0 0 0 0 0 0 0 0 0 0 0 0 127 0" result="hardAlpha"/>
<feOffset dx="-1" dy="1"/>
<feGaussianBlur stdDeviation="1.5"/>
<feComposite in2="hardAlpha" operator="arithmetic" k2="-1" k3="1"/>
<feColorMatrix type="matrix" values="0 0 0 0 1 0 0 0 0 1 0 0 0 0 1 0 0 0 0.25 0"/>
<feBlend mode="normal" in2="effect3_innerShadow_2170_67413" result="effect4_innerShadow_2170_67413"/>
</filter>
<linearGradient id="paint0_linear_2170_67413" x1="39.1771" y1="39.385" x2="-3.14077" y2="1.80487" gradientUnits="userSpaceOnUse">
<stop stop-color="#3E78D0"/>
<stop offset="1" stop-color="#5B92D9"/>
</linearGradient>
</defs>
</svg>
