<svg width="41" height="40" viewBox="0 0 41 40" fill="none" xmlns="http://www.w3.org/2000/svg">
<rect x="0.5" width="40" height="40" rx="4" fill="black" fill-opacity="0.04"/>
<rect width="17.1679" height="22.3173" rx="1" transform="matrix(0.965929 -0.258808 0.25883 0.965923 8.48242 11.4434)" fill="black" fill-opacity="0.04"/>
<rect x="15.3496" y="8.71729" width="17.1679" height="22.3173" rx="1" fill="black" fill-opacity="0.25"/>
<g filter="url(#filter0_b_2170_67444)">
<path d="M23.3185 24.6512H25.7665V23.7422H23.3185V21.9962C24.3355 21.8072 25.2445 21.5822 26.0455 21.3212L25.4695 20.5742C24.5335 20.8622 23.5075 21.0962 22.3735 21.2762V26.6852C22.3735 26.9372 22.2565 27.1262 22.0225 27.2522L22.4095 28.0262C23.5705 27.8012 24.7135 27.5312 25.8295 27.2252L25.5865 26.3702C24.7945 26.5952 24.0385 26.7842 23.3185 26.9372V24.6512ZM28.8355 27.7292C29.4835 27.7292 29.8165 27.3692 29.8165 26.6582V21.0152H26.2525V28.9532H27.2065V21.8972H28.8625V26.4602C28.8625 26.7122 28.7455 26.8472 28.5295 26.8472L27.7465 26.8202L27.9985 27.7292H28.8355Z" fill="black" fill-opacity="0.45"/>
</g>
<path d="M18.354 13.438H29.9423" stroke="black" stroke-opacity="0.25" stroke-width="1.71675" stroke-linejoin="round"/>
<path d="M18.4824 17H25.4824" stroke="black" stroke-opacity="0.25" stroke-width="1.71675" stroke-linejoin="round"/>
<defs>
<filter id="filter0_b_2170_67444" x="18.0225" y="16.5742" width="15.7939" height="16.3789" filterUnits="userSpaceOnUse" color-interpolation-filters="sRGB">
<feFlood flood-opacity="0" result="BackgroundImageFix"/>
<feGaussianBlur in="BackgroundImageFix" stdDeviation="2"/>
<feComposite in2="SourceAlpha" operator="in" result="effect1_backgroundBlur_2170_67444"/>
<feBlend mode="normal" in="SourceGraphic" in2="effect1_backgroundBlur_2170_67444" result="shape"/>
</filter>
</defs>
</svg>
