<svg width="41" height="40" viewBox="0 0 41 40" fill="none" xmlns="http://www.w3.org/2000/svg">
<rect opacity="0.1" x="0.5" width="40" height="40" rx="4" fill="#3E78D0"/>
<g clip-path="url(#clip0_2170_67423)">
<path d="M23.7271 29.9648H13.1331C12.5077 29.9648 12 29.4333 12 28.7787V8.18616C12 7.53145 12.5077 7 13.1331 7H23.7271C24.3525 7 24.8602 7.53147 24.8602 8.18616V28.7787C24.8602 29.4334 24.3525 29.9648 23.7271 29.9648ZM18.427 28.7787C18.848 28.7787 19.1824 28.4222 19.1824 27.9879C19.1824 27.5536 18.8419 27.1971 18.427 27.1971C18.0121 27.1971 17.6716 27.5536 17.6716 27.9879C17.6716 28.4222 18.0121 28.7787 18.427 28.7787ZM23.7271 9.37232H13.1331V26.0045H23.721V9.37232H23.7271Z" fill="url(#paint0_linear_2170_67423)"/>
<g filter="url(#filter0_biii_2170_67423)">
<path d="M18.47 33.0003L13.845 27.2231C13.845 27.2231 13.6117 25.068 15.6945 25.9752C16.8957 26.514 17.3248 27.6475 17.3248 27.6475L17.3668 18.8475C17.3668 18.8475 18.61 16.9933 19.6898 18.8475L19.7085 24.4196C19.7085 24.4196 21.0519 22.591 22.6333 24.5478C22.6333 24.5478 23.8181 22.556 25.4857 24.6435C25.4857 24.6435 26.6659 22.3391 27.853 24.844V31.8365C27.853 31.8365 27.7854 32.3822 26.8221 32.998H18.47V33.0003Z" fill="#E3C07B"/>
</g>
<path d="M18.429 15.2656C16.4007 15.2656 14.7556 16.8111 14.7556 18.7167C14.7556 19.9952 15.5039 21.0996 16.6042 21.6958V20.6293C16.0357 20.1554 15.6708 19.4731 15.6708 18.703C15.6708 17.2798 16.8995 16.1237 18.4162 16.1237C19.9311 16.1237 21.1616 17.2798 21.1616 18.703C21.1616 19.4576 20.8114 20.1296 20.2612 20.6017V21.6941C21.3579 21.0962 22.1043 19.9952 22.1043 18.7185C22.1043 16.8111 20.4574 15.2656 18.429 15.2656Z" fill="#4A82D4" fill-opacity="0.5"/>
</g>
<defs>
<filter id="filter0_biii_2170_67423" x="11.7787" y="15.965" width="18.1328" height="19.0939" filterUnits="userSpaceOnUse" color-interpolation-filters="sRGB">
<feFlood flood-opacity="0" result="BackgroundImageFix"/>
<feGaussianBlur in="BackgroundImageFix" stdDeviation="1.02922"/>
<feComposite in2="SourceAlpha" operator="in" result="effect1_backgroundBlur_2170_67423"/>
<feBlend mode="normal" in="SourceGraphic" in2="effect1_backgroundBlur_2170_67423" result="shape"/>
<feColorMatrix in="SourceAlpha" type="matrix" values="0 0 0 0 0 0 0 0 0 0 0 0 0 0 0 0 0 0 127 0" result="hardAlpha"/>
<feOffset dx="-0.411689" dy="-0.411689"/>
<feGaussianBlur stdDeviation="0.308767"/>
<feComposite in2="hardAlpha" operator="arithmetic" k2="-1" k3="1"/>
<feColorMatrix type="matrix" values="0 0 0 0 0.243137 0 0 0 0 0.470588 0 0 0 0 0.815686 0 0 0 0.22 0"/>
<feBlend mode="normal" in2="shape" result="effect2_innerShadow_2170_67423"/>
<feColorMatrix in="SourceAlpha" type="matrix" values="0 0 0 0 0 0 0 0 0 0 0 0 0 0 0 0 0 0 127 0" result="hardAlpha"/>
<feOffset dx="0.205845" dy="0.205845"/>
<feGaussianBlur stdDeviation="0.205845"/>
<feComposite in2="hardAlpha" operator="arithmetic" k2="-1" k3="1"/>
<feColorMatrix type="matrix" values="0 0 0 0 1 0 0 0 0 1 0 0 0 0 1 0 0 0 0.25 0"/>
<feBlend mode="normal" in2="effect2_innerShadow_2170_67423" result="effect3_innerShadow_2170_67423"/>
<feColorMatrix in="SourceAlpha" type="matrix" values="0 0 0 0 0 0 0 0 0 0 0 0 0 0 0 0 0 0 127 0" result="hardAlpha"/>
<feOffset dx="-0.918589" dy="0.918589"/>
<feGaussianBlur stdDeviation="1.37788"/>
<feComposite in2="hardAlpha" operator="arithmetic" k2="-1" k3="1"/>
<feColorMatrix type="matrix" values="0 0 0 0 1 0 0 0 0 1 0 0 0 0 1 0 0 0 0.25 0"/>
<feBlend mode="normal" in2="effect3_innerShadow_2170_67423" result="effect4_innerShadow_2170_67423"/>
</filter>
<linearGradient id="paint0_linear_2170_67423" x1="30.1845" y1="39.2545" x2="-6.39704" y2="21.0624" gradientUnits="userSpaceOnUse">
<stop stop-color="#3E78D0"/>
<stop offset="1" stop-color="#5B92D9"/>
</linearGradient>
<clipPath id="clip0_2170_67423">
<rect width="26" height="26" fill="white" transform="translate(7 7)"/>
</clipPath>
</defs>
</svg>
