<svg width="261" height="117" viewBox="0 0 261 117" fill="none" xmlns="http://www.w3.org/2000/svg">
<mask id="mask0_2170_68818" style="mask-type:alpha" maskUnits="userSpaceOnUse" x="-1" y="-1" width="262" height="118">
<rect width="260" height="116" rx="4" fill="url(#paint0_linear_2170_68818)" stroke="black" stroke-opacity="0.06"/>
</mask>
<g mask="url(#mask0_2170_68818)">
<mask id="mask1_2170_68818" style="mask-type:alpha" maskUnits="userSpaceOnUse" x="30" y="17" width="288" height="137">
<path d="M30 62.4436L137.33 17L317.41 107.826L210.08 153.27L30 62.4436Z" fill="url(#paint1_linear_2170_68818)"/>
</mask>
<g mask="url(#mask1_2170_68818)">
<path d="M30 62.4436L137.33 17L317.41 107.826L210.08 153.27L30 62.4436Z" fill="#F0F0F0"/>
<path d="M78.4199 58.6444L124.93 38.957L133.93 43.4965L87.4199 63.1839L78.4199 58.6444Z" fill="#BEBEBE"/>
<path d="M83.8999 73.0287L155.46 42.7451L164.46 47.2846L92.9099 77.6289L83.8999 73.0287Z" fill="#BEBEBE"/>
<path d="M101.91 82.1167L173.47 51.7725L182.47 56.312L110.92 86.6562L101.91 82.1167Z" fill="#BEBEBE"/>
<path d="M119.92 91.1963L191.48 60.8521L200.48 65.3915L128.92 95.7358L119.92 91.1963Z" fill="#BEBEBE"/>
<path d="M146.93 104.815L182.71 89.6792L187.21 91.9489L151.43 107.085L146.93 104.815Z" fill="#BEBEBE"/>
<path d="M160.44 111.674L196.22 96.5259L200.72 98.7956L164.94 113.907L160.44 111.674Z" fill="#BEBEBE"/>
<path d="M173.94 118.449L209.72 103.301L214.22 105.571L178.45 120.718L173.94 118.449Z" fill="#BEBEBE"/>
</g>
<g filter="url(#filter0_f_2170_68818)">
<rect x="198.843" y="82" width="45.6247" height="5.05167" transform="rotate(21.3952 198.843 82)" fill="black" fill-opacity="0.3"/>
</g>
<path d="M190.045 49.9937L212.479 45.1274H212.653L190.219 49.9648H190.045" fill="#808080"/>
<path d="M190.219 49.9664L212.653 45.1001H212.943L190.509 49.9374H190.219" fill="#858585"/>
<path d="M190.509 49.939L212.943 45.0728H213.189L190.755 49.939H190.509Z" fill="#898989"/>
<path d="M190.755 49.939L213.189 45.0728H213.421L190.986 49.968H190.755" fill="#8E8E8E"/>
<path d="M190.986 49.9664L213.42 45.1001H213.652L191.203 50.0098H190.986" fill="#939393"/>
<path d="M191.204 50.0118L213.652 45.1455H213.855L191.363 50.0552H191.16" fill="#989898"/>
<path d="M191.363 50.0528L213.811 45.1865H213.956L191.566 50.0963H191.406" fill="#9C9C9C"/>
<path d="M191.566 50.1134L214 45.2471L223.399 48.4478L200.965 53.2996L191.566 50.1134Z" fill="#A7A7A7"/>
<path d="M205.687 67.3875L228.135 62.5356L228.078 70.4579L205.643 75.3241L205.687 67.3875Z" fill="#D0D0D0"/>
<path d="M206.179 66.5157L228.628 61.6494C228.513 61.6785 228.411 61.7447 228.338 61.8377L205.846 66.704C205.915 66.6156 206.012 66.5541 206.121 66.5302" fill="#7B7B7B"/>
<path d="M205.846 66.7063L228.28 61.8545L205.846 66.7063Z" fill="#808080"/>
<path d="M205.846 66.7083L228.295 61.8999L205.846 66.8096" fill="#858585"/>
<path d="M205.846 66.8028L228.28 61.9365L205.846 66.8463" fill="#898989"/>
<path d="M205.846 66.8474L228.28 61.9956L205.846 66.8909" fill="#8E8E8E"/>
<path d="M205.846 66.8933L228.28 62.0415L205.832 66.8933" fill="#939393"/>
<path d="M205.759 66.9387L228.208 62.0869L205.759 66.9387" fill="#989898"/>
<path d="M205.745 66.9753L228.194 62.1235L205.745 67.0188" fill="#9C9C9C"/>
<path d="M205.745 67.026L228.179 62.1597L205.73 67.0694" fill="#A1A1A1"/>
<path d="M205.73 67.0626L228.164 62.1963L205.716 67.0626" fill="#A6A6A6"/>
<path d="M205.716 67.108L228.164 62.2417L205.716 67.1514" fill="#ABABAB"/>
<path d="M205.716 67.1498L228.15 62.356L205.701 67.1933" fill="#AFAFAF"/>
<path d="M205.701 67.1933L228.15 62.356L205.701 67.2367" fill="#B4B4B4"/>
<path d="M205.701 67.2367L228.135 62.356L205.701 67.2802" fill="#B9B9B9"/>
<path d="M205.701 67.2802L228.135 62.356L205.687 67.2223" fill="#BEBEBE"/>
<path d="M205.687 67.3267L228.135 62.4604L205.687 67.3267Z" fill="#C2C2C2"/>
<path d="M205.687 67.3678L228.135 62.5015L205.687 67.3533" fill="#C7C7C7"/>
<path d="M206.179 66.5064L228.628 61.6401L206.223 66.4919" fill="#7A7A7A"/>
<path d="M206.223 66.4919L228.657 61.6401L206.266 66.4919" fill="#7F7F7F"/>
<path d="M206.266 66.4884L228.701 61.6221L206.31 66.4884" fill="#838383"/>
<path d="M206.31 66.4884L228.744 61.6221L206.353 66.4884" fill="#888888"/>
<path d="M206.353 66.4919L228.788 61.6401L206.339 66.5064" fill="#8C8C8C"/>
<path d="M206.382 66.5064L228.831 61.6401L206.425 66.5209" fill="#919191"/>
<path d="M206.425 66.5157L228.86 61.6494L206.411 66.5157" fill="#959595"/>
<path d="M211.639 75.1453L234.088 70.2935V70.3079L211.639 75.1598V75.1453Z" fill="#BEBEBE"/>
<path d="M211.639 75.1633L234.088 70.3115L211.639 75.2213" fill="#C2C2C2"/>
<path d="M211.639 75.2144L234.088 70.3481L211.639 75.2579" fill="#C7C7C7"/>
<path d="M211.639 75.2598L234.088 70.3936L211.639 75.3902" fill="#CBCBCB"/>
<path d="M211.639 75.3918L234.088 70.4531L211.639 75.3918Z" fill="#D0D0D0"/>
<path d="M211.639 75.3938L234.088 70.4985L211.639 75.3938Z" fill="#D4D4D4"/>
<path d="M211.639 75.3922L234.088 70.5259L211.639 75.4646" fill="#D9D9D9"/>
<path d="M211.639 75.4649L234.073 70.5986L211.639 75.5229" fill="#DDDDDD"/>
<path d="M211.639 75.5196L234.073 70.6533L211.639 75.5775" fill="#E2E2E2"/>
<path d="M211.639 75.5792L234.073 70.7129C234.073 70.7129 234.073 70.7129 234.073 70.7998L211.625 75.6661C211.625 75.6661 211.625 75.6661 211.625 75.5792" fill="#E5E5E5"/>
<path d="M211.711 75.67L234.16 70.8037C234.152 70.871 234.152 70.9391 234.16 71.0065L211.784 75.8728C211.753 75.8076 211.729 75.7397 211.711 75.67" fill="#E7E7E7"/>
<path d="M211.784 75.8683L234.218 71.0454V71.1323L211.827 75.9552V75.8683" fill="#E5E5E5"/>
<path d="M211.827 75.9552L234.261 71.0454L211.812 75.9117" fill="#E2E2E2"/>
<path d="M211.856 76.0299L234.305 71.1636V71.236L211.899 76.1023V76.0299" fill="#DDDDDD"/>
<path d="M211.9 76.0982L234.334 71.2319L211.929 76.1417" fill="#D9D9D9"/>
<path d="M211.929 76.1477L234.377 71.2959L211.929 76.1622" fill="#D4D4D4"/>
<path d="M211.958 76.1988L234.406 71.3325L212.001 76.2423" fill="#D0D0D0"/>
<path d="M212.001 76.2442L234.435 71.3779L211.987 76.2442" fill="#CBCBCB"/>
<path d="M212.03 76.2896L234.479 71.4233L212.03 76.2896" fill="#C7C7C7"/>
<path d="M212.059 76.3219L234.508 71.4556L212.059 76.3219Z" fill="#C2C2C2"/>
<path d="M212.088 76.3492L234.537 71.4829L212.088 76.3492" fill="#BEBEBE"/>
<path d="M212.117 76.3765L234.566 71.5103L212.146 76.4055" fill="#B9B9B9"/>
<path d="M212.146 76.4039L234.595 71.5376L212.189 76.4184" fill="#B5B5B5"/>
<path d="M212.189 76.4167L234.623 71.5649L212.218 76.4457" fill="#B0B0B0"/>
<path d="M212.218 76.4493L234.652 71.583L212.247 76.4638" fill="#ACACAC"/>
<path d="M212.247 76.463L234.681 71.5967L212.276 76.4775" fill="#A7A7A7"/>
<path d="M212.276 76.4802L234.71 71.6284L212.305 76.5092" fill="#A3A3A3"/>
<path d="M212.305 76.504L234.812 71.6377L212.363 76.504" fill="#9E9E9E"/>
<path d="M212.334 76.5221L234.812 71.6558L212.363 76.5221" fill="#9A9A9A"/>
<path d="M212.363 76.5212L234.812 71.6694L212.378 76.5357L212.363 76.5212Z" fill="#959595"/>
<path d="M211.654 72.8795L234.102 68.0132L234.088 70.287L211.639 75.1388L211.654 72.8795Z" fill="#C7C7C7"/>
<path d="M212.161 71.9693L234.595 67.103C234.484 67.133 234.387 67.1993 234.32 67.2913L211.871 72.1431C211.949 72.0584 212.049 71.998 212.161 71.9693" fill="#767676"/>
<path d="M211.871 72.1418L234.32 67.29L211.871 72.1563V72.0839" fill="#7A7A7A"/>
<path d="M211.827 72.2198L234.276 67.3535L211.827 72.2198" fill="#7F7F7F"/>
<path d="M211.799 72.2564L234.248 67.3901L211.799 72.242" fill="#838383"/>
<path d="M211.77 72.301L234.219 67.4492L211.755 72.359" fill="#888888"/>
<path d="M211.755 72.3614L234.189 67.4951L211.741 72.4049" fill="#8C8C8C"/>
<path d="M211.741 72.4068L234.175 67.5405L211.726 72.4937" fill="#919191"/>
<path d="M211.726 72.4889L234.161 67.6226L211.712 72.4889" fill="#959595"/>
<path d="M211.712 72.4889L234.146 67.6226L211.639 72.4889" fill="#9A9A9A"/>
<path d="M211.639 72.4889L234.088 67.6226L211.639 72.5758" fill="#9E9E9E"/>
<path d="M211.639 72.5802L234.088 67.7139L211.639 72.6236" fill="#A3A3A3"/>
<path d="M211.639 72.6212L234.074 67.7549L211.639 72.6646" fill="#A7A7A7"/>
<path d="M211.639 72.6666L234.088 67.8003L211.639 72.71" fill="#ACACAC"/>
<path d="M211.639 72.712L234.074 67.8457L211.639 72.7554" fill="#B0B0B0"/>
<path d="M211.639 72.7486L234.074 67.8823L211.639 72.7921" fill="#B5B5B5"/>
<path d="M211.639 72.794L234.088 67.9277L211.639 72.8375" fill="#B9B9B9"/>
<path d="M211.639 72.8394L234.088 67.9731L211.639 72.8829" fill="#BEBEBE"/>
<path d="M212.161 71.96L234.595 67.0938L212.146 71.96" fill="#808080"/>
<path d="M212.175 71.96L234.624 67.0938L212.233 71.9456" fill="#858585"/>
<path d="M212.233 71.942L234.667 67.0757L212.277 71.942" fill="#898989"/>
<path d="M212.277 71.9456L234.711 67.0938L212.262 71.96" fill="#8E8E8E"/>
<path d="M212.306 71.96L234.812 67.0938L212.349 71.96" fill="#939393"/>
<path d="M212.349 71.96L234.812 67.0938L212.363 71.96" fill="#989898"/>
<path d="M212.378 71.9693L234.812 67.103L212.407 71.9693" fill="#9C9C9C"/>
<path d="M212.928 74.3267L235.362 69.4604L212.928 74.3702" fill="#BEBEBE"/>
<path d="M212.928 74.3722L235.362 69.5059L212.914 74.3722" fill="#C2C2C2"/>
<path d="M212.914 74.4156L235.362 69.5928L212.914 74.4591" fill="#C7C7C7"/>
<path d="M212.913 74.4122L235.362 69.5894L212.913 74.4557" fill="#C7C7C7"/>
<path d="M212.913 74.4557L235.362 69.5894L212.913 74.5136" fill="#CCCCCC"/>
<path d="M212.913 74.5136L235.362 69.5894L212.928 74.557" fill="#D1D1D1"/>
<path d="M212.928 74.5557L235.362 69.6895L212.928 74.5992" fill="#D5D5D5"/>
<path d="M212.928 74.6008L235.362 69.749L212.928 74.6588" fill="#DADADA"/>
<path d="M212.928 74.6607L235.376 69.7944L212.942 74.7042" fill="#DFDFDF"/>
<path d="M212.942 74.7061L235.377 69.8398L212.942 74.7641" fill="#E4E4E4"/>
<path d="M212.942 74.7608L235.391 69.8945L212.957 74.8043" fill="#E8E8E8"/>
<path d="M212.957 74.801L235.391 69.9492L212.971 74.8734" fill="#EDEDED"/>
<path d="M212.971 74.8751L235.405 70.0088C235.405 70.0088 235.405 70.0088 235.405 70.0957L212.957 74.962C212.957 74.962 212.957 74.962 212.957 74.8751" fill="#EFEFEF"/>
<path d="M212.986 74.9659L235.435 70.0996C235.426 70.1669 235.426 70.235 235.435 70.3024L213.087 75.1687C213.087 75.1687 213.087 75.0383 213.015 74.9659" fill="#F0F0F0"/>
<path d="M213.087 75.1622L235.536 70.2959C235.53 70.3294 235.53 70.3638 235.536 70.3973L213.087 75.2636V75.1622Z" fill="#EFEFEF"/>
<path d="M213.087 75.2667L235.536 70.4004L213.087 75.3825" fill="#EDEDED"/>
<path d="M213.087 75.3853L235.522 70.519L213.174 75.3853" fill="#E8E8E8"/>
<path d="M213.174 75.3853L235.623 70.519L213.217 75.4578" fill="#E4E4E4"/>
<path d="M213.217 75.4581L235.652 70.5918L213.203 75.4581" fill="#DFDFDF"/>
<path d="M213.247 75.5128L235.695 70.6465L213.29 75.5562" fill="#DADADA"/>
<path d="M213.29 75.5582L235.724 70.6919L213.319 75.6016" fill="#D5D5D5"/>
<path d="M213.319 75.5992L235.753 70.7329L213.348 75.6282" fill="#D1D1D1"/>
<path d="M213.348 75.6265L235.782 70.7603L213.377 75.6555" fill="#CCCCCC"/>
<path d="M213.377 75.6539L235.826 70.7876L213.377 75.6539" fill="#C7C7C7"/>
<path d="M213.406 75.6905L235.854 70.8242L213.406 75.6905Z" fill="#C2C2C2"/>
<path d="M213.435 75.7179L235.883 70.8516L213.435 75.7034" fill="#BEBEBE"/>
<path d="M213.464 75.7307L235.912 70.8789L213.464 75.7452" fill="#B9B9B9"/>
<path d="M213.493 75.7589L235.941 70.8926L213.536 75.7734" fill="#B4B4B4"/>
<path d="M213.536 75.7725L235.97 70.9062L213.565 75.787" fill="#AFAFAF"/>
<path d="M213.565 75.7854L235.999 70.9336L213.594 75.8144" fill="#ABABAB"/>
<path d="M213.594 75.818L236.028 70.9517L213.623 75.8324" fill="#A6A6A6"/>
<path d="M213.623 75.8325L236.057 71.0386L213.609 75.8904" fill="#A1A1A1"/>
<path d="M213.652 75.8308L236.101 70.979L213.667 75.8453L213.652 75.8308Z" fill="#9C9C9C"/>
<path d="M213.421 73.5548L235.855 68.6885C235.746 68.7124 235.648 68.7739 235.58 68.8623L213.088 73.7286C213.161 73.6392 213.264 73.5779 213.377 73.5548" fill="#7B7B7B"/>
<path d="M213.088 73.7281L235.536 68.8618L213.088 73.786" fill="#808080"/>
<path d="M213.088 73.7872L235.536 68.9209L213.088 73.8451" fill="#858585"/>
<path d="M213.088 73.8419L235.522 68.9756L213.088 73.9288" fill="#898989"/>
<path d="M213.088 73.9332L235.536 69.0669L213.088 73.9332Z" fill="#8E8E8E"/>
<path d="M213.088 73.9332L235.522 69.0669L213.001 73.9332" fill="#939393"/>
<path d="M213.001 73.9332L235.435 69.0669L212.986 74.0201" fill="#989898"/>
<path d="M212.986 74.0196L235.42 69.1533L212.972 74.0631" fill="#9C9C9C"/>
<path d="M212.972 74.065L235.406 69.1987L212.957 74.065" fill="#A1A1A1"/>
<path d="M212.957 74.1016L235.406 69.2354L212.943 74.1451" fill="#A6A6A6"/>
<path d="M212.943 74.1471L235.391 69.2808L212.943 74.1905" fill="#ABABAB"/>
<path d="M212.943 74.193L235.377 69.3267L212.928 74.193" fill="#AFAFAF"/>
<path d="M212.928 74.234L235.377 69.3677L212.928 74.234Z" fill="#B4B4B4"/>
<path d="M212.928 74.2794L235.377 69.4131L212.928 74.3228" fill="#B9B9B9"/>
<path d="M212.928 74.3248L235.362 69.4585L212.928 74.3682" fill="#BEBEBE"/>
<path d="M213.42 73.5582L235.854 68.6919L213.449 73.5437" fill="#8A8A8A"/>
<path d="M213.449 73.5401L235.883 68.6738L213.435 73.5401" fill="#8F8F8F"/>
<path d="M213.493 73.5401L235.941 68.6738L213.493 73.5401Z" fill="#949494"/>
<path d="M213.536 73.5401L235.985 68.6738L213.58 73.5401" fill="#999999"/>
<path d="M213.58 73.5401L236.014 68.6738L213.565 73.5401" fill="#9E9E9E"/>
<path d="M213.608 73.5582L236.057 68.6919L213.652 73.5582" fill="#A3A3A3"/>
<path d="M213.652 73.553L236.086 68.7012L213.681 73.5675" fill="#A8A8A8"/>
<path d="M216.737 80.2646L239.157 75.3838L216.708 80.2501" fill="#BEBEBE"/>
<path d="M216.737 80.2935L239.157 75.3838L216.737 80.337" fill="#B9B9B9"/>
<path d="M216.737 80.3365L239.157 75.4702L216.737 80.38" fill="#B5B5B5"/>
<path d="M216.737 80.3824L239.157 75.5161L216.708 80.3824" fill="#B0B0B0"/>
<path d="M216.723 80.4234L239.157 75.5571L216.723 80.4669" fill="#ACACAC"/>
<path d="M216.723 80.4644L239.157 75.5981L216.723 80.5079" fill="#A7A7A7"/>
<path d="M216.722 80.5098L239.157 75.6436L216.708 80.5533" fill="#A3A3A3"/>
<path d="M216.708 80.5553L239.157 75.689L216.694 80.5987" fill="#9E9E9E"/>
<path d="M216.694 80.5963L239.157 75.73L216.694 80.6397" fill="#9A9A9A"/>
<path d="M216.693 80.6422L239.157 75.7759L216.679 80.6856" fill="#959595"/>
<path d="M216.679 80.6876L239.157 75.8213L216.665 80.731" fill="#919191"/>
<path d="M216.664 80.7242L239.157 75.8579L216.65 80.7677" fill="#8C8C8C"/>
<path d="M216.65 80.7696L239.157 75.9033L216.708 80.7696" fill="#888888"/>
<path d="M216.621 80.815L239.07 75.9487L216.621 80.815" fill="#838383"/>
<path d="M216.592 80.8746L239.041 76.0083L216.563 80.918" fill="#7F7F7F"/>
<path d="M216.563 80.92L239.012 76.0537L216.563 80.92Z" fill="#7A7A7A"/>
<path d="M216.52 80.9747L238.968 76.1084C238.897 76.2031 238.794 76.2698 238.679 76.2967L216.244 81.1775C216.355 81.1475 216.452 81.0812 216.52 80.9892" fill="#767676"/>
<path d="M216.752 79.1085L239.186 74.2422V75.4008L216.737 80.2671L216.752 79.1085Z" fill="#C7C7C7"/>
<path d="M216.751 78.0196L239.2 73.1533L239.186 74.2395L216.751 79.1058V78.0196Z" fill="#C7C7C7"/>
<path d="M212.378 76.5294L234.812 71.6631L239.2 73.1548L216.752 78.0211L212.378 76.5294Z" fill="#9F9F9F"/>
<path d="M218.026 78.4571L240.475 73.5908L240.46 74.677L218.026 79.5433V78.4571Z" fill="#D0D0D0"/>
<path d="M218.026 78.4571L240.475 73.5908L244.834 75.0681L222.386 79.9344L218.026 78.4571Z" fill="#9F9F9F"/>
<path d="M213.667 75.8507L236.101 70.9844L243.559 73.5189L221.125 78.3852L213.667 75.8507Z" fill="#A7A7A7"/>
<path d="M213.681 73.5767L236.115 68.7104L243.574 71.2595L221.14 76.1113L213.681 73.5767Z" fill="#B4B4B4"/>
<path d="M212.407 71.9771L234.841 67.1108L239.23 68.6026L216.781 73.4689L212.407 71.9771Z" fill="#A7A7A7"/>
<path d="M206.44 66.5181L228.888 61.6519L238.491 64.925L216.056 69.7913L206.44 66.5181Z" fill="#9F9F9F"/>
<path d="M216.795 71.1798L239.244 66.3135L239.229 68.6018L216.781 73.4681L216.795 71.1798Z" fill="#C7C7C7"/>
<path d="M216.056 69.7913C216.31 69.9311 216.516 70.1438 216.648 70.402C216.78 70.6602 216.831 70.952 216.795 71.2396V73.5279L212.45 72.0796C212.045 71.9493 211.711 72.3403 211.697 72.9775V75.2369C211.661 75.5245 211.712 75.8163 211.844 76.0745C211.976 76.3327 212.182 76.5454 212.436 76.6852L216.78 78.1335V80.3784C216.78 81.0011 216.433 81.3922 216.027 81.2618L206.411 77.9887C206.163 77.8419 205.962 77.6279 205.832 77.3715C205.701 77.1151 205.645 76.8269 205.672 76.5404V75.3817V67.445C205.672 66.8223 206.02 66.4312 206.425 66.5761L216.056 69.7913Z" fill="#444444"/>
<path d="M216.057 69.7901L238.491 64.9238L238.506 64.9383L216.071 69.7901H216.057Z" fill="#959595"/>
<path d="M216.071 69.7937L238.505 64.9419L216.1 69.8082" fill="#9A9A9A"/>
<path d="M216.1 69.8082L238.535 64.9419L216.129 69.8227" fill="#9E9E9E"/>
<path d="M216.129 69.8175L238.578 64.9512L216.129 69.803" fill="#A3A3A3"/>
<path d="M216.158 69.8303L238.607 64.9785L216.158 69.8448" fill="#A7A7A7"/>
<path d="M216.187 69.8629L238.636 64.9966L216.216 69.8774" fill="#ACACAC"/>
<path d="M216.216 69.8765L238.665 65.0103L216.26 69.9055" fill="#B0B0B0"/>
<path d="M216.259 69.9039L238.693 65.0376L216.288 69.9184" fill="#B5B5B5"/>
<path d="M216.288 69.922L238.723 65.0557L216.317 69.9509" fill="#B9B9B9"/>
<path d="M216.317 69.9493L238.752 65.083L216.346 69.9783" fill="#BEBEBE"/>
<path d="M216.346 69.9766L238.781 65.1104L216.375 70.0056" fill="#C2C2C2"/>
<path d="M216.376 70.004L238.81 65.1377L216.361 70.004" fill="#C7C7C7"/>
<path d="M216.404 70.051L238.853 65.2427L216.404 70.109" fill="#CBCBCB"/>
<path d="M216.433 70.08L238.882 65.2427L216.477 70.1235" fill="#D0D0D0"/>
<path d="M216.477 70.1235L238.911 65.2427L216.462 70.109" fill="#D4D4D4"/>
<path d="M216.506 70.1817L238.955 65.3154L216.55 70.2397" fill="#D9D9D9"/>
<path d="M216.55 70.2364L238.984 65.3701L216.535 70.2364" fill="#DDDDDD"/>
<path d="M216.578 70.3004L239.027 65.4341L216.622 70.3728" fill="#E2E2E2"/>
<path d="M216.622 70.3687L239.056 65.5024V65.6038L216.665 70.4701V70.3687" fill="#E5E5E5"/>
<path d="M216.665 70.4688L239.157 65.6025C239.163 65.6652 239.163 65.7282 239.157 65.7908L216.708 70.6571C216.715 70.5945 216.715 70.5314 216.708 70.4688" fill="#E7E7E7"/>
<path d="M216.723 70.6602L239.157 65.7939C239.157 65.7939 239.157 65.7939 239.157 65.8953L216.752 70.7471C216.752 70.7471 216.752 70.7471 216.752 70.6602" fill="#E5E5E5"/>
<path d="M216.752 70.7507L239.157 65.8989L216.766 70.8231V70.7507" fill="#E2E2E2"/>
<path d="M216.767 70.8199L239.157 65.9536L216.781 70.8634" fill="#DDDDDD"/>
<path d="M216.781 70.8601L239.157 66.0083L216.708 70.8746" fill="#D9D9D9"/>
<path d="M216.781 70.92L239.23 66.0537L216.781 71.0359" fill="#D4D4D4"/>
<path d="M216.781 71.0338L239.23 66.1675L216.795 71.0338" fill="#D0D0D0"/>
<path d="M216.796 71.0338L239.23 66.1675L216.796 71.0338Z" fill="#CBCBCB"/>
<path d="M216.795 71.0338L239.23 66.1675L216.781 71.0338" fill="#C7C7C7"/>
<path d="M216.796 71.107L239.244 66.2407L216.796 71.107" fill="#C2C2C2"/>
<path d="M216.796 71.1661L239.244 66.2998V66.3143L216.796 71.1806V71.1661Z" fill="#BEBEBE"/>
<path d="M218.084 71.6173L240.518 66.751L240.504 69.0393L218.055 73.9056L218.084 71.6173Z" fill="#D0D0D0"/>
<path d="M213.884 50.4117L236.261 45.5454L235.855 46.1102L213.479 50.9765L213.884 50.4117" fill="#808080"/>
<path d="M213.479 50.9766L235.913 46.1104L235.565 46.6897L213.088 51.556C213.19 51.3548 213.306 51.1612 213.435 50.9766" fill="#858585"/>
<path d="M213.088 51.5553L235.522 46.689C235.42 46.8628 235.334 47.0366 235.247 47.2248L212.856 52.0911C212.943 51.9029 213.03 51.7291 213.131 51.5553" fill="#898989"/>
<path d="M212.856 52.0933L235.29 47.2271C235.29 47.3864 235.131 47.5602 235.058 47.734L212.624 52.6003C212.693 52.4274 212.77 52.2582 212.856 52.0933" fill="#8E8E8E"/>
<path d="M212.624 52.5992L235.058 47.7329C235.058 47.8922 234.928 48.066 234.87 48.2398L212.421 53.0916C212.494 52.9323 212.552 52.7585 212.624 52.5992" fill="#939393"/>
<path d="M212.421 53.0901L234.812 48.2383L234.638 48.7452L212.248 53.6549L212.421 53.148" fill="#989898"/>
<path d="M212.248 53.6555L234.697 48.8037C234.633 48.9741 234.58 49.1482 234.537 49.3251L212.103 54.119C212.103 53.9452 212.204 53.7714 212.248 53.5976" fill="#9C9C9C"/>
<path d="M212.103 54.1223L234.537 49.314C234.537 49.4878 234.436 49.6616 234.392 49.8498L211.958 54.6727C211.958 54.4844 212.045 54.3106 212.103 54.1223Z" fill="#A1A1A1"/>
<path d="M211.958 54.6724L234.392 49.8062L234.262 50.3855L211.827 55.2518L211.958 54.6724" fill="#A6A6A6"/>
<path d="M211.828 55.2511L234.262 50.3848C234.262 50.5875 234.262 50.8048 234.146 51.0075L211.712 55.8738C211.712 55.6566 211.784 55.4538 211.828 55.2511Z" fill="#ABABAB"/>
<path d="M211.712 55.8707L234.146 51.0044C234.146 51.2216 234.146 51.4534 234.045 51.6851L211.639 56.5514C211.639 56.3197 211.712 56.0879 211.755 55.8707" fill="#AFAFAF"/>
<path d="M211.639 56.5499L234.088 51.6836C234.088 51.8429 234.088 52.0022 234.088 52.1615L211.639 57.0278C211.639 56.8685 211.639 56.7092 211.639 56.5499Z" fill="#B4B4B4"/>
<path d="M218.562 70.7252L241.011 65.8589C240.898 65.884 240.8 65.9514 240.736 66.0472L218.287 70.899C218.362 70.8182 218.457 70.7583 218.562 70.7252Z" fill="#7B7B7B"/>
<path d="M218.287 70.8977L240.736 66.0459L218.287 70.8977" fill="#808080"/>
<path d="M218.244 70.9612L240.692 66.1094L218.215 71.0481" fill="#858585"/>
<path d="M218.215 71.0413L240.606 66.146L218.186 71.0413" fill="#898989"/>
<path d="M218.186 71.0432L240.605 66.1914L218.171 71.0432" fill="#8E8E8E"/>
<path d="M218.171 71.0457L240.605 66.2373L218.157 71.147" fill="#939393"/>
<path d="M218.157 71.1446L240.605 66.2783L218.142 71.1881" fill="#989898"/>
<path d="M218.142 71.19L240.606 66.3237L218.128 71.2335" fill="#9C9C9C"/>
<path d="M218.128 71.2354L240.606 66.3691L218.157 71.2354" fill="#A1A1A1"/>
<path d="M218.113 71.2721L240.605 66.4058L218.113 71.3155" fill="#A6A6A6"/>
<path d="M218.113 71.3175L240.605 66.4512L218.099 71.3609" fill="#ABABAB"/>
<path d="M218.099 71.3634L240.605 66.4971L218.099 71.4068" fill="#AFAFAF"/>
<path d="M218.099 71.4044L240.605 66.5381L218.157 71.4044" fill="#B4B4B4"/>
<path d="M218.084 71.4498L240.605 66.5835L218.084 71.4932" fill="#B9B9B9"/>
<path d="M218.084 71.4911L240.518 66.6973L218.084 71.5346" fill="#BEBEBE"/>
<path d="M218.084 71.5346L240.518 66.6973L218.07 71.5636" fill="#C2C2C2"/>
<path d="M218.07 71.5925L240.518 66.6973L218.07 71.6215" fill="#C7C7C7"/>
<path d="M218.562 70.7252L241.01 65.8589L218.59 70.7252" fill="#7A7A7A"/>
<path d="M218.591 70.7252L241.039 65.8589L218.649 70.7107" fill="#7F7F7F"/>
<path d="M218.648 70.7107L241.083 65.8589L218.692 70.7107" fill="#838383"/>
<path d="M218.692 70.7107L241.126 65.8589L218.677 70.7252" fill="#888888"/>
<path d="M218.721 70.7252L241.17 65.8589L218.764 70.7252" fill="#8C8C8C"/>
<path d="M218.764 70.7252L241.198 65.8589L218.75 70.7252" fill="#919191"/>
<path d="M218.793 70.7432L241.242 65.877L218.88 70.7432" fill="#959595"/>
<path d="M221.126 78.3844L243.502 73.5181L221.053 78.3844" fill="#9C9C9C"/>
<path d="M221.14 78.4029L243.589 73.5366L221.184 78.4029" fill="#989898"/>
<path d="M221.184 78.4029L243.618 73.5366L221.169 78.4029" fill="#939393"/>
<path d="M221.213 78.4117L243.662 73.5454L221.256 78.4117" fill="#8E8E8E"/>
<path d="M221.256 78.4117L243.69 73.5454L221.299 78.4117" fill="#898989"/>
<path d="M221.3 78.4117L243.734 73.5454L221.343 78.4117" fill="#858585"/>
<path d="M221.343 78.4117L243.792 73.5454L221.343 78.3972" fill="#808080"/>
<path d="M221.14 76.1018L243.574 71.25H243.589L221.14 76.1163V76.1018Z" fill="#A8A8A8"/>
<path d="M221.14 76.1163L243.589 71.25L221.183 76.1163" fill="#ADADAD"/>
<path d="M221.183 76.1199L243.618 71.2681L221.212 76.1344" fill="#B3B3B3"/>
<path d="M221.212 76.1292L243.647 71.2773L221.241 76.1581" fill="#B8B8B8"/>
<path d="M221.241 76.1617L243.675 71.2954L221.27 76.1762" fill="#BDBDBD"/>
<path d="M221.27 76.171L243.705 71.3047L221.256 76.171" fill="#C2C2C2"/>
<path d="M221.299 76.189L243.748 71.3228L221.299 76.189Z" fill="#C7C7C7"/>
<path d="M221.328 76.2164L243.777 71.3501L221.328 76.2164" fill="#CCCCCC"/>
<path d="M221.357 76.2301L243.806 71.3638L221.357 76.2301Z" fill="#D1D1D1"/>
<path d="M221.386 76.2623L243.835 71.396L221.386 76.2623" fill="#D6D6D6"/>
<path d="M221.415 76.2896L243.864 71.4233L221.415 76.2896Z" fill="#DBDBDB"/>
<path d="M221.444 76.3214L243.893 71.4551L221.488 76.3503" fill="#E0E0E0"/>
<path d="M221.487 76.3523L243.922 71.5005L221.516 76.3957" fill="#E6E6E6"/>
<path d="M221.516 76.3941L243.951 71.5278L221.502 76.3941" fill="#EBEBEB"/>
<path d="M221.545 76.4351L243.994 71.5688L221.589 76.4931" fill="#F0F0F0"/>
<path d="M221.589 76.4947L244.023 71.6284L221.618 76.5382" fill="#F5F5F5"/>
<path d="M221.618 76.5393L244.052 71.6875L221.604 76.5538V76.4814" fill="#FAFAFA"/>
<path d="M221.647 76.6085L244.095 71.7422L221.69 76.6809" fill="white"/>
<path d="M221.69 76.6812L244.124 71.8149V71.9018L221.777 76.8261V76.7392" fill="white"/>
<path d="M221.777 76.8261L244.168 71.9019C244.174 71.9693 244.174 72.0372 244.168 72.1046L221.777 76.9709V76.8261Z" fill="white"/>
<path d="M221.777 76.9683L244.211 72.1021C244.211 72.1021 244.211 72.102 244.211 72.1889L221.777 77.0552C221.777 77.0552 221.777 77.0552 221.777 76.9683" fill="white"/>
<path d="M221.777 77.0548L244.226 72.1885L221.777 77.1127" fill="white"/>
<path d="M221.777 77.1187L244.211 72.2524L221.85 77.1767" fill="#FAFAFA"/>
<path d="M221.85 77.1734L244.284 72.3071L221.835 77.1734" fill="#F5F5F5"/>
<path d="M221.85 77.2325L244.298 72.3662L221.864 77.276" fill="#F0F0F0"/>
<path d="M221.864 77.2787L244.298 72.4849L221.864 77.3222" fill="#EBEBEB"/>
<path d="M221.864 77.3222L244.298 72.4849L221.85 77.3512" fill="#E6E6E6"/>
<path d="M221.864 77.3801L244.313 72.4849L221.864 77.3512" fill="#E0E0E0"/>
<path d="M221.864 77.4195L244.313 72.5532L221.864 77.4195" fill="#DBDBDB"/>
<path d="M221.864 77.4786L244.313 72.6123L221.864 77.4786" fill="#D6D6D6"/>
<path d="M221.864 77.5196L244.313 72.6533L221.864 77.5051" fill="#D1D1D1"/>
<path d="M221.864 77.5691L244.313 72.7173L221.864 77.627" fill="#CCCCCC"/>
<path d="M221.864 77.6202L244.298 72.7539L221.864 77.6637" fill="#C7C7C7"/>
<path d="M221.864 77.6656L244.298 72.7993L221.85 77.6656" fill="#C2C2C2"/>
<path d="M221.85 77.711L244.298 72.8447L221.85 77.7545" fill="#BDBDBD"/>
<path d="M221.85 77.752L244.284 72.8857L221.777 77.7955" fill="#B8B8B8"/>
<path d="M221.777 77.7979L244.226 72.9316L221.777 77.8414" fill="#B3B3B3"/>
<path d="M221.777 77.8433L244.211 72.9771L221.777 77.8868" fill="#ADADAD"/>
<path d="M221.777 77.88L244.211 73.0137L221.777 77.9234" fill="#A8A8A8"/>
<path d="M221.777 77.9254L244.24 73.0591L221.777 77.9688" fill="#A3A3A3"/>
<path d="M221.777 77.9708L244.226 73.1045L221.777 78.0142" fill="#9E9E9E"/>
<path d="M221.777 78.0118L244.211 73.1455L221.777 78.0552" fill="#999999"/>
<path d="M221.777 78.0577L244.226 73.1914L221.777 78.1011" fill="#949494"/>
<path d="M221.777 78.1031L244.211 73.2368L221.762 78.1031" fill="#8F8F8F"/>
<path d="M221.69 78.1578L244.139 73.2915L221.647 78.2737" fill="#8A8A8A"/>
<path d="M221.647 78.2716L244.095 73.4053C244.027 73.4973 243.93 73.5636 243.82 73.5936L221.371 78.4454C221.482 78.4253 221.581 78.363 221.647 78.2716" fill="#858585"/>
<path d="M223.226 79.0616L245.66 74.1953L223.226 79.0906" fill="#C7C7C7"/>
<path d="M223.226 79.089L245.587 74.2227L223.139 79.0745" fill="#C2C2C2"/>
<path d="M223.139 79.1335L245.587 74.2817L223.139 79.1335" fill="#BEBEBE"/>
<path d="M223.139 79.1794L245.587 74.3276L223.139 79.2374" fill="#B9B9B9"/>
<path d="M223.139 79.2349L245.573 74.3687L223.139 79.2784" fill="#B4B4B4"/>
<path d="M223.139 79.276L245.573 74.4097L223.125 79.2615" fill="#AFAFAF"/>
<path d="M223.125 79.3069L245.573 74.4551L223.125 79.3503" fill="#ABABAB"/>
<path d="M223.124 79.3523L245.559 74.5005L223.11 79.3957" fill="#A6A6A6"/>
<path d="M223.11 79.3941L245.544 74.5278L223.095 79.4376" fill="#A1A1A1"/>
<path d="M223.095 79.44L245.544 74.5737L223.081 79.4835" fill="#9C9C9C"/>
<path d="M223.081 79.481L245.529 74.6147L223.081 79.481Z" fill="#989898"/>
<path d="M223.066 79.5265L245.515 74.6602L223.066 79.5265Z" fill="#939393"/>
<path d="M223.052 79.5719L245.501 74.7056L223.037 79.6153" fill="#8E8E8E"/>
<path d="M223.037 79.6085L245.471 74.7422L223.008 79.7243" fill="#898989"/>
<path d="M223.008 79.7315L245.457 74.8652L222.979 79.7315" fill="#858585"/>
<path d="M222.979 79.7315L245.413 74.8652L222.936 79.7315" fill="#808080"/>
<path d="M222.936 79.7315L245.37 74.8652C245.302 74.9572 245.205 75.0236 245.095 75.0535L222.646 79.9488C222.704 79.9406 222.759 79.921 222.809 79.8912C222.858 79.8613 222.902 79.8218 222.936 79.775" fill="#7B7B7B"/>
<path d="M218.055 73.9093L240.504 69.043L244.863 70.5347L222.415 75.401L218.055 73.9093Z" fill="#A7A7A7"/>
<path d="M218.823 70.7371L241.271 65.8853L247.731 68.0722L225.282 72.9385L218.823 70.7371Z" fill="#9F9F9F"/>
<path d="M218.881 70.7348C218.475 70.6044 218.142 70.981 218.128 71.6182V73.9355L222.472 75.3838C222.729 75.5215 222.938 75.7334 223.073 75.9917C223.207 76.2501 223.26 76.543 223.226 76.8321V79.1059C223.226 79.7287 222.878 80.1198 222.458 79.9749L218.113 78.5266V79.6129L216.839 79.1784V78.0921L212.494 76.6438C212.24 76.504 212.034 76.2913 211.902 76.0331C211.77 75.7749 211.719 75.4831 211.755 75.1955V72.8783C211.755 72.241 212.103 71.85 212.508 71.9803L216.853 73.4286V71.1837C216.889 70.8961 216.838 70.6044 216.706 70.3462C216.574 70.088 216.368 69.8752 216.114 69.7354L206.498 66.4623C206.092 66.3174 205.745 66.7085 205.745 67.3313V75.2679L188.466 69.4892C187.972 69.1971 187.572 68.7684 187.315 68.2545C187.058 67.7407 186.955 67.1636 187.018 66.5926L187.09 55.3972C187.09 51.6317 189.118 49.2709 191.566 50.0965L200.965 53.2972C200.635 50.4116 199.838 47.5989 198.604 44.9695C196.933 41.3869 196.068 37.4812 196.07 33.5279C195.907 29.8344 197.033 26.199 199.256 23.2449C200.111 22.2088 201.271 21.468 202.571 21.1275C203.87 20.787 205.244 20.864 206.498 21.3477L206.845 21.4635C212.132 23.636 216.592 32.2099 216.607 40.2915C216.785 43.8768 215.821 47.4262 213.855 50.4296C212.487 52.382 211.676 54.67 211.509 57.0483L220.908 60.2491C223.356 61.0891 225.253 64.7967 225.253 68.5478V72.8927L218.881 70.7348ZM221.198 76.108L213.739 73.5734C213.319 73.4286 212.986 73.8196 212.972 74.4424C212.937 74.7316 212.99 75.0244 213.125 75.2828C213.259 75.5411 213.468 75.753 213.725 75.8907L221.183 78.4252C221.589 78.5701 221.922 78.1646 221.922 77.5418C221.959 77.2557 221.91 76.965 221.781 76.707C221.652 76.4489 221.449 76.2353 221.198 76.0935" fill="#848484"/>
<path d="M221.14 76.1076C221.391 76.2495 221.594 76.4631 221.723 76.7211C221.852 76.9792 221.901 77.2699 221.864 77.5559C221.864 78.1787 221.531 78.5842 221.125 78.4394L213.667 75.8469C213.41 75.7092 213.201 75.4974 213.067 75.239C212.932 74.9806 212.879 74.6878 212.914 74.3986C212.914 73.7759 213.261 73.3848 213.681 73.5297L221.14 76.1076Z" fill="#3C3C3C"/>
<path d="M222.386 79.9361L244.834 75.0698L222.386 79.9361Z" fill="#959595"/>
<path d="M222.415 79.9542L244.863 75.0879L222.458 79.9542" fill="#919191"/>
<path d="M222.458 79.949L244.95 75.0972L222.502 79.9635" fill="#8C8C8C"/>
<path d="M222.487 79.9635L244.95 75.0972L222.531 79.9635" fill="#888888"/>
<path d="M222.531 79.9635L244.95 75.0972L222.574 79.9635" fill="#838383"/>
<path d="M222.574 79.9635L244.95 75.0972L222.502 79.9635" fill="#7F7F7F"/>
<path d="M222.617 79.9635L245.066 75.0972L222.646 79.949" fill="#7A7A7A"/>
<path d="M223.168 76.7891L245.602 71.9229L245.587 74.1967L223.153 79.063L223.168 76.7891Z" fill="#D0D0D0"/>
<path d="M222.415 75.4093L244.863 70.543L222.429 75.4093H222.415Z" fill="#9C9C9C"/>
<path d="M222.429 75.3912L244.863 70.5249L222.458 75.3912" fill="#A1A1A1"/>
<path d="M222.458 75.3896L244.95 70.5522L222.487 75.3896" fill="#A6A6A6"/>
<path d="M222.487 75.3932L244.95 70.5703L222.531 75.3932" fill="#ABABAB"/>
<path d="M222.531 75.388L244.95 70.5796L222.559 75.4604" fill="#AFAFAF"/>
<path d="M222.56 75.464L244.95 70.5977L222.589 75.4784" fill="#B4B4B4"/>
<path d="M222.589 75.4768L245.023 70.625L222.618 75.5058" fill="#B9B9B9"/>
<path d="M222.617 75.505L245.051 70.6387L222.646 75.5339" fill="#BEBEBE"/>
<path d="M222.646 75.5372L245.08 70.6709L222.675 75.5517" fill="#C2C2C2"/>
<path d="M222.675 75.5501L245.109 70.6982L222.704 75.579" fill="#C7C7C7"/>
<path d="M222.704 75.5782L245.138 70.7119L222.69 75.5637" fill="#CCCCCC"/>
<path d="M222.733 75.6091L245.182 70.7573L222.733 75.6236" fill="#D1D1D1"/>
<path d="M222.762 75.651L245.211 70.7847L222.805 75.6944" fill="#D5D5D5"/>
<path d="M222.805 75.6964L245.24 70.8301L222.834 75.7398" fill="#DADADA"/>
<path d="M222.835 75.7374L245.269 70.8711L222.82 75.7374" fill="#DFDFDF"/>
<path d="M222.864 75.7833L245.312 70.917L222.907 75.8412" fill="#E4E4E4"/>
<path d="M222.907 75.8383L245.341 71.0444L222.936 75.9107" fill="#E8E8E8"/>
<path d="M222.936 75.9107L245.385 71.0444L222.936 75.9107" fill="#EDEDED"/>
<path d="M222.979 75.9835L245.428 71.1172C245.437 71.1504 245.437 71.1853 245.428 71.2186L223.023 76.0704V75.9835" fill="#EFEFEF"/>
<path d="M223.022 76.074L245.457 71.2222C245.465 71.2895 245.465 71.3576 245.457 71.4249L223.095 76.2767C223.095 76.2767 223.095 76.1464 223.022 76.074Z" fill="#F0F0F0"/>
<path d="M223.095 76.2742L245.529 71.4224C245.529 71.4224 245.529 71.4224 245.529 71.5093L223.081 76.3611C223.081 76.3611 223.081 76.3611 223.081 76.2742" fill="#EFEFEF"/>
<path d="M223.11 76.3611L245.558 71.5093L223.11 76.3756" fill="#EDEDED"/>
<path d="M223.124 76.4303L245.573 71.564L223.139 76.4882" fill="#E8E8E8"/>
<path d="M223.139 76.4937L245.573 71.6274L223.226 76.5372" fill="#E4E4E4"/>
<path d="M223.226 76.5348L245.66 71.6685L223.226 76.5927" fill="#DFDFDF"/>
<path d="M223.226 76.5894L245.66 71.7231L223.226 76.6329" fill="#DADADA"/>
<path d="M223.226 76.6353L245.674 71.769L223.226 76.6788" fill="#D5D5D5"/>
<path d="M223.226 76.6799L245.674 71.8281L223.226 76.7379" fill="#D1D1D1"/>
<path d="M223.226 76.7354L245.66 71.8691L223.226 76.8368" fill="#CCCCCC"/>
<path d="M223.167 76.7808L245.602 71.9146V71.929L223.167 76.7953V76.7808Z" fill="#C7C7C7"/>
<path d="M211.538 57.0308L233.986 52.1646L243.386 55.3653L220.937 60.2316L211.538 57.0308Z" fill="#A7A7A7"/>
<path d="M202.819 20.9966L225.268 16.1448C225.4 16.0879 225.535 16.0395 225.674 16L203.239 20.9242L202.819 20.9966" fill="#808080"/>
<path d="M203.24 20.9242L225.674 16H226.354L203.906 20.8663H203.24" fill="#858585"/>
<path d="M203.906 20.8663L226.354 16H226.962L204.528 20.8808H203.906" fill="#898989"/>
<path d="M204.528 20.8808L226.962 16H227.527L205.078 20.9387C204.895 20.9252 204.711 20.9252 204.528 20.9387" fill="#8E8E8E"/>
<path d="M205.079 20.939L227.571 16.0728L228.107 16.1741L205.629 21.0259C205.441 21.0259 205.267 20.9535 205.079 20.939" fill="#939393"/>
<path d="M205.629 21.0252L228.063 16.1733C228.24 16.2031 228.414 16.2467 228.584 16.3037L206.15 21.17L205.629 21.0252" fill="#989898"/>
<path d="M206.15 21.1715L228.585 16.3052L229.019 16.421H229.149L206.657 21.3308H206.527L206.15 21.2149" fill="#9C9C9C"/>
<path d="M206.657 21.3311L229.106 16.4648L229.309 16.5517H229.511L207.063 21.4905L206.874 21.4036H206.657" fill="#A1A1A1"/>
<path d="M207.063 21.4908L229.512 16.6245L229.845 16.7838L207.411 21.6501L207.063 21.4908Z" fill="#A6A6A6"/>
<path d="M207.41 21.6456L229.845 16.7793L230.192 16.9676L207.758 21.7904L207.41 21.6021" fill="#ABABAB"/>
<path d="M207.758 21.7979L230.192 16.9751L230.583 17.2068L208.149 22.0731L207.758 21.7979Z" fill="#AFAFAF"/>
<path d="M208.149 22.0645L230.583 17.1982L230.974 17.4445L208.54 22.3107L208.149 22.0645Z" fill="#B4B4B4"/>
<path d="M208.54 22.3155L230.974 17.4492L231.38 17.7389L208.931 22.6052L208.54 22.3155" fill="#B9B9B9"/>
<path d="M208.931 22.6026L231.38 17.7363L231.771 18.055L209.337 22.9068L208.931 22.6026Z" fill="#BEBEBE"/>
<path d="M209.337 22.9114L231.771 18.0596C231.916 18.1633 232.052 18.2796 232.176 18.4072L209.742 23.2445L209.337 22.8969" fill="#C2C2C2"/>
<path d="M209.742 23.2436L232.176 18.4062C232.327 18.525 232.467 18.6558 232.596 18.7973L210.191 23.6491L209.742 23.2436Z" fill="#C7C7C7"/>
<path d="M210.191 23.6453L232.597 18.7935C232.744 18.9262 232.884 19.0664 233.017 19.2135L210.582 24.0798L210.191 23.6453Z" fill="#CCCCCC"/>
<path d="M210.583 24.0787L233.017 19.2124C233.176 19.3717 233.321 19.5455 233.466 19.7048L211.031 24.5711C210.887 24.3973 210.727 24.238 210.583 24.0787Z" fill="#D1D1D1"/>
<path d="M211.031 24.5709L233.465 19.7046C233.625 19.8929 233.784 20.0667 233.929 20.2694L211.494 25.1212L211.031 24.5709Z" fill="#D5D5D5"/>
<path d="M211.495 25.1222L233.929 20.3428C234.101 20.5405 234.26 20.7485 234.407 20.9655L211.973 25.7594L211.495 25.1222Z" fill="#DADADA"/>
<path d="M211.973 25.7603L234.407 20.894L234.928 21.6182L212.48 26.4845C212.32 26.2383 212.146 25.9921 211.973 25.7603" fill="#DFDFDF"/>
<path d="M212.479 26.4849L234.928 21.6187L235.449 22.4442L213.001 27.3105C212.836 27.0401 212.663 26.765 212.479 26.4849" fill="#E4E4E4"/>
<path d="M213.001 27.3097L235.45 22.4434C235.638 22.7475 235.812 23.0661 235.986 23.3848L213.537 28.251C213.363 27.9324 213.189 27.6138 213.001 27.3097" fill="#E8E8E8"/>
<path d="M213.537 28.253L235.985 23.3867C236.174 23.7343 236.347 24.0819 236.521 24.4585L214.087 29.3103C213.913 28.9482 213.725 28.6006 213.537 28.253" fill="#EDEDED"/>
<path d="M214.087 29.3093L236.521 24.4575C236.739 24.892 236.941 25.3555 237.13 25.8189L214.695 30.6852L214.087 29.2369" fill="#EFEFEF"/>
<path d="M214.695 30.6861L237.13 25.8198C237.511 26.7664 237.84 27.7334 238.114 28.7164L215.666 33.5827C215.392 32.6013 215.068 31.6346 214.695 30.6861" fill="#F0F0F0"/>
<path d="M215.666 33.5387L238.115 28.6724C238.231 29.0779 238.332 29.4979 238.433 29.9179L215.985 34.8276C215.883 34.4221 215.782 34.0021 215.666 33.5966" fill="#EFEFEF"/>
<path d="M215.985 34.8262L238.433 29.9165C238.433 30.2062 238.564 30.4958 238.607 30.8L216.173 35.6518C216.173 35.3621 216.057 35.0725 215.985 34.7683" fill="#EDEDED"/>
<path d="M216.173 35.6526L238.607 30.8008C238.607 31.0325 238.708 31.2932 238.752 31.5394L216.303 36.3912L216.173 35.6526Z" fill="#E8E8E8"/>
<path d="M216.303 36.3904L238.752 31.5386C238.752 31.7558 238.824 31.9875 238.853 32.2193L216.404 37.0856C216.404 36.8538 216.404 36.6221 216.303 36.3904Z" fill="#E4E4E4"/>
<path d="M216.404 37.0841L238.853 32.2178L238.94 32.884L216.491 37.7213C216.491 37.5041 216.491 37.2723 216.404 37.0551" fill="#DFDFDF"/>
<path d="M216.491 37.7266L238.94 32.8604C238.94 33.0776 238.94 33.2948 238.94 33.5121L216.564 38.4073C216.564 38.1901 216.564 37.9729 216.564 37.7556" fill="#DADADA"/>
<path d="M216.564 38.4054L238.998 33.5391V34.1763L216.607 39.0426V38.4054" fill="#D5D5D5"/>
<path d="M216.607 39.0435L239.041 34.1772C239.041 34.3945 239.041 34.5973 239.041 34.8L216.636 39.6663C216.636 39.4635 216.636 39.2463 216.636 39.0435" fill="#D1D1D1"/>
<path d="M216.636 39.6659L239.07 34.8286C239.07 35.0459 239.07 35.2486 239.07 35.4659L216.622 40.3322V39.7094" fill="#CCCCCC"/>
<path d="M216.636 40.3057L239.157 35.4395C239.157 35.7291 239.157 36.0333 239.157 36.3229L216.636 41.1892C216.636 40.8995 216.636 40.5954 216.636 40.3057Z" fill="#C7C7C7"/>
<path d="M216.636 41.1876L239.07 36.2778C239.07 36.4806 239.07 36.6978 239.07 36.9006L216.622 41.7669C216.622 41.5641 216.622 41.3469 216.622 41.1441" fill="#C2C2C2"/>
<path d="M216.607 41.8097L239.056 36.9434V37.5516L216.564 42.4179V41.8097" fill="#BEBEBE"/>
<path d="M216.564 42.4156L239.012 37.5493C239.012 37.7521 239.012 37.9548 239.012 38.1576L216.564 43.0239C216.564 42.8211 216.564 42.6184 216.564 42.4156Z" fill="#B9B9B9"/>
<path d="M216.506 43.026L238.955 38.1597C238.955 38.3624 238.955 38.5507 238.955 38.7535L216.506 43.6198C216.506 43.417 216.506 43.2142 216.578 43.026" fill="#B4B4B4"/>
<path d="M216.434 43.6187L238.882 38.7524C238.882 38.9407 238.882 39.1435 238.781 39.3318L216.347 44.1981L216.434 43.6187Z" fill="#AFAFAF"/>
<path d="M216.347 44.1973L238.781 39.3311C238.781 39.5338 238.708 39.7366 238.679 39.9249L216.231 44.7911C216.231 44.6029 216.231 44.4001 216.347 44.1973Z" fill="#ABABAB"/>
<path d="M216.231 44.7896L238.679 39.9233C238.679 40.1261 238.592 40.3144 238.535 40.5171L216.1 45.3834L216.231 44.7896" fill="#A6A6A6"/>
<path d="M216.1 45.3868L238.535 40.5205C238.535 40.7233 238.448 40.9115 238.39 41.1143L215.985 45.9806C215.985 45.7778 216.1 45.5896 216.144 45.3868" fill="#A1A1A1"/>
<path d="M215.984 45.9791L238.433 41.1128C238.433 41.3156 238.317 41.5183 238.245 41.7211L215.767 46.5874L215.984 45.9791Z" fill="#9C9C9C"/>
<path d="M215.767 46.5894L238.201 41.7231C238.201 41.9259 238.071 42.1432 237.999 42.3459L215.55 47.1977L215.767 46.5894" fill="#989898"/>
<path d="M215.55 47.1995L237.999 42.3477L237.738 42.9849L215.304 47.8657C215.391 47.6484 215.478 47.4312 215.55 47.2139" fill="#939393"/>
<path d="M215.304 47.8617L237.709 42.981C237.622 43.2127 237.521 43.4299 237.419 43.6472L214.97 48.5135L215.275 47.8473" fill="#8E8E8E"/>
<path d="M215 48.5128L237.448 43.6465L237.072 44.3562L214.637 49.2224C214.753 48.9907 214.884 48.759 215 48.5128" fill="#898989"/>
<path d="M214.638 49.2237L237.072 44.3574C236.926 44.6311 236.767 44.8969 236.594 45.154L214.16 50.0203L214.638 49.2237" fill="#858585"/>
<path d="M214.159 50.0211L236.594 45.1548L236.261 45.5458L213.884 50.4121L214.159 50.0211" fill="#808080"/>
<path d="M225.311 68.5323L247.76 63.666L247.731 68.0689L225.282 72.9351L225.311 68.5323Z" fill="#D0D0D0"/>
<path d="M229.12 84.4737L251.555 79.6074L229.12 84.5027" fill="#BEBEBE"/>
<path d="M229.12 84.5011L251.555 79.6348L229.12 84.5445" fill="#B9B9B9"/>
<path d="M229.121 84.544L251.555 79.7212L229.106 84.5875" fill="#B5B5B5"/>
<path d="M229.106 84.602L251.555 79.7212L229.106 84.6454" fill="#B0B0B0"/>
<path d="M229.106 84.6454L251.555 79.7212L229.106 84.6889" fill="#ACACAC"/>
<path d="M229.106 84.6881L251.54 79.8218L229.092 84.6881" fill="#A7A7A7"/>
<path d="M229.092 84.7335L251.54 79.8672L229.092 84.7769" fill="#A3A3A3"/>
<path d="M229.091 84.7789L251.526 79.9126L229.019 84.8223" fill="#9E9E9E"/>
<path d="M229.019 84.8199L251.453 79.9536L229.019 84.8634" fill="#9A9A9A"/>
<path d="M229.019 84.8658L251.468 79.9995L229.019 84.9093" fill="#959595"/>
<path d="M229.019 84.9112L251.468 80.0449L229.019 84.9547" fill="#919191"/>
<path d="M229.019 84.9478L251.468 80.0815L229.019 84.9913" fill="#8C8C8C"/>
<path d="M229.019 84.9932L251.468 80.127L229.019 85.0367" fill="#888888"/>
<path d="M229.019 85.0387L251.453 80.1724L229.019 85.0821" fill="#838383"/>
<path d="M229.019 85.0846L251.453 80.2183L229.019 85.1425" fill="#7F7F7F"/>
<path d="M229.019 85.1436L251.453 80.2773L228.903 85.2016" fill="#7A7A7A"/>
<path d="M228.903 85.1983L251.337 80.332C251.269 80.424 251.172 80.4904 251.062 80.5203L228.628 85.3721C228.736 85.345 228.832 85.2841 228.903 85.1983" fill="#767676"/>
<path d="M220.937 60.2374L243.386 55.3711L220.995 60.2519" fill="#9C9C9C"/>
<path d="M220.995 60.2502L243.502 55.3984L243.69 55.4709L221.184 60.3371L220.995 60.2502Z" fill="#A1A1A1"/>
<path d="M221.183 60.3375L243.618 55.4712L243.806 55.5581L221.372 60.4099L221.183 60.3375Z" fill="#A6A6A6"/>
<path d="M221.372 60.4099L243.806 55.5581L243.994 55.645L221.56 60.5113L221.372 60.4099" fill="#ABABAB"/>
<path d="M221.56 60.5152L243.994 55.6489L244.168 55.7503L221.777 60.6166L221.603 60.5152" fill="#AFAFAF"/>
<path d="M221.777 60.6158L244.212 55.7495L244.385 55.8654L221.908 60.7317L221.777 60.6158Z" fill="#B4B4B4"/>
<path d="M221.907 60.7296L244.342 55.8633L244.53 55.9936L222.081 60.9034L221.907 60.773" fill="#B9B9B9"/>
<path d="M222.082 60.9073L244.53 56.041L244.704 56.1714L222.255 61.0377L222.082 60.9073Z" fill="#BEBEBE"/>
<path d="M222.255 60.9893L244.704 56.123L244.878 56.2824L222.429 61.1487L222.255 60.9893" fill="#C2C2C2"/>
<path d="M222.429 61.1485L244.95 56.2822L245.124 56.4415L222.617 61.3078C222.561 61.2472 222.498 61.1936 222.429 61.1485" fill="#C7C7C7"/>
<path d="M222.617 61.3082L245.051 56.4419L245.239 56.6302L222.791 61.4965L222.617 61.3082Z" fill="#CCCCCC"/>
<path d="M222.791 61.4996L245.24 56.6333L245.413 56.8361L222.979 61.7024C222.924 61.628 222.861 61.56 222.791 61.4996Z" fill="#D1D1D1"/>
<path d="M222.979 61.7047L245.413 56.8384L245.616 57.0701L223.225 61.9364C223.167 61.8557 223.104 61.7783 223.037 61.7047" fill="#D5D5D5"/>
<path d="M223.226 61.9327L245.674 57.0664L245.877 57.3271L223.37 62.1934L223.226 61.9327Z" fill="#DADADA"/>
<path d="M223.37 62.1969L245.819 57.3306L246.022 57.6347L223.588 62.501L223.37 62.1969Z" fill="#DFDFDF"/>
<path d="M223.588 62.4932L246.022 57.627L246.239 57.9601L223.79 62.8264C223.718 62.7105 223.66 62.5946 223.588 62.4932" fill="#E4E4E4"/>
<path d="M223.79 62.8321L246.239 58.0093L246.456 58.3858L224.008 63.2521L223.79 62.8756" fill="#E8E8E8"/>
<path d="M224.008 63.2086L246.399 58.3423L246.616 58.7768L224.167 63.6431C224.167 63.4982 224.022 63.3534 223.95 63.2086" fill="#EDEDED"/>
<path d="M224.225 63.6412L246.674 58.7749C246.761 58.9632 246.848 59.1515 246.92 59.3397L224.486 64.206L224.225 63.6412Z" fill="#EFEFEF"/>
<path d="M224.486 64.2017L246.92 59.3354C247.079 59.7228 247.214 60.1194 247.325 60.5231L224.891 65.3893C224.775 64.9838 224.63 64.5783 224.486 64.2017" fill="#F0F0F0"/>
<path d="M224.891 65.3912L247.325 60.5249C247.325 60.6987 247.427 60.887 247.47 61.0608L225.021 65.9271L224.891 65.3912" fill="#EFEFEF"/>
<path d="M225.021 65.9288L247.47 61.0625C247.477 61.1928 247.477 61.3233 247.47 61.4535L225.108 66.3198L225.021 65.9288" fill="#EDEDED"/>
<path d="M225.108 66.3209L247.542 61.4546C247.551 61.5606 247.551 61.6672 247.542 61.7732L225.166 66.6974C225.166 66.5961 225.166 66.4947 225.166 66.3933" fill="#E8E8E8"/>
<path d="M225.166 66.6977L247.601 61.7734C247.601 61.8748 247.601 61.9762 247.601 62.0776L225.152 66.9439V66.6252" fill="#E4E4E4"/>
<path d="M225.209 66.9405L247.658 62.0742C247.651 62.1755 247.651 62.2771 247.658 62.3784L225.253 67.2447V66.9405" fill="#DFDFDF"/>
<path d="M225.253 67.2473L247.687 62.3521C247.694 62.4485 247.694 62.5453 247.687 62.6417L225.282 67.537C225.275 67.4406 225.275 67.3437 225.282 67.2473" fill="#DADADA"/>
<path d="M225.282 67.5372L247.716 62.6709C247.716 62.7723 247.716 62.8737 247.716 62.975L225.268 67.8413C225.268 67.74 225.268 67.6386 225.268 67.5372" fill="#D5D5D5"/>
<path d="M225.297 67.8429L247.745 62.9766V63.2807L225.311 68.147C225.318 68.0506 225.318 67.9538 225.311 67.8573" fill="#D1D1D1"/>
<path d="M225.311 68.1428L247.745 63.291C247.753 63.3874 247.753 63.4843 247.745 63.5807L225.311 68.4325V68.1428Z" fill="#CCCCCC"/>
<path d="M225.311 68.4351L247.76 63.5688V63.6702L225.311 68.5365V68.4351" fill="#C7C7C7"/>
<path d="M225.282 72.9342L247.731 68.0679L250.888 69.1541L228.439 74.0204L225.282 72.9342Z" fill="#9F9F9F"/>
<path d="M229.178 75.3946L251.612 70.5283L251.554 79.6092L229.12 84.4755L229.178 75.3946Z" fill="#C7C7C7"/>
<path d="M228.44 74.0243C228.681 74.1591 228.879 74.3603 229.01 74.6041C229.141 74.848 229.199 75.1242 229.178 75.4002V84.481C229.178 85.1038 228.845 85.5093 228.425 85.3645L218.808 82.0913C218.555 81.9515 218.348 81.7388 218.217 81.4806C218.085 81.2224 218.034 80.9306 218.07 80.643V78.4561L222.415 79.9044C222.835 80.0492 223.168 79.6582 223.182 79.0354V76.834C223.217 76.5448 223.164 76.252 223.029 75.9936C222.895 75.7352 222.686 75.5234 222.429 75.3857L218.084 73.9374V71.6201C218.084 70.9828 218.432 70.6063 218.837 70.7366L225.297 72.938L228.44 74.0243Z" fill="#444444"/>
<path d="M228.44 74.0196L250.888 69.1533L228.454 74.0196H228.44Z" fill="#959595"/>
<path d="M228.454 74.0196L250.888 69.1533L228.44 74.0196" fill="#9A9A9A"/>
<path d="M228.483 74.0377L250.932 69.1714L228.483 74.0377" fill="#9E9E9E"/>
<path d="M228.512 74.047L250.961 69.1807L228.512 74.047Z" fill="#A3A3A3"/>
<path d="M228.541 74.065L250.99 69.1987L228.584 74.0795" fill="#A7A7A7"/>
<path d="M228.585 74.0743L251.019 69.208L228.614 74.0888" fill="#ACACAC"/>
<path d="M228.614 74.0916L251.048 69.2397L228.643 74.1205" fill="#B0B0B0"/>
<path d="M228.642 74.1197L251.076 69.2534L228.671 74.1342" fill="#B5B5B5"/>
<path d="M228.671 74.1375L251.105 69.2856L228.7 74.1664" fill="#B9B9B9"/>
<path d="M228.7 74.1656L251.134 69.2993L228.729 74.1946" fill="#BEBEBE"/>
<path d="M228.729 74.193L251.163 69.3267L228.758 74.2219" fill="#C2C2C2"/>
<path d="M228.758 74.2247L251.192 69.3584L228.744 74.2247" fill="#C7C7C7"/>
<path d="M228.787 74.2701L251.236 69.4038L228.787 74.2556" fill="#CBCBCB"/>
<path d="M228.816 74.2922L251.265 69.4404L228.86 74.3357" fill="#D0D0D0"/>
<path d="M228.86 74.3376L251.294 69.4858L228.845 74.3521" fill="#D4D4D4"/>
<path d="M228.889 74.3992L251.338 69.5908L228.932 74.4571" fill="#D9D9D9"/>
<path d="M228.932 74.4571L251.366 69.5908L229.019 74.515" fill="#DDDDDD"/>
<path d="M229.019 74.515L251.395 69.5908V69.6632L229.019 74.5875V74.515" fill="#E2E2E2"/>
<path d="M229.019 74.5846L251.453 69.7183V69.8196L229.019 74.6715C229.019 74.6715 229.019 74.6715 229.019 74.5846" fill="#E5E5E5"/>
<path d="M229.019 74.6707L251.467 69.8188C251.467 69.8188 251.467 69.9347 251.54 70.0071L229.091 74.8734C229.097 74.806 229.097 74.7381 229.091 74.6707" fill="#E7E7E7"/>
<path d="M229.106 74.8717L251.555 70.0054C251.555 70.0054 251.555 70.0054 251.555 70.0923L229.135 74.9586C229.135 74.9586 229.135 74.9586 229.135 74.8717" fill="#E5E5E5"/>
<path d="M229.135 74.9581L251.569 70.0918L229.149 75.016" fill="#E2E2E2"/>
<path d="M229.149 75.0168L251.584 70.165L229.135 75.0313" fill="#DDDDDD"/>
<path d="M229.149 75.0767L251.598 70.2104L229.164 75.1347" fill="#D9D9D9"/>
<path d="M229.164 75.1358L251.598 70.2695L229.164 75.1793" fill="#D4D4D4"/>
<path d="M229.164 75.1768L251.612 70.3105L229.178 75.2348" fill="#D0D0D0"/>
<path d="M229.178 75.2364L251.612 70.3701L229.178 75.2799" fill="#CBCBCB"/>
<path d="M229.178 75.2818L251.612 70.4155L229.178 75.3832" fill="#C7C7C7"/>
<path d="M229.178 75.38L251.612 70.4702L229.178 75.38Z" fill="#C2C2C2"/>
<path d="M229.178 75.3819L251.612 70.5156V70.5301L229.178 75.3964V75.3819Z" fill="#BEBEBE"/>
<g style="mix-blend-mode:screen">
<path d="M190.045 49.9922L212.479 45.1259H212.653L190.219 49.9632H190.045" fill="#8D8D8D"/>
<path d="M190.219 49.9632L212.653 45.0976H212.943L190.508 49.9349H190.219" fill="#8D8D8D"/>
<path d="M190.508 49.9349L212.943 45.0693H213.189L190.755 49.9356L190.508 49.9349Z" fill="#8D8D8D"/>
<path d="M190.755 49.9356L213.189 45.0693H213.42L190.986 49.9646H190.754" fill="#8D8D8D"/>
<path d="M190.986 49.9646L213.42 45.0976H213.652L191.203 50.0073H190.986" fill="#8D8D8D"/>
<path d="M191.203 50.0091L213.652 45.1428H213.855L191.363 50.0526H191.16" fill="#8D8D8D"/>
<path d="M191.363 50.0487L213.811 45.1824H213.956L191.565 50.0922H191.406" fill="#8D8D8D"/>
<path d="M191.566 50.1137L214 45.2474L223.399 48.4482L200.965 53.3L191.566 50.1137Z" fill="#8D8D8D"/>
<path d="M205.687 67.3884L228.135 62.5365L228.078 70.4588L205.643 75.325L205.687 67.3884Z" fill="#8D8D8D"/>
<path d="M206.179 66.5121L228.628 61.6458C228.513 61.6749 228.411 61.7411 228.338 61.8341L205.846 66.7004C205.914 66.612 206.012 66.5505 206.121 66.5266" fill="#8D8D8D"/>
<path d="M205.846 66.7031L228.294 61.8947L205.846 66.8045" fill="#8D8D8D"/>
<path d="M205.846 66.8006L228.28 61.9343L205.846 66.8441" fill="#8D8D8D"/>
<path d="M205.846 66.8427L228.28 61.9909L205.846 66.8862" fill="#8D8D8D"/>
<path d="M205.846 66.888L228.28 62.0362L205.831 66.888" fill="#8D8D8D"/>
<path d="M205.744 66.9728L228.193 62.121L205.744 67.0163" fill="#8D8D8D"/>
<path d="M205.744 67.0213L228.179 62.155L205.73 67.0647" fill="#8D8D8D"/>
<path d="M205.73 67.0609L228.164 62.1946L205.715 67.0609" fill="#8D8D8D"/>
<path d="M205.715 67.1061L228.164 62.2398L205.715 67.1496" fill="#8D8D8D"/>
<path d="M205.715 67.1469L228.15 62.353L205.701 67.1903" fill="#8D8D8D"/>
<path d="M205.701 67.1903L228.15 62.353L205.701 67.2337" fill="#8D8D8D"/>
<path d="M205.701 67.2337L228.135 62.353L205.701 67.2772" fill="#8D8D8D"/>
<path d="M205.701 67.2772L228.135 62.353L205.686 67.2193" fill="#8D8D8D"/>
<path d="M205.686 67.3664L228.135 62.5001L205.686 67.3519" fill="#8D8D8D"/>
<path d="M206.179 66.5022L228.628 61.6359L206.223 66.4877" fill="#8D8D8D"/>
<path d="M206.223 66.4877L228.657 61.6359L206.266 66.4877" fill="#8D8D8D"/>
<path d="M206.266 66.4852L228.7 61.6189L206.31 66.4852" fill="#8D8D8D"/>
<path d="M206.31 66.4852L228.744 61.6189L206.353 66.4852" fill="#8D8D8D"/>
<path d="M206.353 66.4877L228.787 61.6359L206.339 66.5022" fill="#8D8D8D"/>
<path d="M206.382 66.5022L228.831 61.6359L206.425 66.5167" fill="#8D8D8D"/>
<path d="M206.425 66.5135L228.86 61.6472L206.411 66.5135" fill="#8D8D8D"/>
<path d="M211.639 75.1429L234.088 70.2911V70.3055L211.639 75.1573V75.1429Z" fill="#8D8D8D"/>
<path d="M211.639 75.1598L234.088 70.308L211.639 75.2178" fill="#8D8D8D"/>
<path d="M211.639 75.2139L234.088 70.3476L211.639 75.2574" fill="#8D8D8D"/>
<path d="M211.639 75.2592L234.088 70.3929L211.639 75.3895" fill="#8D8D8D"/>
<path d="M211.639 75.3895L234.088 70.523L211.639 75.4617" fill="#8D8D8D"/>
<path d="M211.639 75.4617L234.073 70.5966L211.639 75.5208" fill="#8D8D8D"/>
<path d="M211.639 75.5194L234.073 70.6531L211.639 75.5774" fill="#8D8D8D"/>
<path d="M211.639 75.576L234.073 70.7097C234.073 70.7097 234.073 70.7097 234.073 70.7966L211.625 75.6629C211.625 75.6629 211.625 75.6629 211.625 75.576" fill="#8D8D8D"/>
<path d="M211.712 75.6665L234.16 70.8002C234.152 70.8676 234.152 70.9357 234.16 71.003L211.784 75.8693C211.754 75.8041 211.729 75.7362 211.712 75.6665Z" fill="#8D8D8D"/>
<path d="M211.784 75.8663L234.218 71.0435V71.1304L211.828 75.9532V75.8663" fill="#8D8D8D"/>
<path d="M211.828 75.9532L234.261 71.0435L211.813 75.9098" fill="#8D8D8D"/>
<path d="M211.856 76.0286L234.305 71.1623V71.2347L211.9 76.101V76.0286" fill="#8D8D8D"/>
<path d="M211.9 76.0965L234.334 71.2302L211.929 76.1399" fill="#8D8D8D"/>
<path d="M211.929 76.1442L234.377 71.2924L211.929 76.1587" fill="#8D8D8D"/>
<path d="M211.958 76.1983L234.406 71.332L212.001 76.2418" fill="#8D8D8D"/>
<path d="M212.001 76.2436L234.435 71.3773L211.987 76.2436" fill="#8D8D8D"/>
<path d="M212.117 76.3737L234.566 71.5074L212.146 76.4027" fill="#8D8D8D"/>
<path d="M212.146 76.4027L234.595 71.5357L212.19 76.4165" fill="#8D8D8D"/>
<path d="M212.19 76.4165L234.624 71.564L212.218 76.4448" fill="#8D8D8D"/>
<path d="M212.218 76.4472L234.653 71.5809L212.247 76.4617" fill="#8D8D8D"/>
<path d="M212.247 76.4586L234.682 71.5923L212.276 76.473" fill="#8D8D8D"/>
<path d="M212.276 76.478L234.711 71.6262L212.305 76.507" fill="#8D8D8D"/>
<path d="M212.305 76.5038L234.812 71.6375L212.363 76.5038" fill="#8D8D8D"/>
<path d="M212.334 76.5208L234.812 71.6545L212.363 76.5208" fill="#8D8D8D"/>
<path d="M212.363 76.5176L234.812 71.6658L212.378 76.5321L212.363 76.5176Z" fill="#8D8D8D"/>
<path d="M211.654 72.8792L234.102 68.0129L234.088 70.2868L211.639 75.1386L211.654 72.8792Z" fill="#8D8D8D"/>
<path d="M212.16 71.9725L234.595 67.1062C234.484 67.1361 234.387 67.2025 234.319 67.2945L211.871 72.1463C211.948 72.0615 212.049 72.0012 212.16 71.9725Z" fill="#8D8D8D"/>
<path d="M211.871 72.1447L234.319 67.2929L211.871 72.1592V72.0868" fill="#8D8D8D"/>
<path d="M211.799 72.261L234.247 67.3947L211.799 72.2465" fill="#8D8D8D"/>
<path d="M211.77 72.3031L234.218 67.4513L211.755 72.361" fill="#8D8D8D"/>
<path d="M211.755 72.3629L234.189 67.4966L211.741 72.4063" fill="#8D8D8D"/>
<path d="M211.741 72.4081L234.175 67.5418L211.726 72.495" fill="#8D8D8D"/>
<path d="M211.726 72.493L234.16 67.6267L211.712 72.493" fill="#8D8D8D"/>
<path d="M211.712 72.493L234.146 67.6267L211.639 72.493" fill="#8D8D8D"/>
<path d="M211.639 72.493L234.088 67.6267L211.639 72.5799" fill="#8D8D8D"/>
<path d="M211.639 72.5835L234.088 67.7172L211.639 72.627" fill="#8D8D8D"/>
<path d="M211.639 72.6231L234.073 67.7568L211.639 72.6666" fill="#8D8D8D"/>
<path d="M211.639 72.6684L234.088 67.8021L211.639 72.7118" fill="#8D8D8D"/>
<path d="M211.639 72.7136L234.073 67.8473L211.639 72.7571" fill="#8D8D8D"/>
<path d="M211.639 72.7532L234.073 67.8869L211.639 72.7967" fill="#8D8D8D"/>
<path d="M211.639 72.7985L234.088 67.9322L211.639 72.8419" fill="#8D8D8D"/>
<path d="M211.639 72.8437L234.088 67.9774L211.639 72.8872" fill="#8D8D8D"/>
<path d="M212.161 71.9626L234.595 67.0963L212.146 71.9626" fill="#8D8D8D"/>
<path d="M212.175 71.9626L234.624 67.0963L212.233 71.9481" fill="#8D8D8D"/>
<path d="M212.233 71.9456L234.668 67.0793L212.277 71.9456" fill="#8D8D8D"/>
<path d="M212.277 71.9481L234.711 67.0963L212.262 71.9626" fill="#8D8D8D"/>
<path d="M212.306 71.9626L234.813 67.0963L212.349 71.9626" fill="#8D8D8D"/>
<path d="M212.349 71.9626L234.813 67.0963L212.364 71.9626" fill="#8D8D8D"/>
<path d="M212.378 71.9739L234.812 67.1076L212.407 71.9739" fill="#8D8D8D"/>
<path d="M212.928 74.3276L235.362 69.4613L212.928 74.3711" fill="#8D8D8D"/>
<path d="M212.928 74.3729L235.362 69.5066L212.914 74.3729" fill="#8D8D8D"/>
<path d="M212.914 74.4143L235.362 69.5914L212.914 74.4577" fill="#8D8D8D"/>
<path d="M212.914 74.4084L235.362 69.5855L212.914 74.4518" fill="#8D8D8D"/>
<path d="M212.914 74.4518L235.362 69.5855L212.914 74.5097" fill="#8D8D8D"/>
<path d="M212.914 74.5097L235.362 69.5855L212.928 74.5532" fill="#8D8D8D"/>
<path d="M212.928 74.5532L235.362 69.6873L212.928 74.5971" fill="#8D8D8D"/>
<path d="M212.928 74.5957L235.362 69.7439L212.928 74.6537" fill="#8D8D8D"/>
<path d="M212.928 74.6555L235.377 69.7892L212.942 74.6989" fill="#8D8D8D"/>
<path d="M212.943 74.7007L235.377 69.8344L212.943 74.7587" fill="#8D8D8D"/>
<path d="M212.943 74.7573L235.391 69.891L212.957 74.8008" fill="#8D8D8D"/>
<path d="M212.957 74.7994L235.391 69.9476L212.971 74.8718" fill="#8D8D8D"/>
<path d="M212.971 74.8705L235.406 70.0042C235.406 70.0042 235.406 70.0042 235.406 70.0911L212.957 74.9574C212.957 74.9574 212.957 74.9574 212.957 74.8705" fill="#8D8D8D"/>
<path d="M212.986 74.961L235.435 70.0947C235.426 70.162 235.426 70.2301 235.435 70.2974L213.087 75.1637C213.087 75.1637 213.087 75.0334 213.015 74.961" fill="#8D8D8D"/>
<path d="M213.087 75.159L235.536 70.2927C235.53 70.3262 235.53 70.3606 235.536 70.3941L213.087 75.2604V75.159Z" fill="#8D8D8D"/>
<path d="M213.087 75.2604L235.536 70.3941L213.087 75.3767" fill="#8D8D8D"/>
<path d="M213.087 75.3796L235.522 70.5133L213.174 75.3796" fill="#8D8D8D"/>
<path d="M213.174 75.3796L235.623 70.5133L213.218 75.452" fill="#8D8D8D"/>
<path d="M213.218 75.452L235.652 70.5869L213.203 75.4532" fill="#8D8D8D"/>
<path d="M213.247 75.5097L235.695 70.6435L213.29 75.5532" fill="#8D8D8D"/>
<path d="M213.29 75.555L235.724 70.6887L213.319 75.5985" fill="#8D8D8D"/>
<path d="M213.319 75.5946L235.753 70.7283L213.348 75.6236" fill="#8D8D8D"/>
<path d="M213.348 75.6236L235.782 70.7566L213.377 75.6519" fill="#8D8D8D"/>
<path d="M213.435 75.7134L235.884 70.8471L213.435 75.6989" fill="#8D8D8D"/>
<path d="M213.464 75.7272L235.912 70.8754L213.464 75.7417" fill="#8D8D8D"/>
<path d="M213.493 75.753L235.941 70.8867L213.536 75.7675" fill="#8D8D8D"/>
<path d="M213.536 75.77L235.97 70.9037L213.565 75.7845" fill="#8D8D8D"/>
<path d="M213.565 75.7845L235.999 70.932L213.594 75.8128" fill="#8D8D8D"/>
<path d="M213.594 75.8152L236.028 70.949L213.623 75.8297" fill="#8D8D8D"/>
<path d="M213.623 75.8277L236.057 71.0338L213.609 75.8856" fill="#8D8D8D"/>
<path d="M213.652 75.8291L236.101 70.9772L213.667 75.8435L213.652 75.8291Z" fill="#8D8D8D"/>
<path d="M213.421 73.5604L235.855 68.6941C235.746 68.7181 235.648 68.7796 235.58 68.8679L213.088 73.7342C213.162 73.6449 213.264 73.5836 213.377 73.5604" fill="#8D8D8D"/>
<path d="M213.088 73.7358L235.536 68.8695L213.088 73.7938" fill="#8D8D8D"/>
<path d="M213.088 73.7924L235.536 68.9261L213.088 73.8503" fill="#8D8D8D"/>
<path d="M213.088 73.849L235.522 68.9827L213.088 73.9359" fill="#8D8D8D"/>
<path d="M213.088 73.9395L235.522 69.0732L213.001 73.9395" fill="#8D8D8D"/>
<path d="M213.001 73.9395L235.435 69.0732L212.986 74.0264" fill="#8D8D8D"/>
<path d="M212.986 74.0244L235.42 69.1581L212.972 74.0678" fill="#8D8D8D"/>
<path d="M212.972 74.0696L235.406 69.2033L212.957 74.0696" fill="#8D8D8D"/>
<path d="M212.957 74.1092L235.406 69.2429L212.943 74.1527" fill="#8D8D8D"/>
<path d="M212.943 74.1545L235.391 69.2882L212.943 74.1979" fill="#8D8D8D"/>
<path d="M212.943 74.1997L235.377 69.3334L212.928 74.1997" fill="#8D8D8D"/>
<path d="M212.928 74.2846L235.377 69.4183L212.928 74.3276" fill="#8D8D8D"/>
<path d="M212.928 74.3299L235.362 69.4636L212.928 74.3729" fill="#8D8D8D"/>
<path d="M213.421 73.5604L235.855 68.6941L213.449 73.545" fill="#8D8D8D"/>
<path d="M213.449 73.5425L235.883 68.6762L213.435 73.5425" fill="#8D8D8D"/>
<path d="M213.536 73.5425L235.985 68.6762L213.58 73.5425" fill="#8D8D8D"/>
<path d="M213.58 73.5425L236.014 68.6762L213.565 73.5425" fill="#8D8D8D"/>
<path d="M213.608 73.5595L236.057 68.6932L213.652 73.5595" fill="#8D8D8D"/>
<path d="M213.652 73.5563L236.086 68.7045L213.681 73.5708" fill="#8D8D8D"/>
<path d="M216.737 80.2639L239.157 75.3831L216.708 80.2494" fill="#8D8D8D"/>
<path d="M216.737 80.2929L239.157 75.3831L216.737 80.3363" fill="#8D8D8D"/>
<path d="M216.737 80.3343L239.157 75.468L216.737 80.3777" fill="#8D8D8D"/>
<path d="M216.737 80.3795L239.157 75.5133L216.708 80.3795" fill="#8D8D8D"/>
<path d="M216.723 80.4248L239.157 75.5585L216.723 80.4683" fill="#8D8D8D"/>
<path d="M216.723 80.4644L239.157 75.5981L216.723 80.5079" fill="#8D8D8D"/>
<path d="M216.723 80.5097L239.157 75.6434L216.708 80.5531" fill="#8D8D8D"/>
<path d="M216.708 80.5549L239.157 75.6886L216.694 80.5984" fill="#8D8D8D"/>
<path d="M216.694 80.5945L239.157 75.7282L216.694 80.638" fill="#8D8D8D"/>
<path d="M216.694 80.6398L239.157 75.7735L216.679 80.6832" fill="#8D8D8D"/>
<path d="M216.679 80.685L239.157 75.8188L216.665 80.7285" fill="#8D8D8D"/>
<path d="M216.665 80.7246L239.157 75.8584L216.65 80.7681" fill="#8D8D8D"/>
<path d="M216.65 80.7699L239.157 75.9036L216.708 80.7699" fill="#8D8D8D"/>
<path d="M216.592 80.8717L239.041 76.0054L216.563 80.9152" fill="#8D8D8D"/>
<path d="M216.52 80.9736L238.968 76.1073C238.897 76.202 238.794 76.2687 238.679 76.2956L216.244 81.1763C216.355 81.1464 216.452 81.0801 216.52 80.9881" fill="#8D8D8D"/>
<path d="M216.752 79.1081L239.186 74.2418V75.4004L216.737 80.2667L216.752 79.1081Z" fill="#8D8D8D"/>
<path d="M216.752 78.0218L239.2 73.1555L239.186 74.2418L216.752 79.1081L216.752 78.0218Z" fill="#8D8D8D"/>
<path d="M212.378 76.5283L234.812 71.662L239.2 73.1537L216.752 78.02L212.378 76.5283Z" fill="#8D8D8D"/>
<path d="M218.026 78.4575L240.475 73.5912L240.46 74.6774L218.026 79.5437V78.4575Z" fill="#8D8D8D"/>
<path d="M218.026 78.4575L240.475 73.5912L244.834 75.0684L222.385 79.9347L218.026 78.4575Z" fill="#8D8D8D"/>
<path d="M213.667 75.8494L236.101 70.9831L243.56 73.5176L221.125 78.3839L213.667 75.8494Z" fill="#8D8D8D"/>
<path d="M213.681 73.5751L236.115 68.7088L243.574 71.2578L221.14 76.1096L213.681 73.5751Z" fill="#8D8D8D"/>
<path d="M212.407 71.9797L234.841 67.1134L239.229 68.6052L216.781 73.4714L212.407 71.9797Z" fill="#8D8D8D"/>
<path d="M206.44 66.5203L228.888 61.654L238.491 64.9271L216.056 69.7934L206.44 66.5203Z" fill="#8D8D8D"/>
<path d="M216.795 71.182L239.244 66.3157L239.229 68.6052L216.781 73.4714L216.795 71.182Z" fill="#8D8D8D"/>
<path d="M216.056 69.7934C216.31 69.9332 216.516 70.1456 216.648 70.4038C216.78 70.662 216.831 70.9538 216.795 71.2414V73.5297L212.45 72.0814C212.045 71.951 211.712 72.3421 211.697 72.9793V75.2387C211.661 75.5263 211.712 75.818 211.844 76.0762C211.976 76.3344 212.182 76.5472 212.436 76.687L216.781 78.1353V80.3801C216.781 81.0029 216.433 81.3939 216.027 81.2636L206.411 77.9904C206.163 77.8437 205.962 77.6297 205.832 77.3733C205.701 77.1169 205.646 76.8287 205.672 76.5421V67.4468C205.672 66.824 206.02 66.433 206.425 66.5778L216.056 69.7934Z" fill="#8D8D8D"/>
<path d="M216.057 69.7898L238.491 64.9236L238.505 64.938L216.071 69.7898H216.057Z" fill="#8D8D8D"/>
<path d="M216.071 69.7923L238.505 64.9405L216.1 69.8068" fill="#8D8D8D"/>
<path d="M216.1 69.8068L238.534 64.9405L216.129 69.8213" fill="#8D8D8D"/>
<path d="M216.129 69.8181L238.578 64.9518L216.129 69.8037" fill="#8D8D8D"/>
<path d="M216.158 69.8319L238.607 64.9801L216.158 69.8464" fill="#8D8D8D"/>
<path d="M216.187 69.8634L238.636 64.9971L216.216 69.8779" fill="#8D8D8D"/>
<path d="M216.216 69.8747L238.665 65.0084L216.26 69.9037" fill="#8D8D8D"/>
<path d="M216.26 69.9037L238.694 65.0367L216.288 69.9175" fill="#8D8D8D"/>
<path d="M216.288 69.92L238.723 65.0537L216.317 69.9489" fill="#8D8D8D"/>
<path d="M216.317 69.9489L238.752 65.082L216.346 69.9772" fill="#8D8D8D"/>
<path d="M216.346 69.9772L238.781 65.1102L216.375 70.0055" fill="#8D8D8D"/>
<path d="M216.375 70.0055L238.81 65.1385L216.361 70.0048" fill="#8D8D8D"/>
<path d="M216.404 70.0487L238.853 65.2404L216.404 70.1067" fill="#8D8D8D"/>
<path d="M216.433 70.0777L238.882 65.2404L216.477 70.1211" fill="#8D8D8D"/>
<path d="M216.477 70.1211L238.911 65.2404L216.462 70.1067" fill="#8D8D8D"/>
<path d="M216.506 70.1802L238.955 65.3139L216.549 70.2381" fill="#8D8D8D"/>
<path d="M216.549 70.2368L238.984 65.3705L216.535 70.2368" fill="#8D8D8D"/>
<path d="M216.578 70.299L239.027 65.4327L216.622 70.3714" fill="#8D8D8D"/>
<path d="M216.621 70.3669L239.056 65.5006V65.602L216.665 70.4683V70.3669" fill="#8D8D8D"/>
<path d="M216.665 70.4683L239.157 65.6024C239.163 65.6651 239.163 65.7281 239.157 65.7907L216.708 70.657C216.715 70.5944 216.715 70.5313 216.708 70.4687" fill="#8D8D8D"/>
<path d="M216.723 70.6611L239.157 65.7948C239.157 65.7948 239.157 65.7948 239.157 65.8962L216.752 70.748C216.752 70.748 216.752 70.748 216.752 70.6611" fill="#8D8D8D"/>
<path d="M216.752 70.748L239.157 65.8962L216.766 70.8209V70.7484" fill="#8D8D8D"/>
<path d="M216.766 70.8195L239.157 65.9532L216.781 70.8629" fill="#8D8D8D"/>
<path d="M216.781 70.8616L239.157 66.0098L216.708 70.8761" fill="#8D8D8D"/>
<path d="M216.781 70.9213L239.23 66.055L216.781 71.0372" fill="#8D8D8D"/>
<path d="M216.781 71.0345L239.23 66.1682L216.795 71.0345" fill="#8D8D8D"/>
<path d="M216.795 71.0345L239.23 66.1682L216.781 71.0345" fill="#8D8D8D"/>
<path d="M216.795 71.1646L239.244 66.2983V66.3128L216.795 71.1791V71.1646Z" fill="#8D8D8D"/>
<path d="M218.084 71.6176L240.518 66.7513L240.504 69.0396L218.055 73.9059L218.084 71.6176Z" fill="#8D8D8D"/>
<path d="M213.884 50.4148L236.26 45.5485L235.855 46.1133L213.478 50.9796L213.884 50.4148Z" fill="#8D8D8D"/>
<path d="M213.478 50.9796L235.913 46.1142L235.565 46.6935L213.087 51.5598C213.189 51.3587 213.305 51.1651 213.435 50.9805" fill="#8D8D8D"/>
<path d="M213.088 51.5576L235.522 46.6913C235.42 46.8651 235.333 47.0389 235.247 47.2271L212.856 52.0934C212.943 51.9051 213.03 51.7313 213.131 51.5576" fill="#8D8D8D"/>
<path d="M212.856 52.095L235.29 47.2287C235.29 47.388 235.13 47.5618 235.058 47.7356L212.624 52.6019C212.692 52.4291 212.77 52.2599 212.856 52.095Z" fill="#8D8D8D"/>
<path d="M212.624 52.6042L235.058 47.7379C235.058 47.8972 234.928 48.071 234.87 48.2448L212.421 53.0966C212.494 52.9373 212.552 52.7635 212.624 52.6042Z" fill="#8D8D8D"/>
<path d="M212.421 53.0932L234.812 48.2414L234.638 48.7483L212.247 53.658L212.421 53.1511" fill="#8D8D8D"/>
<path d="M212.247 53.658L234.696 48.8071C234.632 48.9775 234.579 49.1516 234.537 49.3285L212.103 54.1224C212.103 53.9486 212.204 53.7748 212.247 53.601" fill="#8D8D8D"/>
<path d="M212.103 54.1247L234.537 49.3163C234.537 49.4901 234.435 49.6639 234.392 49.8522L211.958 54.675C211.958 54.4867 212.045 54.3129 212.103 54.1247Z" fill="#8D8D8D"/>
<path d="M211.958 54.675L234.392 49.8085L234.261 50.3878L211.827 55.2541L211.958 54.675Z" fill="#8D8D8D"/>
<path d="M211.827 55.2519L234.262 50.3856C234.262 50.5883 234.262 50.8056 234.146 51.0083L211.712 55.8746C211.712 55.6574 211.784 55.4546 211.827 55.2519Z" fill="#8D8D8D"/>
<path d="M211.712 55.8746L234.146 51.0083C234.146 51.2256 234.146 51.4569 234.044 51.6886L211.639 56.5549C211.639 56.3231 211.712 56.0914 211.755 55.8742" fill="#8D8D8D"/>
<path d="M211.639 56.5531L234.088 51.6868C234.088 51.8461 234.088 52.0054 234.088 52.1647L211.639 57.031C211.639 56.8717 211.639 56.7124 211.639 56.5531Z" fill="#8D8D8D"/>
<path d="M218.562 70.726L241.011 65.8597C240.898 65.8848 240.8 65.9522 240.736 66.048L218.287 70.8998C218.362 70.819 218.457 70.7591 218.562 70.726Z" fill="#8D8D8D"/>
<path d="M218.244 70.9604L240.692 66.1086L218.215 71.0473" fill="#8D8D8D"/>
<path d="M218.215 71.0435L240.605 66.1482L218.186 71.0435" fill="#8D8D8D"/>
<path d="M218.186 71.0453L240.605 66.1935L218.171 71.0453" fill="#8D8D8D"/>
<path d="M218.171 71.0471L240.605 66.2388L218.157 71.1485" fill="#8D8D8D"/>
<path d="M218.157 71.1447L240.605 66.2784L218.142 71.1881" fill="#8D8D8D"/>
<path d="M218.142 71.1899L240.605 66.3236L218.128 71.2334" fill="#8D8D8D"/>
<path d="M218.128 71.2352L240.605 66.3689L218.157 71.2352" fill="#8D8D8D"/>
<path d="M218.113 71.2748L240.605 66.4085L218.113 71.3182" fill="#8D8D8D"/>
<path d="M218.113 71.32L240.605 66.4537L218.099 71.3635" fill="#8D8D8D"/>
<path d="M218.099 71.3653L240.605 66.499L218.099 71.4087" fill="#8D8D8D"/>
<path d="M218.099 71.4049L240.605 66.5386L218.157 71.4049" fill="#8D8D8D"/>
<path d="M218.084 71.4502L240.605 66.5839L218.084 71.4936" fill="#8D8D8D"/>
<path d="M218.084 71.4909L240.518 66.697L218.084 71.5343" fill="#8D8D8D"/>
<path d="M218.084 71.5343L240.518 66.697L218.07 71.5633" fill="#8D8D8D"/>
<path d="M218.07 71.5923L240.518 66.697L218.07 71.6212" fill="#8D8D8D"/>
<path d="M218.562 70.726L241.011 65.8597L218.591 70.726" fill="#8D8D8D"/>
<path d="M218.591 70.726L241.04 65.8597L218.649 70.7115" fill="#8D8D8D"/>
<path d="M218.649 70.7115L241.083 65.8597L218.692 70.7115" fill="#8D8D8D"/>
<path d="M218.692 70.7115L241.127 65.8597L218.678 70.726" fill="#8D8D8D"/>
<path d="M218.721 70.726L241.17 65.8597L218.765 70.726" fill="#8D8D8D"/>
<path d="M218.765 70.726L241.199 65.8597L218.75 70.726" fill="#8D8D8D"/>
<path d="M218.793 70.743L241.242 65.8767L218.88 70.743" fill="#8D8D8D"/>
<path d="M221.126 78.3865L243.502 73.5202L221.053 78.3865" fill="#8D8D8D"/>
<path d="M221.14 78.4035L243.589 73.5372L221.184 78.4035" fill="#8D8D8D"/>
<path d="M221.184 78.4035L243.618 73.5372L221.169 78.4035" fill="#8D8D8D"/>
<path d="M221.213 78.4148L243.662 73.5485L221.256 78.4148" fill="#8D8D8D"/>
<path d="M221.256 78.4148L243.69 73.5485L221.299 78.4148" fill="#8D8D8D"/>
<path d="M221.299 78.4148L243.734 73.5485L221.343 78.4148" fill="#8D8D8D"/>
<path d="M221.343 78.4148L243.792 73.5485L221.343 78.4003" fill="#8D8D8D"/>
<path d="M221.14 76.1007L243.574 71.2489H243.589L221.14 76.1152V76.1007Z" fill="#8D8D8D"/>
<path d="M221.14 76.1152L243.589 71.2489L221.183 76.1152" fill="#8D8D8D"/>
<path d="M221.183 76.1177L243.618 71.2659L221.212 76.1322" fill="#8D8D8D"/>
<path d="M221.212 76.129L243.647 71.2772L221.241 76.158" fill="#8D8D8D"/>
<path d="M221.241 76.1605L243.676 71.2942L221.27 76.1749" fill="#8D8D8D"/>
<path d="M221.27 76.1718L243.705 71.3055L221.256 76.1718" fill="#8D8D8D"/>
<path d="M221.444 76.3189L243.893 71.4526L221.487 76.3478" fill="#8D8D8D"/>
<path d="M221.487 76.3496L243.922 71.4978L221.516 76.3931" fill="#8D8D8D"/>
<path d="M221.516 76.3931L243.951 71.5261L221.502 76.3924" fill="#8D8D8D"/>
<path d="M221.545 76.432L243.994 71.5657L221.589 76.49" fill="#8D8D8D"/>
<path d="M221.589 76.4943L244.023 71.628L221.618 76.5377" fill="#8D8D8D"/>
<path d="M221.618 76.5363L244.052 71.6845L221.603 76.5508V76.4784" fill="#8D8D8D"/>
<path d="M221.647 76.6074L244.096 71.7411L221.69 76.6798" fill="#8D8D8D"/>
<path d="M221.69 76.681L244.124 71.8147V71.9016L221.777 76.8258V76.7389" fill="#8D8D8D"/>
<path d="M221.777 76.8237L244.168 71.8995C244.174 71.967 244.174 72.0348 244.168 72.1023L221.777 76.9686V76.8237Z" fill="#8D8D8D"/>
<path d="M221.777 76.9686L244.211 72.1032C244.211 72.1032 244.211 72.1032 244.211 72.1901L221.777 77.0564C221.777 77.0564 221.777 77.0555 221.777 76.9686Z" fill="#8D8D8D"/>
<path d="M221.777 77.0543L244.226 72.188L221.777 77.1123" fill="#8D8D8D"/>
<path d="M221.777 77.1166L244.211 72.2503L221.849 77.1745" fill="#8D8D8D"/>
<path d="M221.85 77.1731L244.284 72.3069L221.835 77.1731" fill="#8D8D8D"/>
<path d="M221.85 77.2297L244.298 72.3634L221.864 77.2732" fill="#8D8D8D"/>
<path d="M221.864 77.2761L244.298 72.4822L221.864 77.3196" fill="#8D8D8D"/>
<path d="M221.864 77.3196L244.298 72.4822L221.85 77.3485" fill="#8D8D8D"/>
<path d="M221.864 77.3775L244.313 72.4822L221.864 77.3485" fill="#8D8D8D"/>
<path d="M221.864 77.5182L244.313 72.652L221.864 77.5038" fill="#8D8D8D"/>
<path d="M221.864 77.566L244.313 72.7142L221.864 77.6239" fill="#8D8D8D"/>
<path d="M221.864 77.6201L244.298 72.7538L221.864 77.6635" fill="#8D8D8D"/>
<path d="M221.864 77.6653L244.298 72.799L221.85 77.6653" fill="#8D8D8D"/>
<path d="M221.85 77.7106L244.298 72.8443L221.85 77.7541" fill="#8D8D8D"/>
<path d="M221.849 77.7502L244.284 72.8839L221.777 77.7937" fill="#8D8D8D"/>
<path d="M221.777 77.7955L244.226 72.9292L221.777 77.8389" fill="#8D8D8D"/>
<path d="M221.777 77.8407L244.211 72.9744L221.777 77.8842" fill="#8D8D8D"/>
<path d="M221.777 77.8803L244.211 73.014L221.777 77.9238" fill="#8D8D8D"/>
<path d="M221.777 77.9256L244.24 73.0593L221.777 77.969" fill="#8D8D8D"/>
<path d="M221.777 77.9708L244.226 73.1046L221.777 78.0143" fill="#8D8D8D"/>
<path d="M221.777 78.0104L244.211 73.1442L221.777 78.0539" fill="#8D8D8D"/>
<path d="M221.777 78.0557L244.226 73.1894L221.777 78.0992" fill="#8D8D8D"/>
<path d="M221.777 78.101L244.211 73.2347L221.763 78.101" fill="#8D8D8D"/>
<path d="M221.69 78.1575L244.139 73.2912L221.647 78.2734" fill="#8D8D8D"/>
<path d="M221.647 78.2707L244.095 73.4044C244.027 73.4964 243.93 73.5627 243.82 73.5927L221.371 78.4445C221.482 78.4244 221.581 78.3621 221.647 78.2707Z" fill="#8D8D8D"/>
<path d="M223.225 79.0652L245.659 74.1989L223.225 79.0942" fill="#8D8D8D"/>
<path d="M223.225 79.0942L245.587 74.2272L223.139 79.079" fill="#8D8D8D"/>
<path d="M223.139 79.1808L245.587 74.329L223.139 79.2388" fill="#8D8D8D"/>
<path d="M223.139 79.2406L245.573 74.3743L223.139 79.284" fill="#8D8D8D"/>
<path d="M223.139 79.2802L245.573 74.4139L223.124 79.2657" fill="#8D8D8D"/>
<path d="M223.124 79.3109L245.573 74.4591L223.124 79.3544" fill="#8D8D8D"/>
<path d="M223.124 79.3562L245.558 74.5044L223.11 79.3997" fill="#8D8D8D"/>
<path d="M223.11 79.3997L245.544 74.5327L223.095 79.4424" fill="#8D8D8D"/>
<path d="M223.095 79.4442L245.544 74.5779L223.081 79.4877" fill="#8D8D8D"/>
<path d="M223.052 79.5744L245.5 74.7081L223.037 79.6178" fill="#8D8D8D"/>
<path d="M223.037 79.614L245.471 74.7477L223.008 79.7298" fill="#8D8D8D"/>
<path d="M223.008 79.7328L245.457 74.8665L222.979 79.7328" fill="#8D8D8D"/>
<path d="M222.979 79.7328L245.413 74.8665L222.936 79.7328" fill="#8D8D8D"/>
<path d="M222.936 79.7328L245.37 74.8665C245.302 74.9585 245.205 75.0248 245.095 75.0548L222.646 79.95C222.704 79.9419 222.759 79.9223 222.808 79.8924C222.858 79.8626 222.901 79.8231 222.936 79.7762" fill="#8D8D8D"/>
<path d="M218.055 73.9089L240.504 69.0426L244.863 70.5343L222.414 75.4006L218.055 73.9089Z" fill="#8D8D8D"/>
<path d="M218.823 70.7376L241.271 65.8857L247.731 68.0727L225.282 72.939L218.823 70.7376Z" fill="#8D8D8D"/>
<path d="M218.881 70.7368C218.475 70.6065 218.142 70.983 218.128 71.6203V73.9376L222.472 75.3859C222.729 75.5236 222.938 75.7354 223.073 75.9938C223.207 76.2522 223.26 76.545 223.226 76.8342V79.108C223.226 79.7308 222.878 80.1218 222.458 79.977L218.113 78.5287V79.6149L216.839 79.1804V78.0942L212.494 76.6459C212.24 76.5061 212.034 76.2933 211.902 76.0351C211.77 75.7769 211.719 75.4852 211.755 75.1976V72.8803C211.755 72.243 212.103 71.852 212.508 71.9823L216.853 73.4306V71.1858C216.889 70.8982 216.838 70.6064 216.706 70.3482C216.574 70.09 216.368 69.8773 216.114 69.7375L206.498 66.4643C206.092 66.3195 205.745 66.7105 205.745 67.3333V75.27L188.466 69.4913C187.972 69.1991 187.572 68.7704 187.315 68.2566C187.058 67.7427 186.955 67.1657 187.018 66.5947L187.09 55.3993C187.09 51.6337 189.118 49.273 191.566 50.0985L200.965 53.3C200.635 50.4144 199.838 47.601 198.604 44.9715C196.933 41.3889 196.068 37.4833 196.07 33.5299C195.907 29.8364 197.033 26.2011 199.256 23.247C200.111 22.2108 201.271 21.47 202.571 21.1295C203.87 20.789 205.244 20.866 206.498 21.3497L206.845 21.4656C212.132 23.638 216.592 32.212 216.607 40.2935C216.785 43.8788 215.821 47.4282 213.855 50.4316C212.487 52.3841 211.676 54.6721 211.509 57.0504L220.908 60.2511C223.356 61.0911 225.253 64.7988 225.253 68.5499V72.8948L218.881 70.7368ZM221.198 76.11L213.739 73.5755C213.319 73.4306 212.986 73.8217 212.972 74.4445C212.937 74.7336 212.99 75.0265 213.125 75.2848C213.259 75.5432 213.468 75.755 213.725 75.8928L221.183 78.4273C221.589 78.5721 221.922 78.1666 221.922 77.5438C221.959 77.2578 221.91 76.9671 221.781 76.709C221.652 76.451 221.449 76.2374 221.198 76.0955" fill="#8D8D8D"/>
<path d="M221.14 76.1096C221.391 76.2515 221.594 76.4642 221.723 76.7223C221.852 76.9803 221.901 77.271 221.864 77.5571C221.864 78.1798 221.531 78.5854 221.125 78.4405L213.667 75.8481C213.41 75.7104 213.201 75.4985 213.067 75.2401C212.932 74.9818 212.879 74.6889 212.914 74.3998C212.914 73.777 213.261 73.386 213.681 73.5308L221.14 76.1096Z" fill="#8D8D8D"/>
<path d="M222.415 79.9561L244.863 75.0898L222.458 79.9561" fill="#8D8D8D"/>
<path d="M222.458 79.9529L244.95 75.1011L222.502 79.9674" fill="#8D8D8D"/>
<path d="M222.487 79.9674L244.95 75.1011L222.531 79.9674" fill="#8D8D8D"/>
<path d="M222.531 79.9674L244.95 75.1011L222.574 79.9674" fill="#8D8D8D"/>
<path d="M222.574 79.9674L244.95 75.1011L222.502 79.9674" fill="#8D8D8D"/>
<path d="M222.617 79.9674L245.066 75.1011L222.646 79.9529" fill="#8D8D8D"/>
<path d="M223.168 76.7885L245.602 71.9222L245.587 74.1961L223.153 79.0623L223.168 76.7885Z" fill="#8D8D8D"/>
<path d="M222.415 75.4049L244.863 70.5386L222.429 75.4049H222.415Z" fill="#8D8D8D"/>
<path d="M222.429 75.388L244.863 70.5217L222.458 75.388" fill="#8D8D8D"/>
<path d="M222.458 75.388L244.95 70.55L222.487 75.3873" fill="#8D8D8D"/>
<path d="M222.487 75.3898L244.95 70.5669L222.531 75.3898" fill="#8D8D8D"/>
<path d="M222.531 75.3866L244.95 70.5782L222.56 75.459" fill="#8D8D8D"/>
<path d="M222.56 75.4615L244.95 70.5952L222.589 75.476" fill="#8D8D8D"/>
<path d="M222.589 75.476L245.023 70.6235L222.618 75.5043" fill="#8D8D8D"/>
<path d="M222.617 75.5011L245.051 70.6348L222.646 75.5301" fill="#8D8D8D"/>
<path d="M222.646 75.5351L245.08 70.6688L222.675 75.5495" fill="#8D8D8D"/>
<path d="M222.675 75.5495L245.109 70.6971L222.704 75.5778" fill="#8D8D8D"/>
<path d="M222.704 75.5747L245.138 70.7084L222.69 75.5602" fill="#8D8D8D"/>
<path d="M222.733 75.6054L245.182 70.7536L222.733 75.6199" fill="#8D8D8D"/>
<path d="M222.762 75.6482L245.211 70.7819L222.806 75.6917" fill="#8D8D8D"/>
<path d="M222.806 75.6935L245.24 70.8272L222.835 75.7369" fill="#8D8D8D"/>
<path d="M222.835 75.7331L245.269 70.8668L222.82 75.7331" fill="#8D8D8D"/>
<path d="M222.864 75.7783L245.312 70.912L222.907 75.8363" fill="#8D8D8D"/>
<path d="M222.907 75.8363L245.341 71.0422L222.936 75.9085" fill="#8D8D8D"/>
<path d="M222.979 75.982L245.428 71.1157C245.437 71.149 245.437 71.1838 245.428 71.2171L223.023 76.0689V75.982" fill="#8D8D8D"/>
<path d="M223.023 76.0689L245.457 71.2175C245.465 71.2849 245.465 71.353 245.457 71.4203L223.095 76.2721C223.095 76.2721 223.095 76.1413 223.023 76.0689Z" fill="#8D8D8D"/>
<path d="M223.095 76.2721L245.529 71.4212C245.529 71.4212 245.529 71.4212 245.529 71.5081L223.081 76.3599C223.081 76.3599 223.081 76.3599 223.081 76.273" fill="#8D8D8D"/>
<path d="M223.11 76.3579L245.558 71.5061L223.11 76.3724" fill="#8D8D8D"/>
<path d="M223.124 76.4289L245.573 71.5626L223.139 76.4869" fill="#8D8D8D"/>
<path d="M223.139 76.4912L245.573 71.6249L223.226 76.5346" fill="#8D8D8D"/>
<path d="M223.226 76.5308L245.66 71.6645L223.226 76.5887" fill="#8D8D8D"/>
<path d="M223.226 76.5873L245.66 71.721L223.226 76.6308" fill="#8D8D8D"/>
<path d="M223.226 76.6326L245.674 71.7663L223.226 76.676" fill="#8D8D8D"/>
<path d="M223.226 76.6747L245.674 71.8229L223.226 76.7326" fill="#8D8D8D"/>
<path d="M223.226 76.7344L245.66 71.8681L223.226 76.8358" fill="#8D8D8D"/>
<path d="M223.168 76.7797L245.602 71.9134V71.9279L223.168 76.7942V76.7797Z" fill="#8D8D8D"/>
<path d="M211.538 57.0328L233.986 52.1665L243.386 55.3672L220.937 60.2335L211.538 57.0328Z" fill="#8D8D8D"/>
<path d="M202.819 20.9986L225.268 16.1468C225.399 16.0898 225.535 16.0414 225.673 16.002L203.239 20.9262L202.819 20.9986Z" fill="#8D8D8D"/>
<path d="M203.239 20.9262L225.673 16.002H226.354L203.905 20.8682H203.239" fill="#8D8D8D"/>
<path d="M203.905 20.8682L226.354 16.002H226.962L204.528 20.8827H203.905" fill="#8D8D8D"/>
<path d="M204.528 20.8827L226.962 16.002H227.527L205.078 20.9407C204.895 20.9271 204.711 20.9271 204.528 20.9407" fill="#8D8D8D"/>
<path d="M205.078 20.9407L227.57 16.0755L228.106 16.1769L205.629 21.0287C205.44 21.0287 205.266 20.9551 205.078 20.9407Z" fill="#8D8D8D"/>
<path d="M205.629 21.0287L228.063 16.1773C228.24 16.2071 228.414 16.2507 228.584 16.3077L206.15 21.174L205.629 21.0287Z" fill="#8D8D8D"/>
<path d="M206.15 21.174L228.584 16.3077L229.019 16.4233H229.149L206.657 21.3331H206.527L206.15 21.2172" fill="#8D8D8D"/>
<path d="M206.657 21.3331L229.105 16.4659L229.308 16.5528H229.511L207.062 21.4915L206.874 21.4046H206.657" fill="#8D8D8D"/>
<path d="M207.062 21.4915L229.511 16.6243L229.844 16.7836L207.41 21.6499L207.062 21.4915Z" fill="#8D8D8D"/>
<path d="M207.41 21.6499L229.844 16.7836L230.192 16.971L207.758 21.7938L207.41 21.6055" fill="#8D8D8D"/>
<path d="M207.757 21.7979L230.192 16.975L230.583 17.2068L208.149 22.0731L207.757 21.7979Z" fill="#8D8D8D"/>
<path d="M208.149 22.0676L230.583 17.2013L230.974 17.4475L208.54 22.3138L208.149 22.0676Z" fill="#8D8D8D"/>
<path d="M208.54 22.3165L230.974 17.4503L231.379 17.7399L208.931 22.6062L208.54 22.3165Z" fill="#8D8D8D"/>
<path d="M208.931 22.6062L231.379 17.7399L231.77 18.0574L209.336 22.9092L208.931 22.6062Z" fill="#8D8D8D"/>
<path d="M209.336 22.9131L231.77 18.0613C231.916 18.1649 232.051 18.2813 232.176 18.4088L209.742 23.2462L209.336 22.8986" fill="#8D8D8D"/>
<path d="M209.742 23.2437L232.176 18.4064C232.326 18.5251 232.467 18.6559 232.596 18.7974L210.191 23.6492L209.742 23.2437Z" fill="#8D8D8D"/>
<path d="M210.191 23.6492L232.596 18.7974C232.743 18.9301 232.883 19.0696 233.016 19.2167L210.582 24.083L210.191 23.6492Z" fill="#8D8D8D"/>
<path d="M210.582 24.0817L233.016 19.2154C233.175 19.3747 233.32 19.5485 233.465 19.7078L211.031 24.5741C210.886 24.4003 210.727 24.241 210.582 24.0817Z" fill="#8D8D8D"/>
<path d="M211.031 24.5741L233.465 19.7078C233.624 19.8961 233.783 20.0696 233.928 20.2724L211.494 25.1242L211.031 24.5741Z" fill="#8D8D8D"/>
<path d="M211.494 25.1263L233.928 20.3469C234.1 20.5446 234.26 20.7525 234.406 20.9696L211.972 25.7635L211.494 25.1263Z" fill="#8D8D8D"/>
<path d="M211.972 25.7619L234.406 20.8956L234.928 21.6198L212.479 26.4861C212.32 26.2399 212.146 25.9937 211.972 25.7619Z" fill="#8D8D8D"/>
<path d="M212.479 26.4861L234.928 21.6198L235.449 22.4453L213 27.3116C212.836 27.0413 212.663 26.7661 212.479 26.4861Z" fill="#8D8D8D"/>
<path d="M213 27.3116L235.449 22.4453C235.637 22.7495 235.811 23.0685 235.985 23.3872L213.536 28.2535C213.363 27.9348 213.189 27.6157 213 27.3116Z" fill="#8D8D8D"/>
<path d="M213.536 28.2569L235.985 23.3906C236.173 23.7381 236.347 24.0857 236.521 24.4623L214.087 29.3141C213.913 28.952 213.724 28.6044 213.536 28.2569Z" fill="#8D8D8D"/>
<path d="M214.087 29.3116L236.521 24.4598C236.738 24.8943 236.941 25.3578 237.129 25.8212L214.695 30.6875L214.087 29.2392" fill="#8D8D8D"/>
<path d="M214.695 30.6895L237.129 25.8232C237.511 26.7698 237.839 27.7369 238.114 28.7199L215.665 33.5861C215.391 32.6048 215.067 31.638 214.695 30.6895Z" fill="#8D8D8D"/>
<path d="M215.666 33.5409L238.114 28.6746C238.23 29.0801 238.331 29.5001 238.433 29.9201L215.984 34.8299C215.883 34.4244 215.781 34.0043 215.666 33.5988" fill="#8D8D8D"/>
<path d="M215.984 34.8299L238.433 29.9201C238.433 30.2098 238.563 30.4985 238.607 30.8027L216.172 35.6545C216.172 35.3648 216.057 35.0752 215.984 34.771" fill="#8D8D8D"/>
<path d="M216.172 35.6545L238.607 30.8027C238.607 31.0344 238.708 31.2942 238.751 31.5404L216.303 36.3922L216.172 35.6545Z" fill="#8D8D8D"/>
<path d="M216.303 36.3947L238.751 31.5429C238.751 31.7602 238.824 31.9919 238.853 32.2236L216.404 37.0899C216.404 36.8582 216.404 36.6265 216.303 36.3947Z" fill="#8D8D8D"/>
<path d="M216.404 37.0881L238.852 32.2218L238.939 32.888L216.491 37.7253C216.491 37.5081 216.491 37.2764 216.404 37.0591" fill="#8D8D8D"/>
<path d="M216.491 37.7274L238.939 32.8611C238.939 33.0783 238.939 33.2956 238.939 33.5128L216.563 38.4081C216.563 38.1908 216.563 37.9736 216.563 37.7564" fill="#8D8D8D"/>
<path d="M216.563 38.4063L238.997 33.54V34.1772L216.607 39.0435V38.4063" fill="#8D8D8D"/>
<path d="M216.607 39.0456L239.041 34.1793C239.041 34.3965 239.041 34.5993 239.041 34.802L216.636 39.6683C216.636 39.4656 216.636 39.2483 216.636 39.0456" fill="#8D8D8D"/>
<path d="M216.636 39.6683L239.07 34.8299C239.07 35.0471 239.07 35.2499 239.07 35.4671L216.621 40.3334V39.7107" fill="#8D8D8D"/>
<path d="M216.636 40.3072L239.157 35.4409C239.157 35.7305 239.157 36.0347 239.157 36.3243L216.636 41.1906C216.636 40.901 216.636 40.5968 216.636 40.3072Z" fill="#8D8D8D"/>
<path d="M216.636 41.1879L239.07 36.2782C239.07 36.4809 239.07 36.6982 239.07 36.9009L216.621 41.7672C216.621 41.5645 216.621 41.3472 216.621 41.1445" fill="#8D8D8D"/>
<path d="M216.607 41.812L239.055 36.9458V37.554L216.563 42.4203V41.812" fill="#8D8D8D"/>
<path d="M216.563 42.4174L239.012 37.5511C239.012 37.7539 239.012 37.9566 239.012 38.1594L216.563 43.0257C216.563 42.8229 216.563 42.6202 216.563 42.4174Z" fill="#8D8D8D"/>
<path d="M216.505 43.0284L238.954 38.1621C238.954 38.3649 238.954 38.5531 238.954 38.7559L216.505 43.6222C216.505 43.4194 216.505 43.2167 216.578 43.0284" fill="#8D8D8D"/>
<path d="M216.433 43.6224L238.882 38.7561C238.882 38.9444 238.882 39.1472 238.78 39.3355L216.346 44.2017L216.433 43.6224Z" fill="#8D8D8D"/>
<path d="M216.346 44.1995L238.78 39.3332C238.78 39.536 238.708 39.7387 238.679 39.927L216.23 44.7933C216.23 44.605 216.23 44.4022 216.346 44.1995Z" fill="#8D8D8D"/>
<path d="M216.23 44.7933L238.679 39.927C238.679 40.1298 238.592 40.3183 238.534 40.521L216.1 45.3873L216.23 44.7933Z" fill="#8D8D8D"/>
<path d="M216.1 45.3873L238.534 40.521C238.534 40.7238 238.447 40.9123 238.389 41.1151L215.984 45.9813C215.984 45.7786 216.1 45.5903 216.143 45.3875" fill="#8D8D8D"/>
<path d="M215.984 45.9813L238.433 41.1153C238.433 41.318 238.317 41.5208 238.244 41.7236L215.767 46.5899L215.984 45.9813Z" fill="#8D8D8D"/>
<path d="M215.767 46.5926L238.201 41.7263C238.201 41.929 238.071 42.1463 237.998 42.3491L215.55 47.2009L215.767 46.5926Z" fill="#8D8D8D"/>
<path d="M215.55 47.2009L237.998 42.3491L237.738 42.9859L215.303 47.8666C215.39 47.6494 215.477 47.4321 215.55 47.2149" fill="#8D8D8D"/>
<path d="M215.303 47.863L237.708 42.9822C237.621 43.214 237.52 43.4312 237.419 43.6485L214.97 48.5147L215.274 47.8485" fill="#8D8D8D"/>
<path d="M214.999 48.5161L237.448 43.6498L237.071 44.3595L214.637 49.2258C214.753 48.994 214.883 48.7623 214.999 48.5161Z" fill="#8D8D8D"/>
<path d="M214.637 49.2233L237.071 44.357C236.926 44.6306 236.766 44.8965 236.593 45.1536L214.159 50.0198L214.637 49.2233Z" fill="#8D8D8D"/>
<path d="M214.159 50.0198L236.593 45.1536L236.26 45.5457L213.884 50.412L214.159 50.0198Z" fill="#8D8D8D"/>
<path d="M225.311 68.5343L247.76 63.668L247.731 68.0709L225.282 72.9372L225.311 68.5343Z" fill="#8D8D8D"/>
<path d="M229.121 84.4766L251.555 79.6103L229.121 84.5055" fill="#8D8D8D"/>
<path d="M229.121 84.5055L251.555 79.6386L229.121 84.5483" fill="#8D8D8D"/>
<path d="M229.12 84.5463L251.555 79.7234L229.106 84.5897" fill="#8D8D8D"/>
<path d="M229.106 84.6042L251.555 79.7234L229.106 84.6476" fill="#8D8D8D"/>
<path d="M229.106 84.6476L251.555 79.7234L229.106 84.6911" fill="#8D8D8D"/>
<path d="M229.106 84.6911L251.54 79.8252L229.092 84.6915" fill="#8D8D8D"/>
<path d="M229.092 84.7368L251.54 79.8705L229.092 84.7803" fill="#8D8D8D"/>
<path d="M229.091 84.7821L251.526 79.9158L229.019 84.8255" fill="#8D8D8D"/>
<path d="M229.019 84.8217L251.453 79.9554L229.019 84.8651" fill="#8D8D8D"/>
<path d="M229.019 84.8669L251.468 80.0006L229.019 84.9104" fill="#8D8D8D"/>
<path d="M229.019 84.9122L251.468 80.0459L229.019 84.9556" fill="#8D8D8D"/>
<path d="M229.019 84.9518L251.468 80.0855L229.019 84.9952" fill="#8D8D8D"/>
<path d="M229.019 84.997L251.468 80.1307L229.019 85.0405" fill="#8D8D8D"/>
<path d="M229.019 85.0423L251.453 80.176L229.019 85.0857" fill="#8D8D8D"/>
<path d="M229.019 85.0876L251.453 80.2213L229.019 85.1455" fill="#8D8D8D"/>
<path d="M229.019 85.1441L251.453 80.2778L228.903 85.2021" fill="#8D8D8D"/>
<path d="M228.903 85.2007L251.337 80.3344C251.269 80.4264 251.172 80.4928 251.062 80.5227L228.628 85.3745C228.736 85.3474 228.832 85.2865 228.903 85.2007Z" fill="#8D8D8D"/>
<path d="M220.937 60.24L243.386 55.3737L220.995 60.2545" fill="#8D8D8D"/>
<path d="M220.995 60.2545L243.502 55.402L243.69 55.4744L221.183 60.3407L220.995 60.2545Z" fill="#8D8D8D"/>
<path d="M221.183 60.3407L243.618 55.4756L243.806 55.5624L221.372 60.4143L221.183 60.3407Z" fill="#8D8D8D"/>
<path d="M221.372 60.4122L243.806 55.5604L243.994 55.6473L221.56 60.5136L221.372 60.4122Z" fill="#8D8D8D"/>
<path d="M221.56 60.5172L243.994 55.6509L244.168 55.7523L221.777 60.6186L221.603 60.5172" fill="#8D8D8D"/>
<path d="M221.777 60.6186L244.212 55.7528L244.385 55.8686L221.908 60.7349L221.777 60.6186Z" fill="#8D8D8D"/>
<path d="M221.907 60.7322L244.342 55.8659L244.53 55.9963L222.081 60.906L221.907 60.7757" fill="#8D8D8D"/>
<path d="M222.081 60.9076L244.53 56.0413L244.704 56.1716L222.255 61.0379L222.081 60.9076Z" fill="#8D8D8D"/>
<path d="M222.255 60.9924L244.704 56.1262L244.878 56.2855L222.429 61.1518L222.255 60.9924Z" fill="#8D8D8D"/>
<path d="M222.429 61.1518L244.95 56.2846L245.124 56.4439L222.617 61.3102C222.561 61.2495 222.498 61.1969 222.429 61.1518Z" fill="#8D8D8D"/>
<path d="M222.617 61.3102L245.051 56.443L245.24 56.6312L222.791 61.4975L222.617 61.3102Z" fill="#8D8D8D"/>
<path d="M222.791 61.5016L245.24 56.6353L245.414 56.8381L222.979 61.7044C222.924 61.63 222.861 61.562 222.791 61.5016Z" fill="#8D8D8D"/>
<path d="M222.979 61.7044L245.414 56.8381L245.616 57.0707L223.225 61.937C223.167 61.8563 223.104 61.7789 223.037 61.7053" fill="#8D8D8D"/>
<path d="M223.225 61.937L245.674 57.0709L245.877 57.3316L223.37 62.1979L223.225 61.937Z" fill="#8D8D8D"/>
<path d="M223.37 62.1979L245.819 57.3312L246.022 57.6353L223.588 62.5016L223.37 62.1979Z" fill="#8D8D8D"/>
<path d="M223.588 62.4973L246.022 57.631L246.239 57.9641L223.79 62.8304C223.718 62.7146 223.66 62.5987 223.588 62.4973Z" fill="#8D8D8D"/>
<path d="M223.79 62.8329L246.239 58.0101L246.456 58.3866L224.008 63.2529L223.79 62.8764" fill="#8D8D8D"/>
<path d="M224.008 63.2102L246.398 58.3439L246.616 58.7784L224.167 63.6447C224.167 63.4998 224.022 63.355 223.95 63.2102" fill="#8D8D8D"/>
<path d="M224.225 63.6458L246.674 58.7795C246.76 58.9678 246.847 59.156 246.92 59.3443L224.486 64.2106L224.225 63.6458Z" fill="#8D8D8D"/>
<path d="M224.485 64.2059L246.92 59.3396C247.079 59.7269 247.214 60.1235 247.325 60.5272L224.891 65.3935C224.775 64.988 224.63 64.5824 224.485 64.2059Z" fill="#8D8D8D"/>
<path d="M224.891 65.3935L247.325 60.5272C247.325 60.701 247.427 60.8897 247.47 61.0635L225.021 65.9298L224.891 65.3935Z" fill="#8D8D8D"/>
<path d="M225.022 65.9314L247.47 61.0651C247.477 61.1953 247.477 61.3259 247.47 61.4561L225.108 66.3224L225.022 65.9314Z" fill="#8D8D8D"/>
<path d="M225.108 66.3224L247.542 61.4555C247.551 61.5615 247.551 61.668 247.542 61.7741L225.166 66.6983C225.166 66.5969 225.166 66.4955 225.166 66.3942" fill="#8D8D8D"/>
<path d="M225.166 66.7022L247.6 61.7779C247.6 61.8793 247.6 61.9807 247.6 62.0821L225.152 66.9484V66.6297" fill="#8D8D8D"/>
<path d="M225.21 66.9441L247.658 62.0778C247.651 62.179 247.651 62.2807 247.658 62.3819L225.253 67.2482V66.9441" fill="#8D8D8D"/>
<path d="M225.253 67.2502L247.687 62.355C247.694 62.4514 247.694 62.5482 247.687 62.6446L225.282 67.5399C225.275 67.4435 225.275 67.3467 225.282 67.2502" fill="#8D8D8D"/>
<path d="M225.282 67.5381L247.716 62.6718C247.716 62.7732 247.716 62.8746 247.716 62.9759L225.268 67.8422C225.268 67.7409 225.268 67.6395 225.268 67.5381" fill="#8D8D8D"/>
<path d="M225.297 67.8436L247.745 62.9773V63.2814L225.311 68.1477C225.318 68.0513 225.318 67.9545 225.311 67.8581" fill="#8D8D8D"/>
<path d="M225.311 68.1459L247.745 63.2941C247.753 63.3905 247.753 63.4874 247.745 63.5838L225.311 68.4356V68.1459Z" fill="#8D8D8D"/>
<path d="M225.311 68.4376L247.76 63.5713V63.6727L225.311 68.539V68.4376Z" fill="#8D8D8D"/>
<path d="M225.282 72.9358L247.731 68.0695L250.888 69.1557L228.439 74.022L225.282 72.9358Z" fill="#8D8D8D"/>
<path d="M229.178 75.3968L251.612 70.5305L251.555 79.6103L229.121 84.4766L229.178 75.3968Z" fill="#8D8D8D"/>
<path d="M228.44 74.0249C228.681 74.1597 228.879 74.3609 229.01 74.6047C229.141 74.8486 229.199 75.1248 229.178 75.4007V84.4816C229.178 85.1044 228.845 85.5099 228.425 85.3651L218.808 82.0919C218.554 81.9521 218.348 81.7394 218.217 81.4812C218.085 81.223 218.034 80.9312 218.07 80.6436V78.4567L222.415 79.905C222.835 80.0498 223.168 79.6588 223.182 79.036V76.8346C223.217 76.5454 223.164 76.2526 223.029 75.9942C222.895 75.7358 222.686 75.524 222.429 75.3863L218.084 73.938V71.6207C218.084 70.9834 218.432 70.6069 218.837 70.7372L225.297 72.9386L228.44 74.0249Z" fill="#8D8D8D"/>
<path d="M228.439 74.022L250.888 69.1557L228.454 74.022H228.439Z" fill="#8D8D8D"/>
<path d="M228.454 74.022L250.888 69.1557L228.439 74.022" fill="#8D8D8D"/>
<path d="M228.541 74.0672L250.99 69.2009L228.584 74.0817" fill="#8D8D8D"/>
<path d="M228.585 74.0785L251.019 69.2122L228.613 74.093" fill="#8D8D8D"/>
<path d="M228.613 74.093L251.048 69.2405L228.642 74.1213" fill="#8D8D8D"/>
<path d="M228.642 74.1237L251.076 69.2575L228.671 74.1382" fill="#8D8D8D"/>
<path d="M228.671 74.1382L251.105 69.2857L228.7 74.1665" fill="#8D8D8D"/>
<path d="M228.7 74.169L251.134 69.3027L228.729 74.198" fill="#8D8D8D"/>
<path d="M228.729 74.198L251.163 69.331L228.758 74.2263" fill="#8D8D8D"/>
<path d="M228.758 74.2263L251.192 69.3593L228.744 74.2256" fill="#8D8D8D"/>
<path d="M228.787 74.2708L251.236 69.4045L228.787 74.2564" fill="#8D8D8D"/>
<path d="M228.816 74.296L251.265 69.4441L228.86 74.3394" fill="#8D8D8D"/>
<path d="M228.86 74.3412L251.294 69.4894L228.845 74.3557" fill="#8D8D8D"/>
<path d="M228.889 74.3996L251.337 69.5912L228.932 74.4575" fill="#8D8D8D"/>
<path d="M228.932 74.4575L251.366 69.5912L229.019 74.5155" fill="#8D8D8D"/>
<path d="M229.019 74.5155L251.395 69.5912V69.6637L229.019 74.5879L229.019 74.5155Z" fill="#8D8D8D"/>
<path d="M229.019 74.5879L251.453 69.7214V69.8227L229.019 74.6746C229.019 74.6746 229.019 74.6748 229.019 74.5879Z" fill="#8D8D8D"/>
<path d="M229.019 74.6746L251.467 69.8232C251.467 69.8232 251.467 69.9391 251.54 70.0115L229.091 74.8778C229.097 74.8103 229.097 74.7425 229.091 74.675" fill="#8D8D8D"/>
<path d="M229.106 74.8762L251.554 70.0099C251.554 70.0099 251.554 70.0099 251.554 70.0968L229.135 74.9631C229.135 74.9631 229.135 74.9631 229.135 74.8762" fill="#8D8D8D"/>
<path d="M229.135 74.961L251.569 70.0948L229.149 75.019" fill="#8D8D8D"/>
<path d="M229.149 75.019L251.583 70.1683L229.135 75.0346" fill="#8D8D8D"/>
<path d="M229.149 75.0799L251.598 70.2136L229.164 75.1378" fill="#8D8D8D"/>
<path d="M229.164 75.1364L251.598 70.2701L229.164 75.1799" fill="#8D8D8D"/>
<path d="M229.164 75.1817L251.612 70.3154L229.178 75.2396" fill="#8D8D8D"/>
<path d="M229.178 75.2383L251.612 70.372L229.178 75.2817" fill="#8D8D8D"/>
<path d="M229.178 75.2835L251.612 70.4172L229.178 75.3849" fill="#8D8D8D"/>
<path d="M229.178 75.3849L251.612 70.5191V70.5335L229.178 75.4007L229.178 75.3849Z" fill="#8D8D8D"/>
</g>
</g>
<defs>
<filter id="filter0_f_2170_68818" x="183" y="68" width="72.3235" height="49.3472" filterUnits="userSpaceOnUse" color-interpolation-filters="sRGB">
<feFlood flood-opacity="0" result="BackgroundImageFix"/>
<feBlend mode="normal" in="SourceGraphic" in2="BackgroundImageFix" result="shape"/>
<feGaussianBlur stdDeviation="7" result="effect1_foregroundBlur_2170_68818"/>
</filter>
<linearGradient id="paint0_linear_2170_68818" x1="186.5" y1="4.07525e-08" x2="186.853" y2="116" gradientUnits="userSpaceOnUse">
<stop offset="0.0935165" stop-color="white" stop-opacity="0"/>
<stop offset="1" stop-color="white"/>
</linearGradient>
<linearGradient id="paint1_linear_2170_68818" x1="258.5" y1="133" x2="102.358" y2="45.716" gradientUnits="userSpaceOnUse">
<stop offset="0.0264805" stop-color="#EAEAEA" stop-opacity="0.91"/>
<stop offset="0.678176" stop-color="#D9D9D9" stop-opacity="0"/>
</linearGradient>
</defs>
</svg>
