<svg width="12" height="12" viewBox="0 0 12 12" fill="none" xmlns="http://www.w3.org/2000/svg">
<path fill-rule="evenodd" clip-rule="evenodd" d="M11.4 1.2H9.00002V0H7.80001V1.2H4.20001V0H3.00001V1.2H0.600001C0.26863 1.2 0 1.46863 0 1.8V11.4C0 11.7314 0.26863 12 0.600001 12H11.4C11.7314 12 12 11.7314 12 11.4V1.8C12 1.46863 11.7314 1.2 11.4 1.2ZM1.20001 6H10.8V10.8H1.20001V6ZM7.80002 2.39999H4.20002V3.6H3.00001V2.39999H1.20001V4.8H10.8V2.39999H9.00002V3.6H7.80002V2.39999ZM3.6 7.20001H2.39999V8.40001H3.6V7.20001ZM5.40001 7.20001H6.60001V8.40001H5.40001V7.20001ZM9.60003 8.40001V7.20001H8.40002V8.40001H9.60003Z" fill="#3E78D0"/>
</svg>
