<svg width="40" height="40" viewBox="0 0 40 40" fill="none" xmlns="http://www.w3.org/2000/svg">
<path d="M23.575 22.3502C25.225 22.3502 26.775 23.0002 27.95 24.1752L28.65 24.8502L32.425 21.1002V7.4252C32.425 4.7002 30.175 2.4502 27.45 2.4502H7.475C4.725 2.4502 2.5 4.7002 2.5 7.4252V29.8002C2.5 32.5252 4.75 34.7752 7.475 34.7752C7.475 34.7752 16.35 34.7752 17.5 34.7752C18.95 34.7752 19.35 33.4752 18.5 32.0752C17 29.5252 17.025 26.3252 19.175 24.1502C20.375 23.0002 21.9 22.3502 23.575 22.3502ZM11.225 9.9252H23.7C24.4 9.9252 24.95 10.4752 24.95 11.1752C24.95 11.8752 24.4 12.4252 23.7 12.4252H11.225C10.525 12.4252 9.975 11.8752 9.975 11.1752C9.975 10.4752 10.525 9.9252 11.225 9.9252ZM13.7 27.3252H11.2C10.5 27.3252 9.95 26.7752 9.95 26.0752C9.95 25.3752 10.5 24.8252 11.2 24.8252H13.7C14.4 24.8252 14.95 25.3752 14.95 26.0752C14.95 26.7752 14.4 27.3252 13.7 27.3252ZM11.225 19.8752C10.525 19.8752 9.975 19.3252 9.975 18.6252C9.975 17.9252 10.525 17.3752 11.225 17.3752H23.7C24.4 17.3752 24.95 17.9252 24.95 18.6252C24.95 19.3252 24.4 19.8752 23.7 19.8752H11.225ZM39.525 22.7002C39.05 22.2252 38.3 22.2252 37.825 22.7002L28.625 31.8752L24.425 27.6752C23.95 27.2002 23.175 27.2002 22.725 27.6752C22.25 28.1502 22.25 28.9002 22.725 29.3752L27.85 34.5002C28.325 34.9752 29.1 34.9752 29.55 34.5002C29.675 34.3752 39.525 24.4002 39.525 24.4002C40 23.9502 40 23.1752 39.525 22.7002Z" fill="url(#paint0_linear_1025_53772)"/>
<defs>
<linearGradient id="paint0_linear_1025_53772" x1="8.29778" y1="2.21023" x2="17.8832" y2="35.8003" gradientUnits="userSpaceOnUse">
<stop stop-color="#3E78D0"/>
<stop offset="1" stop-color="#5B92D9"/>
</linearGradient>
</defs>
</svg>
