<svg width="29" height="34" viewBox="0 0 29 34" fill="none" xmlns="http://www.w3.org/2000/svg">
<path fill-rule="evenodd" clip-rule="evenodd" d="M5.45544 0.200195H23.8968C26.5804 0.200195 28.7562 2.37598 28.7562 5.05566V12.0205V28.5291C28.7562 31.1801 26.6072 33.3291 23.9562 33.3291H12.1625H5.45544C2.77576 33.3291 0.599976 31.1572 0.599976 28.4775V5.05176C0.599976 2.37207 2.77576 0.200195 5.45544 0.200195ZM8.50793 8.76796C8.27943 8.77818 8.06367 8.87615 7.90559 9.04146C7.74751 9.20677 7.65929 9.42668 7.65929 9.65541C7.65929 9.88414 7.74751 10.1041 7.90559 10.2694C8.06367 10.4347 8.27943 10.5326 8.50793 10.5429C8.73642 10.5326 8.95218 10.4347 9.11026 10.2694C9.26834 10.1041 9.35656 9.88414 9.35656 9.65541C9.35656 9.42668 9.26834 9.20677 9.11026 9.04146C8.95218 8.87615 8.73642 8.77818 8.50793 8.76796ZM8.50793 12.3177C7.0392 12.3177 5.84558 11.1232 5.84558 9.65541C5.84558 8.18668 7.0392 6.99307 8.50793 6.99307C9.66493 6.99307 10.6521 7.73468 11.0183 8.76807H19.601C22.0477 8.76807 24.0382 10.7586 24.0382 13.2053C24.0382 15.652 22.0477 17.6425 19.601 17.6425H17.6742C17.3081 18.6758 16.3214 19.4173 15.1638 19.4173C14.0062 19.4173 13.0194 18.6758 12.6534 17.6425H9.83909C8.37126 17.6425 7.17675 18.8362 7.17675 20.3049C7.17675 21.7727 8.37126 22.9672 9.83909 22.9672H18.4219C18.7882 21.9342 19.7753 21.1922 20.9322 21.1922C22.4 21.1922 23.5945 22.3867 23.5945 23.8546C23.5945 25.3224 22.4 26.5169 20.9322 26.5169C19.7754 26.5169 18.7884 25.775 18.422 24.7421H9.83909C7.3924 24.7421 5.40186 22.7516 5.40186 20.3049C5.40186 17.8582 7.3924 15.8676 9.83909 15.8676H12.6533C13.0193 14.8343 14.0061 14.0926 15.1638 14.0926C16.3215 14.0926 17.3083 14.8343 17.6743 15.8676H19.601C21.0689 15.8676 22.2634 14.674 22.2634 13.2053C22.2634 11.7375 21.0689 10.543 19.601 10.543H11.0181C10.6517 11.5759 9.66472 12.3177 8.50793 12.3177ZM20.9322 22.9671C20.7037 22.9773 20.4879 23.0753 20.3299 23.2406C20.1718 23.4059 20.0835 23.6258 20.0835 23.8546C20.0835 24.0833 20.1718 24.3032 20.3299 24.4685C20.4879 24.6338 20.7037 24.7318 20.9322 24.742C21.1607 24.7318 21.3764 24.6338 21.5345 24.4685C21.6926 24.3032 21.7808 24.0833 21.7808 23.8546C21.7808 23.6258 21.6926 23.4059 21.5345 23.2406C21.3764 23.0753 21.1607 22.9773 20.9322 22.9671ZM15.1638 15.8675C14.9353 15.8778 14.7195 15.9757 14.5614 16.141C14.4034 16.3063 14.3151 16.5263 14.3151 16.755C14.3151 16.9837 14.4034 17.2036 14.5614 17.3689C14.7195 17.5342 14.9353 17.6322 15.1638 17.6424C15.3923 17.6322 15.608 17.5342 15.7661 17.3689C15.9242 17.2036 16.0124 16.9837 16.0124 16.755C16.0124 16.5263 15.9242 16.3063 15.7661 16.141C15.608 15.9757 15.3923 15.8778 15.1638 15.8675Z" fill="url(#paint0_linear_1025_53764)"/>
<defs>
<linearGradient id="paint0_linear_1025_53764" x1="4.96697" y1="-0.0451173" x2="17.4737" y2="32.2463" gradientUnits="userSpaceOnUse">
<stop stop-color="#3E78D0"/>
<stop offset="1" stop-color="#5B92D9"/>
</linearGradient>
</defs>
</svg>
