<svg width="80" height="80" viewBox="0 0 80 80" fill="none" xmlns="http://www.w3.org/2000/svg">
<rect opacity="0.01" width="80" height="80" fill="black"/>
<path fill-rule="evenodd" clip-rule="evenodd" d="M40 5C20.6719 5 5 20.6719 5 40C5 59.3281 20.6719 75 40 75C59.3281 75 75 59.3281 75 40C75 20.6719 59.3281 5 40 5ZM55.1172 28.5703L38.6641 51.3828C37.6719 52.7656 35.6172 52.7656 34.625 51.3828L24.8828 37.8828C24.5859 37.4688 24.8828 36.8906 25.3906 36.8906H29.0547C29.8516 36.8906 30.6094 37.2734 31.0781 37.9297L36.6406 45.6484L48.9219 28.6172C49.3906 27.9688 50.1406 27.5781 50.9453 27.5781H54.6094C55.1172 27.5781 55.4141 28.1562 55.1172 28.5703Z" fill="#3ED096"/>
</svg>
