<svg width="14" height="14" viewBox="0 0 14 14" fill="none" xmlns="http://www.w3.org/2000/svg">
<path d="M7.00004 13.6663C3.31804 13.6663 0.333374 10.6817 0.333374 6.99967C0.333374 3.31767 3.31804 0.333008 7.00004 0.333008C10.682 0.333008 13.6667 3.31767 13.6667 6.99967C13.6667 10.6817 10.682 13.6663 7.00004 13.6663ZM6.33337 8.99967V10.333H7.66671V8.99967H6.33337ZM7.66671 7.90301C8.20249 7.74152 8.66244 7.39298 8.96281 6.92084C9.26318 6.4487 9.38397 5.88438 9.3032 5.33065C9.22242 4.77693 8.94545 4.27063 8.52272 3.90398C8.09999 3.53732 7.55962 3.3347 7.00004 3.33301C6.46061 3.33297 5.93782 3.51978 5.52057 3.86167C5.10332 4.20356 4.81738 4.67943 4.71137 5.20834L6.01937 5.47034C6.05649 5.28463 6.14559 5.11328 6.27628 4.97622C6.40698 4.83916 6.57392 4.74204 6.75766 4.69614C6.9414 4.65025 7.13439 4.65748 7.31419 4.71699C7.49398 4.77649 7.65318 4.88583 7.77326 5.03228C7.89334 5.17873 7.96937 5.35627 7.99249 5.54424C8.01562 5.7322 7.98489 5.92288 7.90389 6.09406C7.82288 6.26525 7.69493 6.40992 7.53492 6.51123C7.37491 6.61254 7.18943 6.66633 7.00004 6.66634C6.82323 6.66634 6.65366 6.73658 6.52864 6.8616C6.40361 6.98663 6.33337 7.1562 6.33337 7.33301V8.33301H7.66671V7.90301Z" fill="black" fill-opacity="0.25"/>
</svg>
