<svg xmlns="http://www.w3.org/2000/svg" viewBox="0 0 22 22"><path d="M13.268 3a.66.66 0 0 1 .403.137l.066.058 3.213 3.236c.162.163.263.378.286.608l.005.099V11c0 .353-.091.665-.505.665-.414 0-.503-.315-.545-.665V7.276L13.268 4H4.993v13.667h5.627c.336 0 .618.253.658.588l.004.078a.665.665 0 0 1-.584.662L10.62 19H4.993a.996.996 0 0 1-.988-.904L4 18V4c0-.515.389-.946.898-.995L4.993 3h8.275Zm-.768-.003c.335 0 .535.256.574.592l.005.078v3.507h3.5c.335 0 .625.167.664.502l.005.078c0 .338-.259.535-.592.575l-.077.004h-3.642a.996.996 0 0 1-.988-.904l-.005-.096V3.667c0-.369.19-.67.556-.67Zm-4.528 10.67h1.324c.442 0 .662.222.662.666 0 .445-.22.667-.662.667H7.972c-.441 0-.662-.222-.662-.667 0-.444.22-.666.662-.666Zm0-2.667h2.648c.442 0 .662.222.662.667 0 .444-.22.666-.662.666H7.972c-.441 0-.662-.222-.662-.666 0-.445.22-.667.662-.667Zm0-2.667h1.986c.442 0 .662.223.662.667 0 .444-.22.667-.662.667H7.972c-.441 0-.662-.223-.662-.667 0-.444.22-.667.662-.667Zm5.296 7.334c0 .552.445 1 .994 1a.997.997 0 0 0 .993-1c0-.553-.445-1-.993-1a.997.997 0 0 0-.994 1Zm-.883-3.334-1.862 3.334L12.385 19h3.753L18 15.667l-1.862-3.334h-3.753Zm4.556 3.328-1.272 2.27h-2.78l-1.217-2.273 1.218-2.273h2.779l1.272 2.276Z" fill-rule="nonzero" fill="#303133" data-follow-fill="#303133"/></svg>