<svg xmlns="http://www.w3.org/2000/svg" viewBox="0 0 22 22"><g fill-rule="evenodd" fill="none"><path fill-rule="nonzero" fill="#303133" d="M13.078 8.527H6.694c-.266 0-.5-.243-.5-.522s.234-.522.5-.522h6.384c.266 0 .5.243.5.522s-.234.522-.5.522Zm-2.46 2.96H6.694c-.266 0-.5-.243-.5-.522 0-.278.234-.522.5-.522h3.924c.266 0 .498.244.498.522 0 .279-.232.523-.498.523Zm4.921 4.598a.417.417 0 0 1-.332-.14l-.865-.836a.974.974 0 0 1-.266-.661v-1.184c0-.279.233-.523.499-.523s.499.244.499.523v1.149l.798.766c.2.21.233.522.033.731-.067.105-.2.14-.366.175ZM14.675 18c-1.83 0-3.293-1.532-3.26-3.448 0-1.915 1.464-3.448 3.293-3.413 1.796 0 3.259 1.533 3.292 3.448-.033 1.88-1.496 3.413-3.325 3.413Zm0-5.85c-1.264 0-2.295 1.079-2.262 2.402 0 1.324 1.031 2.403 2.295 2.368 1.263 0 2.261-1.08 2.294-2.403-.033-1.288-1.064-2.368-2.327-2.368Z" data-follow-fill="#303133"/><path stroke-linejoin="round" stroke-linecap="round" stroke="#303133" d="M11 17.459H4.628V4.425h11.858v4.647" data-follow-stroke="#303133"/></g></svg>