<svg xmlns="http://www.w3.org/2000/svg" viewBox="0 0 22 22"><g fill-rule="evenodd" fill="none"><path fill="none" d="M0 0h22v22H0z"/><rect rx=".557" height="10" width="13" y="4.5" x="4.5" stroke="#303133" data-follow-stroke="#303133"/><rect rx=".5" height="1" width="10" y="16" x="6" fill-rule="nonzero" fill="#303133" data-follow-fill="#303133"/><path stroke="#303133" d="M14 9c-1.1 0-2 .9-2 2s.9 2 2 2 2-.9 2-2-.9-2-2-2Z" data-follow-stroke="#303133"/><path fill-rule="nonzero" fill="#303133" d="m14.893 10.921-.429.308.165.5c.014.05 0 .114-.05.142a.144.144 0 0 1-.079.022.163.163 0 0 1-.079-.022l-.421-.3-.429.308a.118.118 0 0 1-.15 0 .141.141 0 0 1-.05-.143l.165-.5-.429-.307a.141.141 0 0 1-.05-.143.122.122 0 0 1 .122-.093h.535l.165-.5A.122.122 0 0 1 14 10.1c.057 0 .107.036.121.093l.165.5h.528c.057 0 .107.036.122.093.021.043 0 .1-.043.135Z" data-follow-fill="#303133"/></g></svg>