<svg xmlns="http://www.w3.org/2000/svg" viewBox="0 0 26 26"><path d="M19.966 10.851a4.18 4.18 0 0 1-.228.65h.002l-.012.027c-.666 1.57-2.406 4.655-2.406 4.655l-.008-.02-.508.975h2.45L14.575 24l1.062-4.667h-1.93l.67-3.087a25.27 25.27 0 0 0-1.941.611s-1.026.663-2.958-1.275c0 0-1.303-1.263-.547-1.581.32-.133 1.56-.304 2.534-.451a116.99 116.99 0 0 1 2.125-.302s-4.057.068-5.02-.1c-.963-.166-2.182-1.938-2.443-3.495 0 0-.403-.855.863-.45 1.268.403 6.512 1.574 6.512 1.574S6.684 8.474 6.231 7.912C5.778 7.35 4.895 4.84 5.011 3.3c0 0 .05-.385.408-.283 0 0 5.043 2.543 8.49 3.932 3.448 1.392 6.444 2.101 6.057 3.902Z" fill-rule="nonzero" fill="#FFF" data-follow-fill="#FFF"/></svg>