<svg xmlns="http://www.w3.org/2000/svg" viewBox="0 0 22 22"><g fill-rule="nonzero" fill="none"><path fill="#333" d="m9.528 0 9.261 3.667.001 6.577a7.174 7.174 0 0 0-1.963-.34V5.101L9.528 2.273 1.963 5.101v6.96c-.002 2.753 1.696 5.275 4.398 6.534l3.034 1.412 1.625-.756c.37.516.823.978 1.343 1.37L9.395 22l-3.933-1.828C2.107 18.61-.002 15.478 0 12.06V3.667L9.528 0Z"/><path fill="#303133" d="M10.525 14.007c.222.613.09 1.26-.474 1.5a1.107 1.107 0 0 1-.43.085 1.106 1.106 0 0 1-1.113-1.115 1.113 1.113 0 0 1 1.112-1.114c.344 0 .686.297.905.644Zm-.719-8.818c.873 0 .925.695.928 1.103v.074l-.206 5.098c0 .392-.31.784-.619.784-.392 0-.691-.356-.808-.728l-.016-.056-.206-5.098.001-.1c.014-.502.153-1.077.926-1.077Z"/><path fill="#000" d="M15.235 16.334c0 1.105.903 2 2.016 2a2.007 2.007 0 0 0 2.015-2c0-1.104-.902-1.999-2.015-1.999a2.007 2.007 0 0 0-2.016 2Zm2.016-.666a.67.67 0 0 1 .671.666.67.67 0 0 1-.671.667.67.67 0 0 1-.672-.667c0-.368.3-.666.672-.666Z"/><path fill="#000" d="m21.664 13.442-4.078-2.353a.676.676 0 0 0-.671 0l-4.078 2.353a.666.666 0 0 0-.336.58v4.698c0 .24.127.46.336.58l4.078 2.366c.208.12.464.12.671 0l4.078-2.346a.666.666 0 0 0 .336-.58v-4.725a.666.666 0 0 0-.336-.573Zm-1.008 4.892-3.405 1.96-3.406-1.96v-3.932l3.406-1.96 3.405 1.96v3.932Z"/></g></svg>