<svg xmlns="http://www.w3.org/2000/svg" viewBox="0 0 22 22"><g fill-rule="nonzero" fill="#000" data-follow-fill="#000"><path d="M12.669 9.326H7.464a.52.52 0 0 1 0-1.04h5.227a.5.5 0 1 1 0 .996l-.022.044Zm-2.036 2.935H7.464a.5.5 0 1 1 0-.997h3.17a.5.5 0 1 1 0 .997Zm.362 6.241H5.968A1.97 1.97 0 0 1 4 16.542V6.96A1.97 1.97 0 0 1 5.968 5h9.33a1.97 1.97 0 0 1 1.974 1.96v4.17h-1.278V6.96a.69.69 0 0 0-.695-.707h-9.33a.689.689 0 0 0-.69.707v9.6c0 .38.309.69.69.69h5.026v1.252Z"/><path d="m14.615 11.362.006.001 2.984.856a.425.425 0 0 1 .075.03l-.076-.03a.421.421 0 0 1 .253.2l.001.002.032.074a6.781 6.781 0 0 1 .323 2.065c0 1.933-1.177 3.656-3.476 5.162a.423.423 0 0 1-.464 0c-2.3-1.506-3.477-3.23-3.477-5.162 0-.714.111-1.413.323-2.065l.03-.071.003-.005-.033.076a.424.424 0 0 1 .289-.277l2.98-.855a.423.423 0 0 1 .227-.001Zm-.11.849-2.644.757-.022.076c-.13.485-.197.996-.197 1.516 0 1.544.934 2.972 2.85 4.29l.013.008.012-.008c1.897-1.305 2.83-2.716 2.85-4.242v-.048a5.935 5.935 0 0 0-.218-1.591l-2.644-.758Zm1.59 1.858a.423.423 0 0 1 .004.593l-.005.005-1.613 1.61a.423.423 0 0 1-.384.115.413.413 0 0 1-.234-.116l-.005-.005-.91-.925a.423.423 0 0 1 .597-.599l.005.005.624.634 1.323-1.318a.423.423 0 0 1 .598 0Z"/></g></svg>