<svg width="48" height="20" viewBox="0 0 48 20" fill="none" xmlns="http://www.w3.org/2000/svg">
<path d="M0 0H48V19.2H1.92C0.859611 19.2 0 18.3404 0 17.28V0Z" fill="#F7A54B"/>
<path d="M21.9729 11.2006V14.1037H23.3323V14.6912H13.1486V14.1037H14.4619V11.2006H21.9729ZM15.0725 14.1037H16.835V11.7766H15.0725V14.1037ZM17.3995 14.1037H19.0699V11.7766H17.3995V14.1037ZM19.6344 14.1037H21.3509V11.7766H19.6344V14.1037ZM13.7016 6.01664H16.3742C16.1976 5.54816 15.9864 5.10272 15.7406 4.68032L16.3627 4.56512C16.6085 5.01056 16.8235 5.4944 17.0078 6.01664H19.4385C19.7534 5.52512 19.9761 5.02976 20.1067 4.53056L20.7057 4.6112C20.5752 5.07968 20.364 5.54816 20.0721 6.01664H22.7793V6.58112H18.5515V7.81376H22.1918V8.36672H18.5515V9.5648H23.2056V10.1523H13.2753V9.5648H17.9294V8.36672H14.3237V7.81376H17.9294V6.58112H13.7016V6.01664ZM29.4725 12.0416H26.2353V8.7008H33.3086V12.0416H30.0945V13.0093H34.8177V13.5853H30.0945V15.0944H29.4725V13.5853H24.7032V13.0093H29.4725V12.0416ZM26.8574 10.6246V11.5117H32.6865V10.6246H26.8574ZM32.6865 10.1178V9.23072H26.8574V10.1178H32.6865ZM27.2606 6.02816H25.4635V5.48672H29.4149C29.315 5.21024 29.1921 4.9184 29.0462 4.6112L29.7144 4.496C29.8219 4.74176 29.9409 5.072 30.0715 5.48672H34.0574V6.02816H32.2949L31.811 7.27232H34.6565V7.82528H24.876V7.27232H27.7445L27.2606 6.02816ZM28.3665 7.27232H31.1659L31.6497 6.02816H27.8827L28.3665 7.27232Z" fill="white"/>
</svg>
