<svg width="32" height="32" viewBox="0 0 32 32" fill="none" xmlns="http://www.w3.org/2000/svg">
<rect width="32" height="32" rx="4" fill="#5B92D9"/>
<path d="M18.379 16.7947C18.2314 16.7399 18.0848 16.6878 17.9391 16.6399C17.8466 16.6095 17.0762 16.1959 17.6273 15.2381H17.6226C18.5729 14.2593 19.2989 12.6836 19.2989 11.1326C19.2989 8.7479 17.7132 7.49805 15.8705 7.49805C14.0263 7.49805 12.449 8.7479 12.449 11.1326C12.449 12.6898 13.1718 14.2721 14.1275 15.2484C14.4997 16.2257 13.8323 16.5851 13.6942 16.6399C8.99992 17.5 8.99988 22.469 8.99988 22.469H9.5H15.3588L16.3577 18.8244L18.379 16.7947ZM22.0721 17.395L21.5084 16.8301L21.5116 16.8266L20.7568 16.0728L17.3234 19.4755C17.2764 19.5134 17.2363 19.5616 17.2181 19.624L16.4204 22.469L19.3305 21.7358C19.3888 21.7186 19.4339 21.6825 19.4709 21.639L22.9125 18.2278L22.0756 17.3916L22.0721 17.395ZM17.3513 21.5942C17.3513 21.5942 17.694 20.23 17.747 19.9868C18.4758 20.2995 18.9674 21.2069 18.9674 21.2069L17.3513 21.5942ZM21.0685 15.73L23.2245 17.8854L23.7177 17.4229L21.5614 15.2672L21.0685 15.73ZM24.2845 15.699L23.2512 14.6663C22.966 14.3811 22.5061 14.3783 22.2241 14.6606L21.9073 14.9805L23.9727 17.0469L24.2901 16.7261C24.5721 16.4447 24.5696 15.9844 24.2845 15.699Z" fill="white"/>
</svg>
