<svg xmlns="http://www.w3.org/2000/svg" viewBox="0 0 22 22"><path d="M12.998 8.461H9.007c-.552 0-1-.45-1-1.004V5.004c0-.554.448-1.004 1-1.004h3.991c.551 0 1 .45 1 1.004v2.453c0 .554-.449 1.004-1 1.004Zm-3.99-1.004h3.99L13 7.456v-2.45l-.002-.002h-3.99l-.001.002.001 2.451c-.001 0-.001 0 0 0ZM8.991 17H5c-.552 0-1-.45-1-1.004v-2.52c0-.553.448-1.003 1-1.003H8.99c.552 0 1 .45 1 1.004v2.52c0 .553-.448 1.003-1 1.003Zm-3.99-1.004h3.99l.002-.002v-2.517l-.002-.002h-3.99L5 13.477 5 15.996c-.001 0 0 0 0 0Zm12 1.004h-3.992c-.552 0-1-.45-1-1.004v-2.52c0-.553.448-1.003 1-1.003H17c.552 0 1 .45 1 1.004v2.52C18 16.55 17.552 17 17 17Zm-3.99-1.004H17V13.475h-3.99l-.002.002.001 2.519c-.001 0 0 0 0 0Zm2.504-2.973h-1v-2.04l-.002-.001H7.501l-.002.001v1.992h-1v-1.993c0-.554.449-1.005 1-1.005h7.014c.552 0 1 .45 1 1.005v2.041h.002ZM10.5 7.876h1v2.613h-1V7.876Z" fill-rule="nonzero" fill="#303133" data-follow-fill="#303133"/></svg>