<svg width="46" height="46" viewBox="0 0 46 46" fill="none" xmlns="http://www.w3.org/2000/svg">
<rect width="46" height="46" rx="8" fill="url(#paint0_linear_0_3037)"/>
<rect opacity="0.01" x="18.5" y="14" width="9" height="9" fill="black"/>
<g filter="url(#filter0_d_0_3037)">
<path fill-rule="evenodd" clip-rule="evenodd" d="M24.6935 19.5267H26.3537C26.6314 19.5486 26.8564 19.7622 26.8969 20.0355V21.0226C26.8652 21.3056 26.6367 21.5288 26.3511 21.5525H19.5079C19.2012 21.5411 18.9542 21.2994 18.934 20.9953V20.0856C18.9533 19.7868 19.1915 19.5469 19.4903 19.5267H21.2701L21.7509 18.4113C21.1559 18.0149 20.763 17.3373 20.763 16.5674C20.763 15.3439 21.7544 14.3525 22.9778 14.3525C24.2013 14.3525 25.1927 15.3439 25.1927 16.5674C25.1927 17.3338 24.8033 18.0097 24.2109 18.4069L24.6935 19.5267ZM26.5356 22.5809C26.7352 22.5809 26.896 22.4191 26.896 22.2205C26.896 22.0219 26.7352 21.861 26.5356 21.8602H19.2935C19.0939 21.8602 18.9331 22.0219 18.9331 22.2205C18.9331 22.42 19.0948 22.5809 19.2935 22.5809H26.5356Z" fill="#C0D0FF"/>
</g>
<rect opacity="0.01" x="10" y="10" width="26" height="26" fill="black"/>
<g filter="url(#filter1_d_0_3037)">
<path d="M29.1924 18L27.175 18V18.8854H28.8041L32.8094 23.293H26.08C26.0799 25.0044 24.7009 26.3917 23 26.3917C21.2991 26.3917 19.9201 25.0044 19.92 23.293H13.1971L17.2282 18.8854H18.9559V18H16.8529L12 23.293V33H34V23.293L29.1924 18Z" fill="white"/>
</g>
<defs>
<filter id="filter0_d_0_3037" x="17.9331" y="14.3525" width="9.96387" height="10.2285" filterUnits="userSpaceOnUse" color-interpolation-filters="sRGB">
<feFlood flood-opacity="0" result="BackgroundImageFix"/>
<feColorMatrix in="SourceAlpha" type="matrix" values="0 0 0 0 0 0 0 0 0 0 0 0 0 0 0 0 0 0 127 0" result="hardAlpha"/>
<feOffset dy="1"/>
<feGaussianBlur stdDeviation="0.5"/>
<feColorMatrix type="matrix" values="0 0 0 0 0.311719 0 0 0 0 0.432827 0 0 0 0 0.7875 0 0 0 1 0"/>
<feBlend mode="normal" in2="BackgroundImageFix" result="effect1_dropShadow_0_3037"/>
<feBlend mode="normal" in="SourceGraphic" in2="effect1_dropShadow_0_3037" result="shape"/>
</filter>
<filter id="filter1_d_0_3037" x="10" y="18" width="26" height="19" filterUnits="userSpaceOnUse" color-interpolation-filters="sRGB">
<feFlood flood-opacity="0" result="BackgroundImageFix"/>
<feColorMatrix in="SourceAlpha" type="matrix" values="0 0 0 0 0 0 0 0 0 0 0 0 0 0 0 0 0 0 127 0" result="hardAlpha"/>
<feOffset dy="2"/>
<feGaussianBlur stdDeviation="1"/>
<feColorMatrix type="matrix" values="0 0 0 0 0 0 0 0 0 0.131634 0 0 0 0 0.700294 0 0 0 0.08 0"/>
<feBlend mode="normal" in2="BackgroundImageFix" result="effect1_dropShadow_0_3037"/>
<feBlend mode="normal" in="SourceGraphic" in2="effect1_dropShadow_0_3037" result="shape"/>
</filter>
<linearGradient id="paint0_linear_0_3037" x1="42.6554" y1="46" x2="42.6554" y2="6.68914" gradientUnits="userSpaceOnUse">
<stop stop-color="#7F9AE0"/>
<stop offset="1" stop-color="#6582D6"/>
</linearGradient>
</defs>
</svg>
