<svg xmlns="http://www.w3.org/2000/svg" viewBox="0 0 22 22"><g fill-rule="nonzero" fill="#000" data-follow-fill="#000"><path d="m14.33 15.824.014.015a.178.178 0 0 0 .027.023l.056.056c.347.356.585.81.682 1.304a.73.73 0 0 0 .026.168c.106.397.48.654.877.604a.82.82 0 0 0 .707-.805.823.823 0 0 0-.673-.835l-.048-.007a2.458 2.458 0 0 1-1.304-.706l-.078-.08a.19.19 0 0 0-.263-.005.202.202 0 0 0-.023.27v-.002Zm2.551.636.017-.014a2.46 2.46 0 0 1 1.347-.785.79.79 0 0 0 .521-.24.845.845 0 0 0 .139-.974.8.8 0 0 0-.864-.422.82.82 0 0 0-.648.724 2.566 2.566 0 0 1-.687 1.337l-.079.08a.202.202 0 0 0-.011.277c.07.08.189.088.268.018l-.002-.001Zm.622-2.62-.014-.015a.238.238 0 0 0-.027-.023l-.052-.051a2.565 2.565 0 0 1-.681-1.306c0-.026-.005-.053-.009-.08a.813.813 0 0 0-.82-.697.816.816 0 0 0-.779.746.827.827 0 0 0 .62.889c.016 0 .033.007.049.01l.048.006c.495.094.95.34 1.304.706.027.028.052.055.08.081a.19.19 0 0 0 .262.005.202.202 0 0 0 .023-.27h-.004Zm-2.553-.637a.26.26 0 0 0-.038.042l-.053.058c-.347.357-.79.6-1.272.698-.025 0-.052.006-.078.01a.796.796 0 0 0-.442.231.846.846 0 0 0-.161.947.803.803 0 0 0 .818.467.815.815 0 0 0 .697-.64l.01-.05c0-.017.004-.035.006-.05.094-.508.335-.975.692-1.339l.079-.08a.202.202 0 0 0 .004-.27.19.19 0 0 0-.262-.025v.001Z"/><path d="M16.151 9.155a5.063 5.063 0 0 0-.896-1.306c-.936-.994-2.246-1.633-3.69-1.802a6.572 6.572 0 0 0-1.492-.006c-1.45.162-2.767.8-3.71 1.794-.365.383-.67.822-.9 1.303A4.649 4.649 0 0 0 5 11.156c.003.919.271 1.816.771 2.578.337.506.74.965 1.194 1.361l-.232.986-.067.277a.445.445 0 0 0-.033.143.457.457 0 0 0 .216.44.433.433 0 0 0 .446-.001h.007c.009-.007.02-.012.028-.018l1.658-.856a6.528 6.528 0 0 0 2.577.21c.5-.06.99-.177 1.463-.352a.828.828 0 0 1-.55-.866c-.338.11-.685.185-1.036.226a5.36 5.36 0 0 1-1.253.004l-.126-.017a5.386 5.386 0 0 1-.82-.178.548.548 0 0 0-.443.046l-.034.02-1.063.645a.095.095 0 0 1-.047.017.07.07 0 0 1-.067-.072l.039-.16.045-.178.157-.615a.445.445 0 0 0-.153-.488 4.223 4.223 0 0 1-.426-.368 4.216 4.216 0 0 1-.604-.732 3.737 3.737 0 0 1-.613-2.03c.001-.552.126-1.097.367-1.592.185-.385.43-.737.722-1.044.775-.817 1.865-1.341 3.067-1.476a5.526 5.526 0 0 1 1.252.003c1.198.14 2.28.667 3.05 1.484.293.308.535.663.72 1.05.235.49.357 1.03.357 1.578 0 .056 0 .112-.005.169a.79.79 0 0 1 .99.12c.013.013.025.029.038.043a4.647 4.647 0 0 0-.44-2.358Z"/></g></svg>