<svg width="71" height="29" viewBox="0 0 71 29" fill="none" xmlns="http://www.w3.org/2000/svg">
<path d="M0 0H71V28.4H2.84C1.27151 28.4 0 27.1285 0 25.56V0Z" fill="#5B92D9"/>
<path d="M27.4581 6.14648C27.4581 7.4188 27.4183 8.66272 27.3388 9.87824C28.293 14.604 30.7865 18.2165 34.8193 20.7157L34.2059 21.4995C30.5366 19.1253 28.1397 15.9274 27.015 11.906C26.0721 15.7798 23.6297 18.9833 19.6878 21.5166L19.1255 20.6986C23.874 17.7337 26.3334 13.8031 26.5038 8.90696L26.5209 6.14648H27.4581ZM38.1592 11.8208V14.9732H40.4766V11.8208H38.1592ZM40.4766 10.9858V7.78232H38.1592V10.9858H40.4766ZM38.1421 15.8252C38.0399 18.1767 37.6196 20.1193 36.8812 21.6529L36.1996 21.0394C36.9039 19.4377 37.2617 17.4156 37.2731 14.9732V6.91328H41.3286V19.983C41.3286 21.0508 40.8288 21.5847 39.8291 21.5847H38.7045L38.4829 20.7327C38.8578 20.7668 39.21 20.7838 39.5394 20.7838C40.1642 20.7838 40.4766 20.4203 40.4766 19.6933V15.8252H38.1421ZM44.2254 11.1562H49.3204V12.0082H44.2254V11.1562ZM42.0954 20.1193H47.7016C48.5195 18.279 49.2352 16.0126 49.8486 13.3203L50.7517 13.5589C50.161 16.0694 49.451 18.2562 48.6217 20.1193H51.5867V21.0054H42.0954V20.1193ZM43.629 13.8315C44.1743 15.2515 44.6514 16.8987 45.0604 18.7731L44.2595 18.9776C43.8846 17.3077 43.4075 15.6832 42.8281 14.1042L43.629 13.8315ZM46.2702 13.1329C46.7133 14.4961 47.1279 16.0865 47.5141 17.9041L46.7133 18.1086C46.3838 16.4386 45.9692 14.871 45.4693 13.4055L46.2702 13.1329ZM47.1563 6.26576C48.0878 8.45824 49.6839 10.3951 51.9445 12.0764L51.4333 12.8432C49.309 11.3096 47.7413 9.42384 46.7303 7.18592C45.4921 9.63968 43.9471 11.5254 42.0954 12.8432L41.6013 12.0934C43.6461 10.5939 45.2137 8.65136 46.3043 6.26576H47.1563Z" fill="white"/>
</svg>
