<svg xmlns="http://www.w3.org/2000/svg" viewBox="0 0 22 22"><path d="M17 14.998H5.017c-.551 0-1-.449-1-1.001V5.002c0-.553.449-1.002 1-1.002H17c.552 0 1 .45 1 1.002v8.995c0 .552-.448 1.001-1 1.001ZM5.02 13.997H17l.002-.002V5.003L17 5.002H5.02l-.002.001.002 8.994c-.002 0-.002 0 0 0ZM4.499 17a.5.5 0 1 1 0-1.002l12.992-.01a.5.5 0 1 1 0 1.001L4.5 17c.002 0 0 0 0 0Zm4.518-4.783h-.002c-.43-.002-.653-.435-.762-.645-.127-.244-.257-.562-.383-.869-.1-.244-.205-.496-.302-.7a3.108 3.108 0 0 0-.092-.18 2.62 2.62 0 0 0-.31.303c-.184.207-.32.396-.321.397a.5.5 0 0 1-.812-.582c.007-.01.2-.28.451-.55.417-.451.767-.661 1.098-.664h.005c.205 0 .39.097.552.288.08.095.16.22.245.383.137.263.276.6.41.924.057.14.138.338.22.52.13-.268.274-.597.382-.837.685-1.54 1.04-2.282 1.628-2.282.538 0 .984.536 1.655 1.417.115.152.27.355.389.494.173-.153.515-.513 1.128-1.338.51-.685.945-1.344.95-1.35a.5.5 0 0 1 .833.552c-.021.031-.512.773-1.082 1.53-.339.45-.637.813-.882 1.074-.42.447-.708.628-.999.628-.28 0-.489-.196-.675-.405-.139-.158-.293-.362-.46-.58-.185-.244-.377-.497-.56-.702a2.717 2.717 0 0 0-.226-.232c-.06.088-.143.229-.255.451-.172.338-.355.75-.531 1.147-.18.404-.349.784-.5 1.077-.09.175-.167.302-.24.4-.059.084-.241.331-.552.331Z" fill-rule="nonzero" fill="#000" data-follow-fill="#000"/></svg>