<svg xmlns="http://www.w3.org/2000/svg" viewBox="0 0 22 22"><path d="M20.429 17.92H1.599c-.867 0-1.572-.69-1.572-1.54V2.54C.027 1.691.732 1 1.598 1h18.83C21.296 1 22 1.691 22 2.541V16.38c0 .85-.705 1.541-1.571 1.541ZM1.6 16.38h18.828l.002-.003V2.543l-.002-.002H1.6l-.003.002.003 13.836c-.003 0-.003 0 0 0ZM.786 21A.777.777 0 0 1 0 20.23c0-.427.351-.771.786-.771l20.414-.017c.434 0 .785.344.785.77 0 .427-.35.771-.785.771L.786 21c.002 0 0 0 0 0Zm7.097-7.359h-.002c-.675-.002-1.026-.669-1.198-.992-.2-.375-.403-.864-.602-1.336a22.21 22.21 0 0 0-.474-1.076 4.744 4.744 0 0 0-.144-.28 4.079 4.079 0 0 0-.487.468c-.29.317-.503.609-.505.611a.794.794 0 0 1-1.095.178.76.76 0 0 1-.182-1.074c.012-.016.314-.43.71-.847.655-.694 1.205-1.016 1.726-1.021h.007c.321 0 .614.15.867.443.125.147.252.34.385.59.216.404.435.922.643 1.42.091.217.219.52.346.802.204-.414.432-.92.602-1.288 1.075-2.37 1.632-3.51 2.558-3.51.845 0 1.547.823 2.6 2.179.182.233.425.546.611.76.273-.236.81-.79 1.773-2.058.8-1.055 1.485-2.069 1.493-2.078a.793.793 0 0 1 1.087-.217.76.76 0 0 1 .221 1.067c-.032.048-.803 1.19-1.699 2.352a20.66 20.66 0 0 1-1.387 1.654c-.658.687-1.112.966-1.569.966-.44 0-.768-.301-1.06-.624-.219-.243-.462-.556-.722-.89-.292-.376-.594-.766-.881-1.082a4.224 4.224 0 0 0-.356-.356 6.561 6.561 0 0 0-.4.693c-.27.52-.558 1.154-.835 1.765-.283.622-.548 1.207-.786 1.657a4.73 4.73 0 0 1-.376.616c-.093.128-.38.508-.869.508Z" fill-rule="nonzero" fill="#000" data-follow-fill="#000"/></svg>