<svg xmlns="http://www.w3.org/2000/svg" viewBox="0 0 22 22"><path d="M15.958 4c.451 0 .828.342.871.791l.004.084v5.541a.583.583 0 0 1-1.162.069l-.004-.069v-5.25h-10.5v10.5h4.67c.295 0 .544.222.579.515l.004.069a.583.583 0 0 1-.516.579l-.068.004H4.875a.875.875 0 0 1-.87-.791L4 15.958V4.875c0-.45.342-.828.791-.87L4.875 4h11.083Zm-6.125 7h2.917a.583.583 0 0 0 0-1.167H9.833a.583.583 0 0 0 0 1.167Zm-2.916 0H7.5a.583.583 0 0 0 0-1.167h-.583a.583.583 0 0 0 0 1.167Zm0 2.333H7.5a.583.583 0 0 0 0-1.167h-.583a.583.583 0 0 0 0 1.167Zm2.333-5.25c0 .322.261.584.583.584h2.917a.583.583 0 0 0 0-1.167H9.833a.583.583 0 0 0-.583.583Zm-2.917 0c0 .322.262.584.584.584H7.5a.583.583 0 1 0 0-1.167h-.583a.583.583 0 0 0-.584.583Zm10.792 4.083h-5.25a.875.875 0 0 0-.875.875v2.913l.004.084c.044.449.42.79.871.79h1.903l2.21 1.11.062.027a.583.583 0 0 0 .783-.549v-.587h.292a.875.875 0 0 0 .875-.875V13.04a.875.875 0 0 0-.875-.875Zm-.292 1.167v2.33h-.583l-.068.003a.583.583 0 0 0-.515.58v.225l-1.489-.747-.062-.027a.583.583 0 0 0-.2-.035h-1.75v-2.329h4.667Z" fill-rule="nonzero" fill="#303133" data-follow-fill="#303133"/></svg>