<svg xmlns="http://www.w3.org/2000/svg" viewBox="0 0 23 23"><g fill-rule="nonzero" fill="#D0963E" data-follow-fill="#D0963E"><path d="M17.93 18.992h-4.248c-.58 0-1.062-.483-1.062-1.062v-4.248c0-.58.482-1.062 1.062-1.062h4.248c.58 0 1.062.482 1.062 1.062v4.248c0 .58-.483 1.062-1.062 1.062Z"/><path opacity=".503" d="M17.93 11.364h-4.248c-.58 0-1.062-.482-1.062-1.062V6.054c0-.58.482-1.062 1.062-1.062h4.248c.58 0 1.062.483 1.062 1.062v4.248c0 .58-.483 1.062-1.062 1.062Z"/><path d="M10.302 18.992H6.054c-.58 0-1.062-.483-1.062-1.062v-4.248c0-.58.483-1.062 1.062-1.062h4.248c.58 0 1.062.482 1.062 1.062v4.248c0 .58-.482 1.062-1.062 1.062ZM10.302 11.364H6.054c-.58 0-1.062-.482-1.062-1.062V6.054c0-.58.483-1.062 1.062-1.062h4.248c.58 0 1.062.483 1.062 1.062v4.248c0 .58-.482 1.062-1.062 1.062Z"/></g></svg>