<svg xmlns="http://www.w3.org/2000/svg" viewBox="0 0 23 23"><path d="M17.93 18.992h-4.248c-.58 0-1.062-.483-1.062-1.062v-4.248c0-.58.482-1.062 1.062-1.062h4.248c.58 0 1.062.482 1.062 1.062v4.248c0 .58-.483 1.062-1.062 1.062Zm0-4.828c0-.29-.193-.579-.58-.579h-3.186c-.29.097-.482.29-.482.58v3.186c0 .29.193.579.579.579h3.186c.29 0 .58-.193.58-.58v-3.186h-.097Zm0-2.8h-4.248c-.58 0-1.062-.482-1.062-1.062V6.054c0-.58.482-1.062 1.062-1.062h4.248c.58 0 1.062.483 1.062 1.062v4.248c0 .58-.483 1.062-1.062 1.062Zm0-4.73c0-.29-.193-.58-.58-.58h-3.186c-.29 0-.482.29-.482.58V9.82c0 .29.193.579.579.579h3.186c.29 0 .58-.193.58-.58V6.634h-.097Zm-7.628 12.358H6.054c-.58 0-1.062-.483-1.062-1.062v-4.248c0-.58.483-1.062 1.062-1.062h4.248c.58 0 1.062.482 1.062 1.062v4.248c0 .58-.482 1.062-1.062 1.062Zm0-4.828c0-.29-.193-.482-.482-.482H6.633c-.29 0-.579.193-.579.482v3.187c0 .29.193.579.58.579H9.82c.29 0 .579-.193.579-.58l-.097-3.186Zm0-2.8H6.054c-.58 0-1.062-.482-1.062-1.062V6.054c0-.58.483-1.062 1.062-1.062h4.248c.58 0 1.062.483 1.062 1.062v4.248c0 .58-.482 1.062-1.062 1.062Zm0-4.73c0-.29-.193-.58-.579-.58h-3.09c-.29 0-.579.193-.579.58V9.82c0 .29.193.579.58.579H9.82c.29 0 .579-.193.579-.58l-.097-3.186Z" fill-rule="nonzero" fill="#000" data-follow-fill="#000"/></svg>