<svg xmlns="http://www.w3.org/2000/svg" viewBox="0 0 22 22"><path d="M14.95 7.266H6.692c-.323 0-.538-.213-.538-.533 0-.32.215-.533.538-.533h8.258c.323 0 .539.213.539.533 0 .32-.215.533-.539.533Zm-2.526 3.2H6.692c-.323 0-.538-.213-.538-.533 0-.32.215-.533.538-.533h5.732c.323 0 .539.213.539.533 0 .32-.216.533-.54.533Zm-3.941 3.2h-1.79c-.324 0-.54-.213-.54-.533 0-.32.216-.533.54-.533h1.79c.323 0 .538.213.538.533 0 .32-.215.534-.538.534Zm8.821.046h-5.727a.692.692 0 0 0-.695.688v3.91c0 .381.311.69.695.69h5.727a.692.692 0 0 0 .695-.69V14.4a.685.685 0 0 0-.203-.486.699.699 0 0 0-.492-.202Zm-.886.881-1.97 1.12-1.97-1.12h3.94Zm-4.646 3.525V15.14l2.676 1.486 2.662-1.472v2.964h-5.338ZM16.385 3H5.615C4.755 3 4 3.747 4 4.6v12.8c0 .853.754 1.6 1.615 1.6h3.106a.534.534 0 1 0 0-1.068l-.017.001H5.616c-.323 0-.539-.213-.539-.533V4.6c0-.169.062-.307.166-.4a.546.546 0 0 1 .373-.133h10.768c.153 0 .28.049.373.133a.523.523 0 0 1 .166.4v6.683c0 .32.215.534.538.534.324 0 .539-.213.539-.534V4.6c0-.853-.754-1.6-1.615-1.6Z" fill-rule="nonzero" fill="#000" data-follow-fill="#000"/></svg>