<svg xmlns="http://www.w3.org/2000/svg" viewBox="0 0 20 20"><g fill-rule="nonzero" fill="none"><path fill="#606266" d="m10.054 16.25 3.464 2H4.75a1 1 0 0 1 0-2h5.304Z" data-follow-fill="#606266"/><g opacity=".497" fill="#606266" data-follow-fill="#606266"><path d="m15 7.5 3.75 2.188v4.374L15 16.25l-3.75-2.188V9.689L15 7.5Zm0 2.625c-.957 0-1.732.784-1.732 1.75s.775 1.75 1.732 1.75 1.732-.784 1.732-1.75-.775-1.75-1.732-1.75Z"/><path d="M15 11a.87.87 0 0 1 .866.875.87.87 0 0 1-.866.875.87.87 0 0 1-.866-.875A.87.87 0 0 1 15 11Z"/></g><path stroke-linejoin="round" stroke-linecap="round" stroke-width="1.875" stroke="#606266" d="M10.053 14H2.75a1 1 0 0 1-1-1V4a1 1 0 0 1 1-1h14.5a1 1 0 0 1 1 1v3.732" data-follow-stroke="#606266"/></g></svg>