<svg width="34" height="34" viewBox="0 0 34 34" fill="none" xmlns="http://www.w3.org/2000/svg">
<path d="M30.8789 17.3086C30.707 17.1328 30.4805 17.0391 30.2305 17.0391C29.9883 17.0391 29.7539 17.1406 29.582 17.3086L27.9258 18.9648L31.418 22.4531L32.9766 20.6953C33.1523 20.5234 33.2461 20.2891 33.2461 20.0508C33.2461 19.8086 33.1445 19.5742 32.9766 19.4062L30.8789 17.3086ZM19.4609 13.6172H9.38281C8.27734 13.6172 7.38281 12.7227 7.38281 11.6211C7.38281 10.5156 8.27734 9.625 9.38281 9.625H19.4609C20.5664 9.625 21.4609 10.5195 21.4609 11.6211C21.4609 12.7266 20.5664 13.6172 19.4609 13.6172ZM15.4102 21.6484H9.38281C8.27734 21.6484 7.38281 20.7539 7.38281 19.6523C7.38281 18.5469 8.27734 17.6562 9.38281 17.6562H15.4102C16.5156 17.6562 17.4102 18.5508 17.4102 19.6523C17.4102 20.7578 16.5156 21.6484 15.4102 21.6484ZM24.0586 0.445312H5.61719C2.9375 0.445312 0.761719 2.61719 0.761719 5.29688V28.7227C0.761719 31.4023 2.9375 33.5742 5.61719 33.5742H12.3242V29.2266L28.918 12.2656V5.30078C28.918 2.62109 26.7422 0.445312 24.0586 0.445312ZM16.7031 30.0859V33.5742H20.2031L30.3164 23.3633L26.8242 19.8672L16.7031 30.0859Z" fill="url(#paint0_linear_1025_53759)"/>
<defs>
<linearGradient id="paint0_linear_1025_53759" x1="5.8" y1="0.2" x2="17.0039" y2="33.5742" gradientUnits="userSpaceOnUse">
<stop stop-color="#3E78D0"/>
<stop offset="1" stop-color="#5B92D9"/>
</linearGradient>
</defs>
</svg>
