<svg width="46" height="46" viewBox="0 0 46 46" fill="none" xmlns="http://www.w3.org/2000/svg">
<rect width="46" height="46" rx="8" fill="url(#paint0_linear_0_3026)"/>
<rect opacity="0.01" x="9" y="8" width="28" height="28" fill="black"/>
<g filter="url(#filter0_d_0_3026)">
<path fill-rule="evenodd" clip-rule="evenodd" d="M14.3428 26.4856C14.3428 27.6284 15.2571 28.5427 16.3999 28.5427H29.5999C30.7428 28.5427 31.6856 27.5999 31.6856 26.457V12.6284C31.6856 11.4856 30.7713 10.5713 29.6285 10.5713H16.3999C15.2571 10.5713 14.3428 11.4856 14.3428 12.6284V26.4856ZM25.0856 18.7427C25.3713 18.457 25.8285 18.457 26.1142 18.7427C26.3999 19.0284 26.3999 19.4856 26.1142 19.7427L23.5142 22.3427C23.3713 22.4856 23.1713 22.5713 22.9999 22.5713C22.8285 22.5713 22.6285 22.4856 22.4856 22.3427L19.8856 19.7427C19.5999 19.457 19.5999 18.9999 19.8856 18.7141C20.1713 18.4284 20.6285 18.4284 20.9142 18.7141L22.2571 20.057V14.9713C22.2571 14.5427 22.5713 14.2284 22.9999 14.2284C23.4285 14.2284 23.7428 14.5713 23.7428 14.9713V20.0856L25.0856 18.7427Z" fill="white"/>
</g>
<g filter="url(#filter1_d_0_3026)">
<path d="M31.8573 33.4284H14.1431C13.0573 33.4284 12.2002 32.5427 12.2002 31.4855V21.6855C12.2002 20.5998 13.0859 19.7427 14.1431 19.7427H17.9431V22.3141C17.9431 23.257 18.7145 24.0284 19.6573 24.0284H26.3716C27.3145 24.0284 28.0859 23.257 28.0859 22.3141V19.7427H31.8573C32.9431 19.7427 33.8002 20.6284 33.8002 21.6855V31.457C33.8288 32.5427 32.9431 33.4284 31.8573 33.4284Z" fill="#FFC7A0"/>
</g>
<defs>
<filter id="filter0_d_0_3026" x="13.3428" y="10.5713" width="19.3428" height="19.9712" filterUnits="userSpaceOnUse" color-interpolation-filters="sRGB">
<feFlood flood-opacity="0" result="BackgroundImageFix"/>
<feColorMatrix in="SourceAlpha" type="matrix" values="0 0 0 0 0 0 0 0 0 0 0 0 0 0 0 0 0 0 127 0" result="hardAlpha"/>
<feOffset dy="1"/>
<feGaussianBlur stdDeviation="0.5"/>
<feColorMatrix type="matrix" values="0 0 0 0 0.994027 0 0 0 0 0.505503 0 0 0 0 0.128932 0 0 0 1 0"/>
<feBlend mode="normal" in2="BackgroundImageFix" result="effect1_dropShadow_0_3026"/>
<feBlend mode="normal" in="SourceGraphic" in2="effect1_dropShadow_0_3026" result="shape"/>
</filter>
<filter id="filter1_d_0_3026" x="11.2002" y="19.7427" width="23.6006" height="15.6855" filterUnits="userSpaceOnUse" color-interpolation-filters="sRGB">
<feFlood flood-opacity="0" result="BackgroundImageFix"/>
<feColorMatrix in="SourceAlpha" type="matrix" values="0 0 0 0 0 0 0 0 0 0 0 0 0 0 0 0 0 0 127 0" result="hardAlpha"/>
<feOffset dy="1"/>
<feGaussianBlur stdDeviation="0.5"/>
<feColorMatrix type="matrix" values="0 0 0 0 0.86113 0 0 0 0 0.358804 0 0 0 0 0 0 0 0 0.302065 0"/>
<feBlend mode="normal" in2="BackgroundImageFix" result="effect1_dropShadow_0_3026"/>
<feBlend mode="normal" in="SourceGraphic" in2="effect1_dropShadow_0_3026" result="shape"/>
</filter>
<linearGradient id="paint0_linear_0_3026" x1="46" y1="46" x2="46" y2="0" gradientUnits="userSpaceOnUse">
<stop stop-color="#F2A45F"/>
<stop offset="1" stop-color="#FF8D3F"/>
</linearGradient>
</defs>
</svg>
