<svg width="46" height="46" viewBox="0 0 46 46" fill="none" xmlns="http://www.w3.org/2000/svg">
<rect width="46" height="46" rx="8" fill="url(#paint0_linear_0_2996)"/>
<rect x="10" y="10" width="26" height="26" fill="#D8D8D8" fill-opacity="0.01"/>
<g filter="url(#filter0_d_0_2996)">
<rect x="12" y="12" width="22" height="17" rx="0.9" fill="white"/>
</g>
<g filter="url(#filter1_d_0_2996)">
<rect x="15" y="31" width="16" height="2" rx="0.9" fill="white"/>
</g>
<path d="M16.5519 17.4614V17.4614C16.4127 17.4624 16.3004 17.5633 16.2998 17.6876V19.042L16.2998 19.042C16.2998 19.1667 16.4123 19.2681 16.5519 19.2691H28.6467V19.2691C28.7867 19.2686 28.8998 19.1671 28.8998 19.042V17.6885V17.6885C28.8993 17.5642 28.7869 17.4633 28.6477 17.4623H16.5519L16.5519 17.4614Z" fill="#B86FFC"/>
<path d="M22.3467 21.981H16.5519V21.981C16.4131 21.9819 16.3009 22.0823 16.2998 22.2064V23.5633L16.2998 23.5633C16.3009 23.6873 16.4131 23.7877 16.5519 23.7886H22.3477V23.7886C22.4865 23.7877 22.5987 23.6873 22.5998 23.5633V22.2064V22.2064C22.5987 22.0823 22.4865 21.9819 22.3477 21.981L22.3467 21.981Z" fill="#B86FFC"/>
<rect opacity="0.01" x="26" y="22" width="6" height="6" fill="black"/>
<g filter="url(#filter2_b_0_2996)">
<path fill-rule="evenodd" clip-rule="evenodd" d="M26.2002 25.0002C26.2002 23.4602 27.4602 22.2002 29.0002 22.2002C30.5402 22.2002 31.8002 23.4602 31.8002 25.0002C31.8002 26.5402 30.5402 27.8002 29.0002 27.8002C27.4602 27.8002 26.2002 26.5402 26.2002 25.0002ZM29.6502 25.3202L30.2502 24.8902C30.3102 24.8402 30.3402 24.7602 30.3102 24.7002C30.2902 24.6202 30.2202 24.5702 30.1402 24.5702H29.4002L29.1702 23.8702C29.1502 23.7902 29.0802 23.7402 29.0002 23.7402C28.9202 23.7402 28.8502 23.7902 28.8302 23.8702L28.6002 24.5702H27.8502C27.7702 24.5702 27.7002 24.6202 27.6802 24.7002C27.6602 24.7702 27.6902 24.8502 27.7502 24.9002L28.3502 25.3302L28.1202 26.0302C28.1002 26.1002 28.1302 26.1802 28.1902 26.2302C28.2502 26.2802 28.3402 26.2802 28.4002 26.2302L29.0002 25.8002L29.5902 26.2202C29.6302 26.2402 29.6602 26.2502 29.7002 26.2502C29.7402 26.2502 29.7802 26.2402 29.8102 26.2202C29.8802 26.1802 29.9002 26.0902 29.8802 26.0202L29.6502 25.3202Z" fill="#E2C3FF"/>
</g>
<defs>
<filter id="filter0_d_0_2996" x="11" y="12" width="24" height="19" filterUnits="userSpaceOnUse" color-interpolation-filters="sRGB">
<feFlood flood-opacity="0" result="BackgroundImageFix"/>
<feColorMatrix in="SourceAlpha" type="matrix" values="0 0 0 0 0 0 0 0 0 0 0 0 0 0 0 0 0 0 127 0" result="hardAlpha"/>
<feOffset dy="1"/>
<feGaussianBlur stdDeviation="0.5"/>
<feColorMatrix type="matrix" values="0 0 0 0 0 0 0 0 0 0.131634 0 0 0 0 0.700294 0 0 0 0.08 0"/>
<feBlend mode="normal" in2="BackgroundImageFix" result="effect1_dropShadow_0_2996"/>
<feBlend mode="normal" in="SourceGraphic" in2="effect1_dropShadow_0_2996" result="shape"/>
</filter>
<filter id="filter1_d_0_2996" x="14" y="31" width="18" height="4" filterUnits="userSpaceOnUse" color-interpolation-filters="sRGB">
<feFlood flood-opacity="0" result="BackgroundImageFix"/>
<feColorMatrix in="SourceAlpha" type="matrix" values="0 0 0 0 0 0 0 0 0 0 0 0 0 0 0 0 0 0 127 0" result="hardAlpha"/>
<feOffset dy="1"/>
<feGaussianBlur stdDeviation="0.5"/>
<feColorMatrix type="matrix" values="0 0 0 0 0 0 0 0 0 0.131634 0 0 0 0 0.700294 0 0 0 0.08 0"/>
<feBlend mode="normal" in2="BackgroundImageFix" result="effect1_dropShadow_0_2996"/>
<feBlend mode="normal" in="SourceGraphic" in2="effect1_dropShadow_0_2996" result="shape"/>
</filter>
<filter id="filter2_b_0_2996" x="23.7537" y="19.7537" width="10.493" height="10.493" filterUnits="userSpaceOnUse" color-interpolation-filters="sRGB">
<feFlood flood-opacity="0" result="BackgroundImageFix"/>
<feGaussianBlur in="BackgroundImageFix" stdDeviation="1.22323"/>
<feComposite in2="SourceAlpha" operator="in" result="effect1_backgroundBlur_0_2996"/>
<feBlend mode="normal" in="SourceGraphic" in2="effect1_backgroundBlur_0_2996" result="shape"/>
</filter>
<linearGradient id="paint0_linear_0_2996" x1="46" y1="46" x2="46" y2="0" gradientUnits="userSpaceOnUse">
<stop stop-color="#CC8FFF"/>
<stop offset="1" stop-color="#B266FC"/>
</linearGradient>
</defs>
</svg>
