<svg width="46" height="46" viewBox="0 0 46 46" fill="none" xmlns="http://www.w3.org/2000/svg">
<g clip-path="url(#clip0_0_3049)">
<rect x="-42" y="-16" width="130" height="100" rx="4" fill="black" fill-opacity="0.04"/>
<rect width="46" height="46" rx="8" fill="url(#paint0_linear_0_3049)"/>
<rect x="10" y="10" width="26" height="26" fill="#D8D8D8" fill-opacity="0.01"/>
<g filter="url(#filter0_d_0_3049)">
<rect x="18.7168" y="20.2002" width="8.65155" height="3.2" fill="#1D68E8"/>
<path fill-rule="evenodd" clip-rule="evenodd" d="M18.7075 13H27.3774C27.8067 13 28.1547 13.3469 28.1547 13.7748V20.2252C28.1547 20.6531 27.8067 21 27.3774 21H18.7075C18.2782 21 17.9302 20.6531 17.9302 20.2252V13.7748C17.9302 13.3469 18.2782 13 18.7075 13Z" fill="white"/>
<path fill-rule="evenodd" clip-rule="evenodd" d="M18.7075 22.6001H27.3774C27.8067 22.6001 28.1547 23.0511 28.1547 23.6074V31.9928C28.1547 32.5491 27.8067 33.0001 27.3774 33.0001H18.7075C18.2782 33.0001 17.9302 32.5491 17.9302 31.9928V23.6074C17.9302 23.0511 18.2782 22.6001 18.7075 22.6001Z" fill="white"/>
</g>
<g filter="url(#filter1_b_0_3049)">
<path d="M31.2616 25.9534C31.2616 25.8204 31.3169 25.6688 31.4089 25.555C32.1468 24.7389 32.5527 23.6957 32.5527 22.5951C32.5527 21.4944 32.1468 20.432 31.4089 19.6351C31.2063 19.4075 31.2063 19.0468 31.4276 18.8382C31.6675 18.6106 32.0175 18.6106 32.2207 18.8382C33.1612 19.8628 33.6592 21.1912 33.6592 22.5951C33.6592 23.999 33.1426 25.3273 32.2207 26.3519C32.0175 26.5796 31.6675 26.5987 31.4462 26.371C31.3355 26.2572 31.2616 26.1051 31.2616 25.9534L31.2616 25.9534Z" fill="#79C5FF" fill-opacity="0.8"/>
</g>
<g filter="url(#filter2_b_0_3049)">
<path d="M32.7756 27.5527C32.7756 27.4241 32.8324 27.2775 32.9269 27.1675H32.9269C34.1543 25.9444 34.8405 24.3056 34.8396 22.5998C34.8396 20.8938 34.158 19.2609 32.946 18.0322C32.7188 17.812 32.7188 17.4633 32.946 17.2432C33.1732 17.0416 33.5331 17.0416 33.7412 17.2617C35.1804 18.7106 35.9756 20.6002 35.9756 22.5998C35.9756 24.599 35.1804 26.4885 33.7604 27.9379C33.5517 28.158 33.1923 28.158 32.9651 27.9559H32.9651C32.8431 27.8556 32.7736 27.7077 32.7756 27.5527L32.7756 27.5527Z" fill="#79C5FF" fill-opacity="0.8"/>
</g>
<g filter="url(#filter3_b_0_3049)">
<path d="M14.8224 25.9534C14.8224 25.8204 14.7671 25.6688 14.675 25.555C13.9372 24.7389 13.5313 23.6957 13.5313 22.5951C13.5313 21.4944 13.9372 20.432 14.675 19.6351C14.8777 19.4075 14.8777 19.0468 14.6564 18.8382C14.4165 18.6106 14.0665 18.6106 13.8633 18.8382C12.9227 19.8628 12.4248 21.1912 12.4248 22.5951C12.4248 23.999 12.9413 25.3273 13.8633 26.3519C14.0665 26.5796 14.4165 26.5987 14.6378 26.371C14.7485 26.2572 14.8224 26.1051 14.8224 25.9534L14.8224 25.9534Z" fill="#79C5FF" fill-opacity="0.8"/>
</g>
<g filter="url(#filter4_b_0_3049)">
<path d="M13.2249 27.5527C13.2249 27.4241 13.1681 27.2775 13.0736 27.1675H13.0736C11.8462 25.9444 11.16 24.3056 11.1609 22.5998C11.1609 20.8938 11.8425 19.2609 13.0545 18.0322C13.2817 17.812 13.2817 17.4633 13.0545 17.2432C12.8273 17.0416 12.4673 17.0416 12.2592 17.2617C10.8201 18.7106 10.0249 20.6002 10.0249 22.5998C10.0249 24.599 10.8201 26.4885 12.2401 27.9379C12.4488 28.158 12.8081 28.158 13.0354 27.9559H13.0354C13.1574 27.8556 13.2269 27.7077 13.2249 27.5527L13.2249 27.5527Z" fill="#79C5FF" fill-opacity="0.8"/>
</g>
</g>
<defs>
<filter id="filter0_d_0_3049" x="15.9302" y="13" width="14.2246" height="24" filterUnits="userSpaceOnUse" color-interpolation-filters="sRGB">
<feFlood flood-opacity="0" result="BackgroundImageFix"/>
<feColorMatrix in="SourceAlpha" type="matrix" values="0 0 0 0 0 0 0 0 0 0 0 0 0 0 0 0 0 0 127 0" result="hardAlpha"/>
<feOffset dy="2"/>
<feGaussianBlur stdDeviation="1"/>
<feColorMatrix type="matrix" values="0 0 0 0 0 0 0 0 0 0.0867511 0 0 0 0 0.42179 0 0 0 0.0771143 0"/>
<feBlend mode="normal" in2="BackgroundImageFix" result="effect1_dropShadow_0_3049"/>
<feBlend mode="normal" in="SourceGraphic" in2="effect1_dropShadow_0_3049" result="shape"/>
</filter>
<filter id="filter1_b_0_3049" x="10.138" y="-2.45383" width="44.6425" height="50.1079" filterUnits="userSpaceOnUse" color-interpolation-filters="sRGB">
<feFlood flood-opacity="0" result="BackgroundImageFix"/>
<feGaussianBlur in="BackgroundImageFix" stdDeviation="10.5607"/>
<feComposite in2="SourceAlpha" operator="in" result="effect1_backgroundBlur_0_3049"/>
<feBlend mode="normal" in="SourceGraphic" in2="effect1_backgroundBlur_0_3049" result="shape"/>
</filter>
<filter id="filter2_b_0_3049" x="11.6541" y="-4.02708" width="45.4428" height="53.2539" filterUnits="userSpaceOnUse" color-interpolation-filters="sRGB">
<feFlood flood-opacity="0" result="BackgroundImageFix"/>
<feGaussianBlur in="BackgroundImageFix" stdDeviation="10.5607"/>
<feComposite in2="SourceAlpha" operator="in" result="effect1_backgroundBlur_0_3049"/>
<feBlend mode="normal" in="SourceGraphic" in2="effect1_backgroundBlur_0_3049" result="shape"/>
</filter>
<filter id="filter3_b_0_3049" x="-8.69651" y="-2.45383" width="44.6425" height="50.1079" filterUnits="userSpaceOnUse" color-interpolation-filters="sRGB">
<feFlood flood-opacity="0" result="BackgroundImageFix"/>
<feGaussianBlur in="BackgroundImageFix" stdDeviation="10.5607"/>
<feComposite in2="SourceAlpha" operator="in" result="effect1_backgroundBlur_0_3049"/>
<feBlend mode="normal" in="SourceGraphic" in2="effect1_backgroundBlur_0_3049" result="shape"/>
</filter>
<filter id="filter4_b_0_3049" x="-11.0964" y="-4.02708" width="45.4428" height="53.2539" filterUnits="userSpaceOnUse" color-interpolation-filters="sRGB">
<feFlood flood-opacity="0" result="BackgroundImageFix"/>
<feGaussianBlur in="BackgroundImageFix" stdDeviation="10.5607"/>
<feComposite in2="SourceAlpha" operator="in" result="effect1_backgroundBlur_0_3049"/>
<feBlend mode="normal" in="SourceGraphic" in2="effect1_backgroundBlur_0_3049" result="shape"/>
</filter>
<linearGradient id="paint0_linear_0_3049" x1="46" y1="46" x2="46" y2="0" gradientUnits="userSpaceOnUse">
<stop stop-color="#60A3FF"/>
<stop offset="1" stop-color="#4085FE"/>
</linearGradient>
<clipPath id="clip0_0_3049">
<rect width="130" height="100" fill="white" transform="translate(-42 -16)"/>
</clipPath>
</defs>
</svg>
