<svg width="13" height="13" viewBox="0 0 13 13" fill="none" xmlns="http://www.w3.org/2000/svg">
<rect opacity="0.01" width="12" height="12" transform="matrix(-1 0 0 1 12.5 0.166748)" fill="black"/>
<rect opacity="0.01" width="12" height="12" transform="matrix(-1 0 0 1 12.5 0.166748)" fill="black"/>
<path fill-rule="evenodd" clip-rule="evenodd" d="M9.3019 6.16675L6.19175 2.19292C6.1437 2.13198 6.18706 2.04175 6.26558 2.04175H7.17144C7.22886 2.04175 7.28394 2.0687 7.31909 2.11323L10.3109 5.93589C10.4175 6.07183 10.4175 6.26284 10.3109 6.39878L7.31909 10.2203C7.28394 10.266 7.22886 10.2917 7.17144 10.2917H6.26558C6.18706 10.2917 6.1437 10.2015 6.19175 10.1406L9.3019 6.16675ZM5.7394 6.16675L2.62925 2.19292C2.5812 2.13198 2.62456 2.04175 2.70308 2.04175H3.60894C3.66636 2.04175 3.72144 2.0687 3.75659 2.11323L6.74839 5.93589C6.85503 6.07183 6.85503 6.26284 6.74839 6.39878L3.75659 10.2203C3.72144 10.266 3.66636 10.2917 3.60894 10.2917H2.70308C2.62456 10.2917 2.5812 10.2015 2.62925 10.1406L5.7394 6.16675Z" fill="black" fill-opacity="0.45"/>
</svg>
