<svg width="18" height="18" viewBox="0 0 18 18" fill="none" xmlns="http://www.w3.org/2000/svg">
<path d="M9 1.125C13.3492 1.125 16.875 4.65075 16.875 9C16.875 13.3492 13.3492 16.875 9 16.875C4.65075 16.875 1.125 13.3492 1.125 9C1.125 4.65075 4.65075 1.125 9 1.125ZM9 2.625C5.47913 2.625 2.625 5.47913 2.625 9C2.625 12.5209 5.47913 15.375 9 15.375C12.5209 15.375 15.375 12.5209 15.375 9C15.375 5.47913 12.5209 2.625 9 2.625ZM9.375 7.5C9.42425 7.5 9.47301 7.5097 9.51851 7.52854C9.564 7.54739 9.60534 7.57501 9.64016 7.60984C9.67499 7.64466 9.70261 7.686 9.72146 7.73149C9.7403 7.77699 9.75 7.82575 9.75 7.875V13.125C9.75 13.1742 9.7403 13.223 9.72146 13.2685C9.70261 13.314 9.67499 13.3553 9.64016 13.3902C9.60534 13.425 9.564 13.4526 9.51851 13.4715C9.47301 13.4903 9.42425 13.5 9.375 13.5H8.625C8.57575 13.5 8.52699 13.4903 8.48149 13.4715C8.436 13.4526 8.39466 13.425 8.35984 13.3902C8.32501 13.3553 8.29739 13.314 8.27855 13.2685C8.2597 13.223 8.25 13.1742 8.25 13.125V7.875C8.25 7.82575 8.2597 7.77699 8.27855 7.73149C8.29739 7.686 8.32501 7.64466 8.35984 7.60984C8.39466 7.57501 8.436 7.54739 8.48149 7.52854C8.52699 7.5097 8.57575 7.5 8.625 7.5H9.375ZM9.375 4.5C9.42425 4.5 9.47301 4.5097 9.51851 4.52855C9.564 4.54739 9.60534 4.57501 9.64016 4.60983C9.67499 4.64466 9.70261 4.686 9.72146 4.73149C9.7403 4.77699 9.75 4.82575 9.75 4.875V5.625C9.75 5.67425 9.7403 5.72301 9.72146 5.76851C9.70261 5.814 9.67499 5.85534 9.64016 5.89016C9.60534 5.92499 9.564 5.95261 9.51851 5.97146C9.47301 5.9903 9.42425 6 9.375 6H8.625C8.57575 6 8.52699 5.9903 8.48149 5.97146C8.436 5.95261 8.39466 5.92499 8.35984 5.89016C8.32501 5.85534 8.29739 5.814 8.27855 5.76851C8.2597 5.72301 8.25 5.67425 8.25 5.625V4.875C8.25 4.82575 8.2597 4.77699 8.27855 4.73149C8.29739 4.686 8.32501 4.64466 8.35984 4.60983C8.39466 4.57501 8.436 4.54739 8.48149 4.52855C8.52699 4.5097 8.57575 4.5 8.625 4.5H9.375Z" fill="black" fill-opacity="0.65"/>
</svg>
