<svg width="15" height="17" viewBox="0 0 15 17" fill="none" xmlns="http://www.w3.org/2000/svg">
<path fill-rule="evenodd" clip-rule="evenodd" d="M12.8029 10.6539C13.4886 11.342 14.0349 12.1578 14.4114 13.0561L14.4127 13.0548C14.618 13.5435 14.7764 14.3463 14.8766 14.9638C14.9518 15.4271 14.5899 15.8361 14.1206 15.8385C13.7489 15.8404 13.4256 15.5829 13.3281 15.2241C13.0721 14.2825 12.5112 12.5151 11.7332 11.7347C10.6021 10.5947 9.09957 9.96684 7.50002 9.96684C5.9111 9.9627 4.38667 10.5998 3.26689 11.736C2.17986 12.8263 1.55281 14.2978 1.5167 15.843C1.5167 15.8427 1.51521 15.8449 1.51226 15.8492C1.47649 15.902 1.22586 16.272 0.813668 16.272C0.688742 16.272 0.0614458 15.0136 0.0796586 14.89C0.314737 13.2948 1.05219 11.808 2.19585 10.6565C2.88392 9.9604 3.68689 9.41615 4.58049 9.03529L4.60347 9.02629C4.17578 8.71508 3.80024 8.33691 3.4911 7.90612C1.8904 5.67553 2.38685 2.55942 4.59994 0.946078C6.81303 -0.667272 9.90471 -0.166893 11.5054 2.06367C13.1061 4.29426 12.6097 7.41037 10.3966 9.02371L10.4196 9.03272C11.3104 9.41299 12.1197 9.96352 12.8029 10.6539ZM5.07455 7.42698C5.71625 8.07786 6.58964 8.44295 7.50004 8.44087L7.50001 8.4422C8.4104 8.44428 9.28378 8.07919 9.92549 7.42831C10.5708 6.78132 10.9326 5.90106 10.9302 4.98365V4.98361C10.9326 4.06622 10.5708 3.18595 9.92552 2.53896C9.27703 1.88662 8.41534 1.52636 7.50004 1.52636C6.59002 1.52359 5.71668 1.88773 5.07455 2.53767C4.42733 3.19129 4.06989 4.05979 4.06989 4.98233C4.06748 5.89972 4.42924 6.77999 5.07455 7.42698Z" fill="black" fill-opacity="0.65"/>
</svg>
