<?xml version="1.0" standalone="no"?><!DOCTYPE svg PUBLIC "-//W3C//DTD SVG 1.1//EN" "http://www.w3.org/Graphics/SVG/1.1/DTD/svg11.dtd"><svg t="1683344826784" class="icon" viewBox="0 0 1024 1024" version="1.1" xmlns="http://www.w3.org/2000/svg" p-id="4227" width="22" height="22" xmlns:xlink="http://www.w3.org/1999/xlink"><path d="M542.606222 404.593778a41.813333 41.813333 0 0 0 31.402667-14.990222c8.590222-8.988444 13.283556-20.593778 12.885333-32.711112 0-9.898667-3.413333-19.285333-10.296889-26.168888-14.705778-15.530667-41.301333-13.824-57.173333 3.384888a45.909333 45.909333 0 0 0-12.515556 32.711112 36.124444 36.124444 0 0 0 9.898667 26.567111c6.485333 7.310222 15.900444 11.207111 25.799111 11.207111zM545.991111 623.786667a269.027556 269.027556 0 0 1-22.784 20.195555c1.706667-13.368889 8.192-39.594667 23.608889-90.88 15.075556-50.801778 16.384-59.790222 16.384-64.113778a24.462222 24.462222 0 0 0-8.590222-18.887111c-12.515556-9.898667-34.417778-8.192-60.700445 6.883556-14.705778 8.220444-30.606222 22.016-47.786666 40.903111l-9.016889 10.325333 30.094222 23.182223 7.68-7.793778c4.465778-4.039111 8.106667-7.480889 11.150222-10.353778 2.816-2.645333 5.091556-4.807111 6.968889-6.456889-23.210667 75.804444-34.417778 122.709333-34.417778 143.815111-0.483556 8.817778 2.730667 17.294222 8.618667 23.694222 5.973333 6.513778 14.222222 9.898667 22.812444 9.500445 8.590222 0 18.887111-2.986667 31.374223-10.296889 11.207111-6.513778 28.017778-20.195556 51.712-42.211556l9.500444-8.988444-27.591111-26.709333-9.016889 8.192z" fill="#606266" p-id="4228"></path><path d="M881.777778 512c0 204.231111-165.546667 369.777778-369.777778 369.777778S142.222222 716.231111 142.222222 512 307.768889 142.222222 512 142.222222s369.777778 165.546667 369.777778 369.777778z m-56.888889 0c0-172.8-140.088889-312.888889-312.888889-312.888889S199.111111 339.2 199.111111 512s140.088889 312.888889 312.888889 312.888889 312.888889-140.088889 312.888889-312.888889z" fill="#606266" p-id="4229"></path></svg>