<svg width="14" height="16" viewBox="0 0 14 16" fill="none" xmlns="http://www.w3.org/2000/svg">
<g clip-path="url(#clip0_2713_66648)">
<path d="M13.4167 3.83407V15.4074C13.4167 15.7347 13.1555 16 12.8334 16H1.16671C0.844541 16 0.583374 15.7347 0.583374 15.4074V0.592593C0.583374 0.265313 0.844541 0 1.16671 0H9.64254L13.4167 3.83407Z" fill="#1FB77A"/>
<path d="M9.625 3.25651V0L13.4167 3.85185H10.211C9.88738 3.85185 9.625 3.58531 9.625 3.25651Z" fill="#52DEA5"/>
<path d="M3.084 7.144L4.04 8.524L3.02 10H3.592L4.328 8.896L5.064 10H5.636L4.608 8.524L5.572 7.144H5L4.328 8.152L3.656 7.144H3.084ZM5.93625 7.144V10H7.94425V9.6H6.40025V7.144H5.93625ZM9.31144 7.088C9.00344 7.088 8.75144 7.156 8.55144 7.296C8.33544 7.44 8.23144 7.64 8.23144 7.892C8.23144 8.144 8.33944 8.336 8.55944 8.468C8.64344 8.516 8.86344 8.596 9.21544 8.708C9.53144 8.804 9.71544 8.868 9.77144 8.896C9.94744 8.984 10.0394 9.104 10.0394 9.256C10.0394 9.376 9.97544 9.468 9.85544 9.54C9.73544 9.608 9.56744 9.644 9.35944 9.644C9.12344 9.644 8.95144 9.6 8.83944 9.52C8.71544 9.428 8.63944 9.272 8.60744 9.056H8.14344C8.16344 9.42 8.29544 9.684 8.53544 9.852C8.73144 9.988 9.00744 10.056 9.35944 10.056C9.72344 10.056 10.0074 9.98 10.2074 9.836C10.4074 9.688 10.5074 9.484 10.5074 9.228C10.5074 8.964 10.3834 8.76 10.1354 8.612C10.0234 8.548 9.77544 8.452 9.38744 8.332C9.12344 8.248 8.95944 8.188 8.89944 8.156C8.76344 8.084 8.69944 7.984 8.69944 7.864C8.69944 7.728 8.75544 7.628 8.87544 7.568C8.97144 7.516 9.10744 7.492 9.28744 7.492C9.49544 7.492 9.65544 7.528 9.75944 7.608C9.86344 7.684 9.93944 7.812 9.97944 7.988H10.4434C10.4154 7.676 10.2994 7.444 10.0994 7.296C9.91144 7.156 9.64744 7.088 9.31144 7.088Z" fill="white"/>
</g>
<defs>
<clipPath id="clip0_2713_66648">
<rect width="14" height="16" fill="white"/>
</clipPath>
</defs>
</svg>
