<svg width="14" height="16" viewBox="0 0 14 16" fill="none" xmlns="http://www.w3.org/2000/svg">
<g clip-path="url(#clip0_2713_66651)">
<path d="M13.4167 3.83407V15.4074C13.4167 15.7347 13.1555 16 12.8334 16H1.16671C0.844541 16 0.583374 15.7347 0.583374 15.4074V0.592593C0.583374 0.265313 0.844541 0 1.16671 0H9.64254L13.4167 3.83407Z" fill="#6282E2"/>
<path d="M9.625 3.25651V0L13.4167 3.85185H10.211C9.88738 3.85185 9.625 3.58531 9.625 3.25651Z" fill="#B2C5FF"/>
<path d="M3.45385 10.0622H3.06304C3.02226 10.0623 2.98328 10.0452 2.95557 10.015C2.92786 9.98484 2.91395 9.94434 2.91722 9.90334V6.96206C2.91722 6.88084 2.9825 6.815 3.06304 6.815H3.91466C4.78766 6.80323 5.22417 7.13756 5.22417 7.81797C5.20084 8.45329 4.8285 8.78859 4.10715 8.82389H3.59968V9.90334C3.60294 9.94434 3.58903 9.98484 3.56132 10.015C3.53361 10.0452 3.49464 10.0623 3.45385 10.0622ZM3.59968 7.34737V8.26505C3.63467 8.26505 3.70467 8.27093 3.80966 8.28269C4.27339 8.32975 4.50087 8.17093 4.48921 7.80621C4.48921 7.48855 4.26464 7.3356 3.80966 7.34737C3.74053 7.36306 3.66881 7.36306 3.59968 7.34737ZM5.70831 9.90334V6.96206C5.70831 6.88084 5.77359 6.815 5.85413 6.815H6.80783C7.8811 6.815 8.42065 7.37384 8.43523 8.45329C8.44982 9.53274 7.8811 10.0739 6.80783 10.0739H5.85413C5.81105 10.0745 5.76993 10.0558 5.7418 10.0229C5.71367 9.99 5.70141 9.94623 5.70831 9.90334ZM6.38785 7.3356V9.50627H6.75533C7.39696 9.5298 7.71194 9.17096 7.70027 8.42976C7.68861 7.68856 7.37363 7.32384 6.75533 7.3356H6.38785ZM9.54059 10.0622H9.14978C9.06924 10.0622 9.00395 9.99632 9.00395 9.9151V6.96206C9.00395 6.88084 9.06924 6.815 9.14978 6.815H10.9376C11.0181 6.815 11.0834 6.88084 11.0834 6.96206V7.21207C11.0834 7.29329 11.0181 7.35913 10.9376 7.35913H9.68641V8.13857H10.853C10.9335 8.13857 10.9988 8.20441 10.9988 8.28564V8.53859C10.9988 8.61981 10.9335 8.68565 10.853 8.68565H9.68641V9.90334C9.68967 9.94434 9.67576 9.98484 9.64805 10.015C9.62035 10.0452 9.58137 10.0623 9.54059 10.0622Z" fill="white"/>
</g>
<defs>
<clipPath id="clip0_2713_66651">
<rect width="14" height="16" fill="white"/>
</clipPath>
</defs>
</svg>
