<svg width="50" height="46" viewBox="0 0 50 46" fill="none" xmlns="http://www.w3.org/2000/svg">
<path fill-rule="evenodd" clip-rule="evenodd" d="M24.5 24L34 33.9133L30.8318 37.2201L26.739 32.9482V46H22.261V32.9435L18.1682 37.2201L15 33.9133L24.5 24ZM24.9997 5.17117e-08C33.0723 0.000386706 39.8636 6.11825 40.7941 14.2282C46.6267 15.8368 50.4832 21.4387 49.9511 27.5292C49.4189 33.6197 44.6507 38.4508 38.6296 39L38.6273 34.4564C38.6346 26.9394 32.6856 20.8031 25.2549 20.6624C17.8241 20.5216 11.6522 26.4284 11.3812 33.9399L11.3721 34.4564V39C5.35071 38.4516 0.581805 33.6209 0.049053 27.5302C-0.483699 21.4395 3.37262 15.8371 9.20529 14.2282C10.1348 6.11774 16.9267 -0.000649484 24.9997 5.17117e-08H24.9997Z" fill="black" fill-opacity="0.25"/>
</svg>
