<svg width="15" height="15" viewBox="0 0 15 15" fill="none" xmlns="http://www.w3.org/2000/svg">
<path fill-rule="evenodd" clip-rule="evenodd" d="M6.5715 0.933411C6.5715 0.417902 6.99058 0 7.50754 0C8.0245 0 8.44357 0.417903 8.44357 0.933412V6.534C8.44344 7.04942 8.0244 7.46718 7.50754 7.46718C6.99058 7.46718 6.5715 7.04928 6.5715 6.53377V0.933411ZM4.94506e-05 7.55186C0.01067 11.6759 3.37188 15.0105 7.50754 14.9999L7.50754 14.9999C10.1851 15.001 12.6595 13.5763 13.9972 11.2634C16.0634 7.69091 14.8342 3.12453 11.2517 1.06411C10.8207 0.839275 10.2888 0.981097 10.0279 1.39043C9.75055 1.82548 9.87939 2.40235 10.3157 2.67891C11.1694 3.17045 11.8784 3.87744 12.3713 4.72882C13.9222 7.40748 13.0019 10.8327 10.3157 12.3792C7.62946 13.9257 4.19464 13.008 2.64376 10.3293C1.09288 7.65063 2.01324 4.22544 4.69944 2.67891C5.14919 2.42115 5.30425 1.84863 5.04577 1.40013C4.78729 0.951641 4.21315 0.797017 3.7634 1.05477C1.42972 2.38917 -0.00686026 4.8693 4.94506e-05 7.55186Z" fill="black" fill-opacity="0.65"/>
</svg>
