<svg width="18" height="18" viewBox="0 0 18 18" fill="none" xmlns="http://www.w3.org/2000/svg">
<rect opacity="0.01" width="18" height="18" fill="#D0963E"/>
<path d="M13.4475 2H6.45011C5.34333 1.99865 4.36208 2.71306 4.02125 3.76835C2.93599 3.80279 2.07361 4.69374 2.07227 5.78192V13.8827C2.07352 14.9949 2.97288 15.8962 4.08268 15.8975H12.1656C13.2223 15.8962 14.0982 15.0762 14.1712 14.0196C14.1865 14.0189 14.2017 14.0163 14.2164 14.0118C15.2805 13.6779 16.0036 12.6885 16.0002 11.571V4.55895C15.9988 3.14654 14.8568 2.00182 13.4475 2Z" stroke="#D0963E" stroke-width="1.16752"/>
<path d="M13.7267 14.3068C13.7256 15.2414 12.9699 15.9988 12.0375 15.9998H3.6892C2.75672 15.9988 2.00106 15.2414 2 14.3068V5.94035C2.00117 5.00585 2.7568 4.24862 3.6892 4.24756H12.0366C12.969 4.24862 13.7246 5.00585 13.7258 5.94035L13.7267 14.3068Z" stroke="#D0963E" stroke-width="1.16752"/>
<path d="M4.16791 8.45645V12.6245H7.27352V12.0407H4.85091V10.7798H7.03418V10.1961H4.85091V9.04021H7.17428V8.45645H4.16791ZM7.91334 8.45645V12.6245H8.59634V9.57727H8.61969L10.7037 12.6245H11.3692V8.45645H10.6804V11.4628H10.657L8.59634 8.45645H7.91334Z" fill="#D0963E"/>
</svg>
