<svg xmlns="http://www.w3.org/2000/svg" viewBox="0 0 20 21"><path d="M5.667 14.553c0 .397.325.722.723.722h.722v2.528c0 .6.483 1.083 1.083 1.083s1.083-.484 1.083-1.083v-2.528h1.444v2.528c0 .6.484 1.083 1.083 1.083.6 0 1.083-.484 1.083-1.083v-2.528h.722a.724.724 0 0 0 .723-.723V7.33H5.667v7.224ZM3.862 7.329c-.6 0-1.083.484-1.083 1.084v5.056a1.082 1.082 0 1 0 2.166 0V8.413c0-.6-.483-1.084-1.083-1.084Zm12.276 0c-.6 0-1.083.484-1.083 1.084v5.056a1.082 1.082 0 1 0 2.166 0V8.413c0-.6-.484-1.084-1.083-1.084Zm-3.589-4.218.942-.942a.36.36 0 1 0-.509-.51l-1.068 1.066A4.303 4.303 0 0 0 10 2.273c-.693 0-1.343.166-1.924.455L7.003 1.656a.36.36 0 1 0-.509.509l.946.946a4.34 4.34 0 0 0-1.773 3.496h8.666a4.32 4.32 0 0 0-1.784-3.496ZM8.556 5.162h-.722V4.44h.722v.722Zm3.61 0h-.722V4.44h.722v.722Z" fill-rule="nonzero" fill="#000" data-follow-fill="#000"/></svg>