<svg xmlns="http://www.w3.org/2000/svg" viewBox="0 0 20 20"><g fill-rule="nonzero" fill="#606266" data-follow-fill="#606266"><path d="M10 20C4.477 20 0 15.523 0 10S4.477 0 10 0s10 4.477 10 10-4.477 10-10 10Zm0-2.222a7.778 7.778 0 1 0 0-15.556 7.778 7.778 0 1 0 0 15.556Z"/><path opacity=".5" d="M13.33 7.9c0 .697-.184 1.278-.54 1.733-.128.157-.528.528-1.193 1.11-.248.203-.451.455-.6.74a1.92 1.92 0 0 0-.226.94v.24H9.25v-.24c0-.529.083-.983.282-1.35.186-.399.726-.983 1.607-1.765l.24-.27c.259-.328.399-.667.399-1.038 0-.498-.144-.882-.414-1.166-.283-.283-.695-.426-1.209-.426-.64 0-1.108.2-1.393.612-.255.342-.383.827-.383 1.451H6.883c0-1.039.3-1.849.896-2.447.603-.613 1.429-.912 2.48-.912.911 0 1.649.24 2.219.755.57.496.852 1.18.852 2.033ZM10.76 13.714a.949.949 0 0 1 .298.726 1 1 0 0 1-.312.738c-.2.186-.466.288-.74.284a1.018 1.018 0 0 1-.738-.3.991.991 0 0 1-.3-.724c0-.3.1-.54.3-.726.194-.196.45-.282.736-.282.3.001.554.086.756.284Z"/></g></svg>