<svg width="12" height="10" viewBox="0 0 12 10" fill="none" xmlns="http://www.w3.org/2000/svg">
<path d="M0 8.08556H4.03265V9.24064H0V8.08556ZM0 4.04278H5.18483V5.19786H0V4.04278ZM0 0H11.5218V1.15508H0V0ZM10.7579 5.2123L11.4239 4.98648L12 5.98678L11.4723 6.4517C11.5387 6.76741 11.5387 7.09355 11.4723 7.40926L12 7.87418L11.4239 8.87448L10.7579 8.64866C10.5217 8.86235 10.2406 9.02695 9.93125 9.12802L9.79357 9.81818H8.64138L8.50312 9.12744C8.19737 9.02727 7.91595 8.86398 7.677 8.64809L7.01104 8.87448L6.43495 7.87418L6.96265 7.40926C6.89623 7.09355 6.89623 6.76741 6.96265 6.4517L6.43495 5.98678L7.01104 4.98648L7.677 5.2123C7.9132 4.99861 8.19433 4.83401 8.5037 4.73294L8.64138 4.04278H9.79357L9.93183 4.73352C10.2406 4.83401 10.5217 4.99919 10.7579 5.21288V5.2123ZM9.21747 8.08556C9.52305 8.08556 9.81612 7.96387 10.0322 7.74725C10.2483 7.53063 10.3697 7.23683 10.3697 6.93048C10.3697 6.62414 10.2483 6.33034 10.0322 6.11372C9.81612 5.8971 9.52305 5.7754 9.21747 5.7754C8.9119 5.7754 8.61883 5.8971 8.40276 6.11372C8.18668 6.33034 8.06529 6.62414 8.06529 6.93048C8.06529 7.23683 8.18668 7.53063 8.40276 7.74725C8.61883 7.96387 8.9119 8.08556 9.21747 8.08556Z" fill="black" fill-opacity="0.45"/>
</svg>
