<svg width="12" height="12" viewBox="0 0 12 12" fill="none" xmlns="http://www.w3.org/2000/svg">
<path d="M2.0778 1.4598C3.16654 0.516402 4.55939 -0.00200392 6 5.82159e-06C9.3138 5.82159e-06 12 2.6862 12 6C12 7.2816 11.598 8.4696 10.914 9.444L9 6H10.8C10.8001 5.05898 10.5235 4.13868 10.0048 3.35356C9.48605 2.56843 8.74796 1.9531 7.88231 1.58408C7.01666 1.21506 6.06163 1.10863 5.13597 1.27802C4.21032 1.4474 3.35487 1.88514 2.676 2.5368L2.0778 1.4598ZM9.9222 10.5402C8.83347 11.4836 7.44061 12.002 6 12C2.6862 12 0 9.3138 0 6C0 4.7184 0.402 3.5304 1.086 2.556L3 6H1.2C1.19992 6.94102 1.47645 7.86132 1.9952 8.64644C2.51395 9.43157 3.25204 10.0469 4.11769 10.4159C4.98334 10.7849 5.93837 10.8914 6.86403 10.722C7.78968 10.5526 8.64513 10.1149 9.324 9.4632L9.9222 10.5402Z" fill="black" fill-opacity="0.45"/>
</svg>
