<svg xmlns="http://www.w3.org/2000/svg" viewBox="0 0 22 22"><path d="M12.5 5c.178 0 .297.093.352.148A.498.498 0 0 1 13 5.5V7a.498.498 0 0 1-.148.352.498.498 0 0 1-.352.148h-3a.498.498 0 0 1-.352-.148A.498.498 0 0 1 9 7V5.5c0-.178.093-.297.148-.352A.498.498 0 0 1 9.5 5h3m0-1h-3C8.675 4 8 4.675 8 5.5V7c0 .825.675 1.5 1.5 1.5h3c.825 0 1.5-.675 1.5-1.5V5.5c0-.825-.675-1.5-1.5-1.5Zm-4 10.5c.178 0 .297.093.352.148A.498.498 0 0 1 9 15v1.5a.498.498 0 0 1-.148.352A.498.498 0 0 1 8.5 17h-3a.498.498 0 0 1-.352-.148A.498.498 0 0 1 5 16.5V15c0-.178.093-.297.148-.352A.498.498 0 0 1 5.5 14.5h3m0-1h-3c-.825 0-1.5.675-1.5 1.5v1.5c0 .825.675 1.5 1.5 1.5h3c.825 0 1.5-.675 1.5-1.5V15c0-.825-.675-1.5-1.5-1.5Zm8 1c.178 0 .297.093.352.148A.498.498 0 0 1 17 15v1.5a.498.498 0 0 1-.148.352.498.498 0 0 1-.352.148h-3a.498.498 0 0 1-.352-.148A.498.498 0 0 1 13 16.5V15c0-.178.093-.297.148-.352a.498.498 0 0 1 .352-.148h3m0-1h-3c-.825 0-1.5.675-1.5 1.5v1.5c0 .825.675 1.5 1.5 1.5h3c.825 0 1.5-.675 1.5-1.5V15c0-.825-.675-1.5-1.5-1.5Zm-1.5-3H7c-.275 0-.5.225-.5.5s.225.5.5.5h8c.275 0 .5-.225.5-.5s-.225-.5-.5-.5ZM11 8c-.275 0-.5.225-.5.5v2c0 .275.225.5.5.5s.5-.225.5-.5v-2c0-.275-.225-.5-.5-.5Zm-4 2.5c-.275 0-.5.225-.5.5v2.5c0 .275.225.5.5.5s.5-.225.5-.5V11c0-.275-.225-.5-.5-.5Zm8 0c-.275 0-.5.225-.5.5v2.5c0 .275.225.5.5.5s.5-.225.5-.5V11c0-.275-.225-.5-.5-.5Z" fill-rule="nonzero" fill="#303133" data-follow-fill="#303133"/></svg>