<svg xmlns="http://www.w3.org/2000/svg" viewBox="0 0 22 22"><path d="M4.5 18a.513.513 0 0 1-.5-.5c0-3.6 2.936-6.533 6.539-6.533.267 0 .5.233.5.5 0 .266-.233.5-.5.5C7.503 11.967 5 14.433 5 17.5c0 .267-.234.5-.5.5Zm6.039-6.033A3.956 3.956 0 0 1 6.569 8c0-2.2 1.801-4 3.97-4 2.168 0 3.97 1.767 3.97 3.967.033 2.2-1.769 4-3.97 4Zm0-6.967a2.974 2.974 0 0 0-2.97 2.967 2.974 2.974 0 0 0 2.97 2.966 2.974 2.974 0 0 0 2.969-2.966C13.54 6.333 12.207 5 10.538 5Zm3.936 13a.513.513 0 0 1-.5-.5v-1.367c0-.3.167-.566.4-.733a.758.758 0 0 1 .834 0l1.234.7.5-2.967-3.435 1.267.233.133c.234.134.334.434.167.667-.133.233-.434.333-.667.167l-.534-.3a.822.822 0 0 1-.3-1.134c.1-.166.267-.3.434-.366l4.036-1.467a.812.812 0 0 1 1.068.467.65.65 0 0 1 .033.433l-.6 3.467a.793.793 0 0 1-.968.666 2.3 2.3 0 0 1-.267-.1l-1.167-.666v1.066c0 .334-.2.567-.5.567Zm.034-1.5a.564.564 0 0 1-.334-.1.483.483 0 0 1-.033-.7l2.702-3.167c.167-.233.467-.266.7-.1.234.167.267.467.1.7 0 .034-.033.034-.033.034l-2.702 3.166c-.1.1-.234.167-.4.167Z" fill-rule="nonzero" fill="#000" data-follow-fill="#000"/></svg>