<svg xmlns="http://www.w3.org/2000/svg" viewBox="0 0 22 22"><path stroke-linejoin="round" stroke-linecap="round" stroke="#303133" d="m12.722 18.6 3.938-5.383h-1.969c2.004-2.952 2.884-4.691 2.64-5.22-.367-.791-10.807-4.088-11.862-5.263-1.055-1.174-.812 3.02.384 3.782.798.508 2.889 1.18 6.274 2.017-4.183-1.213-6.488-1.82-6.916-1.82-.642 0 .754 3.164 2.462 3.507 1.14.23 2.624.23 4.454 0-2.112.23-3.704.49-4.777.78-1.608.436 2.098 2.22 3.735 1.89 1.092-.22 1.743-.455 1.954-.707l-.912 2.626h1.649l-1.054 3.79Z" fill-rule="evenodd" fill="none" data-follow-stroke="#303133"/></svg>