<svg xmlns="http://www.w3.org/2000/svg" viewBox="0 0 26 26"><g fill="#FFF" fill-rule="evenodd" data-follow-fill="#FFF"><path d="M8.308 6.617c3.023 1.858 5.68 4.427 7.972 7.705-.01.023 1.377-1.196 4.158-3.656-.835-1.612-1.772-2.961-2.813-4.05-.006.01-3.112.01-9.317 0Z"/><path d="M4.616 9.519v8.723c2.743 1.772 5.626 2.564 8.65 2.375 4.537-.284 7.283-3.214 9.146-6.4 1.242-2.124 2.205-3.321 2.89-3.592-2.486-1.086-4.656-.758-6.51.982s-3.215 3.212-4.084 4.417c-1.504-.655-3.15-1.559-4.94-2.712a51.662 51.662 0 0 1-5.152-3.793Z"/><path d="M22.412 14.217c1.242-2.124 2.205-3.321 2.89-3.592-2.486-1.086-4.656-.758-6.51.982s-3.215 3.212-4.084 4.417c3.323 1.174 5.532 1.122 6.628-.155.39-.454.551-.755 1.076-1.652Z"/></g></svg>