<svg xmlns="http://www.w3.org/2000/svg" viewBox="0 0 22 22"><g fill-rule="nonzero" fill="#000" data-follow-fill="#000"><path d="M12.808 6.435h-7.69a.771.771 0 0 1-.768-.774c0-.428.344-.775.768-.775h7.722a.737.737 0 0 1 .705.346.75.75 0 0 1 0 .79.737.737 0 0 1-.705.347l-.032.066ZM9.8 10.799H5.118a.737.737 0 0 1-.705-.346.75.75 0 0 1 0-.79.737.737 0 0 1 .705-.346h4.683a.737.737 0 0 1 .704.346.75.75 0 0 1 0 .79.737.737 0 0 1-.704.346Zm.534 9.284H2.908c-1.6 0-2.899-1.303-2.908-2.915V2.915C.009 1.303 1.308 0 2.908 0h13.785c1.603-.005 2.908 1.3 2.917 2.915v6.201h-1.89v-6.2a1.031 1.031 0 0 0-.292-.746 1.015 1.015 0 0 0-.735-.307H2.908c-.274 0-.537.112-.729.31a1.031 1.031 0 0 0-.29.742v14.278c0 .567.457 1.026 1.02 1.026h7.426v1.864Z"/><path d="m15.683 9.462.01.003 4.407 1.272.018.006a.625.625 0 0 1 .02.007l-.038-.013a.626.626 0 0 1 .11.044l.013.007c.02.01.04.022.058.035l.013.009a.627.627 0 0 1 .225.304 9.802 9.802 0 0 1 .305 1.194c.116.616.176 1.249.176 1.89 0 2.874-1.74 5.437-5.137 7.677a.622.622 0 0 1-.686 0c-3.397-2.24-5.137-4.803-5.137-7.677 0-1.062.165-2.102.478-3.072a.652.652 0 0 1 .038-.092v-.003l.007-.012a.634.634 0 0 1 .046-.072l.006-.008a.627.627 0 0 1 .315-.22l.01-.004 4.408-1.272a.621.621 0 0 1 .335-.003Zm-.163 1.263-3.907 1.127-.014.05a8.812 8.812 0 0 0-.308 2.318c0 2.296 1.38 4.419 4.21 6.38l.02.013.018-.013c2.802-1.94 4.181-4.04 4.21-6.309v-.071a8.885 8.885 0 0 0-.32-2.367l-3.909-1.128Zm-.573 6.224-.012-.002a.621.621 0 0 1-.363-.175l-.007-.008-1.346-1.375a.633.633 0 0 1 .007-.89.622.622 0 0 1 .877-.001l.007.007.922.942 1.954-1.96a.622.622 0 0 1 .884.001.633.633 0 0 1 .006.883l-.007.008-2.383 2.394a.622.622 0 0 1-.539.176Z"/></g></svg>