<svg xmlns="http://www.w3.org/2000/svg" viewBox="0 0 22 22"><g fill="#D0963E" fill-rule="nonzero" data-follow-fill="#D0963E"><path d="m10.414 4 6.234 2.667v4.814a4.565 4.565 0 0 0-1.807-.37 4.53 4.53 0 0 0-3.848 2.116c-.145-.215-.362-.392-.58-.392a.74.74 0 0 0-.741.737.733.733 0 0 0 .742.737.744.744 0 0 0 .093-.006c-.12.397-.183.817-.183 1.253 0 1.447.703 2.733 1.792 3.544l-1.792.9-2.647-1.33C5.418 17.534 3.999 15.257 4 12.771V6.667L10.414 4Zm.123 3.43c-.515.001-.607.38-.617.713v.066l.137 3.37.01.037c.078.247.277.482.54.482.205 0 .412-.26.412-.519l.137-3.37V8.16c-.002-.27-.037-.73-.619-.73Z"/><path opacity=".503" d="M14.834 15.086c.247 0 .448.198.448.44 0 .244-.201.442-.448.442a.444.444 0 0 1-.448-.441c0-.243.2-.44.448-.44Z"/><path opacity=".496" d="M14.61 12.059a.454.454 0 0 1 .448 0l2.718 1.555a.44.44 0 0 1 .224.38v3.124a.44.44 0 0 1-.224.383l-2.718 1.551a.454.454 0 0 1-.448 0l-2.719-1.564a.44.44 0 0 1-.224-.384v-3.106a.44.44 0 0 1 .224-.384Zm.224 2.146c-.742 0-1.344.592-1.344 1.322 0 .73.602 1.322 1.344 1.322.742 0 1.343-.592 1.343-1.322 0-.73-.601-1.322-1.343-1.322Z"/></g></svg>