<svg width="22" height="22" viewBox="0 0 22 22" fill="none" xmlns="http://www.w3.org/2000/svg">
<path d="M10.414 4L16.648 6.667V11.481C16.2275 11.3002 15.7822 11.1838 15.327 11.136V7.71L10.414 5.653L5.32 7.71V12.771C5.319 14.774 6.462 16.608 8.28 17.524L10.323 18.55L11.158 18.13C11.425 18.5 11.748 18.827 12.115 19.1L10.323 20L7.676 18.67C5.418 17.534 3.999 15.257 4 12.771V6.667L10.414 4Z" fill="#333333"/>
<path d="M10.414 12.8352C10.642 12.8352 10.871 13.0312 11.017 13.2612C10.8607 13.573 10.7541 13.9074 10.701 14.2522C10.6101 14.29 10.5125 14.3093 10.414 14.3092C10.2179 14.3097 10.0296 14.2324 9.89052 14.0942C9.75139 13.956 9.6728 13.7682 9.67201 13.5722C9.67147 13.4748 9.69033 13.3783 9.72749 13.2883C9.76465 13.1983 9.81937 13.1166 9.88844 13.048C9.95752 12.9794 10.0396 12.9253 10.1298 12.8887C10.22 12.8522 10.3167 12.834 10.414 12.8352ZM10.537 7.43115C11.119 7.43115 11.154 7.89115 11.156 8.16115V8.20915L11.019 11.5792C11.019 11.8392 10.812 12.0982 10.606 12.0982C10.344 12.0982 10.145 11.8632 10.067 11.6162L10.057 11.5792L9.91901 8.20915L9.92001 8.14315C9.93001 7.81115 10.022 7.43115 10.537 7.43115Z" fill="#303133"/>
<path d="M13.49 15.5271C13.49 16.2571 14.092 16.8491 14.834 16.8491C15.576 16.8491 16.177 16.2571 16.177 15.5271C16.177 14.7971 15.576 14.2051 14.834 14.2051C14.092 14.2051 13.49 14.7971 13.49 15.5271ZM14.834 15.0871C15.081 15.0871 15.282 15.2841 15.282 15.5271C15.282 15.7701 15.081 15.9671 14.834 15.9671C14.7757 15.9676 14.7178 15.9566 14.6638 15.9348C14.6097 15.913 14.5605 15.8807 14.5189 15.8399C14.4773 15.799 14.4441 15.7504 14.4213 15.6967C14.3985 15.643 14.3865 15.5854 14.386 15.5271C14.386 15.2841 14.586 15.0871 14.834 15.0871Z" fill="black"/>
<path d="M17.776 13.6141L15.058 12.0591C14.9897 12.0204 14.9125 12 14.834 12C14.7555 12 14.6783 12.0204 14.61 12.0591L11.891 13.6141C11.8229 13.6525 11.7663 13.7083 11.7269 13.7757C11.6876 13.8432 11.6669 13.92 11.667 13.9981V17.1041C11.6669 17.1822 11.6876 17.259 11.7269 17.3265C11.7663 17.394 11.8229 17.4498 11.891 17.4881L14.61 19.0521C14.748 19.1311 14.92 19.1311 15.058 19.0521L17.776 17.5011C17.8439 17.4628 17.9004 17.4072 17.9398 17.3399C17.9792 17.2726 17.9999 17.1961 18 17.1181V13.9931C17.9992 13.9158 17.9781 13.8401 17.9388 13.7736C17.8995 13.707 17.8433 13.652 17.776 13.6141ZM17.104 16.8491L14.834 18.1441L12.564 16.8491V14.2491L14.834 12.9541L17.104 14.2491V16.8491Z" fill="black"/>
</svg>
