<svg xmlns="http://www.w3.org/2000/svg" viewBox="0 0 22 22"><g fill-rule="nonzero" fill="none"><path fill="#333" d="m10.414 4 6.234 2.667v4.814a4.546 4.546 0 0 0-1.321-.345V7.71l-4.913-2.057L5.32 7.71v5.061c-.001 2.003 1.142 3.837 2.96 4.753l2.043 1.026.835-.42c.267.37.59.697.957.97l-1.792.9-2.647-1.33C5.418 17.534 3.999 15.257 4 12.771V6.667L10.414 4Z"/><path fill="#303133" d="M10.414 12.835c.228 0 .457.196.603.426a3.35 3.35 0 0 0-.316.991.744.744 0 0 1-.287.057.74.74 0 0 1-.742-.737.733.733 0 0 1 .742-.737Zm.123-5.404c.582 0 .617.46.619.73v.048l-.137 3.37c0 .26-.207.519-.413.519-.262 0-.461-.235-.539-.482l-.01-.037-.138-3.37.001-.066c.01-.332.102-.712.617-.712Z"/><path fill="#000" d="M13.49 15.527c0 .73.602 1.322 1.344 1.322.742 0 1.343-.592 1.343-1.322 0-.73-.601-1.322-1.343-1.322s-1.344.592-1.344 1.322Zm1.344-.44c.247 0 .448.197.448.44s-.201.44-.448.44a.444.444 0 0 1-.448-.44c0-.243.2-.44.448-.44Z"/><path fill="#000" d="m17.776 13.614-2.718-1.555a.454.454 0 0 0-.448 0l-2.719 1.555a.44.44 0 0 0-.224.384v3.106a.44.44 0 0 0 .224.384l2.719 1.564c.138.079.31.079.448 0l2.718-1.551a.44.44 0 0 0 .224-.383v-3.125a.44.44 0 0 0-.224-.379Zm-.672 3.235-2.27 1.295-2.27-1.295v-2.6l2.27-1.295 2.27 1.295v2.6Z"/></g></svg>