<svg width="148" height="148" viewBox="0 0 148 148" fill="none" xmlns="http://www.w3.org/2000/svg">
<path d="M45.5909 80.9613L50.7189 89.8432C51.9957 92.0549 53.1943 92.047 56.0783 90.3819C56.7329 90.004 62.0055 86.9599 62.7309 86.5411C65.6502 84.8556 65.6648 83.5733 64.1289 80.0958C63.6811 80.2599 62.9644 80.367 62.4498 80.3338C63.8747 83.3329 63.9212 84.1081 61.975 85.2318C60.7895 85.9162 56.1716 88.5823 55.2339 89.1237C53.2877 90.2474 52.7452 90.2067 52.1017 89.0921L46.9533 80.1748L45.5909 80.9613ZM48.0093 83.4339L48.7754 84.7609L59.2143 78.734L58.4482 77.4071L48.0093 83.4339ZM42.9037 78.4316L43.6596 79.7409L55.2308 73.0602L59.184 79.9074L60.5464 79.1209L55.8373 70.9644L42.9037 78.4316ZM69.6048 72.6643L69.7274 72.8766C71.962 77.319 72.6364 79.1 72.4746 79.7596C72.4175 80.0284 72.2787 80.1558 72.0133 80.309C71.6948 80.4929 70.9769 80.8838 70.1575 81.2625C70.5258 81.4509 70.9255 81.8571 71.1373 82.183C71.9287 81.7969 72.6718 81.3678 73.076 81.0873C73.5408 80.7482 73.798 80.4582 73.8944 79.9306C74.0983 79.058 73.3933 77.2239 71.0818 72.5665C70.9973 72.3793 70.7726 71.9901 70.7726 71.9901L69.6048 72.6643ZM66.0189 80.0189L66.9279 80.9804C68.0329 79.8706 69.3801 78.5266 70.6715 77.1676L69.983 76.2204C68.5222 77.6536 67.079 79.0766 66.0189 80.0189ZM59.9515 68.4475L60.6257 69.6152L65.8098 66.6222L65.1356 65.4545L59.9515 68.4475ZM64.7817 65.6588C66.0369 68.1188 67.6334 71.5378 68.4637 73.6298L69.6185 72.8923C68.8039 70.9092 67.1999 67.5181 65.9495 64.9846L64.7817 65.6588ZM62.2655 70.249C63.2803 72.211 64.5621 74.9623 65.2413 76.6698L66.4444 75.9752C65.7605 74.3412 64.5168 71.615 63.5095 69.6252L62.2655 70.249ZM64.9972 75.3481L65.6203 76.4274L70.3974 73.6693L69.7743 72.59L64.9972 75.3481ZM72.5522 69.3112L71.5963 70.3114C75.1978 73.2805 79.6047 75.0297 83.7693 74.7248C83.7876 74.266 83.9085 73.5357 84.0737 73.0864C80.1127 73.5804 75.78 72.0007 72.5522 69.3112ZM73.2557 59.9878C73.1486 63.2344 71.5829 66.7333 69.3704 69.5205C69.8142 69.5946 70.5602 69.8244 70.9081 69.9774C73.0035 67.0691 74.6215 63.3748 74.7496 59.7151L73.2557 59.9878ZM76.7884 66.8419C77.8679 71.4086 76.9075 75.3838 74.0091 78.9444C74.4203 79.0844 75.1364 79.4259 75.4591 79.617C78.3206 75.7474 79.3735 71.483 78.2713 66.3868L76.7884 66.8419ZM67.843 65.118C71.1794 64.8903 75.415 65.1578 77.845 65.6893L78.112 64.1905C75.6875 63.7502 71.4621 63.5004 68.1638 63.7533L67.843 65.118ZM86.091 60.032L90.3904 57.5497L92.7399 61.6191L88.4405 64.1014L86.091 60.032ZM84.1504 59.5718L87.8585 65.9944L94.7411 62.0207L91.033 55.5982L84.1504 59.5718ZM77.8704 57.7246L86.8392 73.2591L88.2016 72.4725L80.0091 58.2827L92.0226 51.3467L100.215 65.5365L101.631 64.7193L92.6617 49.1848L77.8704 57.7246ZM86.3333 70.6259L87.0586 71.8821L100.488 64.1288L99.7623 62.8726L86.3333 70.6259Z" fill="#D04D3E"/>
<path opacity="0.5" fill-rule="evenodd" clip-rule="evenodd" d="M34.649 67.3187C35.3156 66.9338 36.1681 67.1622 36.553 67.8289C36.9379 68.4955 36.7095 69.348 36.0428 69.7329C35.3761 70.1178 34.5237 69.8894 34.1388 69.2227C33.7539 68.5561 33.9823 67.7036 34.649 67.3187ZM41.8915 63.1372C42.5581 62.7524 43.4106 62.9808 43.7955 63.6474C44.1804 64.3141 43.952 65.1665 43.2853 65.5514C42.6187 65.9363 41.7662 65.7079 41.3813 65.0412C40.9964 64.3746 41.2248 63.5221 41.8915 63.1372ZM49.134 58.9558C49.8007 58.5709 50.6531 58.7993 51.038 59.466C51.4229 60.1326 51.1945 60.9851 50.5278 61.37C49.8612 61.7548 49.0087 61.5264 48.6238 60.8598C48.2389 60.1931 48.4674 59.3407 49.134 58.9558ZM56.3765 54.7743C57.0432 54.3894 57.8956 54.6178 58.2805 55.2845C58.6654 55.9511 58.437 56.8036 57.7703 57.1885C57.1037 57.5734 56.2512 57.345 55.8663 56.6783C55.4815 56.0117 55.7099 55.1592 56.3765 54.7743ZM63.619 50.5928C64.2857 50.2079 65.1381 50.4364 65.523 51.103C65.9079 51.7697 65.6795 52.6221 65.0129 53.007C64.3462 53.3919 63.4938 53.1635 63.1089 52.4968C62.724 51.8302 62.9524 50.9777 63.619 50.5928ZM70.8615 46.4114C71.5282 46.0265 72.3807 46.2549 72.7655 46.9216C73.1504 47.5882 72.922 48.4407 72.2554 48.8255C71.5887 49.2104 70.7363 48.982 70.3514 48.3154C69.9665 47.6487 70.1949 46.7963 70.8615 46.4114ZM78.1041 42.2299C78.7707 41.845 79.6232 42.0734 80.0081 42.7401C80.393 43.4067 80.1645 44.2592 79.4979 44.6441C78.8312 45.029 77.9788 44.8006 77.5939 44.1339C77.209 43.4672 77.4374 42.6148 78.1041 42.2299ZM85.3466 38.0484C86.0132 37.6636 86.8657 37.892 87.2506 38.5586C87.6355 39.2253 87.4071 40.0777 86.7404 40.4626C86.0737 40.8475 85.2213 40.6191 84.8364 39.9524C84.4515 39.2858 84.6799 38.4333 85.3466 38.0484ZM92.5891 33.867C93.2557 33.4821 94.1082 33.7105 94.4931 34.3771C94.878 35.0438 94.6496 35.8963 93.9829 36.2811C93.3163 36.666 92.4638 36.4376 92.0789 35.771C91.694 35.1043 91.9224 34.2519 92.5891 33.867Z" fill="#D04D3E"/>
<path opacity="0.5" fill-rule="evenodd" clip-rule="evenodd" d="M115.012 71.7278C115.711 71.3241 116.605 71.5637 117.009 72.2629C117.413 72.9622 117.173 73.8563 116.474 74.26C115.775 74.6637 114.881 74.4241 114.477 73.7249C114.073 73.0256 114.313 72.1315 115.012 71.7278ZM50.0418 108.98C50.7085 108.595 51.5609 108.823 51.9458 109.49C52.3307 110.157 52.1023 111.009 51.4357 111.394C50.769 111.779 49.9165 111.55 49.5317 110.884C49.1468 110.217 49.3752 109.365 50.0418 108.98ZM57.2843 104.798C57.951 104.413 58.8034 104.642 59.1883 105.308C59.5732 105.975 59.3448 106.828 58.6782 107.212C58.0115 107.597 57.1591 107.369 56.7742 106.702C56.3893 106.036 56.6177 105.183 57.2843 104.798ZM64.5269 100.617C65.1935 100.232 66.046 100.46 66.4309 101.127C66.8157 101.794 66.5873 102.646 65.9207 103.031C65.254 103.416 64.4016 103.187 64.0167 102.521C63.6318 101.854 63.8602 101.002 64.5269 100.617ZM71.7694 96.4353C72.436 96.0504 73.2885 96.2788 73.6734 96.9455C74.0583 97.6121 73.8299 98.4646 73.1632 98.8495C72.4965 99.2344 71.6441 99.006 71.2592 98.3393C70.8743 97.6726 71.1027 96.8202 71.7694 96.4353ZM79.0119 92.2538C79.6785 91.8689 80.531 92.0974 80.9159 92.764C81.3008 93.4307 81.0724 94.2831 80.4057 94.668C79.7391 95.0529 78.8866 94.8245 78.5017 94.1578C78.1168 93.4912 78.3452 92.6387 79.0119 92.2538ZM86.2544 88.0724C86.9211 87.6875 87.7735 87.9159 88.1584 88.5825C88.5433 89.2492 88.3149 90.1016 87.6482 90.4865C86.9816 90.8714 86.1291 90.643 85.7442 89.9764C85.3593 89.3097 85.5877 88.4573 86.2544 88.0724ZM93.4969 83.8909C94.1636 83.506 95.016 83.7344 95.4009 84.4011C95.7858 85.0677 95.5574 85.9202 94.8907 86.3051C94.2241 86.69 93.3716 86.4616 92.9867 85.7949C92.6018 85.1282 92.8303 84.2758 93.4969 83.8909ZM100.739 79.7094C101.406 79.3245 102.259 79.553 102.643 80.2196C103.028 80.8863 102.8 81.7387 102.133 82.1236C101.467 82.5085 100.614 82.2801 100.229 81.6134C99.8444 80.9468 100.073 80.0943 100.739 79.7094ZM107.973 75.3759C108.672 74.9722 109.566 75.2117 109.97 75.911C110.374 76.6102 110.134 77.5044 109.435 77.9081C108.736 78.3118 107.841 78.0722 107.438 77.373C107.034 76.6737 107.274 75.7796 107.973 75.3759Z" fill="#D04D3E"/>
<path d="M100.947 120.676C126.725 105.794 135.557 72.8322 120.674 47.0549C105.792 21.2776 72.8302 12.4456 47.0529 27.3282C21.2756 42.2107 12.4436 75.172 27.3261 100.949C42.2087 126.727 75.17 135.559 100.947 120.676Z" stroke="#D04D3E" stroke-width="1.4593"/>
<path opacity="0.5" d="M97.9429 115.705C120.998 102.394 128.897 72.9136 115.586 49.8584C102.276 26.8033 72.7951 18.904 49.7399 32.2149C26.6848 45.5258 18.7855 75.0063 32.0964 98.0615C45.4073 121.117 74.8878 129.016 97.9429 115.705Z" stroke="#D04D3E" stroke-width="0.729648"/>
</svg>
