<svg width="22" height="22" viewBox="0 0 22 22" fill="none" xmlns="http://www.w3.org/2000/svg">
<path d="M4 4.539V17.46C4.00026 17.603 4.05727 17.7401 4.15852 17.8412C4.25976 17.9422 4.39696 17.999 4.54 17.999H17.46C17.603 17.999 17.7402 17.9422 17.8415 17.8412C17.9427 17.7401 17.9997 17.603 18 17.46V4.54C18 4.39678 17.9431 4.25943 17.8418 4.15816C17.7406 4.05689 17.6032 4 17.46 4H4.54C4.24 4 4 4.24 4 4.539ZM4.924 16.539V5.461C4.924 5.31778 4.98089 5.18043 5.08216 5.07916C5.18343 4.97789 5.32078 4.921 5.464 4.921H16.537C16.6802 4.921 16.8176 4.97789 16.9188 5.07916C17.0201 5.18043 17.077 5.31778 17.077 5.461V16.537C17.077 16.6802 17.0201 16.8176 16.9188 16.9188C16.8176 17.0201 16.6802 17.077 16.537 17.077H5.463C5.31978 17.077 5.18243 17.0201 5.08116 16.9188C4.97989 16.8176 4.923 16.6802 4.923 16.537L4.924 16.539ZM6.568 15.749C6.568 16.033 6.797 16.261 7.079 16.261H14.897C15.0325 16.261 15.1625 16.2072 15.2583 16.1113C15.3542 16.0155 15.408 15.8855 15.408 15.75C15.408 15.6145 15.3542 15.4845 15.2583 15.3887C15.1625 15.2928 15.0325 15.239 14.897 15.239H7.08C6.94474 15.239 6.81502 15.2927 6.71938 15.3884C6.62373 15.484 6.57 15.6137 6.57 15.749H6.568ZM10.295 12.713L8.379 10.799L11.674 7.507L13.59 9.421L10.295 12.713ZM6.646 14.453L7.384 11.848L9.252 13.715L6.646 14.452V14.453ZM11.858 7.404L13.124 6.139C13.478 5.786 14.039 5.779 14.374 6.124L14.992 6.74C15.328 7.076 15.321 7.638 14.977 7.99L13.71 9.254" fill="#303133"/>
</svg>
