<svg width="46" height="46" viewBox="0 0 46 46" fill="none" xmlns="http://www.w3.org/2000/svg">
<rect width="46" height="46" rx="8" fill="url(#paint0_linear_0_3013)"/>
<rect x="10" y="10" width="26" height="26" fill="#D8D8D8" fill-opacity="0.01"/>
<rect opacity="0.01" x="9" y="8" width="26" height="26" fill="black"/>
<g filter="url(#filter0_d_0_3013)">
<path d="M13.9091 15H32.0909C32.6364 15 33 15.35 33 15.875V29H13V15.875C13 15.35 13.3636 15 13.9091 15Z" fill="white"/>
</g>
<g filter="url(#filter1_d_0_3013)">
<path d="M14.1579 12H31.8421C32.4737 12 33 12.5 33 13C33 13.5 32.4737 14 31.8421 14H14.1579C13.5263 14 13 13.5 13 13C13 12.5 13.5263 12 14.1579 12Z" fill="white"/>
</g>
<g filter="url(#filter2_d_0_3013)">
<path d="M12.2857 22H17.6857L19.3143 25.8133H26.6L28.5714 22H33.7143C34.4 22 35 22.6067 35 23.3V33.7C35 34.3933 34.4 35 33.7143 35H12.2857C11.6 35 11 34.3933 11 33.7V23.3C11.0857 22.6067 11.6 22 12.2857 22Z" fill="#C3F1D6"/>
</g>
<path d="M16.875 29H29.125C29.65 29 30 29.4 30 30C30 30.6 29.65 31 29.125 31H16.875C16.35 31 16 30.6 16 30C16 29.4 16.35 29 16.875 29Z" fill="white"/>
<defs>
<filter id="filter0_d_0_3013" x="12" y="15" width="22" height="16" filterUnits="userSpaceOnUse" color-interpolation-filters="sRGB">
<feFlood flood-opacity="0" result="BackgroundImageFix"/>
<feColorMatrix in="SourceAlpha" type="matrix" values="0 0 0 0 0 0 0 0 0 0 0 0 0 0 0 0 0 0 127 0" result="hardAlpha"/>
<feOffset dy="1"/>
<feGaussianBlur stdDeviation="0.5"/>
<feColorMatrix type="matrix" values="0 0 0 0 0 0 0 0 0 0.801998 0 0 0 0 0.343714 0 0 0 0.311544 0"/>
<feBlend mode="normal" in2="BackgroundImageFix" result="effect1_dropShadow_0_3013"/>
<feBlend mode="normal" in="SourceGraphic" in2="effect1_dropShadow_0_3013" result="shape"/>
</filter>
<filter id="filter1_d_0_3013" x="12" y="12" width="22" height="4" filterUnits="userSpaceOnUse" color-interpolation-filters="sRGB">
<feFlood flood-opacity="0" result="BackgroundImageFix"/>
<feColorMatrix in="SourceAlpha" type="matrix" values="0 0 0 0 0 0 0 0 0 0 0 0 0 0 0 0 0 0 127 0" result="hardAlpha"/>
<feOffset dy="1"/>
<feGaussianBlur stdDeviation="0.5"/>
<feColorMatrix type="matrix" values="0 0 0 0 0 0 0 0 0 0.801998 0 0 0 0 0.343714 0 0 0 0.311544 0"/>
<feBlend mode="normal" in2="BackgroundImageFix" result="effect1_dropShadow_0_3013"/>
<feBlend mode="normal" in="SourceGraphic" in2="effect1_dropShadow_0_3013" result="shape"/>
</filter>
<filter id="filter2_d_0_3013" x="10" y="22" width="26" height="15" filterUnits="userSpaceOnUse" color-interpolation-filters="sRGB">
<feFlood flood-opacity="0" result="BackgroundImageFix"/>
<feColorMatrix in="SourceAlpha" type="matrix" values="0 0 0 0 0 0 0 0 0 0 0 0 0 0 0 0 0 0 127 0" result="hardAlpha"/>
<feOffset dy="1"/>
<feGaussianBlur stdDeviation="0.5"/>
<feColorMatrix type="matrix" values="0 0 0 0 0 0 0 0 0 0.801998 0 0 0 0 0.343714 0 0 0 0.311544 0"/>
<feBlend mode="normal" in2="BackgroundImageFix" result="effect1_dropShadow_0_3013"/>
<feBlend mode="normal" in="SourceGraphic" in2="effect1_dropShadow_0_3013" result="shape"/>
</filter>
<linearGradient id="paint0_linear_0_3013" x1="42.6554" y1="46" x2="42.6554" y2="6.68914" gradientUnits="userSpaceOnUse">
<stop stop-color="#76DDA4"/>
<stop offset="1" stop-color="#3DC978"/>
</linearGradient>
</defs>
</svg>
