<svg xmlns="http://www.w3.org/2000/svg" viewBox="0 0 20 21"><path d="M13.858 10.72c-.02-2.027 1.649-2.998 1.723-3.047-.938-1.375-2.399-1.563-2.92-1.585-1.242-.126-2.425.733-3.056.733-.63 0-1.603-.715-2.634-.696-1.355.02-2.605.79-3.303 2.006-1.407 2.449-.36 6.076 1.012 8.062.67.972 1.47 2.063 2.52 2.024 1.011-.04 1.394-.655 2.616-.655 1.221 0 1.565.655 2.635.635 1.088-.02 1.777-.99 2.443-1.965.77-1.128 1.088-2.22 1.106-2.276-.024-.01-2.121-.816-2.142-3.236Zm-2.01-5.947c.557-.677.933-1.617.83-2.555-.802.033-1.775.536-2.351 1.212-.517.6-.969 1.556-.848 2.475.896.07 1.81-.456 2.369-1.132Z" fill-rule="nonzero" fill="#000" data-follow-fill="#000"/></svg>