<svg xmlns="http://www.w3.org/2000/svg" viewBox="0 0 26 26"><path d="M17.462 18.341c.57.572 1.26.919 2.02 1.135l.29.076c.544.099.827.594.852 1.1 0 .594-.433 1.099-1.025 1.186-.57.074-1.161-.285-1.285-.852-.173-.878-.544-1.643-1.186-2.286-.074-.074-.025-.235-.05-.359l.263-.02c.055-.003.101.002.121.02Zm1.05-11.192c1.21 1.286 1.877 2.805 1.902 4.572a2.34 2.34 0 0 0-.976-.21h-.05a2.345 2.345 0 0 0-2.235 2.075c-.025.21-.025.42 0 .617-.433.434-.964.705-1.619.816h-.012a2.258 2.258 0 0 0-.95 3.965 8.939 8.939 0 0 1-2.286.384 10.336 10.336 0 0 1-2.952-.285c-.149-.025-.334 0-.483.05l-2.235 1.099c-.284.148-.544.173-.79-.025-.236-.173-.26-.433-.236-.742a31.41 31.41 0 0 0 .235-1.852.67.67 0 0 0-.173-.408c-.976-.976-1.815-2.05-2.236-3.409-.79-2.693-.074-5.003 1.878-6.93 3.57-3.496 9.808-3.335 13.218.284v-.001Zm4.447 8.908c.618.074 1.075.568 1.075 1.186 0 .592-.36 1.075-.951 1.185-.713.124-1.38.44-1.926.914l-.199.185c-.123.124-.309.235-.433.05-.05-.1-.025-.335.05-.408a3.994 3.994 0 0 0 1.1-2.161 1.176 1.176 0 0 1 1.284-.951Zm-4.62-1.112c-.025.124.024.31-.05.383-.618.617-.95 1.359-1.124 2.21a1.102 1.102 0 0 1-1.284.877 1.24 1.24 0 0 1-1.037-1.197c0-.52.382-1.001.9-1.1a4.088 4.088 0 0 0 2.212-1.123c.074-.075.26-.05.384-.05h-.001Zm1.1-2.323c.544 0 1.049.36 1.16.926.149.854.52 1.594 1.125 2.212.074.074.024.284.05.408l-.276.015c-.055 0-.102-.011-.132-.04-.62-.643-1.384-.976-2.236-1.16a1.151 1.151 0 0 1-.878-1.261c.087-.618.57-1.075 1.186-1.1Z" fill-rule="nonzero" fill="#FFF" data-follow-fill="#FFF"/></svg>