<svg xmlns="http://www.w3.org/2000/svg" viewBox="0 0 22 22"><path d="M8.846 9.244a.54.54 0 0 1 .539.542.54.54 0 0 1-.539.542H6.692a.54.54 0 0 1-.538-.542c0-.3.241-.542.538-.542h2.154Zm0 2.168a.54.54 0 0 1 .539.542.54.54 0 0 1-.539.542H6.692a.54.54 0 0 1-.538-.542c0-.3.241-.542.538-.542h2.154Zm4.846-1.652v8.156h3.231V11.06l-3.23-1.3Zm-3.23-4.5L5.077 6.808v11.108h5.385V5.26ZM4.539 19A.54.54 0 0 1 4 18.458V6.4c0-.242.16-.454.39-.52l6.462-1.859a.538.538 0 0 1 .687.521v13.374h1.076V8.96a.54.54 0 0 1 .739-.503l4.308 1.734a.542.542 0 0 1 .338.504v7.763a.54.54 0 0 1-.539.542H4.54Z" fill-rule="nonzero" fill="#303133" data-follow-fill="#303133"/></svg>