<svg xmlns="http://www.w3.org/2000/svg" viewBox="0 0 22 22"><path d="M15.951 10.648 18 14.324 15.951 18h-4.097l-2.049-3.676 2.05-3.676h4.096ZM12.21 5c.545 0 .987.452.996 1.014v1.753h1.387c.545 0 .987.453.996 1.014v1.307h-.953v-1.29a.044.044 0 0 0-.038-.044H12.253V6.03a.044.044 0 0 0-.038-.045H6.101a.044.044 0 0 0-.043.04v10.942h3.79v.986H4v-.986h1.105V6.03c0-.564.437-1.022.98-1.03L6.1 5h6.109Zm3.192 6.634h-2.998l-1.5 2.69 1.5 2.69h2.998l1.499-2.69-1.5-2.69Zm-1.483.986c.908 0 1.644.763 1.644 1.703 0 .94-.736 1.704-1.644 1.704-.908 0-1.644-.763-1.644-1.704 0-.94.736-1.703 1.644-1.703Zm0 .986a.705.705 0 0 0-.692.717c0 .396.31.717.692.717a.705.705 0 0 0 .692-.717.705.705 0 0 0-.692-.717Zm-3.854-3.227v.986H7.206v-.986h2.86Zm1.04-2.241v.986H7.206v-.986h3.9Z" fill-rule="nonzero" fill="#000" data-follow-fill="#000"/></svg>