<svg xmlns="http://www.w3.org/2000/svg" viewBox="0 0 22 22"><g fill-rule="nonzero" fill="#303133" data-follow-fill="#303133"><path d="M5.952 3c.3 0 .544.24.544.536v8.2a.54.54 0 0 1-.544.536.54.54 0 0 1-.545-.536v-8.2A.54.54 0 0 1 5.952 3Zm0 11.368c.3 0 .544.24.544.536v2.56a.54.54 0 0 1-.544.536.54.54 0 0 1-.545-.536v-2.56c0-.304.244-.536.545-.536ZM16.048 3c.301 0 .545.24.545.536v8.136a.54.54 0 0 1-.545.536.54.54 0 0 1-.544-.536V3.536A.54.54 0 0 1 16.048 3Zm0 11.408c.301 0 .545.24.545.536v2.512a.54.54 0 0 1-.545.536.54.54 0 0 1-.544-.536v-2.512a.54.54 0 0 1 .544-.536ZM11 8.72c.3 0 .545.24.545.536v8.2a.54.54 0 0 1-.545.536.54.54 0 0 1-.545-.536v-8.2A.54.54 0 0 1 11 8.72Z"/><path d="M5.952 12.64H6a.82.82 0 0 1 .797.824c-.008.44-.39.792-.837.784h-.04a.815.815 0 0 1-.798-.824c0-.448.382-.8.83-.784m0-1.072c-1.05-.024-1.927.792-1.951 1.824a1.889 1.889 0 0 0 1.853 1.92h.098c1.048.024 1.926-.792 1.95-1.824a1.889 1.889 0 0 0-1.853-1.92h-.097ZM11 6.68h.049a.81.81 0 0 1 .796.824.812.812 0 0 1-.837.784h-.049a.81.81 0 0 1-.796-.824c.008-.44.39-.792.837-.784m0-1.072c-1.049-.024-1.927.792-1.951 1.824a1.889 1.889 0 0 0 1.853 1.92H11c1.049.024 1.927-.792 1.951-1.824a1.889 1.889 0 0 0-1.853-1.92H11Zm5.048 7.032h.05a.82.82 0 0 1 .796.824.822.822 0 0 1-.837.784h-.05a.82.82 0 0 1-.796-.824c.008-.448.39-.8.837-.784m0-1.072c-1.048-.024-1.926.792-1.95 1.824a1.889 1.889 0 0 0 1.853 1.92h.097c1.05.024 1.927-.792 1.951-1.824a1.889 1.889 0 0 0-1.853-1.92h-.098Z"/><path d="M11 3c.3 0 .545.24.545.536V5.76a.54.54 0 0 1-.545.536.54.54 0 0 1-.545-.536V3.536A.54.54 0 0 1 11 3Z"/></g></svg>