<svg width="22" height="22" viewBox="0 0 22 22" fill="none" xmlns="http://www.w3.org/2000/svg">
<path d="M14.0549 7.02439C14.0549 8.91361 12.5233 10.4451 10.6341 10.4451C8.74491 10.4451 7.2134 8.91361 7.2134 7.02439C7.2134 5.13517 8.74491 3.60366 10.6341 3.60366C12.5233 3.60366 14.0549 5.13517 14.0549 7.02439Z" stroke="#303133" stroke-opacity="0.85" stroke-width="1.20732"/>
<path d="M5 18.2928C5 15.1812 7.52249 12.6587 10.6341 12.6587" stroke="#303133" stroke-opacity="0.85" stroke-width="1.20732"/>
<path d="M13.4142 15.6518C13.4142 16.4394 14.0261 17.0789 14.781 17.0789C15.535 17.0789 16.1469 16.4394 16.1469 15.6518C16.1469 14.8631 15.535 14.2246 14.781 14.2246C14.0261 14.2246 13.4142 14.8631 13.4142 15.6518ZM14.781 15.1757C15.0324 15.1757 15.2356 15.3892 15.2356 15.6518C15.2356 15.9143 15.0313 16.1268 14.781 16.1268C14.6577 16.1241 14.5404 16.0726 14.455 15.9835C14.3696 15.8945 14.323 15.7751 14.3254 15.6518C14.3254 15.3892 14.5297 15.1757 14.781 15.1757Z" fill="#303133"/>
<path d="M17.7722 13.5871L15.0079 11.9076C14.9393 11.8662 14.8607 11.8442 14.7806 11.8442C14.7004 11.8442 14.6218 11.8662 14.5533 11.9076L11.7889 13.5871C11.7185 13.6306 11.6605 13.6915 11.6206 13.764C11.5807 13.8365 11.5602 13.9181 11.5611 14.0008V17.3547C11.5602 17.4374 11.5807 17.519 11.6206 17.5915C11.6605 17.664 11.7185 17.7249 11.7889 17.7684L14.5533 19.4571C14.6218 19.4985 14.7004 19.5204 14.7806 19.5204C14.8607 19.5204 14.9393 19.4985 15.0079 19.4571L17.7722 17.7817C17.8425 17.7383 17.9004 17.6775 17.9403 17.6052C17.9802 17.5329 18.0008 17.4515 18 17.369V13.9957C18.0001 13.9138 17.9791 13.8333 17.9393 13.7618C17.8994 13.6903 17.8419 13.6301 17.7722 13.5871ZM17.0888 17.0788L14.78 18.4763L12.4713 17.0788V14.2715L14.78 12.873L17.0888 14.2726V17.0788Z" fill="#303133"/>
</svg>
