<svg width="14" height="14" viewBox="0 0 14 14" fill="none" xmlns="http://www.w3.org/2000/svg">
<path fill-rule="evenodd" clip-rule="evenodd" d="M12.9999 1.66732H10.3333V0.333984H8.99992V1.66732H4.99992V0.333984H3.66659V1.66732H0.999919C0.631729 1.66732 0.333252 1.96579 0.333252 2.33398V13.0007C0.333252 13.3688 0.631729 13.6673 0.999919 13.6673H12.9999C13.3681 13.6673 13.6666 13.3688 13.6666 13.0007V2.33398C13.6666 1.96579 13.3681 1.66732 12.9999 1.66732ZM1.66659 7.00065H12.3333V12.334H1.66659V7.00065ZM8.99992 3.00065H4.99992V4.33398H3.66659V3.00065H1.66659V5.66732H12.3333V3.00065H10.3333V4.33398H8.99992V3.00065ZM4.33325 9.66732V8.33398H2.99992V9.66732H4.33325ZM6.33325 8.33398H7.66659V9.66732H6.33325V8.33398ZM10.9999 9.66732V8.33398H9.66658V9.66732H10.9999Z" fill="black" fill-opacity="0.25"/>
</svg>
