<svg xmlns="http://www.w3.org/2000/svg" viewBox="0 0 22 22"><path d="M17.125 4H4.875A.875.875 0 0 0 4 4.875v4.667c0 .483.392.875.875.875h12.25A.875.875 0 0 0 18 9.542V4.875A.875.875 0 0 0 17.125 4Zm-.292 1.167V9.25H5.167V5.167h11.666Zm-6.416 6.416a.583.583 0 0 1 .068 1.163l-.068.004h-5.25v4.083h5.25c.295 0 .544.222.579.515l.004.069a.583.583 0 0 1-.515.579l-.068.004H4.875a.875.875 0 0 1-.87-.791L4 17.125v-4.667c0-.45.342-.827.791-.87l.084-.005h5.542Zm3.208 3.5a.875.875 0 1 0 1.75 0 .875.875 0 0 0-1.75 0Zm2.529-2.916h-3.308l-1.64 2.916L12.846 18h3.308l1.64-2.917-1.64-2.916Zm-.683 1.166.984 1.75-.984 1.75h-1.942l-.985-1.75.984-1.75h1.943Zm-8.263-7h.584c.194 0 .291.098.291.292v1.167c0 .194-.097.291-.291.291h-.584c-.194 0-.291-.097-.291-.291V6.625c0-.194.097-.292.291-.292Zm0 7.584h.584c.194 0 .291.097.291.291v1.167c0 .194-.097.292-.291.292h-.584c-.194 0-.291-.098-.291-.292v-1.167c0-.194.097-.291.291-.291Zm2.334-7.584h.583c.194 0 .292.098.292.292v1.167c0 .194-.098.291-.292.291h-.583c-.195 0-.292-.097-.292-.291V6.625c0-.194.097-.292.292-.292Zm0 7.584h.583c.194 0 .292.097.292.291v1.167c0 .194-.098.292-.292.292h-.583c-.195 0-.292-.098-.292-.292v-1.167c0-.194.097-.291.292-.291Z" fill-rule="nonzero" fill="#000" data-follow-fill="#000"/></svg>