<svg xmlns="http://www.w3.org/2000/svg" viewBox="0 0 22 22"><g fill-rule="evenodd" fill="none"><path d="M0 0h22v22H0z"/><g fill-rule="nonzero"><path fill="#D0963E" d="M16.085 8.802 11.944 6.28a1.674 1.674 0 0 0-1.751 0l-4.16 2.532c-.499.3-.81.847-.81 1.44v6.155c0 .932.753 1.685 1.685 1.685h8.301c.932 0 1.685-.753 1.685-1.685v-6.165c0-.583-.31-1.13-.81-1.44Z"/><path fill="#DFC297" d="M8.81 15.475h4.498a.462.462 0 0 0 .452-.47.456.456 0 0 0-.452-.47H8.81a.462.462 0 0 0-.451.47c0 .263.207.47.451.47Z"/></g></g></svg>