<svg xmlns="http://www.w3.org/2000/svg" viewBox="0 0 22 22"><g fill-rule="evenodd" fill="none"><path d="M0 0h22v22H0z"/><g fill-rule="nonzero" fill="#303133" data-follow-fill="#303133"><path d="M20.474 5.052 12.668.451a3.245 3.245 0 0 0-3.3 0L1.526 5.07A3.05 3.05 0 0 0 0 7.697v11.23C0 20.626 1.42 22 3.176 22h15.648C20.581 22 22 20.626 22 18.926V7.68c0-1.065-.585-2.06-1.526-2.628Zm-.248 13.789c0 .79-.657 1.425-1.473 1.425H3.247c-.816 0-1.473-.636-1.473-1.425V7.714c0-.498.266-.962.71-1.22l7.77-4.567a1.515 1.515 0 0 1 1.527 0l7.735 4.568c.444.257.71.721.71 1.219v11.127Z"/><path d="M6.76 17.227h8.48a.857.857 0 0 0 .852-.859.845.845 0 0 0-.852-.859H6.76a.857.857 0 0 0-.852.859c0 .48.39.859.852.859Z"/></g></g></svg>