<svg xmlns="http://www.w3.org/2000/svg" viewBox="0 0 16 16"><g fill-rule="nonzero" fill="none"><g fill="#E2B062" data-follow-fill="#E2B062"><path d="M5.04 14.28h7.811V8.744a.8.8 0 1 1 1.6 0v6.336a.8.8 0 0 1-.8.8H2.338a.8.8 0 0 1-.8-.8V8.781a.8.8 0 1 1 1.6 0v5.499H5.04Z"/><path d="M1.48 8.341a.8.8 0 1 1-1.112-1.15L7.458.346a.8.8 0 0 1 1.112 0l7.084 6.843a.8.8 0 0 1-1.113 1.149L8.012 2.036 1.48 8.34Z"/></g><path stroke-linejoin="round" opacity=".501" stroke-width="1.5" stroke="#E2B062" d="M9.996 15.194v-6h-4v6" data-follow-stroke="#E2B062"/></g></svg>