<svg xmlns="http://www.w3.org/2000/svg" viewBox="0 0 22 22"><path d="M16.775 6c.635 0 1.174.47 1.222 1.092l.003.09v4.197c0 .313-.241.57-.55.59a.586.586 0 0 1-.613-.521l-.004-.07V7.183c0 .01-.008.005-.03.002l-.028-.002H5.225c-.033 0-.05.007-.055.006l-.003-.006v7.09l.003-.005.055.005h4.041c.309 0 .564.245.582.557a.589.589 0 0 1-.513.621l-.069.004H5.225c-.635 0-1.174-.47-1.221-1.092L4 14.272v-7.09c0-.636.51-1.135 1.135-1.179L5.225 6h11.55ZM6.333 16.636H9.25c.322 0 .583.265.583.59 0 .327-.26.592-.583.592H6.333a.587.587 0 0 1-.583-.591c0-.326.261-.59.583-.591Zm10.792-3.545h-5.25a.87.87 0 0 0-.619.26.892.892 0 0 0-.256.626v2.95l.004.086c.044.454.42.8.871.8h1.903l2.21 1.123.062.028c.179.066.378.04.534-.07a.593.593 0 0 0 .25-.485v-.595h.291a.87.87 0 0 0 .619-.26.892.892 0 0 0 .256-.627v-2.95a.892.892 0 0 0-.256-.627.87.87 0 0 0-.619-.26Zm-.292 1.181v2.36h-.583l-.068.004a.588.588 0 0 0-.515.587v.228l-1.489-.756-.062-.028a.577.577 0 0 0-.2-.035h-1.75v-2.36h4.667Z" fill-rule="nonzero" fill="#000" data-follow-fill="#000"/></svg>