<svg xmlns="http://www.w3.org/2000/svg" viewBox="0 0 22 22"><g fill-rule="nonzero" fill="none"><g fill="#000"><path d="M7.874 9.644h3.454v1.219H7.874V9.644Zm-.001-1.552.001-1.218 4.713.006-.001 1.218-4.713-.006Z"/><path d="M11.067 17.782H6.485V4.269c.004-.028.026-.049.052-.049h7.386a.055.055 0 0 1 .046.054v3.363h2.833a.055.055 0 0 1 .046.054v1.592H18V7.67c-.011-.694-.545-1.253-1.203-1.253H15.12V4.253C15.111 3.56 14.576 3 13.918 3h-7.4c-.654.012-1.183.578-1.183 1.274v13.508H4V19h7.069v-1.218h-.002Z"/></g><path fill="#333" d="M15.834 15.601c.046 0 .09.015.128.041l2.376 1.679a.222.222 0 0 1 .004.36l-2.376 1.76a.222.222 0 0 1-.354-.18V18.13h-1.943c-1.385.008-2.136-.677-2.256-2.053.12.126.647.87 2.256.87 1.073 0 1.72-.013 1.943-.038v-1.085c0-.123.1-.223.222-.223Zm-1.487-3.406a.222.222 0 0 1 .044.132v1.132h1.943c1.384-.008 2.136.676 2.255 2.053-.12-.126-.646-.87-2.255-.87-1.073 0-1.72.013-1.943.037v1.086a.222.222 0 0 1-.35.182l-2.377-1.679a.222.222 0 0 1-.004-.36l2.377-1.76a.222.222 0 0 1 .31.047Z"/></g></svg>