<svg xmlns="http://www.w3.org/2000/svg" viewBox="0 0 22 22"><g fill-rule="nonzero" fill="#000" data-follow-fill="#000"><path d="M11.015 18.862H4.852a.16.16 0 0 1-.16-.16v-8.656a.16.16 0 0 1 .16-.16h7.578l.461-.46 1.272-1.273h4.545a.16.16 0 0 1 .16.16v2.998a.785.785 0 1 0 1.571 0V8.313a1.73 1.73 0 0 0-1.73-1.73h-4.56V1.57C14.148.702 13.443 0 12.576 0H1.57C.702 0 0 .705 0 1.571v14.146c0 .87.705 1.572 1.571 1.572h1.547V18.7c0 .958.776 1.731 1.732 1.731h6.163a.785.785 0 0 0 .002-1.569ZM2.32 15.72a.749.749 0 0 1-.749-.749V2.321c0-.416.337-.75.75-.75h9.507c.415 0 .749.337.749.75v5.194l-.798.798H4.852a1.73 1.73 0 0 0-1.731 1.73v5.674h-.8v.003Z"/><path d="M3.931 5.502h6.289a.785.785 0 1 0 0-1.571H3.93a.785.785 0 1 0 0 1.57Zm17.84 15.155-2.206-2.205a.64.64 0 0 0-.076-.066 3.933 3.933 0 0 0-3.276-6.103 3.93 3.93 0 1 0 2.173 7.206.64.64 0 0 0 .067.076l2.205 2.204a.779.779 0 0 0 1.11 0c.309-.31.309-.805.002-1.112Zm-5.558-2.09a2.342 2.342 0 0 1-1.667-.69 2.346 2.346 0 0 1-.69-1.666c0-.629.246-1.223.69-1.667a2.346 2.346 0 0 1 1.667-.69c.631 0 1.223.246 1.668.69a2.362 2.362 0 0 1 0 3.334 2.35 2.35 0 0 1-1.668.69Z"/></g></svg>