<svg xmlns="http://www.w3.org/2000/svg" viewBox="0 0 22 22"><g fill-rule="nonzero" fill="#000" data-follow-fill="#000"><path d="M17.167 18H4.833A.83.83 0 0 1 4 17.175v-6.34c0-.249.112-.485.306-.644a.846.846 0 0 1 .69-.176L11 11.123l6.003-1.109a.846.846 0 0 1 .69.176.829.829 0 0 1 .307.644v6.341a.83.83 0 0 1-.833.825Zm-12.13-1.023h11.924v-5.914L11 12.164l-5.962-1.1v5.913Z"/><path d="M16 11h-.935V5.44c0-.227-.148-.411-.33-.411h-7.47c-.182 0-.33.184-.33.41v5.465H6V5.44C6 4.646 6.567 4 7.265 4h7.47C15.433 4 16 4.646 16 5.44V11Z"/><path d="M8.467 7h4.066c.311 0 .467.167.467.5 0 .333-.156.5-.467.5H8.467C8.156 8 8 7.833 8 7.5c0-.333.156-.5.467-.5ZM8.467 9h4.066c.311 0 .467.167.467.5 0 .333-.156.5-.467.5H8.467C8.156 10 8 9.833 8 9.5c0-.333.156-.5.467-.5Z"/></g></svg>