<svg xmlns="http://www.w3.org/2000/svg" viewBox="0 0 23 23"><path d="M21.323 22.992h-6.676c-.91 0-1.669-.759-1.669-1.669v-6.676c0-.91.759-1.669 1.67-1.669h6.675c.91 0 1.669.759 1.669 1.67v6.675c0 .91-.759 1.669-1.669 1.669Zm0-7.586c0-.455-.303-.91-.91-.91h-5.007c-.455.151-.759.455-.759.91v5.007c0 .455.304.91.91.91h5.007c.456 0 .91-.303.91-.91v-5.007h-.151Zm0-4.4h-6.676c-.91 0-1.669-.759-1.669-1.67V2.662c0-.91.759-1.669 1.67-1.669h6.675c.91 0 1.669.759 1.669 1.669v6.676c0 .91-.759 1.669-1.669 1.669Zm0-7.435c0-.455-.303-.91-.91-.91h-5.007c-.455 0-.759.455-.759.91v5.007c0 .455.304.91.91.91h5.007c.456 0 .91-.303.91-.91V3.571h-.151ZM9.337 22.992H2.66c-.91 0-1.669-.759-1.669-1.669v-6.676c0-.91.759-1.669 1.669-1.669h6.676c.91 0 1.669.759 1.669 1.67v6.675c0 .91-.759 1.669-1.67 1.669Zm0-7.586c0-.455-.304-.759-.759-.759H3.571c-.455 0-.91.304-.91.759v5.007c0 .455.303.91.91.91h5.007c.455 0 .91-.303.91-.91l-.151-5.007Zm0-4.4H2.66c-.91 0-1.669-.759-1.669-1.67V2.662c0-.91.759-1.669 1.669-1.669h6.676c.91 0 1.669.759 1.669 1.669v6.676c0 .91-.759 1.669-1.67 1.669Zm0-7.435c0-.455-.304-.91-.91-.91H3.57c-.455 0-.91.303-.91.91v5.007c0 .455.303.91.91.91h5.007c.455 0 .91-.303.91-.91l-.151-5.007Z" fill-rule="nonzero" fill="#000" data-follow-fill="#000"/></svg>