<svg xmlns="http://www.w3.org/2000/svg" viewBox="0 0 22 22"><g fill-rule="nonzero" fill="#000" data-follow-fill="#000"><path d="M11.01 16.003H7.088a.101.101 0 0 1-.102-.101v-5.509c0-.056.045-.102.102-.102h4.822l.293-.293.81-.81h2.892c.056 0 .102.046.102.102v1.908a.5.5 0 1 0 1 0V9.29c0-.61-.494-1.101-1.102-1.101h-2.901v-3.19a1 1 0 0 0-1-.999H5a1 1 0 0 0-1 1v9.002a1 1 0 0 0 1 1h.984v.898c0 .61.494 1.102 1.102 1.102h3.922a.5.5 0 0 0 .002-.999Zm-5.533-2A.476.476 0 0 1 5 13.528v-8.05C5 5.211 5.214 5 5.477 5h6.05c.264 0 .476.214.476.476v3.306l-.507.508H7.088c-.61 0-1.102.494-1.102 1.101v3.611h-.51v.002Z"/><path d="M6.502 7.501h4.001a.5.5 0 1 0 0-1H6.502a.5.5 0 1 0 0 1Zm11.352 9.644-1.403-1.403a.407.407 0 0 0-.049-.042 2.503 2.503 0 0 0-3.853-3.151 2.501 2.501 0 0 0 3.151 3.853.407.407 0 0 0 .043.048l1.403 1.403a.496.496 0 0 0 .706 0 .5.5 0 0 0 .002-.708Zm-3.536-1.33a1.49 1.49 0 0 1-1.061-.438 1.493 1.493 0 0 1-.44-1.061c0-.4.157-.778.44-1.06a1.493 1.493 0 0 1 1.06-.44 1.503 1.503 0 0 1 1.061 2.56 1.496 1.496 0 0 1-1.06.44Z"/></g></svg>