<svg xmlns="http://www.w3.org/2000/svg" viewBox="0 0 22 22"><g fill-rule="nonzero" fill="#000" data-follow-fill="#000"><path d="M20.69 22H1.309A1.304 1.304 0 0 1 0 20.704V10.74c0-.39.176-.762.481-1.011a1.33 1.33 0 0 1 1.085-.277L11 11.194l9.434-1.743a1.33 1.33 0 0 1 1.085.277c.305.25.482.62.481 1.011v9.965A1.304 1.304 0 0 1 20.69 22ZM1.63 20.392h18.738V11.1L11 12.83 1.63 11.1v9.292Z"/><path d="M18.857 11h-1.47V2.262c0-.356-.232-.645-.518-.645H5.131c-.286 0-.518.29-.518.645v8.587h-1.47V2.262C3.143 1.015 4.035 0 5.13 0h11.738c1.096 0 1.988 1.015 1.988 2.262V11Z"/><path d="M7.02 4.714h6.389c.49 0 .734.262.734.786s-.245.786-.734.786h-6.39c-.489 0-.733-.262-.733-.786s.244-.786.734-.786ZM7.02 7.857h6.389c.49 0 .734.262.734.786s-.245.786-.734.786h-6.39c-.489 0-.733-.262-.733-.786s.244-.786.734-.786Z"/></g></svg>