<svg xmlns="http://www.w3.org/2000/svg" viewBox="0 0 16 20"><g fill-rule="nonzero" fill="#606266" data-follow-fill="#606266"><path d="M8 0c.625 0 1.125.5 1.125 1.125v1.25c3.125.5 5.5 3.25 5.5 6.5V14.5c.625 0 1.125.5 1.25 1 0 .625-.5 1.125-1.125 1.125H1.375A1.12 1.12 0 0 1 .25 15.5c0-.625.5-1.125 1.125-1.125v-5.5c0-3.25 2.375-6 5.5-6.5v-1.25C6.875.5 7.375 0 8 0Zm0 4.375c-2.5 0-4.5 2-4.5 4.5V14.5h9V8.875c0-2.5-2-4.5-4.5-4.5Z"/><path opacity=".495" d="M9.125 17.75h-2.25c-.625 0-1.125.5-1.125 1.125S6.25 20 6.875 20h2.25c.625 0 1.125-.5 1.125-1.125s-.5-1.125-1.125-1.125Z"/></g></svg>