<svg width="22" height="22" viewBox="0 0 22 22" fill="none" xmlns="http://www.w3.org/2000/svg">
<path d="M16.775 6C17.41 6 17.949 6.47 17.997 7.092L18 7.182V11.379C18 11.692 17.759 11.949 17.45 11.969C17.3006 11.9768 17.1539 11.9272 17.04 11.8303C16.926 11.7334 16.8534 11.5967 16.837 11.448L16.833 11.378V7.183C16.833 7.193 16.825 7.188 16.803 7.185L16.775 7.183H5.225C5.192 7.183 5.175 7.19 5.17 7.189L5.167 7.183V14.273L5.17 14.268L5.225 14.273H9.266C9.575 14.273 9.83 14.518 9.848 14.83C9.85734 14.9793 9.80952 15.1266 9.71425 15.2419C9.61897 15.3572 9.48338 15.432 9.335 15.451L9.266 15.455H5.225C4.59 15.455 4.051 14.985 4.004 14.363L4 14.272V7.182C4 6.546 4.51 6.047 5.135 6.003L5.225 6H16.775ZM6.333 16.636H9.25C9.572 16.636 9.833 16.901 9.833 17.226C9.833 17.553 9.573 17.818 9.25 17.818H6.333C6.25591 17.8175 6.17969 17.8018 6.10867 17.7718C6.03765 17.7418 5.97323 17.6981 5.9191 17.6432C5.86496 17.5884 5.82216 17.5234 5.79315 17.4519C5.76414 17.3805 5.74947 17.3041 5.75 17.227C5.75 16.901 6.011 16.637 6.333 16.636ZM17.125 13.091H11.875C11.7597 13.0912 11.6457 13.1143 11.5394 13.1589C11.4331 13.2035 11.3368 13.2688 11.256 13.351C11.0918 13.518 10.9999 13.7428 11 13.977V16.927L11.004 17.013C11.048 17.467 11.424 17.813 11.875 17.813H13.778L15.988 18.936L16.05 18.964C16.229 19.03 16.428 19.004 16.584 18.894C16.6615 18.8391 16.7246 18.7664 16.7681 18.682C16.8116 18.5976 16.8342 18.504 16.834 18.409V17.814H17.125C17.2403 17.8138 17.3543 17.7908 17.4606 17.7461C17.5669 17.7015 17.6632 17.6362 17.744 17.554C17.9084 17.3868 18.0004 17.1615 18 16.927V13.977C18.0004 13.7425 17.9084 13.5172 17.744 13.35C17.6632 13.2678 17.5669 13.2025 17.4606 13.1579C17.3543 13.1132 17.2403 13.0902 17.125 13.09V13.091ZM16.833 14.272V16.632H16.25L16.182 16.636C16.0392 16.6539 15.9079 16.7235 15.813 16.8317C15.7181 16.9398 15.6661 17.0791 15.667 17.223V17.451L14.178 16.695L14.116 16.667C14.0519 16.6436 13.9842 16.6318 13.916 16.632H12.166V14.272H16.833Z" fill="black"/>
</svg>
