<svg width="22" height="22" viewBox="0 0 22 22" fill="none" xmlns="http://www.w3.org/2000/svg">
<path d="M15.958 4C16.409 4 16.786 4.342 16.829 4.791L16.833 4.875V10.416C16.8332 10.5648 16.7765 10.708 16.6746 10.8164C16.5726 10.9247 16.4331 10.99 16.2846 10.9988C16.136 11.0076 15.9898 10.9593 15.8757 10.8638C15.7616 10.7683 15.6884 10.6328 15.671 10.485L15.667 10.416V5.166H5.167V15.666H9.837C10.132 15.666 10.381 15.888 10.416 16.181L10.42 16.25C10.42 16.393 10.3674 16.531 10.2722 16.6377C10.1771 16.7445 10.046 16.8126 9.904 16.829L9.836 16.833H4.875C4.65764 16.8328 4.44816 16.7516 4.28733 16.6054C4.12651 16.4592 4.02587 16.2584 4.005 16.042L4 15.958V4.875C4 4.425 4.342 4.047 4.791 4.005L4.875 4H15.958ZM9.833 11H12.75C12.9048 11 13.0532 10.9385 13.1626 10.8291C13.272 10.7197 13.3335 10.5713 13.3335 10.4165C13.3335 10.2617 13.272 10.1133 13.1626 10.0039C13.0532 9.89448 12.9048 9.833 12.75 9.833H9.833C9.67825 9.833 9.52983 9.89448 9.4204 10.0039C9.31098 10.1133 9.2495 10.2617 9.2495 10.4165C9.2495 10.5713 9.31098 10.7197 9.4204 10.8291C9.52983 10.9385 9.67825 11 9.833 11ZM6.917 11H7.5C7.65475 11 7.80317 10.9385 7.9126 10.8291C8.02202 10.7197 8.0835 10.5713 8.0835 10.4165C8.0835 10.2617 8.02202 10.1133 7.9126 10.0039C7.80317 9.89448 7.65475 9.833 7.5 9.833H6.917C6.76225 9.833 6.61383 9.89448 6.5044 10.0039C6.39498 10.1133 6.3335 10.2617 6.3335 10.4165C6.3335 10.5713 6.39498 10.7197 6.5044 10.8291C6.61383 10.9385 6.76225 11 6.917 11ZM6.917 13.333H7.5C7.65475 13.333 7.80317 13.2715 7.9126 13.1621C8.02202 13.0527 8.0835 12.9043 8.0835 12.7495C8.0835 12.5947 8.02202 12.4463 7.9126 12.3369C7.80317 12.2275 7.65475 12.166 7.5 12.166H6.917C6.76225 12.166 6.61383 12.2275 6.5044 12.3369C6.39498 12.4463 6.3335 12.5947 6.3335 12.7495C6.3335 12.9043 6.39498 13.0527 6.5044 13.1621C6.61383 13.2715 6.76225 13.333 6.917 13.333ZM9.25 8.083C9.25 8.405 9.511 8.667 9.833 8.667H12.75C12.9048 8.667 13.0532 8.60552 13.1626 8.4961C13.272 8.38667 13.3335 8.23825 13.3335 8.0835C13.3335 7.92875 13.272 7.78033 13.1626 7.6709C13.0532 7.56148 12.9048 7.5 12.75 7.5H9.833C9.67838 7.5 9.53009 7.56142 9.42076 7.67076C9.31142 7.78009 9.25 7.92838 9.25 8.083ZM6.333 8.083C6.333 8.405 6.595 8.667 6.917 8.667H7.5C7.65475 8.667 7.80317 8.60552 7.9126 8.4961C8.02202 8.38667 8.0835 8.23825 8.0835 8.0835C8.0835 7.92875 8.02202 7.78033 7.9126 7.6709C7.80317 7.56148 7.65475 7.5 7.5 7.5H6.917C6.84036 7.49987 6.76444 7.51485 6.69359 7.54409C6.62274 7.57333 6.55835 7.61625 6.50411 7.6704C6.44987 7.72455 6.40683 7.78887 6.37747 7.85966C6.34811 7.93046 6.333 8.00636 6.333 8.083ZM17.125 12.166H11.875C11.6429 12.166 11.4204 12.2582 11.2563 12.4223C11.0922 12.5864 11 12.8089 11 13.041V15.954L11.004 16.038C11.048 16.487 11.424 16.828 11.875 16.828H13.778L15.988 17.938L16.05 17.965C16.1382 17.9972 16.2329 18.0076 16.326 17.9954C16.4191 17.9832 16.5078 17.9486 16.5847 17.8947C16.6616 17.8408 16.7243 17.7692 16.7675 17.6858C16.8108 17.6025 16.8332 17.5099 16.833 17.416V16.829H17.125C17.3571 16.829 17.5796 16.7368 17.7437 16.5727C17.9078 16.4086 18 16.1861 18 15.954V13.04C18 12.8079 17.9078 12.5854 17.7437 12.4213C17.5796 12.2572 17.3571 12.165 17.125 12.165V12.166ZM16.833 13.333V15.663H16.25L16.182 15.666C16.04 15.6827 15.909 15.751 15.8141 15.8579C15.7191 15.9649 15.6668 16.103 15.667 16.246V16.471L14.178 15.724L14.116 15.697C14.0519 15.6737 13.9842 15.6619 13.916 15.662H12.166V13.333H16.833Z" fill="#303133"/>
</svg>
