<svg width="22" height="22" viewBox="0 0 22 22" fill="none" xmlns="http://www.w3.org/2000/svg">
<path d="M14.95 7.266H6.692C6.369 7.266 6.154 7.053 6.154 6.733C6.154 6.413 6.369 6.2 6.692 6.2H14.95C15.273 6.2 15.489 6.413 15.489 6.733C15.489 7.053 15.274 7.266 14.95 7.266ZM12.424 10.466H6.692C6.369 10.466 6.154 10.253 6.154 9.933C6.154 9.613 6.369 9.4 6.692 9.4H12.424C12.747 9.4 12.963 9.613 12.963 9.933C12.963 10.253 12.747 10.466 12.423 10.466H12.424ZM8.483 13.666H6.693C6.369 13.666 6.153 13.453 6.153 13.133C6.153 12.813 6.369 12.6 6.693 12.6H8.483C8.806 12.6 9.021 12.813 9.021 13.133C9.021 13.453 8.806 13.667 8.483 13.667V13.666ZM17.304 13.712H11.577C11.3936 13.7112 11.2175 13.7832 11.0872 13.9122C10.9568 14.0412 10.8831 14.2166 10.882 14.4V18.31C10.882 18.691 11.193 19 11.577 19H17.304C17.395 19.0004 17.4851 18.9829 17.5693 18.9484C17.6535 18.9139 17.73 18.8632 17.7946 18.7991C17.8591 18.735 17.9104 18.6588 17.9455 18.5749C17.9805 18.491 17.9987 18.401 17.999 18.31V14.4C17.9989 14.3096 17.9809 14.2201 17.9461 14.1367C17.9112 14.0533 17.8602 13.9776 17.796 13.914C17.665 13.7845 17.4882 13.7119 17.304 13.712ZM16.418 14.593L14.448 15.713L12.478 14.593H16.418ZM11.772 18.118V15.14L14.448 16.626L17.11 15.154V18.118H11.772ZM16.385 3H5.615C4.755 3 4 3.747 4 4.6V17.4C4 18.253 4.754 19 5.615 19H8.721C8.86263 19 8.99845 18.9437 9.09859 18.8436C9.19874 18.7435 9.255 18.6076 9.255 18.466C9.255 18.3244 9.19874 18.1885 9.09859 18.0884C8.99845 17.9883 8.86263 17.932 8.721 17.932L8.704 17.933H5.616C5.293 17.933 5.077 17.72 5.077 17.4V4.6C5.077 4.431 5.139 4.293 5.243 4.2C5.34631 4.11055 5.4794 4.06309 5.616 4.067H16.384C16.537 4.067 16.664 4.116 16.757 4.2C16.8116 4.25095 16.8547 4.31301 16.8833 4.38201C16.912 4.45101 16.9255 4.52534 16.923 4.6V11.283C16.923 11.603 17.138 11.817 17.461 11.817C17.785 11.817 18 11.604 18 11.283V4.6C18 3.747 17.246 3 16.385 3Z" fill="black"/>
</svg>
