<svg xmlns="http://www.w3.org/2000/svg" viewBox="0 0 16 16"><g fill-rule="evenodd" fill="none"><path d="M0 0h16v16H0z"/><path fill-rule="nonzero" fill="#D0963E" d="M13 .678C13 .304 12.717 0 12.369 0H3.63C3.283 0 3 .304 3 .678v14.645c0 .374.283.677.631.677h8.737c.349 0 .632-.303.632-.677V.677v.001ZM6.665.657h2.65c.087 0 .159.08.159.174 0 .095-.07.172-.159.174h-2.65c-.088-.002-.158-.08-.158-.174 0-.094.071-.174.159-.174h-.001ZM7.99 15.678c-.522 0-.946-.455-.946-1.016 0-.562.424-1.017.946-1.017.523 0 .947.455.947 1.017 0 .561-.424 1.016-.947 1.016Zm4.019-3.081c0 .375-.278.679-.622.679H4.63c-.344 0-.622-.304-.622-.678V2.359c0-.374.28-.678.622-.678h6.755c.344 0 .623.304.623.678v10.239-.001Z" data-follow-fill="#D0963E"/></g></svg>