<svg width="22" height="22" viewBox="0 0 22 22" fill="none" xmlns="http://www.w3.org/2000/svg">
<path d="M12.669 9.326H7.464C7.32609 9.326 7.19382 9.27122 7.0963 9.1737C6.99879 9.07618 6.944 8.94392 6.944 8.806C6.944 8.66809 6.99879 8.53583 7.0963 8.43831C7.19382 8.34079 7.32609 8.286 7.464 8.286H12.691C12.7601 8.2798 12.8298 8.28807 12.8956 8.31027C12.9614 8.33248 13.0218 8.36814 13.0731 8.41499C13.1243 8.46184 13.1652 8.51885 13.1932 8.58238C13.2212 8.64591 13.2357 8.71458 13.2357 8.784C13.2357 8.85343 13.2212 8.9221 13.1932 8.98563C13.1652 9.04916 13.1243 9.10617 13.0731 9.15302C13.0218 9.19986 12.9614 9.23553 12.8956 9.25773C12.8298 9.27994 12.7601 9.28821 12.691 9.282L12.669 9.326ZM10.633 12.261H7.464C7.39528 12.2663 7.32621 12.2574 7.26111 12.2348C7.19601 12.2121 7.13629 12.1763 7.0857 12.1295C7.03512 12.0827 6.99476 12.0259 6.96715 11.9628C6.93955 11.8996 6.9253 11.8314 6.9253 11.7625C6.9253 11.6936 6.93955 11.6254 6.96715 11.5623C6.99476 11.4991 7.03512 11.4423 7.0857 11.3955C7.13629 11.3487 7.19601 11.3129 7.26111 11.2902C7.32621 11.2676 7.39528 11.2587 7.464 11.264H10.634C10.7027 11.2587 10.7718 11.2676 10.8369 11.2902C10.902 11.3129 10.9617 11.3487 11.0123 11.3955C11.0629 11.4423 11.1032 11.4991 11.1308 11.5623C11.1585 11.6254 11.1727 11.6936 11.1727 11.7625C11.1727 11.8314 11.1585 11.8996 11.1308 11.9628C11.1032 12.0259 11.0629 12.0827 11.0123 12.1295C10.9617 12.1763 10.902 12.2121 10.8369 12.2348C10.7718 12.2574 10.7027 12.2663 10.634 12.261H10.633ZM10.995 18.502H5.968C5.4476 18.5015 4.94854 18.2951 4.57981 17.9278C4.21109 17.5606 4.00264 17.0624 4 16.542V6.96C4.00264 6.43961 4.21109 5.9414 4.57981 5.57417C4.94854 5.20694 5.4476 5.00053 5.968 5H15.298C15.8194 4.99894 16.32 5.20465 16.6901 5.57205C17.0601 5.93945 17.2694 6.43857 17.272 6.96V11.13H15.994V6.96C15.9963 6.86755 15.98 6.77558 15.946 6.68956C15.912 6.60354 15.8611 6.52523 15.7963 6.45927C15.7314 6.39332 15.654 6.34108 15.5686 6.30564C15.4832 6.27021 15.3915 6.25231 15.299 6.253H5.969C5.8769 6.25284 5.7857 6.27114 5.7008 6.30683C5.61589 6.34251 5.539 6.39486 5.47468 6.46077C5.41035 6.52668 5.35989 6.60482 5.32628 6.69057C5.29267 6.77632 5.27659 6.86794 5.279 6.96V16.56C5.279 16.94 5.588 17.25 5.969 17.25H10.995V18.502Z" fill="black"/>
<path d="M14.615 11.3622L14.621 11.3632L17.605 12.2192C17.6309 12.2268 17.656 12.2368 17.68 12.2492L17.604 12.2192C17.6573 12.2343 17.707 12.2597 17.7504 12.294C17.7938 12.3283 17.8301 12.3709 17.857 12.4192L17.858 12.4212L17.89 12.4952C18.1038 13.1627 18.2127 13.8593 18.213 14.5602C18.213 16.4932 17.036 18.2162 14.737 19.7222C14.6681 19.7674 14.5875 19.7915 14.505 19.7915C14.4226 19.7915 14.3419 19.7674 14.273 19.7222C11.973 18.2162 10.796 16.4922 10.796 14.5602C10.796 13.8462 10.907 13.1472 11.119 12.4952L11.149 12.4242L11.152 12.4192L11.119 12.4952C11.1407 12.4288 11.1784 12.3688 11.2288 12.3204C11.2792 12.2721 11.3408 12.237 11.408 12.2182L14.388 11.3632C14.4622 11.3422 14.5407 11.3418 14.615 11.3622ZM14.505 12.2112L11.861 12.9682L11.839 13.0442C11.709 13.5292 11.642 14.0402 11.642 14.5602C11.642 16.1042 12.576 17.5322 14.492 18.8502L14.505 18.8582L14.517 18.8502C16.414 17.5452 17.347 16.1342 17.367 14.6082V14.5602C17.3668 14.0224 17.2934 13.4872 17.149 12.9692L14.505 12.2112ZM16.095 14.0692C16.1733 14.1478 16.2176 14.2539 16.2183 14.3649C16.2191 14.4758 16.1762 14.5826 16.099 14.6622L16.094 14.6672L14.481 16.2772C14.4315 16.3266 14.3705 16.363 14.3035 16.3831C14.2365 16.4031 14.1655 16.4063 14.097 16.3922C14.0085 16.3798 13.9264 16.3391 13.863 16.2762L13.858 16.2712L12.948 15.3462C12.872 15.2663 12.8302 15.1599 12.8315 15.0497C12.8328 14.9395 12.8771 14.8341 12.9549 14.756C13.0327 14.6779 13.1379 14.6333 13.2482 14.6317C13.3584 14.63 13.4649 14.6715 13.545 14.7472L13.55 14.7522L14.174 15.3862L15.497 14.0682C15.5763 13.9889 15.6839 13.9444 15.796 13.9444C15.9082 13.9444 16.0157 13.9889 16.095 14.0682V14.0692Z" fill="black"/>
</svg>
