<svg xmlns="http://www.w3.org/2000/svg" viewBox="0 0 22 22"><g fill="#303133" fill-rule="evenodd" data-follow-fill="#303133"><path stroke="#303133" d="m15 5.5.5 3.359-4.252 2.424L6.5 8.86V6l8.5-.5Z" fill="none" data-follow-stroke="#303133"/><path stroke="#303133" d="M16.774 8.184a.498.498 0 0 1 .381-.03L17.5 16a.498.498 0 0 1-.5.5H5a.498.498 0 0 1-.5-.5V8.63a.498.498 0 0 1 .404-.491l5.417 2.632a1.5 1.5 0 0 0 1.358 0Z" fill="none" data-follow-stroke="#303133"/><path fill-rule="nonzero" d="M9.032 14.029c-.073 0-.131.059-.131.132v.924c0 .073.058.132.13.132h3.954c.072 0 .13-.059.13-.132v-.924a.131.131 0 0 0-.13-.132H9.032Z"/></g></svg>