<svg xmlns="http://www.w3.org/2000/svg" viewBox="0 0 22 22"><path fill="#303133" d="M4.475 18a.469.469 0 0 1-.337-.14.478.478 0 0 1-.138-.34V5.374c0-.268.209-.48.475-.48H6.09c.266 0 .476.211.476.48 0 .268-.21.48-.476.48H4.951V17.04h12.1V5.854h-1.045a.469.469 0 0 1-.337-.14.478.478 0 0 1-.138-.34c0-.268.209-.48.475-.48h1.52c.265 0 .474.211.474.48V17.52c0 .268-.209.48-.474.48H4.476Zm3.57-14c.28 0 .507.229.507.51v2.044c0 .282-.227.511-.506.511a.508.508 0 0 1-.506-.51V4.51A.51.51 0 0 1 8.046 4Zm2.024 0c.28 0 .507.229.507.51v2.044c0 .282-.227.511-.506.511a.508.508 0 0 1-.506-.51V4.51c0-.281.226-.51.505-.51Zm2.024 0c.279 0 .505.229.505.51v2.044c0 .282-.226.511-.506.511a.508.508 0 0 1-.506-.51V4.51c0-.281.227-.51.507-.51Zm2.023 0c.28 0 .506.229.506.51v2.044c0 .282-.227.511-.506.511a.508.508 0 0 1-.506-.51V4.51c0-.281.227-.51.506-.51ZM6.213 7.576h9.738c.244 0 .442.2.442.447a.445.445 0 0 1-.442.447H6.213a.445.445 0 0 1-.442-.447c0-.247.198-.447.442-.447Zm-.265 6.942a.515.515 0 0 1-.043-.738l3.023-3.486a.523.523 0 0 1 .35-.176.537.537 0 0 1 .372.125l2.806 2.502 2.785-3.22a.513.513 0 0 1 .727-.018.526.526 0 0 1 .025.735l-3.125 3.583a.514.514 0 0 1-.722.03l-2.785-2.49-2.682 3.09a.51.51 0 0 1-.732.062Z" fill-rule="nonzero" data-follow-fill="#303133"/></svg>