<svg xmlns="http://www.w3.org/2000/svg" viewBox="0 0 22 22"><path d="M4.941 13.783h-.936V5.02h9.528v.806c0 .326.274.592.61.592.336 0 .61-.266.61-.592V4.592a.601.601 0 0 0-.61-.592H3.609A.601.601 0 0 0 3 4.592v9.783c0 .326.273.591.61.591H4.94c.336 0 .61-.265.61-.591a.6.6 0 0 0-.61-.592Zm6.724 3.201H7.021l.002-8.925h9.594v2.8c0 .327.262.573.598.573.336 0 .495-.246.495-.572V7.625a.601.601 0 0 0-.61-.591H6.568a.601.601 0 0 0-.609.591v9.783c0 .327.273.592.61.592h5.097c.336 0 .588-.155.588-.481 0-.326-.252-.535-.588-.535Zm3.362-6.957a.601.601 0 0 0-.61-.592H9.272a.601.601 0 0 0-.61.592c0 .326.274.591.61.591h5.149a.599.599 0 0 0 .607-.591Zm-2.974 2.435a.601.601 0 0 0-.609-.592H9.271a.601.601 0 0 0-.61.592c0 .326.274.591.61.591h2.173c.336 0 .61-.265.61-.591Zm-2.782 1.844a.601.601 0 0 0-.61.591c0 .326.274.592.61.592h1.034c.336 0 .61-.266.61-.592a.601.601 0 0 0-.61-.591H9.271Zm9.552-1.663a.621.621 0 0 0-.862 0l-3.117 3.025-1.607-1.56a.621.621 0 0 0-.861 0 .578.578 0 0 0 0 .836l2.038 1.98a.619.619 0 0 0 .86 0l3.547-3.443a.582.582 0 0 0 .002-.838Z" fill-rule="nonzero" fill="#000" data-follow-fill="#000"/></svg>