<svg xmlns="http://www.w3.org/2000/svg" viewBox="0 0 22 22"><g fill-rule="evenodd" fill="none"><path d="M0 0h22v22H0z"/><g fill-rule="nonzero"><path fill="#303133" d="M9.84 21.623H1.523v-1.278h7.884c.094.436.243.871.431 1.278Z" data-follow-fill="#303133"/><path stroke-width="1.556" stroke="#303133" d="M9.457 19.054 1 19.068l.038-2.162c0-.551.282-.856.808-.856h2.857c1.32-.595 1.973-2.293 1.448-3.788a3.056 3.056 0 0 0-.615-1.045 6.181 6.181 0 0 1-.769-1.001c-.013-.03-.038-.058-.051-.087-.743-.958-1.14-2.192-1.14-3.469.192-3.352 2.767-5.877 5.74-5.645 2.678.217 4.805 2.627 4.984 5.645 0 .958-.243 1.901-.68 2.729a6.09 6.09 0 0 1-.512.783l-.205.334" data-follow-stroke="#303133"/><path fill="#303133" d="M14.367 16.445c0 1.132.884 2.049 1.976 2.049 1.091 0 1.976-.917 1.976-2.049 0-1.131-.885-2.048-1.976-2.048-1.092 0-1.976.917-1.976 2.048Zm1.976-.683c.364 0 .659.306.659.683a.671.671 0 0 1-.66.683.671.671 0 0 1-.658-.683c0-.377.295-.683.659-.683Z" data-follow-fill="#303133"/><path fill="#303133" d="m20.67 13.481-3.998-2.41a.639.639 0 0 0-.659 0l-3.998 2.41a.688.688 0 0 0-.33.595v4.814c0 .245.125.472.33.594l3.998 2.425a.639.639 0 0 0 .66 0l3.998-2.404A.688.688 0 0 0 21 18.91v-4.842a.688.688 0 0 0-.33-.588Zm-.987 5.013-3.34 2.008-3.34-2.008v-4.03l3.34-2.007 3.34 2.008v4.029Z" data-follow-fill="#303133"/></g></g></svg>