<svg xmlns="http://www.w3.org/2000/svg" viewBox="0 0 22 22"><g fill-rule="evenodd" fill="none"><path d="M0 0h22v22H0z"/><g fill-rule="nonzero" fill="#303133" data-follow-fill="#303133"><path d="M6.024 7.861v4.222c0 .317.2.528.502.528.3 0 .502-.211.502-.528V7.861c0-.317-.201-.528-.502-.528s-.502.211-.502.528ZM4.016 8.917v3.166c0 .317.2.528.502.528.301 0 .502-.211.502-.528V8.917c0-.317-.201-.528-.502-.528s-.502.211-.502.528Zm4.016-2.111v5.277c0 .317.2.528.502.528.3 0 .502-.211.502-.528V6.806c0-.317-.201-.528-.502-.528-.302 0-.502.21-.502.528Zm3.413 7.288H2.6c-.602 0-1.004-.422-1.004-1.055v-9.34c0-.633.402-1.055 1.004-1.055h14.785c.602 0 1.004.422 1.004 1.056v1.628c.702.105 1.089.422 1.691.739V2.056c0-.634-.401-1.056-1.004-1.056H1.004C.402 1 0 1.422 0 2.056v12.666c0 .634.402 1.056 1.004 1.056H12.65c-.602-.634-1.004-.945-1.205-1.684Zm4.618 3.795H4.016c-.603 0-1.004.422-1.004 1.055 0 .634.401 1.056 1.004 1.056h12.047c.603 0 1.004-.422 1.004-1.056 0-.633-.401-1.055-1.004-1.055Z"/><path d="M20.875 11.133c.61 0 1.125.53 1.125 1.154v2.355c0 .625-.516 1.154-1.125 1.154h-7.128c-.61 0-1.126-.529-1.126-1.154v-2.355c0-.625.516-1.154 1.126-1.154h7.128Zm-.282 1.442h-6.565v1.779h6.565v-1.779Z"/><path d="M20.406 12.575h-6.19l1.313-3.845c.14-.384.469-.625.844-.625h1.782c.375 0 .75.24.844.625l1.407 3.845Zm-4.174-1.442h2.204l-.563-1.586h-1.125l-.516 1.586Z"/><path d="M18.06 9.5h-1.5c-1.031 0-1.829-.866-1.829-1.875 0-1.01.845-1.875 1.83-1.875h1.5c1.032 0 1.829.865 1.829 1.875 0 1.009-.797 1.874-1.83 1.874Zm-1.5-2.308a.426.426 0 0 0-.422.433c0 .24.188.432.422.432h1.5a.426.426 0 0 0 .423-.432.426.426 0 0 0-.422-.433h-1.5Z"/></g></g></svg>