<svg xmlns="http://www.w3.org/2000/svg" viewBox="0 0 22 22"><g fill-rule="evenodd" fill="none"><path d="M0 0h22v22H0z"/><path fill-rule="nonzero" fill="#D0963E" d="M16.09 5c.383 0 .637.267.637.667v8.666H4.637c-.382 0-.637-.266-.637-.666v-8c0-.4.255-.667.636-.667ZM8.137 9c-.19 0-.318.133-.318.333V12c0 .2.127.333.318.333s.319-.133.319-.333V9.333c0-.2-.128-.333-.319-.333Zm-1.272.667c-.191 0-.319.133-.319.333v2c0 .2.128.333.319.333.19 0 .318-.133.318-.333v-2c0-.2-.127-.333-.318-.333Zm2.545-1.334c-.19 0-.318.134-.318.334V12c0 .2.127.333.318.333s.318-.133.318-.333V8.667c0-.2-.127-.334-.318-.334Zm4.773 7.334H6.545c-.381 0-.636.266-.636.666s.255.667.636.667h7.637c.382 0 .636-.267.636-.667s-.254-.666-.636-.666Z"/><path fill-rule="nonzero" fill="#DFC297" d="M15.448 8c.654 0 1.16.546 1.16 1.184 0 .384-.184.734-.472.953L16.6 11.4h.631c.387 0 .714.334.714.729v1.487a.731.731 0 0 1-.714.729h-4.518a.731.731 0 0 1-.713-.729V12.13c0-.395.327-.729.713-.729h.609l.444-1.297a1.198 1.198 0 0 1-.428-.92c0-.637.535-1.183 1.159-1.183h.951Z"/></g></svg>