<svg width="22" height="22" viewBox="0 0 22 22" fill="none" xmlns="http://www.w3.org/2000/svg">
<path d="M11.01 16.003H7.088C7.07465 16.0031 7.06141 16.0006 7.04904 15.9956C7.03667 15.9906 7.02542 15.9832 7.01593 15.9738C7.00645 15.9644 6.99892 15.9532 6.99378 15.9409C6.98864 15.9286 6.986 15.9153 6.986 15.902V10.393C6.986 10.337 7.031 10.291 7.088 10.291H11.91L12.203 9.998L13.013 9.188H15.905C15.961 9.188 16.007 9.234 16.007 9.29V11.198C16.007 11.3306 16.0597 11.4578 16.1534 11.5516C16.2472 11.6453 16.3744 11.698 16.507 11.698C16.6396 11.698 16.7668 11.6453 16.8606 11.5516C16.9543 11.4578 17.007 11.3306 17.007 11.198V9.29C17.007 8.68 16.513 8.189 15.905 8.189H13.004V4.999C13.0037 4.73396 12.8983 4.47986 12.7108 4.29254C12.5232 4.10522 12.269 4 12.004 4H5C4.73478 4 4.48043 4.10536 4.29289 4.29289C4.10536 4.48043 4 4.73478 4 5V14.002C4 14.2672 4.10536 14.5216 4.29289 14.7091C4.48043 14.8966 4.73478 15.002 5 15.002H5.984V15.9C5.984 16.51 6.478 17.002 7.086 17.002H11.008C11.1366 16.9965 11.2582 16.9416 11.3473 16.8487C11.4365 16.7559 11.4864 16.6322 11.4867 16.5035C11.4869 16.3747 11.4375 16.2508 11.3487 16.1576C11.2599 16.0644 11.1386 16.009 11.01 16.003ZM5.477 14.003C5.41449 14.0031 5.35257 13.9909 5.29477 13.9671C5.23697 13.9433 5.18442 13.9084 5.14012 13.8643C5.09583 13.8202 5.06066 13.7678 5.03662 13.7101C5.01257 13.6524 5.00013 13.5905 5 13.528V5.478C5 5.211 5.214 5 5.477 5H11.527C11.791 5 12.003 5.214 12.003 5.476V8.782L11.496 9.29H7.088C6.478 9.29 5.986 9.784 5.986 10.391V14.002H5.476V14.004L5.477 14.003Z" fill="black"/>
<path d="M6.50195 7.50098H10.503C10.6356 7.50098 10.7627 7.4483 10.8565 7.35453C10.9503 7.26076 11.003 7.13358 11.003 7.00098C11.003 6.86837 10.9503 6.74119 10.8565 6.64742C10.7627 6.55366 10.6356 6.50098 10.503 6.50098H6.50195C6.36934 6.50098 6.24217 6.55366 6.1484 6.64742C6.05463 6.74119 6.00195 6.86837 6.00195 7.00098C6.00195 7.13358 6.05463 7.26076 6.1484 7.35453C6.24217 7.4483 6.36934 7.50098 6.50195 7.50098ZM17.854 17.145L16.451 15.742C16.4358 15.7267 16.4194 15.7127 16.402 15.7C16.7396 15.1829 16.8743 14.5593 16.7799 13.9489C16.6856 13.3386 16.3689 12.7847 15.8908 12.3938C15.4128 12.0028 14.8071 11.8024 14.1902 11.831C13.5733 11.8597 12.9887 12.1154 12.549 12.549C12.11 12.9874 11.8496 13.5733 11.8184 14.1929C11.7872 14.8125 11.9875 15.4216 12.3802 15.9019C12.773 16.3822 13.3302 16.6993 13.9437 16.7917C14.5572 16.8841 15.1831 16.7452 15.7 16.402C15.713 16.4191 15.7274 16.4351 15.743 16.45L17.146 17.853C17.1921 17.8997 17.2471 17.9368 17.3077 17.9622C17.3682 17.9875 17.4333 18.0005 17.499 18.0005C17.5646 18.0005 17.6297 17.9875 17.6903 17.9622C17.7509 17.9368 17.8058 17.8997 17.852 17.853C17.8986 17.8067 17.9357 17.7516 17.9611 17.6909C17.9865 17.6302 17.9997 17.5652 17.9998 17.4994C18 17.4336 17.9872 17.3685 17.9622 17.3076C17.9372 17.2468 17.9004 17.1916 17.854 17.145ZM14.318 15.815C14.1209 15.8157 13.9257 15.7774 13.7436 15.7022C13.5615 15.6271 13.3961 15.5165 13.257 15.377C13.1172 15.2379 13.0064 15.0726 12.9308 14.8905C12.8553 14.7084 12.8166 14.5131 12.817 14.316C12.817 13.916 12.974 13.538 13.257 13.256C13.3959 13.1163 13.5611 13.0056 13.743 12.9301C13.9249 12.8545 14.12 12.8158 14.317 12.816C14.6129 12.8175 14.9018 12.9063 15.1475 13.0713C15.3931 13.2363 15.5846 13.4701 15.6979 13.7435C15.8112 14.0169 15.8413 14.3176 15.7844 14.608C15.7275 14.8984 15.5861 15.1656 15.378 15.376C15.2389 15.5155 15.0737 15.6262 14.8918 15.7017C14.7099 15.7772 14.5149 15.816 14.318 15.816V15.815Z" fill="black"/>
</svg>
