<svg xmlns="http://www.w3.org/2000/svg" viewBox="0 0 22 22"><path d="M10.455 11.517a.538.538 0 0 0-.54-.536h-2.16c-.297 0-.539.24-.539.536 0 .296.242.536.54.536h2.159c.298 0 .54-.24.54-.536ZM16.92 4H5.08A1.079 1.079 0 0 0 4 5.072v12.856c.002.591.484 1.07 1.08 1.072h11.84A1.079 1.079 0 0 0 18 17.928V5.072A1.079 1.079 0 0 0 16.92 4Zm0 13.927-.001.001H5.082l-.002-.001V5.074l.002-.002h11.836l.002.002v12.853ZM7.745 7.758h6.464c.298 0 .54-.24.54-.536a.538.538 0 0 0-.54-.535H7.745c-.299 0-.54.24-.54.535 0 .296.241.536.54.536Zm0 2.141h6.464c.298 0 .54-.24.54-.536a.538.538 0 0 0-.54-.536H7.745c-.299 0-.54.24-.54.536 0 .296.241.536.54.536Zm7.458 2.053-3.482 3.464-1.391-1.377a.543.543 0 0 0-.764 0 .533.533 0 0 0 .001.758l1.774 1.757a.543.543 0 0 0 .795-.036.541.541 0 0 0 .033-.03l3.798-3.78a.533.533 0 0 0-.01-.747.543.543 0 0 0-.754-.009Z" fill-rule="nonzero" fill="#000" data-follow-fill="#000"/></svg>