<svg xmlns="http://www.w3.org/2000/svg" viewBox="0 0 22 22"><g fill-rule="nonzero" fill="none"><path fill="#D0963E" d="M16.454 3C17.287 3 18 3.771 18 4.686v12.628c-.03.915-.713 1.686-1.575 1.686H5.545C4.714 19 4 18.229 4 17.314V4.686C4 3.77 4.684 3 5.546 3h10.908ZM10.57 16.054H7.715a.462.462 0 0 0-.445.455c0 .243.208.455.445.455h2.854a.443.443 0 0 0 .446-.455.462.462 0 0 0-.446-.455Zm2.883-2.49H7.715a.462.462 0 0 0-.445.456c0 .242.208.455.445.455h5.708a.468.468 0 0 0 .475-.455.462.462 0 0 0-.446-.456Z"/><path fill="#DFC297" d="M11.46 5.307c.655 0 1.16.547 1.16 1.184 0 .384-.183.735-.472.953l.465 1.263h.631c.387 0 .714.334.714.729v1.487a.731.731 0 0 1-.714.729H8.726a.731.731 0 0 1-.713-.729V9.436c0-.395.327-.729.713-.729h.609l.444-1.297a1.198 1.198 0 0 1-.429-.919c0-.637.535-1.184 1.16-1.184h.95Z"/></g></svg>