<svg width="16" height="16" viewBox="0 0 16 16" fill="none" xmlns="http://www.w3.org/2000/svg">
<path fill-rule="evenodd" clip-rule="evenodd" d="M8.00001 14C4.6862 14 2 11.3138 2 8.00001C2 4.6862 4.6862 2 8.00001 2C11.3138 2 14 4.6862 14 8.00001C14 11.3138 11.3138 14 8.00001 14ZM8.00002 12.8C10.651 12.8 12.8 10.651 12.8 8.00002C12.8 5.34905 10.651 3.20001 8.00002 3.20001C5.34905 3.20001 3.20001 5.34905 3.20001 8.00002C3.20001 10.651 5.34905 12.8 8.00002 12.8ZM11 8.00002H8.60001V5.00001H7.40001V9.20002H11V8.00002Z" fill="#3E78D0"/>
</svg>
