<svg xmlns="http://www.w3.org/2000/svg" viewBox="0 0 22 22"><g fill="#333" fill-rule="nonzero" data-follow-fill="#333"><path d="M14.807 14.93H5.839a.724.724 0 0 1-.701-.712c0-.38.327-.711.7-.711h9.016c.373 0 .7.332.7.711 0 .38-.327.712-.747.712Zm-4.484 3.89H5.839a.724.724 0 0 1-.701-.712c0-.38.327-.712.7-.712h4.485c.373 0 .7.332.7.712 0 .38-.28.711-.7.711ZM14.04 7.823c.52 0 .96.474.96 1.033v2.11c0 .56-.44 1.034-.96 1.034H7.96c-.52 0-.96-.474-.96-1.033v-2.11c0-.56.44-1.034.96-1.034h6.08Zm-.24 1.292H8.2v1.593h5.6V9.115Z"/><path d="M13.64 9.115H8.36L9.48 5.67c.12-.345.4-.56.72-.56h1.52c.32 0 .64.215.72.56l1.2 3.445Zm-3.56-1.292h1.88l-.48-1.421h-.96l-.44 1.421Z"/><path d="M11.64 6.359h-1.28c-.88 0-1.56-.775-1.56-1.68C8.8 3.775 9.52 3 10.36 3h1.28c.88 0 1.56.775 1.56 1.68 0 .904-.68 1.679-1.56 1.679Zm-1.28-2.067c-.2 0-.36.172-.36.387 0 .216.16.388.36.388h1.28c.2 0 .36-.172.36-.388 0-.215-.16-.387-.36-.387h-1.28Z"/><path d="M19.524 22H2.43C1.12 22 0 20.94 0 19.682V2.318C0 1.06 1.074 0 2.429 0H19.57C20.88 0 22 1.06 22 2.318v17.364C21.953 20.94 20.879 22 19.524 22ZM2.9 1.516c-.55 0-1.01.504-1.01 1.125v16.677c0 .621.46 1.126 1.01 1.126h16.244c.55 0 1.01-.505 1.01-1.126V2.64c0-.62-.46-1.125-1.01-1.125H2.9Z"/></g></svg>