<svg xmlns="http://www.w3.org/2000/svg" viewBox="0 0 22 22"><path d="M1.571 18.692V3.308c0-.425.352-.77.786-.77H14.93c.434 0 .785.345.785.77v3.077h1.572V2.538c0-.85-.704-1.538-1.572-1.538H1.571C.704 1 0 1.689 0 2.538v16.923C0 20.311.704 21 1.571 21H11v-1.539H2.357a.778.778 0 0 1-.786-.769Zm11.816-7.308c-.202 1.961 1.142 3.755 3.113 4.154v1.616h-2.357a.778.778 0 0 0-.786.769c0 .425.352.77.786.77h6.286a.778.778 0 0 0 .785-.77.778.778 0 0 0-.785-.77H18.07v-1.615c1.978-.393 3.33-2.19 3.127-4.155-.203-1.966-1.894-3.462-3.912-3.46-2.014.006-3.697 1.5-3.899 3.461Zm6.256.385c0 1.275-1.055 2.308-2.357 2.308-1.302 0-2.357-1.033-2.357-2.308 0-1.274 1.055-2.307 2.357-2.307 1.302 0 2.357 1.033 2.357 2.307Zm-15.714 0a.778.778 0 0 0-.786.77c0 .424.352.769.786.769H7.07a.778.778 0 0 0 .786-.77.778.778 0 0 0-.786-.769H3.93Zm5.5-2.307a.778.778 0 0 0-.786-.77H3.929a.778.778 0 0 0-.786.77c0 .424.352.769.786.769h4.714a.778.778 0 0 0 .786-.77Zm11.785 10h-7.857a.778.778 0 0 0-.786.769c0 .424.352.769.786.769h7.857a.778.778 0 0 0 .786-.77.778.778 0 0 0-.786-.769ZM11.786 5.614H3.929a.778.778 0 0 0-.786.77c0 .424.352.769.786.769h7.857a.778.778 0 0 0 .785-.77.778.778 0 0 0-.785-.769Z" fill-rule="nonzero" fill="#303133" data-follow-fill="#303133"/></svg>