<svg width="16" height="16" viewBox="0 0 16 16" fill="none" xmlns="http://www.w3.org/2000/svg">
<path d="M11.2727 5.14286H14V6.19048H11.2727V5.14286ZM10.1818 7.76191H14V8.80952H10.1818V7.76191ZM11.8182 10.381H14V11.4286H11.8182V10.381ZM2 13C2 11.8886 2.45974 10.8228 3.27808 10.0369C4.09642 9.25102 5.20633 8.80952 6.36364 8.80952C7.52095 8.80952 8.63085 9.25102 9.44919 10.0369C10.2675 10.8228 10.7273 11.8886 10.7273 13H9.63636C9.63636 12.1665 9.29156 11.3671 8.6778 10.7777C8.06405 10.1883 7.23162 9.85714 6.36364 9.85714C5.49566 9.85714 4.66322 10.1883 4.04947 10.7777C3.43571 11.3671 3.09091 12.1665 3.09091 13H2ZM6.36364 8.28571C4.55545 8.28571 3.09091 6.87929 3.09091 5.14286C3.09091 3.40643 4.55545 2 6.36364 2C8.17182 2 9.63636 3.40643 9.63636 5.14286C9.63636 6.87929 8.17182 8.28571 6.36364 8.28571ZM6.36364 7.2381C7.56909 7.2381 8.54545 6.30048 8.54545 5.14286C8.54545 3.98524 7.56909 3.04762 6.36364 3.04762C5.15818 3.04762 4.18182 3.98524 4.18182 5.14286C4.18182 6.30048 5.15818 7.2381 6.36364 7.2381Z" fill="#3E78D0"/>
</svg>
