<svg xmlns="http://www.w3.org/2000/svg" viewBox="0 0 22 22"><g fill="#333" fill-rule="nonzero" data-follow-fill="#333"><path d="M13.423 14.475H7.715a.462.462 0 0 1-.445-.455c0-.243.208-.456.445-.456h5.737c.238 0 .446.213.446.456a.468.468 0 0 1-.475.455Zm-2.854 2.49H7.715a.462.462 0 0 1-.445-.456c0-.243.208-.455.445-.455h2.854c.238 0 .446.212.446.455a.443.443 0 0 1-.446.455ZM13.244 8.707c.387 0 .714.334.714.729v1.487a.731.731 0 0 1-.714.729H8.726a.731.731 0 0 1-.713-.729V9.436c0-.395.327-.729.713-.729h4.518Zm-.178.91H8.904v1.124h4.162V9.618Z"/><path d="M12.947 9.618H9.023l.833-2.429a.572.572 0 0 1 .535-.394h1.13c.237 0 .475.151.534.394l.892 2.429Zm-2.646-.91H11.7l-.357-1.003h-.714l-.327 1.002Z"/><path d="M11.46 7.675h-.95c-.654 0-1.16-.546-1.16-1.184 0-.637.535-1.184 1.16-1.184h.95c.655 0 1.16.547 1.16 1.184 0 .638-.505 1.184-1.16 1.184Zm-.95-1.457a.27.27 0 0 0-.268.273.27.27 0 0 0 .268.273h.95a.27.27 0 0 0 .268-.273.27.27 0 0 0-.267-.273h-.951Z"/><path d="M16.425 19H5.545C4.714 19 4 18.229 4 17.314V4.686C4 3.77 4.684 3 5.546 3h10.908C17.287 3 18 3.771 18 4.686v12.628c-.03.915-.713 1.686-1.575 1.686ZM5.845 4.102c-.35 0-.642.367-.642.82v12.127c0 .452.292.82.642.82h10.337c.35 0 .643-.368.643-.82V4.921c0-.452-.292-.819-.643-.819H5.845Z"/></g></svg>