<svg xmlns="http://www.w3.org/2000/svg" viewBox="0 0 22 22"><path d="M7.818 10.333V13c0 .2.127.333.318.333s.319-.133.319-.333v-2.667c0-.2-.128-.333-.319-.333-.19 0-.318.133-.318.333ZM6.545 11v2c0 .2.128.333.319.333.19 0 .318-.133.318-.333v-2c0-.2-.127-.333-.318-.333s-.319.133-.319.333Zm2.546-1.333V13c0 .2.127.333.318.333s.318-.133.318-.333V9.667c0-.2-.127-.334-.318-.334-.19 0-.318.134-.318.334Zm2.164 4.603H5.647c-.381 0-.636-.267-.636-.667V7.705c0-.4.255-.667.636-.667h9.372c.382 0 .636.267.636.667v1.028c.446.067.69.267 1.072.467V6.667c0-.4-.254-.667-.636-.667H4.636C4.255 6 4 6.267 4 6.667v8c0 .4.255.666.636.666h7.382c-.382-.4-.636-.596-.763-1.063Zm3.563-4.937c-1.782 0-3.182 1.467-3.182 3.334 0 1.866 1.4 3.333 3.182 3.333S18 14.533 18 12.667c0-1.867-1.4-3.334-3.182-3.334Zm1.91 2L16.09 14h-.636l-1.464-1.2-.446 1.2v.667h-.636V14l.636-2h.637l1.4 1.133.509-1.8v-.666h.636v.666Zm-2.546 5.334H6.545c-.381 0-.636.266-.636.666s.255.667.636.667h7.637c.382 0 .636-.267.636-.667s-.254-.666-.636-.666Z" fill-rule="nonzero" fill="#000" data-follow-fill="#000"/></svg>