<svg xmlns="http://www.w3.org/2000/svg" viewBox="0 0 22 22"><g fill-rule="nonzero" fill="none"><path fill="#D0963E" d="M16.09 6c.383 0 .637.267.637.667v2.52a3.717 3.717 0 0 0-1.909-.52c-2.138 0-3.818 1.76-3.818 4 0 1.033.357 1.964.952 2.667H4.636c-.381 0-.636-.267-.636-.667v-8c0-.4.255-.667.636-.667Zm-7.954 4c-.19 0-.318.133-.318.333V13c0 .2.127.333.318.333s.319-.133.319-.333v-2.667c0-.2-.128-.333-.319-.333Zm-1.272.667c-.191 0-.319.133-.319.333v2c0 .2.128.333.319.333.19 0 .318-.133.318-.333v-2c0-.2-.127-.333-.318-.333Zm2.545-1.334c-.19 0-.318.134-.318.334V13c0 .2.127.333.318.333s.318-.133.318-.333V9.667c0-.2-.127-.334-.318-.334Zm4.773 7.334H6.545c-.381 0-.636.266-.636.666s.255.667.636.667h7.637c.382 0 .636-.267.636-.667s-.254-.666-.636-.666Z"/><path fill="#DFC297" d="M14.818 9.333C16.6 9.333 18 10.8 18 12.667 18 14.533 16.6 16 14.818 16s-3.182-1.467-3.182-3.333c0-1.867 1.4-3.334 3.182-3.334Zm1.91 1.334h-.637v.666l-.51 1.8-1.4-1.133h-.636l-.636 2v.667h.636V14l.446-1.2 1.464 1.2h.636l.636-2.667v-.666Z"/></g></svg>