<svg xmlns="http://www.w3.org/2000/svg" viewBox="0 0 22 22"><path d="M6 8.861v4.222c0 .317.2.528.5.528s.5-.211.5-.528V8.861c0-.317-.2-.528-.5-.528s-.5.211-.5.528ZM4 9.917v3.166c0 .317.2.528.5.528s.5-.211.5-.528V9.917c0-.317-.2-.528-.5-.528S4 9.6 4 9.917Zm4-2.111v5.277c0 .317.2.528.5.528s.5-.211.5-.528V7.806c0-.317-.2-.528-.5-.528s-.5.21-.5.528Zm3.4 7.288H2.589c-.6 0-1-.422-1-1.055v-9.34c0-.633.4-1.055 1-1.055h14.726c.6 0 1 .422 1 1.056v1.628c.7.105 1.085.422 1.685.739V3.056C20 2.422 19.6 2 19 2H1c-.6 0-1 .422-1 1.056v12.666c0 .634.4 1.056 1 1.056h11.6c-.6-.634-1-.945-1.2-1.684ZM17 7.278c-2.8 0-5 2.322-5 5.278 0 2.955 2.2 5.277 5 5.277s5-2.322 5-5.277c0-2.956-2.2-5.278-5-5.278Zm3 3.166-1 4.223h-1l-2.3-1.9-.7 1.9v1.055h-1v-1.055l1-3.167h1l2.2 1.794.8-2.85V9.39h1v1.055Zm-4 8.445H4c-.6 0-1 .422-1 1.055C3 20.578 3.4 21 4 21h12c.6 0 1-.422 1-1.056 0-.633-.4-1.055-1-1.055Z" fill-rule="nonzero" fill="#000" data-follow-fill="#000"/></svg>