<svg xmlns="http://www.w3.org/2000/svg" viewBox="0 0 22 22"><path d="M4 4.539V17.46a.54.54 0 0 0 .54.539h12.92a.54.54 0 0 0 .54-.539V4.54A.54.54 0 0 0 17.46 4H4.54c-.3 0-.54.24-.54.539Zm.924 12V5.461a.54.54 0 0 1 .54-.54h11.073a.54.54 0 0 1 .54.54v11.076a.54.54 0 0 1-.54.54H5.463a.54.54 0 0 1-.54-.54Zm1.644-.79c0 .284.229.512.511.512h7.818a.51.51 0 1 0 0-1.022H7.08a.51.51 0 0 0-.51.51Zm3.727-3.036-1.916-1.914 3.295-3.292 1.916 1.914-3.295 3.292Zm-3.649 1.74.738-2.605 1.868 1.867-2.606.737Zm5.212-7.049 1.266-1.265c.354-.353.915-.36 1.25-.015l.618.616c.336.336.329.898-.015 1.25L13.71 9.254" fill-rule="nonzero" fill="#303133" data-follow-fill="#303133"/></svg>