<svg xmlns="http://www.w3.org/2000/svg" viewBox="0 0 22 22"><g fill-rule="nonzero" fill="#000" data-follow-fill="#000"><path d="M11.445 6a.25.25 0 0 0-.25-.25h-.39a.25.25 0 0 0-.25.25v1.12a2.646 2.646 0 0 0-1.1.456l-.792-.792a.25.25 0 0 0-.354 0l-.275.275a.25.25 0 0 0 0 .354l.792.792c-.233.327-.39.704-.456 1.1H7.25a.25.25 0 0 0-.25.25v.39c0 .138.112.25.25.25h1.12c.068.405.227.779.456 1.1l-.792.792a.25.25 0 0 0 0 .354l.275.275a.25.25 0 0 0 .354 0l.792-.792a2.66 2.66 0 0 0 1.1.456v1.12c0 .138.112.25.25.25h.39a.25.25 0 0 0 .25-.25v-1.12a2.66 2.66 0 0 0 1.1-.456l.792.792a.25.25 0 0 0 .354 0l.275-.275a.25.25 0 0 0 0-.354l-.792-.792a2.66 2.66 0 0 0 .456-1.1h1.12a.25.25 0 0 0 .25-.25v-.39a.25.25 0 0 0-.25-.25h-1.12a2.652 2.652 0 0 0-.456-1.1l.792-.792a.25.25 0 0 0 0-.354l-.275-.275a.25.25 0 0 0-.354 0l-.792.792a2.652 2.652 0 0 0-1.1-.456V6Zm1.222 3.75a1.667 1.667 0 1 1-3.334 0 1.667 1.667 0 0 1 3.334 0Z"/><path d="M6 4a2 2 0 0 0-2 2v7.5a2 2 0 0 0 2 2h10a2 2 0 0 0 2-2V6a2 2 0 0 0-2-2H6Zm10 1a1 1 0 0 1 1 1v7.5a1 1 0 0 1-1 1H6a1 1 0 0 1-1-1V6a1 1 0 0 1 1-1h10Zm-1 12.75a.25.25 0 0 1-.25.25h-7.5a.25.25 0 0 1-.25-.25v-.5a.25.25 0 0 1 .25-.25h7.5a.25.25 0 0 1 .25.25v.5Z"/></g></svg>