<svg xmlns="http://www.w3.org/2000/svg" viewBox="0 0 22 22"><path d="M6.702 10.124a.48.48 0 0 1-.351-.152.519.519 0 0 1 .007-.717l.878-.893-.878-.906a.515.515 0 0 1 0-.717c.193-.2.504-.2.695 0l1.23 1.268a.523.523 0 0 1 .143.362.504.504 0 0 1-.147.359l-1.23 1.25a.503.503 0 0 1-.347.146Zm5.633.392c0-.28-.22-.507-.492-.507H9.315a.499.499 0 0 0-.492.507c0 .281.22.508.492.508h2.528a.499.499 0 0 0 .492-.508Zm-1.938 3.47.082-.145H5.85c-.475 0-.865-.4-.865-.893v-7.04c0-.491.387-.894.865-.894h9.293c.475 0 .865.4.865.893v4.748c.377.003.731.17.984.446V5.907C16.99 4.856 16.16 4 15.14 4H5.85C4.83 4 4 4.856 4 5.907v7.044c0 1.052.83 1.907 1.85 1.907h4.377a1.45 1.45 0 0 1 .17-.872Zm5.118-1.596h-1.987a.505.505 0 0 0-.439.26l-.993 1.776a.533.533 0 0 0 0 .524l.993 1.775c.092.162.26.26.44.26h1.986c.18 0 .348-.098.44-.26l.993-1.775a.533.533 0 0 0 0-.524l-.993-1.776a.501.501 0 0 0-.44-.26m0-1.015c.532 0 1.027.295 1.292.768l.994 1.775a1.585 1.585 0 0 1 0 1.539l-.994 1.775c-.265.474-.76.768-1.292.768h-1.987a1.489 1.489 0 0 1-1.291-.768l-.994-1.775a1.585 1.585 0 0 1 0-1.539l.994-1.775c.265-.473.76-.768 1.291-.768h1.987Zm.361 3.311c0-.771-.606-1.397-1.354-1.397-.748 0-1.354.626-1.354 1.397s.606 1.397 1.354 1.397c.748 0 1.354-.626 1.354-1.397Zm-.984 0c0 .21-.167.382-.37.382a.378.378 0 0 1-.37-.382c0-.21.167-.382.37-.382.203 0 .37.172.37.382Z" fill-rule="nonzero" fill="#000" data-follow-fill="#000"/></svg>