<svg xmlns="http://www.w3.org/2000/svg" viewBox="0 0 22 22"><g fill-rule="evenodd" fill="none"><path d="M0 0h22v22H0z"/><g fill-rule="nonzero"><path fill="#303133" d="M10.448 18.06H4.82v-.87h5.335c.064.297.164.594.292.87Z" data-follow-fill="#303133"/><path stroke-width="1.077" stroke="#303133" d="m10.189 16.31-5.723.01.026-1.475c0-.376.19-.584.546-.584h1.934c.893-.405 1.335-1.563.98-2.582a2.087 2.087 0 0 0-.416-.713 4.211 4.211 0 0 1-.52-.683c-.01-.02-.027-.04-.035-.059-.503-.653-.772-1.494-.772-2.365.13-2.286 1.873-4.007 3.884-3.849 1.812.149 3.252 1.791 3.373 3.85 0 .652-.165 1.295-.46 1.86a4.156 4.156 0 0 1-.346.534l-.139.227" data-follow-stroke="#303133"/><path fill="#303133" d="M13.511 15.213c0 .771.599 1.397 1.338 1.397.738 0 1.337-.626 1.337-1.397 0-.772-.599-1.397-1.337-1.397-.739 0-1.338.625-1.338 1.397Zm1.338-.466c.246 0 .445.209.445.466s-.2.465-.445.465a.456.456 0 0 1-.446-.465c0-.257.2-.466.446-.466Z" data-follow-fill="#303133"/><path fill="#303133" d="m17.777 13.192-2.706-1.644a.43.43 0 0 0-.445 0l-2.706 1.644a.47.47 0 0 0-.223.405v3.283a.47.47 0 0 0 .223.405l2.706 1.653a.43.43 0 0 0 .445 0l2.706-1.64a.47.47 0 0 0 .223-.404v-3.302a.47.47 0 0 0-.223-.4Zm-.669 3.418-2.26 1.368-2.26-1.368v-2.748l2.26-1.369 2.26 1.37v2.747Z" data-follow-fill="#303133"/></g></g></svg>