<svg xmlns="http://www.w3.org/2000/svg" viewBox="0 0 22 22"><path d="M19.908 10.928V2.92c0-1.61-1.338-2.92-2.983-2.92H5.075C3.43 0 2.092 1.31 2.092 2.92v8.008C.914 11.072 0 12.058 0 13.252v6.407C0 20.95 1.074 22 2.391 22H19.61C20.929 22 22 20.949 22 19.659v-6.407c0-1.19-.914-2.177-2.092-2.324ZM3.868 2.92c0-.65.542-1.18 1.207-1.18h11.85c.665 0 1.206.53 1.206 1.18v7.99h-3.183v2.178c0 .082-.069.149-.153.149H7.207a.151.151 0 0 1-.152-.15v-2.176H3.869V2.92Zm16.355 16.741a.609.609 0 0 1-.614.602H2.39a.608.608 0 0 1-.614-.602v-6.41c0-.332.277-.6.614-.6h2.887v.437c0 1.041.866 1.889 1.93 1.889h7.585c1.063 0 1.93-.848 1.93-1.89v-.437h2.883c.34 0 .614.271.614.602v6.41h.003Zm-9.253-8.385 3.569-3.494-1.257-1.23-1.454 1.426v-4.8H10.05v4.738L8.657 6.55 7.4 7.781l2.313 2.265 1.257 1.23Z" fill-rule="nonzero" fill="#000" data-follow-fill="#000"/></svg>