<svg width="357" height="171" viewBox="0 0 357 171" fill="none" xmlns="http://www.w3.org/2000/svg">
<mask id="mask0_2170_67471" style="mask-type:alpha" maskUnits="userSpaceOnUse" x="-1" y="-1" width="358" height="172">
<rect width="356" height="170" rx="4" fill="white" fill-opacity="0.5" stroke="black" stroke-opacity="0.06"/>
</mask>
<g mask="url(#mask0_2170_67471)">
<path d="M169.701 19L235.133 52.7543L313.72 20.3848L347.993 38.214" stroke="#F4F4F4"/>
<path d="M234.787 53.1003L199.907 68.0734M165.028 83.0464L199.907 68.0734M199.907 68.0734L251.231 96.7397M214 189.5L295.717 143.487M295.717 143.487L315.97 132.899L251.231 96.7397M295.717 143.487L371.5 186.5M251.231 96.7397L62 186.5M268.714 38.9062L361.322 93.0862" stroke="#F4F4F4"/>
<path d="M336.007 87.6428V71L362.318 84.5966V103.543L336.007 87.6428Z" stroke="#F2F2F2" stroke-linejoin="round"/>
<path d="M334 89.7675V73.1611L360.657 86.7888V105.704L334 89.7675Z" fill="#EEEEEE"/>
<path d="M252.097 66.4289V26.27L313.893 57.9471V103.472L252.097 66.4289Z" fill="#C5C5C5"/>
<path d="M251.657 26.47L248.875 27.7346C248.518 27.8968 248.288 28.2528 248.288 28.6449V66.123C248.288 66.5194 248.054 66.8783 247.692 67.0381L202.263 87.0606C201.844 87.2449 201.604 87.6893 201.679 88.1401L202.344 92.1295C202.391 92.408 202.553 92.6539 202.79 92.8065L266.318 133.621C266.622 133.817 267.007 133.833 267.327 133.664L313.361 109.293C313.688 109.12 313.893 108.78 313.893 108.409V58.5582C313.893 58.1831 313.683 57.8395 313.349 57.6683L252.527 26.4905C252.255 26.3512 251.935 26.3437 251.657 26.47Z" fill="#D9D9D9"/>
<path d="M266.983 128.571L310.085 106.069L245.519 67.9868L201.552 87.547L266.983 128.571Z" fill="#E4E4E4"/>
<path d="M248.289 69.0254V28.001L310.085 59.678V106.069L248.289 69.0254Z" fill="#E8E8E8"/>
<path d="M245.519 67.4677V28.8667L307.315 60.5438V104.511L245.519 67.4677Z" fill="#D9D9D9"/>
<path d="M242.403 67.9401V31.3688C242.403 30.621 243.194 30.1378 243.859 30.4789L303.655 61.1307C303.989 61.3019 304.199 61.6455 304.199 62.0206V103.784C304.199 104.561 303.352 105.042 302.685 104.642L242.889 68.7978C242.588 68.6171 242.403 68.2915 242.403 67.9401Z" stroke="white" stroke-linejoin="round"/>
<path d="M240.672 70.2373V31.6362L302.468 63.3133V107.28L240.672 70.2373Z" fill="#EEEEEE"/>
<path d="M245.396 74.7378L241.901 76.4093L245.244 78.6887L248.891 76.8652L245.396 74.7378Z" fill="#D9D9D9"/>
<path d="M250.562 77.9292L247.067 79.6007L250.41 81.8801L254.057 80.0566L250.562 77.9292Z" fill="#D9D9D9"/>
<path d="M256.033 81.272L252.538 82.9435L255.881 85.2229L259.528 83.3994L256.033 81.272Z" fill="#D9D9D9"/>
<path d="M261.2 84.311L257.705 85.9826L261.048 88.2619L264.695 86.4384L261.2 84.311Z" fill="#D9D9D9"/>
<path d="M266.974 87.958L263.479 89.6295L266.822 91.9089L270.469 90.0854L266.974 87.958Z" fill="#D9D9D9"/>
<path d="M272.444 91.3013L268.949 92.9728L272.292 95.2521L275.939 93.4287L272.444 91.3013Z" fill="#D9D9D9"/>
<path d="M278.523 94.9482L275.028 96.6198L278.371 98.8991L282.018 97.0756L278.523 94.9482Z" fill="#D9D9D9"/>
<path d="M283.993 97.9873L280.498 99.6588L283.841 101.938L287.488 100.115L283.993 97.9873Z" fill="#D9D9D9"/>
<path d="M289.767 101.938L286.272 103.61L289.615 105.889L293.262 104.065L289.767 101.938Z" fill="#D9D9D9"/>
<path d="M239.622 77.9282L236.127 79.5997L239.47 81.8791L243.117 80.0556L239.622 77.9282Z" fill="#D9D9D9"/>
<path d="M244.788 81.1196L241.293 82.7912L244.636 85.0705L248.283 83.247L244.788 81.1196Z" fill="#D9D9D9"/>
<path d="M250.259 84.4629L246.764 86.1344L250.107 88.4138L253.754 86.5903L250.259 84.4629Z" fill="#D9D9D9"/>
<path d="M255.425 87.502L251.93 89.1735L255.273 91.4528L258.92 89.6293L255.425 87.502Z" fill="#D9D9D9"/>
<path d="M261.2 91.1484L257.705 92.82L261.048 95.0993L264.695 93.2758L261.2 91.1484Z" fill="#D9D9D9"/>
<path d="M266.67 94.4917L263.175 96.1632L266.518 98.4426L270.165 96.6191L266.67 94.4917Z" fill="#D9D9D9"/>
<path d="M272.748 98.1392L269.253 99.8107L272.596 102.09L276.243 100.267L272.748 98.1392Z" fill="#D9D9D9"/>
<path d="M278.219 101.178L274.724 102.849L278.067 105.129L281.714 103.305L278.219 101.178Z" fill="#D9D9D9"/>
<path d="M283.993 105.129L280.498 106.8L283.841 109.08L287.488 107.256L283.993 105.129Z" fill="#D9D9D9"/>
<path d="M233.24 80.9678L229.745 82.6393L233.088 84.9187L236.735 83.0952L233.24 80.9678Z" fill="#D9D9D9"/>
<path d="M238.406 84.1592L234.911 85.8307L238.254 88.1101L241.901 86.2866L238.406 84.1592Z" fill="#D9D9D9"/>
<path d="M243.877 87.502L240.382 89.1735L243.725 91.4528L247.372 89.6293L243.877 87.502Z" fill="#D9D9D9"/>
<path d="M249.043 90.5415L245.548 92.213L248.891 94.4924L252.538 92.6689L249.043 90.5415Z" fill="#D9D9D9"/>
<path d="M254.818 94.188L251.323 95.8595L254.666 98.1389L258.313 96.3154L254.818 94.188Z" fill="#D9D9D9"/>
<path d="M260.288 97.5312L256.793 99.2028L260.136 101.482L263.783 99.6586L260.288 97.5312Z" fill="#D9D9D9"/>
<path d="M266.366 101.179L262.871 102.85L266.214 105.13L269.861 103.306L266.366 101.179Z" fill="#D9D9D9"/>
<path d="M271.837 104.217L268.342 105.889L271.685 108.168L275.332 106.345L271.837 104.217Z" fill="#D9D9D9"/>
<path d="M277.611 108.168L274.116 109.84L277.459 112.119L281.106 110.296L277.611 108.168Z" fill="#D9D9D9"/>
<path d="M226.857 83.3994L223.362 85.0709L226.705 87.3503L230.352 85.5268L226.857 83.3994Z" fill="#D9D9D9"/>
<path d="M232.024 86.5898L228.529 88.2614L231.872 90.5407L235.519 88.7172L232.024 86.5898Z" fill="#D9D9D9"/>
<path d="M237.494 89.9331L233.999 91.6046L259.832 107.408L263.479 105.585L237.494 89.9331Z" fill="#D9D9D9"/>
<path d="M265.454 106.648L261.959 108.32L265.303 110.599L268.949 108.776L265.454 106.648Z" fill="#D9D9D9"/>
<path d="M271.229 110.6L267.734 112.271L271.077 114.55L274.724 112.727L271.229 110.6Z" fill="#D9D9D9"/>
<path d="M236.582 95.2524L228.225 99.0514L245.548 110.296L254.058 106.345L236.582 95.2524Z" fill="#D9D9D9"/>
<path d="M173.163 67.4676V51.8887L177.145 55.0044V71.2757L173.163 67.4676Z" fill="#D9D9D9"/>
<path d="M177.145 71.2757V55.0044L181.126 53.6196V69.7178L177.145 71.2757Z" fill="#E2E2E2"/>
<path d="M177.145 50.5039L173.163 51.8887L177.145 55.0045L181.126 53.6197L177.145 50.5039Z" fill="#EDEDED"/>
<path d="M181.991 63.4864V43.5801L185.973 46.6959V67.2946L181.991 63.4864Z" fill="#D9D9D9"/>
<path d="M185.973 67.2946V46.6958L189.954 45.311V65.7367L185.973 67.2946Z" fill="#E2E2E2"/>
<path d="M185.973 42.1953L181.991 43.5801L185.973 46.6959L189.954 45.3111L185.973 42.1953Z" fill="#EDEDED"/>
<path d="M190.646 59.6779V36.3096L194.628 39.4253V63.4861L190.646 59.6779Z" fill="#D9D9D9"/>
<path d="M194.628 63.4865V39.4258L198.609 38.041V61.9286L194.628 63.4865Z" fill="#E2E2E2"/>
<path d="M194.628 34.9253L190.646 36.3101L194.628 39.4259L198.609 38.0411L194.628 34.9253Z" fill="#EDEDED"/>
<path d="M199.301 55.8703V31.1172L203.283 34.233V59.6785L199.301 55.8703Z" fill="#D9D9D9"/>
<path d="M203.283 59.678V34.2324L207.264 32.8477V58.1201L203.283 59.678Z" fill="#E2E2E2"/>
<path d="M203.283 29.7324L199.301 31.1172L203.283 34.233L207.264 32.8482L203.283 29.7324Z" fill="#EDEDED"/>
<path d="M203.57 136.919C203.154 137.057 202.474 137.207 202.185 137.265C201.781 137.322 201.008 137.576 201.147 138.13C201.32 138.822 203.224 139.342 204.262 138.477C205.301 137.611 204.089 136.746 203.57 136.919Z" fill="#A7A7A7"/>
<path d="M209.298 139.537C208.883 139.675 208.202 139.825 207.914 139.883C207.51 139.941 206.737 140.194 206.875 140.748C207.048 141.44 208.952 141.96 209.991 141.095C211.029 140.229 209.818 139.364 209.298 139.537Z" fill="#A7A7A7"/>
<path d="M212.744 111.473C212.744 111.749 212.513 112.165 212.398 112.338L212.571 112.857C212.802 112.8 213.402 112.615 213.956 112.338C214.648 111.992 214.475 111.473 214.302 111.299C214.129 111.126 213.09 111.819 213.09 111.473C213.09 111.126 212.744 111.126 212.744 111.473Z" fill="#E9E9E9"/>
<path d="M200.973 138.129C200.835 137.714 200.338 126.301 200.108 120.646H209.109C208.993 126.936 208.693 139.722 208.416 140.553C208.139 141.384 207.262 141.13 206.859 140.899C206.743 136.456 206.512 127.536 206.512 127.397C206.512 127.224 205.82 125.32 204.435 124.801C203.327 124.385 202.704 125.436 202.531 126.013L202.358 137.61C201.954 137.956 201.112 138.545 200.973 138.129Z" fill="#D9D9D9"/>
<path d="M208.07 101.433C208.486 101.156 208.359 98.2018 208.243 96.7593L204.435 97.971V101.952C204.435 102.368 204.32 102.818 204.262 102.991L205.993 103.51C205.935 103.337 205.889 102.922 206.166 102.645C206.512 102.298 207.551 101.779 208.07 101.433Z" fill="#D9D9D9"/>
<path d="M204.089 94.8551C207.135 94.5782 208.474 95.8937 208.763 96.5861C208.07 96.5861 207.378 98.3172 207.205 98.8365C207.032 99.3558 205.993 99.8751 205.301 99.702C204.608 99.5289 204.608 100.394 204.954 100.568C205.301 100.741 204.954 102.298 203.916 102.298C200.627 101.952 200.281 95.2013 204.089 94.8551Z" fill="#A4A4A4"/>
<path d="M201.146 104.376C201.7 103.683 203.454 102.818 204.262 102.472L206.512 103.164L208.417 105.414C209.051 109.396 210.044 118.085 208.936 120.993C207.551 124.628 200.108 123.59 199.589 119.262C199.069 114.935 200.454 105.241 201.146 104.376Z" fill="#CCCCCC"/>
<path d="M208.243 114.761C206.166 113.792 205.993 108.703 206.166 106.28C206.455 105.876 207.136 105.103 207.551 105.241C208.07 105.414 208.243 105.933 208.243 106.799C208.243 107.664 208.59 113.204 209.282 113.377C209.836 113.515 211.59 112.511 212.398 111.992L212.917 112.857C212.225 113.896 210.321 115.731 208.243 114.761Z" fill="#D9D9D9"/>
</g>
</svg>
