<svg width="53" height="45" viewBox="0 0 53 45" fill="none" xmlns="http://www.w3.org/2000/svg">
<g filter="url(#filter0_d_2170_67678)">
<path d="M15.9439 15.2856C15.9755 14.8429 16.3438 14.5 16.7876 14.5H41.2124C41.6562 14.5 42.0245 14.8429 42.0561 15.2856L42.9353 27.5939C42.9703 28.0835 42.5825 28.5 42.0916 28.5H15.9084C15.4175 28.5 15.0297 28.0835 15.0647 27.5939L15.9439 15.2856Z" fill="url(#paint0_linear_2170_67678)"/>
<path d="M17.7964 16.7801C17.8307 16.3398 18.198 16 18.6396 16H39.3604C39.802 16 40.1693 16.3398 40.2036 16.7801L40.929 26.0884C40.9673 26.58 40.5787 27 40.0857 27H17.9143C17.4213 27 17.0327 26.58 17.071 26.0884L17.7964 16.7801Z" fill="#5B92D9"/>
<path d="M15.5 12.5C15.5 11.6716 16.1716 11 17 11H21L24 12L40 12C40.8284 12 41.5 12.5 41.5 13C41.5 13.6327 40.8284 14 40 14L17 14C16.1716 14 15.5 13.3284 15.5 12.5Z" fill="url(#paint1_linear_2170_67678)"/>
<path d="M38.5 13.75C38.5 12.7835 39.2835 12 40.25 12C41.2165 12 42 12.7835 42 13.75C42 14.7165 41.2165 15.5 40.25 15.5C39.2835 15.5 38.5 14.7165 38.5 13.75Z" fill="#5B92D9"/>
<g filter="url(#filter1_b_2170_67678)">
<rect x="10" y="20" width="14" height="10" rx="1" fill="#3E78D0" fill-opacity="0.2"/>
</g>
<g filter="url(#filter2_b_2170_67678)">
<rect x="10" y="20" width="14" height="10" rx="1" fill="white" fill-opacity="0.1"/>
</g>
<circle cx="13" cy="23" r="1" fill="white"/>
</g>
<defs>
<filter id="filter0_d_2170_67678" x="0" y="6" width="52.9375" height="39" filterUnits="userSpaceOnUse" color-interpolation-filters="sRGB">
<feFlood flood-opacity="0" result="BackgroundImageFix"/>
<feColorMatrix in="SourceAlpha" type="matrix" values="0 0 0 0 0 0 0 0 0 0 0 0 0 0 0 0 0 0 127 0" result="hardAlpha"/>
<feOffset dy="5"/>
<feGaussianBlur stdDeviation="5"/>
<feComposite in2="hardAlpha" operator="out"/>
<feColorMatrix type="matrix" values="0 0 0 0 0.243137 0 0 0 0 0.470588 0 0 0 0 0.815686 0 0 0 0.2 0"/>
<feBlend mode="normal" in2="BackgroundImageFix" result="effect1_dropShadow_2170_67678"/>
<feBlend mode="normal" in="SourceGraphic" in2="effect1_dropShadow_2170_67678" result="shape"/>
</filter>
<filter id="filter1_b_2170_67678" x="6" y="16" width="22" height="18" filterUnits="userSpaceOnUse" color-interpolation-filters="sRGB">
<feFlood flood-opacity="0" result="BackgroundImageFix"/>
<feGaussianBlur in="BackgroundImageFix" stdDeviation="2"/>
<feComposite in2="SourceAlpha" operator="in" result="effect1_backgroundBlur_2170_67678"/>
<feBlend mode="normal" in="SourceGraphic" in2="effect1_backgroundBlur_2170_67678" result="shape"/>
</filter>
<filter id="filter2_b_2170_67678" x="6" y="16" width="22" height="18" filterUnits="userSpaceOnUse" color-interpolation-filters="sRGB">
<feFlood flood-opacity="0" result="BackgroundImageFix"/>
<feGaussianBlur in="BackgroundImageFix" stdDeviation="2"/>
<feComposite in2="SourceAlpha" operator="in" result="effect1_backgroundBlur_2170_67678"/>
<feBlend mode="normal" in="SourceGraphic" in2="effect1_backgroundBlur_2170_67678" result="shape"/>
</filter>
<linearGradient id="paint0_linear_2170_67678" x1="42" y1="26.5" x2="31.9233" y2="7.02126" gradientUnits="userSpaceOnUse">
<stop stop-color="#3E78D0"/>
<stop offset="1" stop-color="#5B92D9"/>
</linearGradient>
<linearGradient id="paint1_linear_2170_67678" x1="52.7644" y1="15.7136" x2="51.2329" y2="3.92659" gradientUnits="userSpaceOnUse">
<stop stop-color="#3E78D0"/>
<stop offset="1" stop-color="#5B92D9"/>
</linearGradient>
</defs>
</svg>
