<svg width="45" height="51" viewBox="0 0 45 51" fill="none" xmlns="http://www.w3.org/2000/svg">
<g filter="url(#filter0_d_2170_67696)">
<rect x="17" y="5" width="18" height="12.7509" rx="1" fill="url(#paint0_linear_2170_67696)"/>
<rect width="6" height="2" rx="1" transform="matrix(1 0 0 -1 23 8.87891)" fill="#2759AF"/>
<rect x="17" y="19.8789" width="18" height="13" rx="1" fill="url(#paint1_linear_2170_67696)"/>
<rect width="6" height="2" rx="1" transform="matrix(1 0 0 -1 23 23.8789)" fill="#2759AF"/>
<g filter="url(#filter1_b_2170_67696)">
<path d="M24.0704 35.3467H10.5737C10.2717 35.3467 10 35.1057 10 34.7743V31.9727C10 31.0388 10.7548 30.2857 11.6909 30.2857H14.0853C14.7093 30.2857 15.1785 29.71 14.8766 29.1638C14.7306 28.8996 14.5529 28.6479 14.3479 28.4179C13.7139 27.6949 13.3515 26.761 13.3515 25.797C13.3515 24.7426 13.7743 23.7183 14.5593 22.9652C15.3443 22.212 16.3709 21.8505 17.4579 21.8806C19.4809 21.971 21.202 23.7183 21.2322 25.7367C21.2624 26.761 20.8698 27.725 20.2056 28.4781C19.9963 28.6999 19.8267 28.9387 19.6919 29.1969C19.4057 29.7448 19.8928 30.3158 20.5108 30.3158H22.923C23.859 30.3158 24.6139 31.0689 24.6139 32.0028V34.8045C24.6139 35.1057 24.3723 35.3467 24.0704 35.3467Z" fill="#3E78D0" fill-opacity="0.2"/>
</g>
<g filter="url(#filter2_b_2170_67696)">
<path d="M24.0704 35.3467H10.5737C10.2717 35.3467 10 35.1057 10 34.7743V31.9727C10 31.0388 10.7548 30.2857 11.6909 30.2857H14.0853C14.7093 30.2857 15.1785 29.71 14.8766 29.1638C14.7306 28.8996 14.5529 28.6479 14.3479 28.4179C13.7139 27.6949 13.3515 26.761 13.3515 25.797C13.3515 24.7426 13.7743 23.7183 14.5593 22.9652C15.3443 22.212 16.3709 21.8505 17.4579 21.8806C19.4809 21.971 21.202 23.7183 21.2322 25.7367C21.2624 26.761 20.8698 27.725 20.2056 28.4781C19.9963 28.6999 19.8267 28.9387 19.6919 29.1969C19.4057 29.7448 19.8928 30.3158 20.5108 30.3158H22.923C23.859 30.3158 24.6139 31.0689 24.6139 32.0028V34.8045C24.6139 35.1057 24.3723 35.3467 24.0704 35.3467Z" fill="white" fill-opacity="0.1"/>
</g>
<circle cx="12" cy="32.8789" r="1" fill="white"/>
</g>
<defs>
<filter id="filter0_d_2170_67696" x="0" y="0" width="45" height="50.3467" filterUnits="userSpaceOnUse" color-interpolation-filters="sRGB">
<feFlood flood-opacity="0" result="BackgroundImageFix"/>
<feColorMatrix in="SourceAlpha" type="matrix" values="0 0 0 0 0 0 0 0 0 0 0 0 0 0 0 0 0 0 127 0" result="hardAlpha"/>
<feOffset dy="5"/>
<feGaussianBlur stdDeviation="5"/>
<feColorMatrix type="matrix" values="0 0 0 0 0.243137 0 0 0 0 0.470588 0 0 0 0 0.815686 0 0 0 0.2 0"/>
<feBlend mode="normal" in2="BackgroundImageFix" result="effect1_dropShadow_2170_67696"/>
<feBlend mode="normal" in="SourceGraphic" in2="effect1_dropShadow_2170_67696" result="shape"/>
</filter>
<filter id="filter1_b_2170_67696" x="6" y="17.8789" width="22.614" height="21.4678" filterUnits="userSpaceOnUse" color-interpolation-filters="sRGB">
<feFlood flood-opacity="0" result="BackgroundImageFix"/>
<feGaussianBlur in="BackgroundImageFix" stdDeviation="2"/>
<feComposite in2="SourceAlpha" operator="in" result="effect1_backgroundBlur_2170_67696"/>
<feBlend mode="normal" in="SourceGraphic" in2="effect1_backgroundBlur_2170_67696" result="shape"/>
</filter>
<filter id="filter2_b_2170_67696" x="6" y="17.8789" width="22.614" height="21.4678" filterUnits="userSpaceOnUse" color-interpolation-filters="sRGB">
<feFlood flood-opacity="0" result="BackgroundImageFix"/>
<feGaussianBlur in="BackgroundImageFix" stdDeviation="2"/>
<feComposite in2="SourceAlpha" operator="in" result="effect1_backgroundBlur_2170_67696"/>
<feBlend mode="normal" in="SourceGraphic" in2="effect1_backgroundBlur_2170_67696" result="shape"/>
</filter>
<linearGradient id="paint0_linear_2170_67696" x1="42.4522" y1="22.9089" x2="17.6174" y2="-8.22467" gradientUnits="userSpaceOnUse">
<stop stop-color="#3E78D0"/>
<stop offset="1" stop-color="#5B92D9"/>
</linearGradient>
<linearGradient id="paint1_linear_2170_67696" x1="42.4522" y1="38.1377" x2="17.0277" y2="6.87544" gradientUnits="userSpaceOnUse">
<stop stop-color="#3E78D0"/>
<stop offset="1" stop-color="#5B92D9"/>
</linearGradient>
</defs>
</svg>
