<svg width="16" height="16" viewBox="0 0 16 16" fill="none" xmlns="http://www.w3.org/2000/svg">
<path fill-rule="evenodd" clip-rule="evenodd" d="M3.33333 12.6667L6.66667 12.6667L6.66667 14L2.66667 14C2.48986 14 2.32029 13.9298 2.19526 13.8047C2.07024 13.6797 2 13.5101 2 13.3333L2 2.66667C2 2.48986 2.07024 2.32029 2.19526 2.19526C2.32029 2.07024 2.48986 2 2.66667 2L13.3333 2C13.5101 2 13.6797 2.07024 13.8047 2.19526C13.9298 2.32029 14 2.48986 14 2.66667L14 6.66667L12.6667 6.66667L12.6667 3.33333L3.33333 3.33333L3.33333 12.6667ZM9.96697 9.1523L12.6092 9.1523L12.6092 8L8 8L8 12.6092L9.15229 12.6092L9.15229 9.96697L13.1853 14L14 13.1853L9.96697 9.1523Z" fill="black" fill-opacity="0.25"/>
</svg>
