<svg width="14" height="16" viewBox="0 0 14 16" fill="none" xmlns="http://www.w3.org/2000/svg">
<g clip-path="url(#clip0_858_70514)">
<path d="M13.4167 3.83407V15.4074C13.4167 15.7347 13.1555 16 12.8334 16H1.16671C0.844541 16 0.583374 15.7347 0.583374 15.4074V0.592593C0.583374 0.265313 0.844541 0 1.16671 0H9.64254L13.4167 3.83407Z" fill="#6282E2"/>
<path d="M9.625 3.25651V0L13.4167 3.85185H10.211C9.88738 3.85185 9.625 3.58531 9.625 3.25651Z" fill="#B2C5FF"/>
<path d="M3.45385 10.0639H3.06304C3.02226 10.064 2.98328 10.0469 2.95557 10.0167C2.92786 9.98655 2.91395 9.94605 2.91722 9.90505V6.96377C2.91722 6.88255 2.9825 6.81671 3.06304 6.81671H3.91466C4.78766 6.80494 5.22417 7.13927 5.22417 7.81968C5.20084 8.455 4.8285 8.7903 4.10715 8.8256H3.59968V9.90505C3.60294 9.94605 3.58903 9.98655 3.56132 10.0167C3.53361 10.0469 3.49464 10.064 3.45385 10.0639ZM3.59968 7.34908V8.26676C3.63467 8.26676 3.70467 8.27264 3.80966 8.2844C4.27339 8.33146 4.50087 8.17264 4.48921 7.80792C4.48921 7.49026 4.26464 7.33731 3.80966 7.34908C3.74053 7.36476 3.66881 7.36476 3.59968 7.34908ZM5.70831 9.90505V6.96377C5.70831 6.88255 5.77359 6.81671 5.85413 6.81671H6.80783C7.8811 6.81671 8.42065 7.37555 8.43523 8.455C8.44982 9.53445 7.8811 10.0757 6.80783 10.0757H5.85413C5.81105 10.0762 5.76993 10.0575 5.7418 10.0246C5.71367 9.99171 5.70141 9.94794 5.70831 9.90505ZM6.38785 7.33731V9.50798H6.75533C7.39696 9.53151 7.71194 9.17267 7.70027 8.43147C7.68861 7.69027 7.37363 7.32555 6.75533 7.33731H6.38785ZM9.54059 10.0639H9.14978C9.06924 10.0639 9.00395 9.99803 9.00395 9.91681V6.96377C9.00395 6.88255 9.06924 6.81671 9.14978 6.81671H10.9376C11.0181 6.81671 11.0834 6.88255 11.0834 6.96377V7.21378C11.0834 7.295 11.0181 7.36084 10.9376 7.36084H9.68641V8.14028H10.853C10.9335 8.14028 10.9988 8.20612 10.9988 8.28734V8.54029C10.9988 8.62152 10.9335 8.68736 10.853 8.68736H9.68641V9.90505C9.68967 9.94605 9.67576 9.98655 9.64805 10.0167C9.62035 10.0469 9.58137 10.064 9.54059 10.0639Z" fill="white"/>
</g>
<defs>
<clipPath id="clip0_858_70514">
<rect width="14" height="16" fill="white"/>
</clipPath>
</defs>
</svg>
