<svg width="10" height="3" viewBox="0 0 10 3" fill="none" xmlns="http://www.w3.org/2000/svg">
<path d="M0.00800006 1.542C0.00800006 1.19667 0.0920001 0.954 0.26 0.814C0.428 0.674 0.628667 0.604 0.862 0.604C1.10467 0.604 1.31 0.674 1.478 0.814C1.65533 0.954 1.744 1.19667 1.744 1.542C1.744 1.878 1.65533 2.12067 1.478 2.27C1.31 2.41933 1.10467 2.494 0.862 2.494C0.628667 2.494 0.428 2.41933 0.26 2.27C0.0920001 2.12067 0.00800006 1.878 0.00800006 1.542ZM3.75409 1.542C3.75409 1.19667 3.83809 0.954 4.00609 0.814C4.17409 0.674 4.37476 0.604 4.60809 0.604C4.85076 0.604 5.05609 0.674 5.22409 0.814C5.40143 0.954 5.49009 1.19667 5.49009 1.542C5.49009 1.878 5.40143 2.12067 5.22409 2.27C5.05609 2.41933 4.85076 2.494 4.60809 2.494C4.37476 2.494 4.17409 2.41933 4.00609 2.27C3.83809 2.12067 3.75409 1.878 3.75409 1.542ZM7.50019 1.542C7.50019 1.19667 7.58419 0.954 7.75219 0.814C7.92019 0.674 8.12085 0.604 8.35419 0.604C8.59685 0.604 8.80219 0.674 8.97019 0.814C9.14752 0.954 9.23619 1.19667 9.23619 1.542C9.23619 1.878 9.14752 2.12067 8.97019 2.27C8.80219 2.41933 8.59685 2.494 8.35419 2.494C8.12085 2.494 7.92019 2.41933 7.75219 2.27C7.58419 2.12067 7.50019 1.878 7.50019 1.542Z" fill="#9a9ead"/>
</svg>
