<svg width="10" height="12" viewBox="0 0 10 12" fill="none" xmlns="http://www.w3.org/2000/svg">
<path d="M6.66666 0.446003V0.444336H0.556666C0.25 0.444336 0 0.697112 0 0.995444V11.0043C0.000146866 11.1505 0.0583344 11.2907 0.161776 11.394C0.265217 11.4973 0.405451 11.5554 0.551665 11.5554H9.44832C9.52128 11.5549 9.59342 11.54 9.66063 11.5116C9.72784 11.4832 9.78879 11.4419 9.84002 11.3899C9.89125 11.338 9.93174 11.2764 9.95919 11.2088C9.98664 11.1412 10.0005 11.0689 9.99999 10.9959V3.77765L6.66666 0.446003ZM8.42777 3.77765H6.66666V2.01655L8.42777 3.77765ZM5.55555 1.55544V4.3332C5.55555 4.48054 5.61408 4.62185 5.71827 4.72604C5.82245 4.83022 5.96376 4.88875 6.1111 4.88875H8.88888V10.4443H1.11111V1.55544H5.55555Z" fill="black" fill-opacity="0.45"/>
</svg>
