<svg width="24" height="24" viewBox="0 0 24 24" fill="none" xmlns="http://www.w3.org/2000/svg">
<circle opacity="0.1" cx="12" cy="12" r="12" fill="#D04D3E"/>
<rect x="6" y="6" width="10.1998" height="12.0541" fill="#D04D3E"/>
<path d="M12.8246 8.75826H7.81737C7.54197 8.75826 7.31665 8.53294 7.31665 8.25755C7.31665 7.98216 7.54197 7.75684 7.81737 7.75684H12.8246C13.1 7.75684 13.3253 7.98216 13.3253 8.25755C13.3253 8.53294 13.1 8.75826 12.8246 8.75826ZM11.1555 10.928H7.81737C7.54197 10.928 7.31665 10.7027 7.31665 10.4273C7.31665 10.1519 7.54197 9.92658 7.81737 9.92658H11.1555C11.4309 9.92658 11.6562 10.1519 11.6562 10.4273C11.6562 10.7027 11.4309 10.928 11.1555 10.928ZM10.1541 13.0977H7.81737C7.54197 13.0977 7.31665 12.8724 7.31665 12.597C7.31665 12.3216 7.54197 12.0963 7.81737 12.0963H10.1541C10.4295 12.0963 10.6548 12.3216 10.6548 12.597C10.6548 12.8724 10.4295 13.0977 10.1541 13.0977Z" fill="white"/>
<path d="M13 15.1401C13 16.2619 13.5984 17.2984 14.57 17.8593C15.5428 18.4202 16.7373 18.4202 17.7102 17.8593C18.6816 17.2986 19.28 16.2619 19.28 15.1401C19.28 14.0183 18.6816 12.9816 17.71 12.4207C16.7372 11.8598 15.5427 11.8598 14.5698 12.4207C13.5983 12.9818 12.9998 14.0184 13 15.1401Z" fill="#ECAD9D"/>
<path d="M17.2845 15.7443C17.3414 15.8037 17.3832 15.8582 17.4097 15.9077C17.4362 15.9572 17.4318 16.0137 17.3964 16.077C17.3886 16.0889 17.3778 16.1033 17.364 16.1201C17.3503 16.137 17.336 16.1533 17.3213 16.1691C17.3066 16.185 17.2919 16.1993 17.2771 16.2122C17.2624 16.2251 17.2501 16.2345 17.2403 16.2404C17.1912 16.2701 17.1333 16.2781 17.0665 16.2642C16.9997 16.2503 16.9398 16.2167 16.8868 16.1632L16.7631 16.0384L16.5981 15.8721L16.4037 15.676L16.1916 15.4621L15.8145 15.8424C15.6987 15.9592 15.6044 16.0553 15.5317 16.1305C15.4571 16.2058 15.383 16.2523 15.3093 16.2701C15.2357 16.288 15.1704 16.2711 15.1134 16.2196L15.0928 16.1988L15.0604 16.1662L15.028 16.1335C15.0162 16.1216 15.0094 16.1137 15.0074 16.1097C14.9858 16.082 14.973 16.0538 14.9691 16.0251C14.9652 15.9963 14.9676 15.9681 14.9765 15.9404C14.9853 15.9127 14.9986 15.8859 15.0162 15.8602C15.0339 15.8344 15.0535 15.8107 15.0751 15.7889C15.0928 15.773 15.1242 15.7433 15.1694 15.6998L15.3285 15.5334C15.3933 15.47 15.4655 15.3987 15.545 15.3195C15.6245 15.2403 15.7075 15.1571 15.7939 15.07C15.6997 14.9749 15.6098 14.8848 15.5244 14.7996C15.439 14.7145 15.3624 14.6382 15.2946 14.5709C15.2269 14.5035 15.1714 14.4486 15.1282 14.406C15.085 14.3634 15.0585 14.3372 15.0486 14.3273C14.9976 14.2758 14.9716 14.2248 14.9706 14.1743C14.9696 14.1238 14.9868 14.0728 15.0221 14.0213C15.0378 14.0015 15.0604 13.9782 15.0899 13.9515C15.1193 13.9247 15.14 13.9074 15.1517 13.8995C15.2107 13.8599 15.2637 13.8426 15.3108 13.8475C15.3579 13.8525 15.4051 13.8797 15.4522 13.9292L15.5435 14.0213C15.5887 14.0668 15.6447 14.1223 15.7114 14.1877C15.7782 14.253 15.8533 14.3268 15.9368 14.409C16.0203 14.4912 16.1072 14.5768 16.1975 14.6659C16.2721 14.5907 16.3453 14.5174 16.417 14.4461C16.4886 14.3748 16.5554 14.308 16.6173 14.2456C16.6791 14.1832 16.7351 14.1272 16.7852 14.0777C16.8353 14.0282 16.877 13.9866 16.9104 13.953C16.9575 13.9074 17.0086 13.8772 17.0636 13.8624C17.1185 13.8475 17.1716 13.8599 17.2226 13.8995C17.2246 13.9015 17.231 13.9064 17.2418 13.9143C17.2526 13.9223 17.2634 13.9312 17.2742 13.9411C17.285 13.951 17.2953 13.9604 17.3051 13.9693C17.3149 13.9782 17.3218 13.9837 17.3257 13.9856C17.3788 14.0371 17.4048 14.0931 17.4038 14.1535C17.4028 14.2139 17.3768 14.2698 17.3257 14.3213C17.2904 14.357 17.2467 14.4015 17.1946 14.455C17.1426 14.5085 17.0847 14.5669 17.0208 14.6303C16.957 14.6937 16.8898 14.761 16.8191 14.8323L16.5952 15.0581C16.6678 15.1294 16.739 15.1992 16.8087 15.2675C16.8785 15.3358 16.9433 15.3997 17.0032 15.4591C17.0631 15.5185 17.1171 15.573 17.1652 15.6225C17.2133 15.672 17.2531 15.7126 17.2845 15.7443Z" fill="white"/>
</svg>
