<svg width="24" height="24" viewBox="0 0 24 24" fill="none" xmlns="http://www.w3.org/2000/svg">
<circle cx="12" cy="12" r="12" fill="black" fill-opacity="0.02"/>
<rect x="6" y="6" width="10.1998" height="12.0541" fill="black" fill-opacity="0.25"/>
<path d="M12.8246 8.75826H7.81737C7.54197 8.75826 7.31665 8.53294 7.31665 8.25755C7.31665 7.98216 7.54197 7.75684 7.81737 7.75684H12.8246C13.1 7.75684 13.3253 7.98216 13.3253 8.25755C13.3253 8.53294 13.1 8.75826 12.8246 8.75826ZM11.1555 10.928H7.81737C7.54197 10.928 7.31665 10.7027 7.31665 10.4273C7.31665 10.1519 7.54197 9.92658 7.81737 9.92658H11.1555C11.4309 9.92658 11.6562 10.1519 11.6562 10.4273C11.6562 10.7027 11.4309 10.928 11.1555 10.928ZM10.1541 13.0977H7.81737C7.54197 13.0977 7.31665 12.8724 7.31665 12.597C7.31665 12.3216 7.54197 12.0963 7.81737 12.0963H10.1541C10.4295 12.0963 10.6548 12.3216 10.6548 12.597C10.6548 12.8724 10.4295 13.0977 10.1541 13.0977Z" fill="white"/>
<path d="M12.248 15.5698C12.248 16.6916 12.8465 17.7281 13.818 18.289C14.7909 18.8499 15.9854 18.8499 16.9583 18.289C17.9296 17.7283 18.528 16.6916 18.528 15.5698C18.528 14.4479 17.9296 13.4113 16.9581 12.8504C15.9852 12.2895 14.7907 12.2895 13.8178 12.8504C12.8463 13.4115 12.2479 14.4481 12.248 15.5698Z" fill="#F2F2F2"/>
<path d="M13.9819 15.4932H16.9277" stroke="white" stroke-width="0.8" stroke-linecap="round"/>
</svg>
