<svg width="24" height="24" viewBox="0 0 24 24" fill="none" xmlns="http://www.w3.org/2000/svg">
<rect opacity="0.01" width="24" height="24" fill="black"/>
<path fill-rule="evenodd" clip-rule="evenodd" d="M12 1.5C6.20156 1.5 1.5 6.20156 1.5 12C1.5 17.7984 6.20156 22.5 12 22.5C17.7984 22.5 22.5 17.7984 22.5 12C22.5 6.20156 17.7984 1.5 12 1.5ZM11.25 6.9375C11.25 6.83438 11.3344 6.75 11.4375 6.75H12.5625C12.6656 6.75 12.75 6.83438 12.75 6.9375V13.3125C12.75 13.4156 12.6656 13.5 12.5625 13.5H11.4375C11.3344 13.5 11.25 13.4156 11.25 13.3125V6.9375ZM12 17.25C11.3789 17.25 10.875 16.7461 10.875 16.125C10.875 15.5039 11.3789 15 12 15C12.6211 15 13.125 15.5039 13.125 16.125C13.125 16.7461 12.6211 17.25 12 17.25Z" fill="#F7A54B"/>
</svg>
