<svg width="14" height="16" viewBox="0 0 14 16" fill="none" xmlns="http://www.w3.org/2000/svg">
<path d="M13.4167 3.83407V15.4074C13.4167 15.7347 13.1555 16 12.8333 16H1.16668C0.844511 16 0.583344 15.7347 0.583344 15.4074V0.592593C0.583344 0.265313 0.844511 0 1.16668 0H9.64251L13.4167 3.83407Z" fill="#6282E2"/>
<path d="M9.625 3.25651V0L13.4167 3.85185H10.211C9.88738 3.85185 9.625 3.58531 9.625 3.25651Z" fill="#B2C5FF"/>
<path d="M3.45379 10.0619H3.06298C3.0222 10.0621 2.98322 10.045 2.95551 10.0148C2.9278 9.9846 2.91389 9.94409 2.91715 9.90309V6.96182C2.91715 6.8806 2.98244 6.81475 3.06298 6.81475H3.9146C4.7876 6.80299 5.22411 7.13731 5.22411 7.81773C5.20077 8.45304 4.82843 8.78835 4.10709 8.82365H3.59962V9.90309C3.60288 9.94409 3.58897 9.9846 3.56126 10.0148C3.53355 10.045 3.49457 10.0621 3.45379 10.0619ZM3.59962 7.34712V8.2648C3.63461 8.2648 3.70461 8.27069 3.8096 8.28245C4.27333 8.32951 4.50081 8.17068 4.48915 7.80596C4.48915 7.48831 4.26458 7.33536 3.8096 7.34712C3.74047 7.36281 3.66875 7.36281 3.59962 7.34712ZM5.70825 9.90309V6.96182C5.70825 6.8806 5.77353 6.81475 5.85407 6.81475H6.80777C7.88104 6.81475 8.42059 7.3736 8.43517 8.45304C8.44975 9.53249 7.88104 10.0737 6.80777 10.0737H5.85407C5.81099 10.0742 5.76987 10.0556 5.74174 10.0227C5.71361 9.98975 5.70135 9.94598 5.70825 9.90309ZM6.38779 7.33536V9.50602H6.75527C7.3969 9.52955 7.71188 9.17072 7.70021 8.42951C7.68855 7.68831 7.37357 7.32359 6.75527 7.33536H6.38779ZM9.54052 10.0619H9.14971C9.06918 10.0619 9.00389 9.99608 9.00389 9.91486V6.96182C9.00389 6.8806 9.06918 6.81475 9.14971 6.81475H10.9375C11.0181 6.81475 11.0834 6.8806 11.0834 6.96182V7.21183C11.0834 7.29305 11.0181 7.35889 10.9375 7.35889H9.68635V8.13833H10.8529C10.9335 8.13833 10.9988 8.20417 10.9988 8.28539V8.53834C10.9988 8.61956 10.9335 8.68541 10.8529 8.68541H9.68635V9.90309C9.68961 9.94409 9.6757 9.9846 9.64799 10.0148C9.62028 10.045 9.58131 10.0621 9.54052 10.0619Z" fill="white"/>
</svg>
