<svg width="12" height="13" viewBox="0 0 12 13" fill="none" xmlns="http://www.w3.org/2000/svg">
<path d="M12 3.9V12.3454C12.0006 12.4308 11.984 12.5155 11.951 12.5945C11.9181 12.6736 11.8695 12.7456 11.808 12.8064C11.7466 12.8672 11.6734 12.9156 11.5928 12.9488C11.5121 12.982 11.4255 12.9994 11.338 13H0.661999C0.486541 13 0.31826 12.9321 0.194131 12.8112C0.0700009 12.6903 0.000176694 12.5263 0 12.3552V0.6448C0 0.29575 0.299333 0 0.667999 0H7.99799L12 3.9ZM10.6667 4.55H7.33332V1.3H1.33333V11.7H10.6667V4.55ZM3.33333 3.25H5.33333V4.55H3.33333V3.25ZM3.33333 5.85H8.66665V7.15H3.33333V5.85ZM3.33333 8.45H8.66665V9.75H3.33333V8.45Z" fill="#3E78D0"/>
</svg>
