<svg xmlns="http://www.w3.org/2000/svg" viewBox="0 0 22 22"><path d="M11.354 8.647a.499.499 0 0 0-.708 0l-2 2a.5.5 0 1 0 .708.706l1.146-1.146V13a.5.5 0 1 0 1 0v-2.793l1.146 1.146a.5.5 0 1 0 .707-.707l-1.999-1.999ZM17.5 12H17v-2h.5a.5.5 0 1 0 0-1H17v-.5C17 6.57 15.43 5 13.5 5H13v-.5a.5.5 0 1 0-1 0V5h-2v-.5a.5.5 0 0 0-1 0V5h-.5C6.57 5 5 6.57 5 8.5V9h-.5a.5.5 0 0 0 0 1H5v2h-.5a.5.5 0 1 0 0 1H5v.5C5 15.43 6.57 17 8.5 17H9v.5a.5.5 0 1 0 1 0V17h2v.5a.5.5 0 1 0 1 0V17h.5c1.93 0 3.5-1.57 3.5-3.5V13h.5a.5.5 0 1 0 0-1ZM16 13.5c0 1.379-1.121 2.5-2.5 2.5h-5A2.503 2.503 0 0 1 6 13.5v-5C6 7.122 7.122 6 8.5 6h5C14.879 6 16 7.122 16 8.5v5Z" fill-rule="nonzero" fill="#000" data-follow-fill="#000"/></svg>