<svg xmlns="http://www.w3.org/2000/svg" viewBox="0 0 18 18"><path d="M15.796 5.15a.657.657 0 0 1 .064.88 9.468 9.468 0 0 1-1.654 1.622l1.263 1.355a.658.658 0 0 1-.014.883.554.554 0 0 1-.809 0l-1.461-1.566a8.59 8.59 0 0 1-2.107.85l.675 1.987c.11.325-.046.683-.348.801s-.636-.049-.746-.373l-.746-2.201a8.536 8.536 0 0 1-1.836.007L7.33 11.59c-.11.324-.443.491-.746.373-.302-.118-.458-.476-.348-.8l.671-1.971a8.647 8.647 0 0 1-2.127-.841L3.344 9.89a.554.554 0 0 1-.823-.015.658.658 0 0 1 0-.868l1.235-1.324a9.376 9.376 0 0 1-1.619-1.559.657.657 0 0 1 .07-.88.554.554 0 0 1 .804.056c1.501 1.84 3.67 2.894 5.95 2.891 2.343 0 4.52-1.099 6.014-2.972a.555.555 0 0 1 .821-.07Z" fill-rule="nonzero" fill="#C0C4CC" data-follow-fill="#C0C4CC"/></svg>