<svg width="18" height="18" viewBox="0 0 18 18" fill="none" xmlns="http://www.w3.org/2000/svg">
<rect opacity="0.01" width="18" height="18" fill="black" fill-opacity="0.65"/>
<path fill-rule="evenodd" clip-rule="evenodd" d="M5.40009 0H12.6C13.9896 0 15.12 1.13043 15.12 2.51996V15.4798C15.12 16.8693 13.9896 17.9998 12.6 17.9998H5.40009C4.01056 17.9998 2.88013 16.8693 2.88013 15.4798V2.51996C2.88013 1.13043 4.01056 0 5.40009 0ZM12.6 16.5598C13.1955 16.5598 13.68 16.0754 13.68 15.4798V2.51996C13.68 1.92444 13.1956 1.43998 12.6 1.43998H5.40009C4.80458 1.43998 4.32013 1.92444 4.32013 2.51996V15.4798C4.32013 16.0753 4.80456 16.5598 5.40009 16.5598H12.6Z" fill="black" fill-opacity="0.65"/>
<path d="M6.66003 2.33984H11.34V3.77983H6.66003V2.33984Z" fill="black" fill-opacity="0.65"/>
<path d="M8.09998 14.7598C8.09998 15.0814 8.27151 15.3785 8.54997 15.5393C8.82842 15.7 9.17149 15.7 9.44995 15.5393C9.7284 15.3785 9.89994 15.0814 9.89994 14.7598C9.89994 14.2628 9.497 13.8599 8.99996 13.8599C8.50291 13.8599 8.09998 14.2628 8.09998 14.7598H8.09998Z" fill="black" fill-opacity="0.65"/>
</svg>
