<svg width="16" height="18" viewBox="0 0 16 18" fill="none" xmlns="http://www.w3.org/2000/svg">
<path fill-rule="evenodd" clip-rule="evenodd" d="M8.00062 0.000598244C5.40187 0.000608129 3.29507 2.01502 3.29471 4.50014V6.30009H11.2934H2.82368C1.26421 6.30009 0 7.50902 0 9.00031V15.2998C0 16.7908 1.2638 17.9997 2.82302 18H13.1763C14.7355 18 15.9996 16.7915 16 15.3004V9.00031C16 7.50902 14.7358 6.30009 13.1763 6.30009H11.2934H12.7065V4.50076C12.7065 2.01539 10.5996 0.000598244 8.00062 0.000598244ZM11.2934 7.6502H13.1763C13.956 7.6502 14.5882 8.25471 14.5882 9.00031V15.3004C14.5882 16.0461 13.9561 16.6505 13.1763 16.6505H2.82368C2.04395 16.6505 1.41183 16.0461 1.41182 15.3004V9.00031C1.41182 8.25473 2.044 7.6502 2.82368 7.6502H11.2934ZM11.2934 6.30009V4.50015C11.2934 2.76076 9.81891 1.35009 7.99999 1.35009C6.18109 1.35011 4.70722 2.76079 4.70721 4.50016V6.30009H11.2934ZM7.29535 13.5011C7.29535 13.8736 7.61111 14.1755 8.00062 14.1755C8.39013 14.1755 8.70588 13.873 8.70588 13.5005V10.8003C8.70588 10.4278 8.39013 10.1258 8.00062 10.1258C7.61111 10.1258 7.29535 10.4278 7.29535 10.8003L7.29535 13.5011Z" fill="black" fill-opacity="0.65"/>
</svg>
