<svg width="24" height="24" viewBox="0 0 24 24" fill="none" xmlns="http://www.w3.org/2000/svg">
<circle opacity="0.1" cx="12" cy="12" r="12" fill="#3ED096"/>
<path d="M12.6821 8.4233H9.34398C9.06859 8.4233 8.84326 8.19798 8.84326 7.92259C8.84326 7.64719 9.06859 7.42188 9.34398 7.42188H12.6821C12.9575 7.42188 13.1828 7.64719 13.1828 7.92259C13.1828 8.19798 12.9575 8.4233 12.6821 8.4233ZM14.0174 10.593H9.34398C9.06859 10.593 8.84326 10.3677 8.84326 10.0923C8.84326 9.81694 9.06859 9.59162 9.34398 9.59162H14.0174C14.2928 9.59162 14.5181 9.81694 14.5181 10.0923C14.5181 10.3677 14.2928 10.593 14.0174 10.593Z" fill="white"/>
<rect x="6" y="6" width="10.1998" height="12.0541" fill="#3ED096"/>
<path d="M12.8246 8.75826H7.81737C7.54197 8.75826 7.31665 8.53294 7.31665 8.25755C7.31665 7.98216 7.54197 7.75684 7.81737 7.75684H12.8246C13.1 7.75684 13.3253 7.98216 13.3253 8.25755C13.3253 8.53294 13.1 8.75826 12.8246 8.75826ZM11.1555 10.928H7.81737C7.54197 10.928 7.31665 10.7027 7.31665 10.4273C7.31665 10.1519 7.54197 9.92658 7.81737 9.92658H11.1555C11.4309 9.92658 11.6562 10.1519 11.6562 10.4273C11.6562 10.7027 11.4309 10.928 11.1555 10.928ZM10.1541 13.0977H7.81737C7.54197 13.0977 7.31665 12.8724 7.31665 12.597C7.31665 12.3216 7.54197 12.0963 7.81737 12.0963H10.1541C10.4295 12.0963 10.6548 12.3216 10.6548 12.597C10.6548 12.8724 10.4295 13.0977 10.1541 13.0977Z" fill="white"/>
<path d="M12.7207 15.0752C12.7207 16.1874 13.3191 17.215 14.2905 17.7712C15.2632 18.3273 16.4576 18.3273 17.4303 17.7712C18.4015 17.2152 18.9999 16.1874 18.9999 15.0752C18.9999 13.9629 18.4015 12.9351 17.4301 12.379C16.4574 11.8229 15.263 11.8229 14.2903 12.379C13.3189 12.9353 12.7205 13.9631 12.7207 15.0752Z" fill="#9DECC5"/>
<path d="M17.64 13.7903C17.4759 13.6272 17.211 13.6272 17.0469 13.7903L15.3665 15.4705L14.6745 14.7787C14.5105 14.6156 14.2456 14.6156 14.0815 14.7787C13.9185 14.9427 13.9185 15.2076 14.0815 15.3717L15.0699 16.3601C15.234 16.5231 15.4989 16.5231 15.663 16.3601L17.6398 14.3833C17.803 14.2193 17.8031 13.9543 17.64 13.7903Z" fill="white"/>
</svg>
