<svg width="22" height="22" viewBox="0 0 22 22" fill="none" xmlns="http://www.w3.org/2000/svg">
<path d="M17.432 12.33H15.696C15.6997 12.2951 15.6997 12.2599 15.696 12.225C15.6123 11.8045 15.42 11.4131 15.1383 11.0898C14.8565 10.7665 14.4952 10.5225 14.09 10.382C14.0396 10.3673 13.9875 10.3596 13.935 10.359H11.559V9.67203H12.605C12.7044 9.67215 12.8021 9.64628 12.8884 9.59699C12.9747 9.5477 13.0466 9.4767 13.097 9.39103L14.715 6.61603C14.7652 6.53071 14.7917 6.43352 14.7917 6.33453C14.7917 6.23554 14.7652 6.13834 14.715 6.05303L13.097 3.28203C13.0474 3.19563 12.9756 3.12398 12.8892 3.07442C12.8027 3.02487 12.7047 2.99919 12.605 3.00003H9.37702C9.2772 2.99902 9.17892 3.02461 9.09227 3.07417C9.00562 3.12373 8.93374 3.19548 8.88402 3.28203L7.26602 6.05203C7.21562 6.13746 7.18903 6.23484 7.18903 6.33403C7.18903 6.43322 7.21562 6.5306 7.26602 6.61603L8.88402 9.39003C8.93449 9.47584 9.00657 9.54694 9.09306 9.59624C9.17956 9.64554 9.27746 9.67132 9.37702 9.67103H10.422V10.358H7.96002C6.67902 10.438 6.33002 12.059 6.29602 12.236C6.29416 12.2647 6.29416 12.2934 6.29602 12.322H4.57002C4.49569 12.3216 4.42201 12.3359 4.35319 12.364C4.28437 12.392 4.22175 12.4334 4.16891 12.4857C4.11608 12.538 4.07405 12.6001 4.04525 12.6687C4.01644 12.7372 4.00141 12.8107 4.00102 12.885V17.417C3.99861 17.4926 4.01155 17.5679 4.03905 17.6384C4.06655 17.7089 4.10804 17.773 4.16102 17.827C4.26802 17.937 4.41602 17.999 4.57002 17.999H9.13502C9.28496 17.9996 9.42898 17.9406 9.53547 17.835C9.64196 17.7295 9.70222 17.586 9.70302 17.436V12.893C9.70275 12.8187 9.68785 12.7452 9.65917 12.6766C9.63048 12.608 9.58857 12.5458 9.53582 12.4934C9.48308 12.441 9.42054 12.3995 9.35177 12.3713C9.283 12.3431 9.20934 12.3288 9.13502 12.329H7.44102C7.53102 11.992 7.75502 11.499 7.99002 11.485H13.817C14.166 11.653 14.426 11.96 14.533 12.329H12.847C12.7727 12.3288 12.699 12.3431 12.6303 12.3713C12.5615 12.3995 12.499 12.441 12.4462 12.4934C12.3935 12.5458 12.3516 12.608 12.3229 12.6766C12.2942 12.7452 12.2793 12.8187 12.279 12.893V17.417C12.2766 17.4926 12.2895 17.5679 12.317 17.6384C12.3445 17.7089 12.386 17.773 12.439 17.827C12.546 17.937 12.693 17.999 12.847 17.999H17.432C17.582 17.9996 17.726 17.9406 17.8325 17.835C17.939 17.7295 17.9992 17.586 18 17.436V12.893C17.9998 12.8187 17.9849 12.7452 17.9562 12.6766C17.9275 12.608 17.8856 12.5458 17.8328 12.4934C17.7801 12.441 17.7175 12.3995 17.6488 12.3713C17.58 12.3431 17.5063 12.3288 17.432 12.329V12.33ZM8.43301 6.32303L9.72101 4.11503H12.298L13.586 6.32303L12.298 8.53403H9.70201L8.43301 6.32303ZM8.58502 16.836H5.17502V13.456H8.56501L8.58502 16.836ZM16.863 16.836H13.416V13.456H16.844L16.864 16.836H16.863ZM10.991 4.90403C10.405 4.90403 9.87702 5.25403 9.65302 5.79003C9.42902 6.32603 9.55302 6.94403 9.96902 7.35303C10.383 7.76303 11.006 7.88503 11.547 7.66203C12.087 7.43903 12.44 6.91503 12.438 6.33403C12.4354 5.95264 12.2815 5.58787 12.0102 5.31978C11.739 5.05169 11.3724 4.90217 10.991 4.90403ZM10.991 6.64203C10.9087 6.64223 10.8296 6.60988 10.771 6.55203C10.7267 6.50923 10.6963 6.45405 10.6839 6.39372C10.6715 6.33338 10.6775 6.2707 10.7013 6.21387C10.7251 6.15703 10.7654 6.1087 10.8171 6.07518C10.8688 6.04167 10.9294 6.02454 10.991 6.02603C11.0729 6.02603 11.1514 6.05841 11.2095 6.11612C11.2676 6.17382 11.3005 6.25216 11.301 6.33403C11.3005 6.4159 11.2676 6.49424 11.2095 6.55194C11.1514 6.60964 11.0729 6.64203 10.991 6.64203Z" fill="black"/>
</svg>
