<svg xmlns="http://www.w3.org/2000/svg" viewBox="0 0 22 22"><path d="m17.809 13.058-1.797-1.787a.66.66 0 0 0-.467-.192h-2.932a.734.734 0 0 0-.738.73v5.461c0 .403.33.73.738.73h4.649a.734.734 0 0 0 .738-.73v-3.753a.647.647 0 0 0-.191-.459Zm-.684 4.074H12.75v-5.184h2.706l1.669 1.66v3.524Zm-3.668-3.447h1.256a.435.435 0 0 0 .438-.434.435.435 0 0 0-.438-.434h-1.256a.435.435 0 0 0-.438.434c0 .24.196.434.438.434Zm-.438.869c0 .24.196.434.438.434h2.829a.435.435 0 0 0 .437-.434.435.435 0 0 0-.437-.435h-2.83a.435.435 0 0 0-.437.435Zm3.267.868h-2.83a.435.435 0 0 0-.437.434c0 .24.196.434.438.434h2.829a.435.435 0 0 0 .437-.434.436.436 0 0 0-.437-.434Zm-5.669-1.737h-.93v-.868h.888a.435.435 0 0 0 .437-.434.435.435 0 0 0-.437-.435H5.378a.502.502 0 0 1-.503-.499V6.368c0-.276.226-.5.503-.5h7.745c.278 0 .503.224.503.5V9.81c0 .24.196.435.438.435a.435.435 0 0 0 .437-.435V6.368c0-.755-.618-1.368-1.378-1.368H5.378A1.376 1.376 0 0 0 4 6.368v5.081c0 .755.618 1.368 1.378 1.368h3.434v.868h-1.75a.435.435 0 0 0-.437.434c0 .24.196.435.438.435h3.554a.435.435 0 0 0 .438-.435.435.435 0 0 0-.438-.434Z" fill-rule="nonzero" fill="#303133" data-follow-fill="#303133"/></svg>