<svg width="16" height="12" viewBox="0 0 16 12" fill="none" xmlns="http://www.w3.org/2000/svg">
<path d="M8.00001 0C11.5947 0 14.5853 2.58667 15.2127 6C14.586 9.41333 11.5947 12 8.00001 12C4.40534 12 1.41467 9.41333 0.787338 6C1.414 2.58667 4.40534 0 8.00001 0ZM8.00001 10.6667C9.35965 10.6664 10.6789 10.2045 11.7419 9.35678C12.8049 8.50901 13.5486 7.32552 13.8513 6C13.5475 4.67554 12.8033 3.49334 11.7404 2.64668C10.6775 1.80003 9.35887 1.33902 8.00001 1.33902C6.64114 1.33902 5.32246 1.80003 4.25959 2.64668C3.19671 3.49334 2.45252 4.67554 2.14867 6C2.4514 7.32552 3.19512 8.50901 4.2581 9.35678C5.32108 10.2045 6.64036 10.6664 8.00001 10.6667ZM8.00001 9C7.20436 9 6.44129 8.68393 5.87868 8.12132C5.31608 7.55871 5.00001 6.79565 5.00001 6C5.00001 5.20435 5.31608 4.44129 5.87868 3.87868C6.44129 3.31607 7.20436 3 8.00001 3C8.79566 3 9.55872 3.31607 10.1213 3.87868C10.6839 4.44129 11 5.20435 11 6C11 6.79565 10.6839 7.55871 10.1213 8.12132C9.55872 8.68393 8.79566 9 8.00001 9ZM8.00001 7.66667C8.44203 7.66667 8.86596 7.49107 9.17852 7.17851C9.49108 6.86595 9.66667 6.44203 9.66667 6C9.66667 5.55797 9.49108 5.13405 9.17852 4.82149C8.86596 4.50893 8.44203 4.33333 8.00001 4.33333C7.55798 4.33333 7.13405 4.50893 6.82149 4.82149C6.50893 5.13405 6.33334 5.55797 6.33334 6C6.33334 6.44203 6.50893 6.86595 6.82149 7.17851C7.13405 7.49107 7.55798 7.66667 8.00001 7.66667Z" fill="white"/>
</svg>
