<svg xmlns="http://www.w3.org/2000/svg" viewBox="0 0 22 22"><g fill-rule="evenodd" fill="none"><path d="M0 0h22v22H0z"/><path fill-rule="nonzero" fill="#303133" d="M7.818 8.333V11c0 .2.127.333.318.333s.319-.133.319-.333V8.333c0-.2-.128-.333-.319-.333-.19 0-.318.133-.318.333ZM6.545 9v2c0 .2.128.333.319.333.19 0 .318-.133.318-.333V9c0-.2-.127-.333-.318-.333S6.545 8.8 6.545 9Zm2.546-1.333V11c0 .2.127.333.318.333s.318-.133.318-.333V7.667c0-.2-.127-.334-.318-.334-.19 0-.318.134-.318.334Zm2.164 4.603H5.647c-.381 0-.636-.267-.636-.667V5.705c0-.4.255-.667.636-.667h9.372c.382 0 .636.267.636.667v1.028c.446.067.69.267 1.072.467V4.667c0-.4-.254-.667-.636-.667H4.636C4.255 4 4 4.267 4 4.667v8c0 .4.255.666.636.666h7.382c-.382-.4-.636-.596-.763-1.063Zm2.927 2.397H6.545c-.381 0-.636.266-.636.666s.255.667.636.667h7.637c.382 0 .636-.267.636-.667s-.254-.666-.636-.666Z" data-follow-fill="#303133"/><path fill-rule="nonzero" fill="#303133" d="M17.231 10.4c.387 0 .714.334.714.729v1.487a.731.731 0 0 1-.714.729h-4.518a.731.731 0 0 1-.713-.729V11.13c0-.395.327-.729.713-.729h4.518Zm-.178.91h-4.161v1.124h4.161V11.31Z" data-follow-fill="#303133"/><path fill-rule="nonzero" fill="#303133" d="M16.934 11.31h-3.923l.832-2.428a.572.572 0 0 1 .535-.394h1.13c.237 0 .475.151.534.394l.892 2.429Zm-2.645-.91h1.397l-.357-1.002h-.713l-.327 1.002Z" data-follow-fill="#303133"/><path fill-rule="nonzero" fill="#303133" d="M15.448 9.368h-.951c-.654 0-1.16-.547-1.16-1.184 0-.638.536-1.184 1.16-1.184h.951c.654 0 1.16.546 1.16 1.184 0 .637-.506 1.184-1.16 1.184Zm-.951-1.457a.27.27 0 0 0-.268.273.27.27 0 0 0 .268.273h.951a.27.27 0 0 0 .267-.273.27.27 0 0 0-.267-.273h-.951Z" data-follow-fill="#303133"/></g></svg>