<svg width="16" height="16" viewBox="0 0 16 16" fill="none" xmlns="http://www.w3.org/2000/svg">
<path fill-rule="evenodd" clip-rule="evenodd" d="M12.8 8C12.8 10.651 10.651 12.8 8 12.8C5.34903 12.8 3.2 10.651 3.2 8C3.2 5.34903 5.34903 3.2 8 3.2C10.651 3.2 12.8 5.34903 12.8 8ZM14 8C14 11.3137 11.3137 14 8 14C4.68629 14 2 11.3137 2 8C2 4.68629 4.68629 2 8 2C11.3137 2 14 4.68629 14 8ZM8.99225 6.635L8 4.625L7.00775 6.63425L4.79 6.95675L6.395 8.52125L6.01625 10.73L8 9.6875L9.98375 10.7308L9.605 8.52125L11.21 6.9575L8.99225 6.635Z" fill="#3E78D0"/>
</svg>
