<svg xmlns="http://www.w3.org/2000/svg" viewBox="0 0 22 22"><path d="M5 15.5v-10a.5.5 0 0 1 .5-.5h8a.5.5 0 0 1 .5.5v2h1V5a1 1 0 0 0-1-1H5a1 1 0 0 0-1 1v11a1 1 0 0 0 1 1h6v-1H5.5a.5.5 0 0 1-.5-.5Zm7.519-4.75a2.5 2.5 0 0 0 1.981 2.7v1.05H13a.5.5 0 1 0 0 1h4a.5.5 0 0 0 0-1h-1.5v-1.05A2.5 2.5 0 0 0 15 8.5a2.5 2.5 0 0 0-2.481 2.25ZM16.5 11a1.5 1.5 0 1 1-3 0 1.5 1.5 0 0 1 3 0Zm-10 0a.5.5 0 0 0 0 1h2a.5.5 0 0 0 0-1h-2ZM10 9.5a.5.5 0 0 0-.5-.5h-3a.5.5 0 0 0 0 1h3a.5.5 0 0 0 .5-.5Zm7.5 6.5h-5a.5.5 0 0 0 0 1h5a.5.5 0 0 0 0-1Zm-6-9h-5a.5.5 0 1 0 0 1h5a.5.5 0 0 0 0-1Z" fill-rule="nonzero" fill="#303133" data-follow-fill="#303133"/></svg>