<svg width="16" height="16" viewBox="0 0 16 16" fill="none" xmlns="http://www.w3.org/2000/svg">
<path d="M8 13.9339L11.3 10.6339C11.9526 9.98127 12.397 9.14975 12.577 8.24452C12.7571 7.33928 12.6646 6.401 12.3114 5.5483C11.9582 4.69561 11.36 3.9668 10.5926 3.45404C9.82519 2.94129 8.92296 2.6676 8 2.6676C7.07704 2.6676 6.17481 2.94129 5.40739 3.45404C4.63997 3.9668 4.04183 4.69561 3.68861 5.5483C3.33539 6.401 3.24294 7.33928 3.42297 8.24452C3.603 9.14975 4.04741 9.98127 4.7 10.6339L8 13.9339ZM8 15.8193L3.75734 11.5766C2.91823 10.7375 2.34679 9.66838 2.11529 8.5045C1.88378 7.34061 2.0026 6.13422 2.45673 5.03787C2.91086 3.94151 3.6799 3.00445 4.66659 2.34516C5.65328 1.68588 6.81332 1.33398 8 1.33398C9.18669 1.33398 10.3467 1.68588 11.3334 2.34516C12.3201 3.00445 13.0891 3.94151 13.5433 5.03787C13.9974 6.13422 14.1162 7.34061 13.8847 8.5045C13.6532 9.66838 13.0818 10.7375 12.2427 11.5766L8 15.8193ZM8 8.66727C8.35362 8.66727 8.69276 8.52679 8.94281 8.27674C9.19286 8.02669 9.33334 7.68755 9.33334 7.33393C9.33334 6.98031 9.19286 6.64117 8.94281 6.39112C8.69276 6.14108 8.35362 6.0006 8 6.0006C7.64638 6.0006 7.30724 6.14108 7.05719 6.39112C6.80715 6.64117 6.66667 6.98031 6.66667 7.33393C6.66667 7.68755 6.80715 8.02669 7.05719 8.27674C7.30724 8.52679 7.64638 8.66727 8 8.66727ZM8 10.0006C7.29276 10.0006 6.61448 9.71965 6.11438 9.21955C5.61429 8.71945 5.33334 8.04118 5.33334 7.33393C5.33334 6.62669 5.61429 5.94841 6.11438 5.44831C6.61448 4.94822 7.29276 4.66727 8 4.66727C8.70725 4.66727 9.38552 4.94822 9.88562 5.44831C10.3857 5.94841 10.6667 6.62669 10.6667 7.33393C10.6667 8.04118 10.3857 8.71945 9.88562 9.21955C9.38552 9.71965 8.70725 10.0006 8 10.0006Z" fill="#3E78D0"/>
</svg>
