<svg width="27" height="25" viewBox="0 0 27 25" fill="none" xmlns="http://www.w3.org/2000/svg">
<g filter="url(#filter0_d_1472_11932)">
<path d="M20.9762 16.803H15.6994C15.4693 16.803 15.2836 16.6211 15.2836 16.3957V15.1403C15.2836 14.9738 15.3908 14.8277 15.5504 14.7662C17.5795 13.9643 19.0151 12.0249 19.0229 9.75243C19.0308 6.83432 16.5414 4.35174 13.5657 4.30819C10.4696 4.26464 7.94626 6.71134 7.94626 9.73449C7.94626 11.9865 9.34784 13.9105 11.3404 14.7329C11.4973 14.797 11.6019 14.9405 11.6019 15.107V16.3957C11.6019 16.6211 11.4162 16.803 11.1861 16.803H5.90665C4.98097 16.803 4.23312 17.5383 4.23312 18.4427V20.0055C4.23312 20.231 4.41877 20.4129 4.64888 20.4129H22.234C22.4641 20.4129 22.6498 20.231 22.6498 20.0055V18.4427C22.6524 17.5358 21.9019 16.803 20.9762 16.803Z" fill="#68718B"/>
</g>
<defs>
<filter id="filter0_d_1472_11932" x="0.233116" y="0.307617" width="26.4167" height="24.1055" filterUnits="userSpaceOnUse" color-interpolation-filters="sRGB">
<feFlood flood-opacity="0" result="BackgroundImageFix"/>
<feColorMatrix in="SourceAlpha" type="matrix" values="0 0 0 0 0 0 0 0 0 0 0 0 0 0 0 0 0 0 127 0" result="hardAlpha"/>
<feOffset/>
<feGaussianBlur stdDeviation="2"/>
<feColorMatrix type="matrix" values="0 0 0 0 0 0 0 0 0 0 0 0 0 0 0 0 0 0 0.0957987 0"/>
<feBlend mode="normal" in2="BackgroundImageFix" result="effect1_dropShadow_1472_11932"/>
<feBlend mode="normal" in="SourceGraphic" in2="effect1_dropShadow_1472_11932" result="shape"/>
</filter>
</defs>
</svg>
