<svg width="20" height="17" viewBox="0 0 20 17" fill="none" xmlns="http://www.w3.org/2000/svg">
<path d="M17.9762 12.803H12.6994C12.4693 12.803 12.2836 12.6211 12.2836 12.3957V11.1403C12.2836 10.9738 12.3908 10.8277 12.5503 10.7662C14.5795 9.96434 16.0151 8.02492 16.0229 5.75243C16.0308 2.83432 13.5414 0.351744 10.5656 0.30819C7.4696 0.264636 4.94624 2.71134 4.94624 5.73449C4.94624 7.98649 6.34782 9.91054 8.34036 10.7329C8.49725 10.797 8.60185 10.9405 8.60185 11.107V12.3957C8.60185 12.6211 8.41619 12.803 8.18608 12.803H2.90662C1.98095 12.803 1.23309 13.5383 1.23309 14.4427V16.0055C1.23309 16.231 1.41875 16.4129 1.64886 16.4129H19.234C19.4641 16.4129 19.6498 16.231 19.6498 16.0055V14.4427C19.6524 13.5358 18.9019 12.803 17.9762 12.803Z" fill="#D96C5B" stroke="#FAFAFA" stroke-width="0.6" stroke-linecap="round" stroke-linejoin="round" stroke-dasharray="1.5"/>
</svg>
