<svg width="19" height="17" viewBox="0 0 19 17" fill="none" xmlns="http://www.w3.org/2000/svg">
<g filter="url(#filter0_i_1472_11404)">
<path d="M16.9762 12.803H11.6994C11.4693 12.803 11.2836 12.6211 11.2836 12.3957V11.1403C11.2836 10.9738 11.3908 10.8277 11.5504 10.7662C13.5795 9.96434 15.0151 8.02492 15.0229 5.75243C15.0308 2.83432 12.5414 0.351744 9.56565 0.30819C6.46963 0.264636 3.94626 2.71134 3.94626 5.73449C3.94626 7.98649 5.34784 9.91054 7.34038 10.7329C7.49728 10.797 7.60187 10.9405 7.60187 11.107V12.3957C7.60187 12.6211 7.41622 12.803 7.18611 12.803H1.90665C0.980974 12.803 0.233116 13.5383 0.233116 14.4427V16.0055C0.233116 16.231 0.418773 16.4129 0.648883 16.4129H18.234C18.4641 16.4129 18.6498 16.231 18.6498 16.0055V14.4427C18.6524 13.5358 17.9019 12.803 16.9762 12.803Z" fill="white"/>
</g>
<defs>
<filter id="filter0_i_1472_11404" x="-0.766884" y="0.307617" width="19.4167" height="17.1055" filterUnits="userSpaceOnUse" color-interpolation-filters="sRGB">
<feFlood flood-opacity="0" result="BackgroundImageFix"/>
<feBlend mode="normal" in="SourceGraphic" in2="BackgroundImageFix" result="shape"/>
<feColorMatrix in="SourceAlpha" type="matrix" values="0 0 0 0 0 0 0 0 0 0 0 0 0 0 0 0 0 0 127 0" result="hardAlpha"/>
<feOffset dx="-1" dy="1"/>
<feGaussianBlur stdDeviation="1"/>
<feComposite in2="hardAlpha" operator="arithmetic" k2="-1" k3="1"/>
<feColorMatrix type="matrix" values="0 0 0 0 0 0 0 0 0 0 0 0 0 0 0 0 0 0 0.0957987 0"/>
<feBlend mode="normal" in2="shape" result="effect1_innerShadow_1472_11404"/>
</filter>
</defs>
</svg>
