<svg width="16" height="16" viewBox="0 0 16 16" fill="none" xmlns="http://www.w3.org/2000/svg">
<path d="M14 5.9V14.3454C14.0006 14.4308 13.984 14.5155 13.951 14.5945C13.9181 14.6736 13.8695 14.7456 13.808 14.8064C13.7466 14.8672 13.6734 14.9156 13.5928 14.9488C13.5121 14.982 13.4255 14.9994 13.338 15H2.662C2.48654 15 2.31826 14.9321 2.19413 14.8112C2.07 14.6903 2.00018 14.5263 2 14.3552V2.6448C2 2.29575 2.29933 2 2.668 2H9.99799L14 5.9ZM12.6667 6.55H9.33332V3.3H3.33333V13.7H12.6667V6.55ZM5.33333 5.25H7.33333V6.55H5.33333V5.25ZM5.33333 7.85H10.6667V9.15H5.33333V7.85ZM5.33333 10.45H10.6667V11.75H5.33333V10.45Z" fill="black" fill-opacity="0.25"/>
</svg>
