<svg width="342" height="245" viewBox="0 0 342 245" fill="none" xmlns="http://www.w3.org/2000/svg">
<path fill-rule="evenodd" clip-rule="evenodd" d="M0 210.185C0 256.605 342 256.605 342 210.185C342 163.765 265.431 126.125 170.99 126.125C76.5687 126.125 0 163.765 0 210.185Z" fill="url(#paint0_linear_3923_83743)"/>
<path d="M43.698 160.265V178.699V178.699V178.699" stroke="#BABABA" stroke-width="8" stroke-linecap="round"/>
<g filter="url(#filter0_b_3923_83743)">
<path fill-rule="evenodd" clip-rule="evenodd" d="M42.4791 168.506C44.7591 168.506 57.9591 168.686 57.9591 156.446C57.9591 148.306 53.0391 139.866 43.1991 131.146C32.0191 142.886 27.1991 151.806 28.7391 157.926C31.0391 167.086 40.2191 168.506 42.4791 168.506Z" fill="#BABABA" fill-opacity="0.151852"/>
</g>
<g clip-path="url(#clip0_3923_83743)">
<path d="M289.347 156.174V169.078V169.078V169.078" stroke="#BABABA" stroke-width="6" stroke-linecap="round"/>
<g filter="url(#filter1_b_3923_83743)">
<path fill-rule="evenodd" clip-rule="evenodd" d="M288.844 156.722C290.424 156.722 299.664 156.842 299.664 148.162C299.664 142.382 296.224 136.382 289.344 130.182C281.524 138.522 278.144 144.862 279.224 149.202C280.824 155.722 287.264 156.722 288.844 156.722Z" fill="#BABABA" fill-opacity="0.151852"/>
</g>
</g>
<g clip-path="url(#clip1_3923_83743)">
<path d="M320.808 173.753V183.892V183.892V183.892" stroke="#BABABA" stroke-width="6" stroke-linecap="round"/>
<g filter="url(#filter2_b_3923_83743)">
<path fill-rule="evenodd" clip-rule="evenodd" d="M320.915 174.395C322.135 174.395 329.175 174.495 329.175 168.055C329.175 163.775 326.535 159.335 321.295 154.735C315.335 160.915 312.755 165.615 313.575 168.835C314.815 173.655 319.715 174.395 320.915 174.395Z" fill="#BABABA" fill-opacity="0.151852"/>
</g>
</g>
<path d="M247.158 123.036L215.581 83.5158C214.065 81.6548 211.855 80.5284 209.522 80.5284H141.634C139.301 80.5284 137.086 81.6548 135.573 83.5158L104 123.036V143.684H247.154V123.036H247.158Z" fill="#B9B9B9"/>
<path d="M238.737 144.827L210.872 112.411C209.535 110.853 207.528 110 205.474 110H145.684C143.629 110 141.621 110.853 140.286 112.411L112.421 144.827V162.632H238.737V144.827Z" fill="#D8D8D8"/>
<g filter="url(#filter3_b_3923_83743)">
<path d="M246.867 172.282C245.846 176.404 242.253 179.474 237.981 179.474H113.179C108.905 179.474 105.314 176.404 104.291 172.282C104.096 171.497 103.998 170.691 104 169.882V124.853H138.733C142.571 124.853 145.661 128.137 145.661 132.126V132.177C145.661 136.164 148.787 139.381 152.625 139.381H198.533C202.371 139.381 205.497 136.135 205.497 132.145V132.128C205.497 128.143 208.587 124.851 212.425 124.851H247.158V169.882C247.158 170.71 247.059 171.514 246.867 172.282Z" fill="#BABABA" fill-opacity="0.0971646"/>
</g>
<path d="M233.487 43.072L253.687 51.709L265.183 8.67499L233.485 43.072H233.487Z" fill="#B9B9B9"/>
<path d="M265.34 8.67499L210.49 34.588L227.736 43.072L265.34 8.67499ZM233.486 46.002V60.347L242.187 51.709L233.486 46.002Z" fill="#B9B9B9"/>
<path d="M154.781 123.08C156.465 122.15 158.151 121.374 159.835 120.444C160.447 119.98 160.752 119.204 160.293 118.584C159.987 117.964 159.069 117.653 158.456 117.964C156.772 118.894 155.086 119.824 153.401 120.6C152.636 120.91 152.483 121.84 152.79 122.615C153.25 123.08 154.014 123.39 154.781 123.08ZM164.736 117.498C166.42 116.568 167.951 115.482 169.636 114.397C170.248 113.932 170.402 113.002 170.096 112.38C169.635 111.76 168.716 111.605 168.105 111.916C166.573 113.002 164.888 113.932 163.358 115.017C162.743 115.327 162.438 116.258 162.898 116.879C163.204 117.653 164.123 117.809 164.734 117.498H164.736ZM174.384 110.831C175.915 109.59 177.447 108.349 178.824 107.109C179.438 106.645 179.438 105.713 178.977 105.092C178.517 104.474 177.599 104.474 176.987 104.938C175.608 106.179 174.23 107.419 172.698 108.504C172.085 108.969 172.085 109.901 172.545 110.521C172.852 111.141 173.771 111.296 174.384 110.829V110.831ZM182.959 103.077C184.35 101.665 185.583 100.106 186.635 98.426C187.095 97.806 186.943 96.876 186.328 96.409C185.717 95.945 184.798 96.101 184.338 96.719C183.266 98.27 182.04 99.667 180.816 101.061C180.356 101.682 180.356 102.612 180.97 103.079C181.581 103.697 182.5 103.542 182.96 103.079V103.077H182.959ZM189.851 93.154C189.545 93.928 188.626 94.239 188.013 93.928C187.248 93.618 186.941 92.688 187.248 92.068C187.995 90.4134 188.61 88.702 189.086 86.95C189.239 86.176 190.158 85.711 190.771 86.02C191.536 86.174 191.995 86.95 191.841 87.727C191.382 89.432 190.771 91.292 189.851 93.154ZM192.608 81.369C192.455 79.199 191.842 77.027 190.464 75.166C190.004 74.547 189.086 74.392 188.473 74.856C187.86 75.321 187.708 76.251 188.165 76.874C189.085 78.268 189.699 79.819 189.699 81.523C189.852 82.299 190.464 82.92 191.23 82.764C191.412 82.7639 191.593 82.7276 191.761 82.6572C191.929 82.5869 192.082 82.4839 192.21 82.3541C192.338 82.2244 192.439 82.0705 192.508 81.9014C192.576 81.7323 192.61 81.5514 192.608 81.369ZM185.563 70.979C183.732 70.0592 181.768 69.4316 179.743 69.119C179.283 68.964 178.671 69.274 178.366 69.585C178.058 70.049 177.905 70.515 178.212 70.98C178.366 71.444 178.825 71.756 179.284 71.91C180.968 72.22 182.654 72.685 184.185 73.462C184.412 73.6133 184.678 73.6941 184.951 73.6941C185.224 73.6941 185.49 73.6133 185.717 73.462C186.176 73.15 186.482 72.685 186.33 72.221C186.33 71.601 186.022 71.135 185.563 70.98V70.979ZM173.465 68.964C171.015 69.429 169.024 70.359 167.492 71.756C166.879 72.376 166.879 73.15 167.492 73.771C167.646 73.925 167.952 74.081 168.105 74.236C168.565 74.39 169.175 74.236 169.483 73.926C170.402 72.995 172.085 72.221 173.923 71.909C174.383 71.756 174.843 71.445 174.997 70.979C175.302 70.205 174.843 69.429 174.077 69.119C173.923 68.964 173.617 68.964 173.465 68.964ZM165.807 78.578C166.267 80.284 167.338 82.144 169.024 84.005C169.483 84.625 170.402 84.625 171.014 84.159C171.626 83.694 171.626 82.764 171.168 82.144C169.788 80.594 168.87 79.043 168.564 77.802C168.411 77.337 168.104 76.872 167.492 76.872C167.243 76.7925 166.975 76.7947 166.727 76.8783C166.479 76.962 166.264 77.1227 166.114 77.337C165.953 77.4948 165.839 77.6944 165.784 77.9134C165.73 78.1324 165.738 78.3622 165.807 78.577V78.578ZM173.771 88.348C175.456 89.586 177.293 90.362 179.284 90.983C180.049 91.137 180.816 90.672 180.968 89.898C181.122 89.121 180.814 88.348 180.049 88.191C178.366 87.727 176.68 86.951 175.302 85.867C174.689 85.4 173.771 85.711 173.312 86.331C173.004 86.951 173.158 87.882 173.771 88.347V88.348ZM185.409 91.603C184.644 91.603 183.879 90.983 183.879 90.207C183.879 89.432 184.491 88.657 185.257 88.657C187.018 88.5113 188.762 88.1999 190.465 87.727C190.923 87.573 191.536 87.727 191.842 88.036C192.456 88.503 192.456 89.432 191.995 90.053C191.842 90.207 191.536 90.363 191.382 90.518C189.545 91.138 187.4 91.603 185.409 91.603ZM197.203 88.036C198.887 87.106 200.573 86.021 202.258 84.935C202.869 84.47 203.023 83.54 202.563 82.918C202.103 82.299 201.337 82.144 200.573 82.61C199.041 83.694 197.509 84.781 195.977 85.556C195.517 85.709 195.212 86.332 195.212 86.796C195.212 87.262 195.518 87.882 195.824 88.036C196.284 88.347 196.742 88.347 197.204 88.036H197.203ZM206.543 81.369C208.033 80.1438 209.416 78.795 210.679 77.337C211.139 76.744 211.139 75.914 210.679 75.321C210.066 74.701 209.301 74.701 208.689 75.321C207.464 76.716 206.084 77.957 204.706 79.198C204.096 79.663 204.096 80.593 204.706 81.215C205.167 81.835 205.932 81.835 206.546 81.369H206.544H206.543ZM214.815 72.995C216.039 71.445 217.265 70.049 218.49 68.499C218.95 67.879 218.797 66.949 218.182 66.482C217.571 66.017 216.652 66.174 216.193 66.793C215.121 68.343 213.896 69.74 212.67 71.289C212.211 71.909 212.363 72.841 212.824 73.306C213.437 73.616 214.202 73.46 214.815 72.995ZM221.859 63.381C222.969 61.7845 223.992 60.1287 224.922 58.421C225.383 57.8 225.076 56.871 224.462 56.403C223.85 55.939 222.932 56.25 222.472 56.87C221.506 58.5066 220.484 60.1098 219.409 61.677C219.103 62.142 219.103 62.607 219.255 63.072C219.408 63.537 220.023 63.848 220.481 63.848C221.094 64.155 221.553 63.848 221.859 63.381ZM227.679 53.614C228.291 52.528 228.752 51.443 229.363 50.357C229.671 49.581 229.363 48.807 228.598 48.496C227.985 48.186 227.22 48.496 226.761 49.116C226.3 50.202 225.689 51.287 225.229 52.217C224.922 52.993 225.076 53.767 225.841 54.234C226.455 54.542 227.372 54.234 227.68 53.614H227.679Z" fill="#D1D1D1"/>
<defs>
<filter id="filter0_b_3923_83743" x="17.5863" y="120.273" width="51.2459" height="59.1064" filterUnits="userSpaceOnUse" color-interpolation-filters="sRGB">
<feFlood flood-opacity="0" result="BackgroundImageFix"/>
<feGaussianBlur in="BackgroundImageFix" stdDeviation="5.43656"/>
<feComposite in2="SourceAlpha" operator="in" result="effect1_backgroundBlur_3923_83743"/>
<feBlend mode="normal" in="SourceGraphic" in2="effect1_backgroundBlur_3923_83743" result="shape"/>
</filter>
<filter id="filter1_b_3923_83743" x="268.155" y="119.309" width="42.3824" height="48.2864" filterUnits="userSpaceOnUse" color-interpolation-filters="sRGB">
<feFlood flood-opacity="0" result="BackgroundImageFix"/>
<feGaussianBlur in="BackgroundImageFix" stdDeviation="5.43656"/>
<feComposite in2="SourceAlpha" operator="in" result="effect1_backgroundBlur_3923_83743"/>
<feBlend mode="normal" in="SourceGraphic" in2="effect1_backgroundBlur_3923_83743" result="shape"/>
</filter>
<filter id="filter2_b_3923_83743" x="302.553" y="143.862" width="37.4946" height="41.4063" filterUnits="userSpaceOnUse" color-interpolation-filters="sRGB">
<feFlood flood-opacity="0" result="BackgroundImageFix"/>
<feGaussianBlur in="BackgroundImageFix" stdDeviation="5.43656"/>
<feComposite in2="SourceAlpha" operator="in" result="effect1_backgroundBlur_3923_83743"/>
<feBlend mode="normal" in="SourceGraphic" in2="effect1_backgroundBlur_3923_83743" result="shape"/>
</filter>
<filter id="filter3_b_3923_83743" x="65.9441" y="86.7946" width="219.27" height="130.735" filterUnits="userSpaceOnUse" color-interpolation-filters="sRGB">
<feFlood flood-opacity="0" result="BackgroundImageFix"/>
<feGaussianBlur in="BackgroundImageFix" stdDeviation="19.028"/>
<feComposite in2="SourceAlpha" operator="in" result="effect1_backgroundBlur_3923_83743"/>
<feBlend mode="normal" in="SourceGraphic" in2="effect1_backgroundBlur_3923_83743" result="shape"/>
</filter>
<linearGradient id="paint0_linear_3923_83743" x1="13.4577" y1="126.125" x2="13.4577" y2="235.645" gradientUnits="userSpaceOnUse">
<stop stop-color="#8E8E8E" stop-opacity="0.5137"/>
<stop offset="1" stop-color="white" stop-opacity="0.01"/>
</linearGradient>
<clipPath id="clip0_3923_83743">
<rect width="20.6463" height="38.8961" fill="white" transform="translate(279.024 130.182)"/>
</clipPath>
<clipPath id="clip1_3923_83743">
<rect width="15.7484" height="29.1567" fill="white" transform="translate(313.426 154.735)"/>
</clipPath>
</defs>
</svg>
