<svg width="112" height="74" viewBox="0 0 112 74" fill="none" xmlns="http://www.w3.org/2000/svg">
<rect width="112" height="74" rx="4" fill="white"/>
<path d="M0 4C0 1.79086 1.79086 0 4 0H9V74H4C1.79086 74 0 72.2091 0 70V4Z" fill="black" fill-opacity="0.04"/>
<path d="M0 4C0 1.79086 1.79086 0 4 0H9V10H0V4Z" fill="#D0963E" fill-opacity="0.15"/>
<path d="M1 25H9V31H1V25Z" fill="#D0963E" fill-opacity="0.15"/>
<path d="M1 35H9V41H1V35Z" fill="#D0963E" fill-opacity="0.15"/>
<path d="M1 45H9V51H1V45Z" fill="#D0963E" fill-opacity="0.15"/>
<path d="M9 0H38V74H9V0Z" fill="black" fill-opacity="0.02"/>
<path d="M14 12H32V16H14V12Z" fill="#D0963E" fill-opacity="0.15"/>
<path d="M14 22H32V26H14V22Z" fill="#D0963E" fill-opacity="0.15"/>
<path d="M14 32H32V36H14V32Z" fill="#D0963E" fill-opacity="0.15"/>
<path d="M14 42H32V46H14V42Z" fill="#D0963E" fill-opacity="0.15"/>
<path d="M14 52H32V56H14V52Z" fill="#D0963E" fill-opacity="0.15"/>
<path d="M42 0H108C110.209 0 112 1.79086 112 4V10H42V0Z" fill="black" fill-opacity="0.04"/>
<path d="M42 64H112V70C112 72.2091 110.209 74 108 74H42V64Z" fill="black" fill-opacity="0.04"/>
<rect x="0.5" y="0.5" width="111" height="73" rx="3.5" stroke="black" stroke-opacity="0.04"/>
</svg>
