<svg width="41" height="40" viewBox="0 0 41 40" fill="none" xmlns="http://www.w3.org/2000/svg">
<rect x="0.5" width="40" height="40" rx="4" fill="black" fill-opacity="0.04"/>
<rect width="17.1679" height="22.3173" rx="1" transform="matrix(0.965929 -0.258808 0.25883 0.965923 8.48242 11.4434)" fill="black" fill-opacity="0.04"/>
<rect x="15.3496" y="8.71729" width="17.1679" height="22.3173" rx="1" fill="black" fill-opacity="0.25"/>
<path d="M18.354 13.438H29.9423" stroke="black" stroke-opacity="0.25" stroke-width="1.71675" stroke-linejoin="round"/>
<path d="M18.354 17.3008H29.9423" stroke="black" stroke-opacity="0.25" stroke-width="1.71675" stroke-linejoin="round"/>
<g filter="url(#filter0_b_2170_67433)">
<path d="M25.1615 19.876C27.2608 19.876 28.9645 21.5797 28.9645 23.6789C28.9645 25.7781 27.2608 27.4818 25.1615 27.4818C23.0622 27.4818 21.3584 25.7781 21.3584 23.6789C21.3584 21.5797 23.0622 19.876 25.1615 19.876ZM28.7469 26.6667L29.9424 27.8616L29.3444 28.4595L28.1494 27.2642L28.7469 26.6667Z" fill="black" fill-opacity="0.45"/>
</g>
<defs>
<filter id="filter0_b_2170_67433" x="17.3584" y="15.876" width="16.584" height="16.5835" filterUnits="userSpaceOnUse" color-interpolation-filters="sRGB">
<feFlood flood-opacity="0" result="BackgroundImageFix"/>
<feGaussianBlur in="BackgroundImageFix" stdDeviation="2"/>
<feComposite in2="SourceAlpha" operator="in" result="effect1_backgroundBlur_2170_67433"/>
<feBlend mode="normal" in="SourceGraphic" in2="effect1_backgroundBlur_2170_67433" result="shape"/>
</filter>
</defs>
</svg>
