<svg width="41" height="40" viewBox="0 0 41 40" fill="none" xmlns="http://www.w3.org/2000/svg">
<rect x="0.5" width="40" height="40" rx="4" fill="black" fill-opacity="0.04"/>
<path fill-rule="evenodd" clip-rule="evenodd" d="M11.8206 18.6205H32.4999C33.0522 18.6205 33.4999 19.0682 33.4999 19.6205V29.4453C33.4999 29.9975 33.0522 30.4453 32.4999 30.4453H30.5438V31.4155C30.5438 31.9678 30.096 32.4155 29.5438 32.4155H27.6022C27.0499 32.4155 26.6022 31.9678 26.6022 31.4155V30.4453H14.7776V31.4155C14.7776 31.9678 14.3299 32.4155 13.7776 32.4155H11.836C11.2838 32.4155 10.836 31.9678 10.836 31.4155V30.4453H8.8795C8.32722 30.4453 7.8795 29.9975 7.8795 29.4453V19.6205C7.8795 19.5605 7.88479 19.5017 7.89492 19.4446C7.79091 19.0233 7.97149 18.5671 8.36613 18.3392L25.4211 8.49253C25.8924 8.22042 26.4951 8.38191 26.7672 8.85322C27.0393 9.32452 26.8778 9.92719 26.4065 10.1993L11.8206 18.6205Z" fill="black" fill-opacity="0.25"/>
<g filter="url(#filter0_b_2170_67455)">
<path d="M26.6023 23.5469H30.5439V25.5177H26.6023V23.5469Z" fill="black" fill-opacity="0.45"/>
</g>
<defs>
<filter id="filter0_b_2170_67455" x="22.6023" y="19.5469" width="11.9417" height="9.9707" filterUnits="userSpaceOnUse" color-interpolation-filters="sRGB">
<feFlood flood-opacity="0" result="BackgroundImageFix"/>
<feGaussianBlur in="BackgroundImageFix" stdDeviation="2"/>
<feComposite in2="SourceAlpha" operator="in" result="effect1_backgroundBlur_2170_67455"/>
<feBlend mode="normal" in="SourceGraphic" in2="effect1_backgroundBlur_2170_67455" result="shape"/>
</filter>
</defs>
</svg>
