<svg width="14" height="14" viewBox="0 0 14 14" fill="none" xmlns="http://www.w3.org/2000/svg">
<path d="M3 11.6673H1C0.823192 11.6673 0.653622 11.5971 0.528598 11.4721C0.403574 11.347 0.333336 11.1775 0.333336 11.0007V4.33398C0.333336 4.15717 0.403574 3.9876 0.528598 3.86258C0.653622 3.73756 0.823192 3.66732 1 3.66732H3V1.00065C3 0.82384 3.07024 0.654271 3.19526 0.529246C3.32029 0.404222 3.48986 0.333984 3.66667 0.333984H10.3333C10.5101 0.333984 10.6797 0.404222 10.8047 0.529246C10.9298 0.654271 11 0.82384 11 1.00065V3.66732H13C13.1768 3.66732 13.3464 3.73756 13.4714 3.86258C13.5964 3.9876 13.6667 4.15717 13.6667 4.33398V11.0007C13.6667 11.1775 13.5964 11.347 13.4714 11.4721C13.3464 11.5971 13.1768 11.6673 13 11.6673H11V13.0007C11 13.1775 10.9298 13.347 10.8047 13.4721C10.6797 13.5971 10.5101 13.6673 10.3333 13.6673H3.66667C3.48986 13.6673 3.32029 13.5971 3.19526 13.4721C3.07024 13.347 3 13.1775 3 13.0007V11.6673ZM3 10.334V9.66732C3 9.49051 3.07024 9.32094 3.19526 9.19591C3.32029 9.07089 3.48986 9.00065 3.66667 9.00065H10.3333C10.5101 9.00065 10.6797 9.07089 10.8047 9.19591C10.9298 9.32094 11 9.49051 11 9.66732V10.334H12.3333V5.00065H1.66667V10.334H3ZM4.33334 1.66732V3.66732H9.66667V1.66732H4.33334ZM4.33334 10.334V12.334H9.66667V10.334H4.33334ZM2.33334 5.66732H4.33334V7.00065H2.33334V5.66732Z" fill="black" fill-opacity="0.45"/>
</svg>
