<svg width="68" height="55" viewBox="0 0 68 55" fill="none" xmlns="http://www.w3.org/2000/svg">
<g filter="url(#filter0_d_2170_67713)">
<rect x="16.2764" y="21.7524" width="24.659" height="9.24714" rx="1.3036" fill="url(#paint0_linear_2170_67713)"/>
<path d="M19.1223 9.65737C19.2608 9.06851 19.7863 8.65234 20.3912 8.65234H42.3719C43.2125 8.65234 43.8333 9.43624 43.6408 10.2545L41.1719 20.7474C41.0333 21.3363 40.5079 21.7525 39.9029 21.7525H17.9223C17.0817 21.7525 16.4608 20.9686 16.6534 20.1503L19.1223 9.65737Z" fill="url(#paint1_linear_2170_67713)"/>
<path d="M19.896 11.2038C20.0325 10.6123 20.5592 10.1934 21.1662 10.1934H40.0671C40.9055 10.1934 41.5259 10.9732 41.3374 11.7901L39.6272 19.2006C39.4907 19.7921 38.9641 20.2111 38.357 20.2111H19.4561C18.6178 20.2111 17.9974 19.4312 18.1859 18.6144L19.896 11.2038Z" fill="#5B92D9"/>
<g filter="url(#filter1_b_2170_67713)">
<rect x="36.3118" y="21.7529" width="15.4119" height="9.24714" rx="1.54119" fill="#3E78D0" fill-opacity="0.2"/>
</g>
<g filter="url(#filter2_b_2170_67713)">
<rect x="36.3118" y="21.7529" width="15.4119" height="9.24714" rx="1.54119" fill="white" fill-opacity="0.1"/>
</g>
<ellipse cx="48.333" cy="24.5269" rx="1.23295" ry="1.23295" fill="white"/>
</g>
<defs>
<filter id="filter0_d_2170_67713" x="0.864467" y="0.946393" width="66.2711" height="53.1715" filterUnits="userSpaceOnUse" color-interpolation-filters="sRGB">
<feFlood flood-opacity="0" result="BackgroundImageFix"/>
<feColorMatrix in="SourceAlpha" type="matrix" values="0 0 0 0 0 0 0 0 0 0 0 0 0 0 0 0 0 0 127 0" result="hardAlpha"/>
<feOffset dy="7.70595"/>
<feGaussianBlur stdDeviation="7.70595"/>
<feComposite in2="hardAlpha" operator="out"/>
<feColorMatrix type="matrix" values="0 0 0 0 0.243137 0 0 0 0 0.470588 0 0 0 0 0.815686 0 0 0 0.2 0"/>
<feBlend mode="normal" in2="BackgroundImageFix" result="effect1_dropShadow_2170_67713"/>
<feBlend mode="normal" in="SourceGraphic" in2="effect1_dropShadow_2170_67713" result="shape"/>
</filter>
<filter id="filter1_b_2170_67713" x="30.147" y="15.5882" width="27.7414" height="21.5766" filterUnits="userSpaceOnUse" color-interpolation-filters="sRGB">
<feFlood flood-opacity="0" result="BackgroundImageFix"/>
<feGaussianBlur in="BackgroundImageFix" stdDeviation="3.08238"/>
<feComposite in2="SourceAlpha" operator="in" result="effect1_backgroundBlur_2170_67713"/>
<feBlend mode="normal" in="SourceGraphic" in2="effect1_backgroundBlur_2170_67713" result="shape"/>
</filter>
<filter id="filter2_b_2170_67713" x="30.147" y="15.5882" width="27.7414" height="21.5766" filterUnits="userSpaceOnUse" color-interpolation-filters="sRGB">
<feFlood flood-opacity="0" result="BackgroundImageFix"/>
<feGaussianBlur in="BackgroundImageFix" stdDeviation="3.08238"/>
<feComposite in2="SourceAlpha" operator="in" result="effect1_backgroundBlur_2170_67713"/>
<feBlend mode="normal" in="SourceGraphic" in2="effect1_backgroundBlur_2170_67713" result="shape"/>
</filter>
<linearGradient id="paint0_linear_2170_67713" x1="40.0547" y1="29.6786" x2="34.555" y2="15.5034" gradientUnits="userSpaceOnUse">
<stop stop-color="#3E78D0"/>
<stop offset="1" stop-color="#5B92D9"/>
</linearGradient>
<linearGradient id="paint1_linear_2170_67713" x1="40.0547" y1="19.881" x2="30.3019" y2="2.13721" gradientUnits="userSpaceOnUse">
<stop stop-color="#3E78D0"/>
<stop offset="1" stop-color="#5B92D9"/>
</linearGradient>
</defs>
</svg>
