<svg width="12" height="12" viewBox="0 0 12 12" fill="none" xmlns="http://www.w3.org/2000/svg">
<path d="M2.4 10.2H0.6C0.44087 10.2 0.288258 10.1368 0.175736 10.0243C0.0632141 9.91174 0 9.75913 0 9.6V3.6C0 3.44087 0.0632141 3.28826 0.175736 3.17574C0.288258 3.06321 0.44087 3 0.6 3H2.4V0.6C2.4 0.44087 2.46321 0.288258 2.57574 0.175736C2.68826 0.0632141 2.84087 0 3 0H9C9.15913 0 9.31174 0.0632141 9.42426 0.175736C9.53679 0.288258 9.6 0.44087 9.6 0.6V3H11.4C11.5591 3 11.7117 3.06321 11.8243 3.17574C11.9368 3.28826 12 3.44087 12 3.6V9.6C12 9.75913 11.9368 9.91174 11.8243 10.0243C11.7117 10.1368 11.5591 10.2 11.4 10.2H9.6V11.4C9.6 11.5591 9.53679 11.7117 9.42426 11.8243C9.31174 11.9368 9.15913 12 9 12H3C2.84087 12 2.68826 11.9368 2.57574 11.8243C2.46321 11.7117 2.4 11.5591 2.4 11.4V10.2ZM2.4 9V8.4C2.4 8.24087 2.46321 8.08826 2.57574 7.97574C2.68826 7.86321 2.84087 7.8 3 7.8H9C9.15913 7.8 9.31174 7.86321 9.42426 7.97574C9.53679 8.08826 9.6 8.24087 9.6 8.4V9H10.8V4.2H1.2V9H2.4ZM3.6 1.2V3H8.4V1.2H3.6ZM3.6 9V10.8H8.4V9H3.6ZM1.8 4.8H3.6V6H1.8V4.8Z" fill="#3E78D0"/>
</svg>
