<svg width="16" height="16" viewBox="0 0 16 16" fill="none" xmlns="http://www.w3.org/2000/svg">
<path d="M3.6968 12.9889L3.6848 13L3.6722 12.9889H2.5952C2.43729 12.9888 2.2859 12.9306 2.17429 12.8273C2.06269 12.724 2 12.5839 2 12.4378V3.55105C2.0011 3.40532 2.06414 3.26583 2.17551 3.16272C2.28688 3.05961 2.43763 3.00116 2.5952 3H13.4048C13.7336 3 14 3.24695 14 3.55105V12.4378C13.9989 12.5836 13.9359 12.7231 13.8245 12.8262C13.7131 12.9293 13.5624 12.9877 13.4048 12.9889H3.6968ZM12.8 9.65927V4.10988H3.2V11.879L9.2 6.32963L12.8 9.65927ZM12.8 11.2286L9.2 7.899L4.8968 11.879H12.8V11.2286ZM5.6 7.43951C5.28174 7.43951 4.97652 7.32258 4.75147 7.11444C4.52643 6.90629 4.4 6.62399 4.4 6.32963C4.4 6.03528 4.52643 5.75297 4.75147 5.54483C4.97652 5.33669 5.28174 5.21976 5.6 5.21976C5.91826 5.21976 6.22348 5.33669 6.44853 5.54483C6.67357 5.75297 6.8 6.03528 6.8 6.32963C6.8 6.62399 6.67357 6.90629 6.44853 7.11444C6.22348 7.32258 5.91826 7.43951 5.6 7.43951Z" fill="#3E78D0"/>
</svg>
