<svg width="14" height="16" viewBox="0 0 14 16" fill="none" xmlns="http://www.w3.org/2000/svg">
<g clip-path="url(#clip0_2713_66649)">
<path d="M13.4167 3.83407V15.4074C13.4167 15.7347 13.1555 16 12.8334 16H1.16671C0.844541 16 0.583374 15.7347 0.583374 15.4074V0.592593C0.583374 0.265313 0.844541 0 1.16671 0H9.64254L13.4167 3.83407Z" fill="#57A7FF"/>
<path d="M9.625 3.25651V0L13.4167 3.85185H10.211C9.88738 3.85185 9.625 3.58531 9.625 3.25651Z" fill="#93C7FF"/>
<path d="M3.28 7.144V10H4.324C4.788 10 5.136 9.872 5.376 9.616C5.604 9.372 5.72 9.024 5.72 8.572C5.72 8.116 5.604 7.768 5.376 7.528C5.136 7.272 4.788 7.144 4.324 7.144H3.28ZM3.748 7.544H4.236C4.592 7.544 4.852 7.624 5.016 7.788C5.176 7.948 5.256 8.212 5.256 8.572C5.256 8.924 5.176 9.184 5.016 9.352C4.852 9.516 4.592 9.6 4.236 9.6H3.748V7.544ZM7.42691 7.088C6.98691 7.088 6.64291 7.228 6.39491 7.516C6.15491 7.788 6.03891 8.14 6.03891 8.576C6.03891 9.008 6.15491 9.36 6.39491 9.632C6.64291 9.912 6.98691 10.056 7.42691 10.056C7.86291 10.056 8.20691 9.916 8.45891 9.636C8.69891 9.368 8.81891 9.016 8.81891 8.576C8.81891 8.136 8.69891 7.78 8.45891 7.512C8.20691 7.228 7.86291 7.088 7.42691 7.088ZM7.42691 7.5C7.72291 7.5 7.95091 7.592 8.11091 7.784C8.26691 7.976 8.34691 8.24 8.34691 8.576C8.34691 8.912 8.26691 9.172 8.11091 9.36C7.95091 9.548 7.72291 9.644 7.42691 9.644C7.13091 9.644 6.89891 9.544 6.73891 9.348C6.58291 9.156 6.50691 8.9 6.50691 8.576C6.50691 8.248 6.58291 7.992 6.73891 7.8C6.90291 7.6 7.13091 7.5 7.42691 7.5ZM10.5005 7.088C10.0445 7.088 9.69647 7.236 9.45647 7.54C9.24447 7.804 9.14047 8.152 9.14047 8.576C9.14047 9.008 9.24047 9.352 9.44447 9.608C9.67647 9.904 10.0325 10.056 10.5085 10.056C10.8165 10.056 11.0805 9.968 11.3005 9.792C11.5365 9.604 11.6845 9.344 11.7485 9.008H11.2925C11.2365 9.224 11.1405 9.388 11.0045 9.496C10.8765 9.592 10.7085 9.644 10.5045 9.644C10.1925 9.644 9.96047 9.544 9.81247 9.352C9.67647 9.172 9.60847 8.912 9.60847 8.576C9.60847 8.248 9.67647 7.992 9.81647 7.808C9.96847 7.6 10.1925 7.5 10.4925 7.5C10.6925 7.5 10.8565 7.54 10.9845 7.628C11.1165 7.716 11.2045 7.852 11.2525 8.04H11.7085C11.6645 7.752 11.5405 7.52 11.3325 7.352C11.1165 7.176 10.8365 7.088 10.5005 7.088Z" fill="white"/>
</g>
<defs>
<clipPath id="clip0_2713_66649">
<rect width="14" height="16" fill="white"/>
</clipPath>
</defs>
</svg>
