<svg width="46" height="46" viewBox="0 0 46 46" fill="none" xmlns="http://www.w3.org/2000/svg">
<rect width="46" height="46" rx="8" fill="url(#paint0_linear_0_2981)"/>
<rect x="10" y="10" width="26" height="26" fill="#D8D8D8" fill-opacity="0.01"/>
<g filter="url(#filter0_d_0_2981)">
<path d="M12.7002 13.5538C12.7002 13.0568 13.1031 12.6538 13.6002 12.6538H16.0768C16.5739 12.6538 16.9768 13.0568 16.9768 13.5538V14.1524C16.9768 14.6494 17.3797 15.0524 17.8768 15.0524H27.4393C27.9265 15.0524 28.3253 14.6647 28.339 14.1777L28.3573 13.5285C28.371 13.0415 28.7698 12.6538 29.2569 12.6538H31.6002C32.0973 12.6538 32.5002 13.0568 32.5002 13.5538V34.35C32.5002 34.847 32.0972 35.25 31.6002 35.25H13.6002C13.1031 35.25 12.7002 34.847 12.7002 34.35V13.5538Z" fill="white"/>
</g>
<g filter="url(#filter1_d_0_2981)">
<path d="M18.2552 9.94238H26.945C27.0484 9.94238 27.1001 9.99714 27.1001 10.1067V13.3935C27.1001 13.503 27.0484 13.5578 26.945 13.5578H18.2552C18.1518 13.5578 18.1001 13.503 18.1001 13.3935V10.1067C18.1001 9.99714 18.1518 9.94238 18.2552 9.94238Z" fill="white"/>
</g>
<path d="M16.2998 19.2217L16.2998 19.2217C16.3115 19.0926 16.4476 18.9898 16.6187 18.981H28.5809V18.981C28.752 18.9898 28.8881 19.0926 28.8998 19.2217V20.5479C28.8881 20.6771 28.752 20.7798 28.5809 20.7886H16.6187C16.4476 20.7798 16.3115 20.6771 16.2998 20.5479L16.2998 19.2217Z" fill="#FA8068"/>
<path d="M22.2926 26.2101H16.607C16.4422 26.2006 16.3111 26.0904 16.2998 25.9519V24.6623H16.2998C16.311 24.5238 16.4422 24.4134 16.607 24.4038H22.2926V24.4038C22.4574 24.4134 22.5886 24.5238 22.5998 24.6623V25.9534V25.9534C22.5886 26.0918 22.4574 26.202 22.2926 26.2115V26.2101Z" fill="#FA8068"/>
<path fill-rule="evenodd" clip-rule="evenodd" d="M33.6798 32.4882H36.1815C36.6 32.5203 36.9391 32.8317 37 33.2304V34.6698C36.9523 35.0825 36.608 35.4081 36.1776 35.4427H25.8661C25.4039 35.426 25.0318 35.0736 25.0013 34.6301V33.3034C25.0305 32.8676 25.3894 32.5177 25.8396 32.4882H28.5215L29.2459 30.8616C28.3493 30.2835 27.7573 29.2953 27.7573 28.1725C27.7573 26.3882 29.2512 24.9424 31.0947 24.9424C32.9382 24.9424 34.4321 26.3882 34.4321 28.1725C34.4321 29.2902 33.8454 30.2759 32.9528 30.8552L33.6798 32.4882ZM36.4557 36.9424C36.7563 36.9424 36.9987 36.7065 36.9987 36.4169C36.9987 36.1272 36.7563 35.8926 36.4557 35.8913H25.543C25.2424 35.8913 25 36.1272 25 36.4169C25 36.7078 25.2437 36.9424 25.543 36.9424H36.4557Z" fill="#FFB9AB"/>
<defs>
<filter id="filter0_d_0_2981" x="11.7002" y="12.6538" width="21.7998" height="24.5962" filterUnits="userSpaceOnUse" color-interpolation-filters="sRGB">
<feFlood flood-opacity="0" result="BackgroundImageFix"/>
<feColorMatrix in="SourceAlpha" type="matrix" values="0 0 0 0 0 0 0 0 0 0 0 0 0 0 0 0 0 0 127 0" result="hardAlpha"/>
<feOffset dy="1"/>
<feGaussianBlur stdDeviation="0.5"/>
<feColorMatrix type="matrix" values="0 0 0 0 1 0 0 0 0 0.414897 0 0 0 0 0.303449 0 0 0 1 0"/>
<feBlend mode="normal" in2="BackgroundImageFix" result="effect1_dropShadow_0_2981"/>
<feBlend mode="normal" in="SourceGraphic" in2="effect1_dropShadow_0_2981" result="shape"/>
</filter>
<filter id="filter1_d_0_2981" x="17.1001" y="9.94238" width="11" height="5.61523" filterUnits="userSpaceOnUse" color-interpolation-filters="sRGB">
<feFlood flood-opacity="0" result="BackgroundImageFix"/>
<feColorMatrix in="SourceAlpha" type="matrix" values="0 0 0 0 0 0 0 0 0 0 0 0 0 0 0 0 0 0 127 0" result="hardAlpha"/>
<feOffset dy="1"/>
<feGaussianBlur stdDeviation="0.5"/>
<feColorMatrix type="matrix" values="0 0 0 0 1 0 0 0 0 0.414897 0 0 0 0 0.303449 0 0 0 1 0"/>
<feBlend mode="normal" in2="BackgroundImageFix" result="effect1_dropShadow_0_2981"/>
<feBlend mode="normal" in="SourceGraphic" in2="effect1_dropShadow_0_2981" result="shape"/>
</filter>
<linearGradient id="paint0_linear_0_2981" x1="46" y1="46" x2="46" y2="0" gradientUnits="userSpaceOnUse">
<stop stop-color="#FF8B76"/>
<stop offset="1" stop-color="#F57258"/>
</linearGradient>
</defs>
</svg>
