<svg width="12" height="11" viewBox="0 0 12 11" fill="none" xmlns="http://www.w3.org/2000/svg">
<path d="M9.27273 3.14286H12V4.19048H9.27273V3.14286ZM8.18182 5.76191H12V6.80952H8.18182V5.76191ZM9.81818 8.38095H12V9.42857H9.81818V8.38095ZM0 11C0 9.88862 0.459739 8.82275 1.27808 8.03689C2.09642 7.25102 3.20633 6.80952 4.36364 6.80952C5.52095 6.80952 6.63085 7.25102 7.44919 8.03689C8.26753 8.82275 8.72727 9.88862 8.72727 11H7.63636C7.63636 10.1665 7.29156 9.36706 6.6778 8.77766C6.06405 8.18826 5.23162 7.85714 4.36364 7.85714C3.49566 7.85714 2.66322 8.18826 2.04947 8.77766C1.43571 9.36706 1.09091 10.1665 1.09091 11H0ZM4.36364 6.28571C2.55545 6.28571 1.09091 4.87929 1.09091 3.14286C1.09091 1.40643 2.55545 0 4.36364 0C6.17182 0 7.63636 1.40643 7.63636 3.14286C7.63636 4.87929 6.17182 6.28571 4.36364 6.28571ZM4.36364 5.2381C5.56909 5.2381 6.54545 4.30048 6.54545 3.14286C6.54545 1.98524 5.56909 1.04762 4.36364 1.04762C3.15818 1.04762 2.18182 1.98524 2.18182 3.14286C2.18182 4.30048 3.15818 5.2381 4.36364 5.2381Z" fill="#3E78D0"/>
</svg>
