<svg width="112" height="74" viewBox="0 0 112 74" fill="none" xmlns="http://www.w3.org/2000/svg">
<rect width="112" height="74" rx="4" fill="white"/>
<path d="M0 4C0 1.79086 1.79086 0 4 0H29V74H4C1.79086 74 0 72.2091 0 70V4Z" fill="black" fill-opacity="0.04"/>
<path d="M5 9C5 6.79086 6.79086 5 9 5H19C21.2091 5 23 6.79086 23 9C23 11.2091 21.2091 13 19 13H9C6.79086 13 5 11.2091 5 9Z" fill="#D0963E" fill-opacity="0.15"/>
<path d="M5 25H23V29H5V25Z" fill="#D0963E" fill-opacity="0.15"/>
<path d="M5 35H23V39H5V35Z" fill="#D0963E" fill-opacity="0.15"/>
<path d="M5 45H23V49H5V45Z" fill="#D0963E" fill-opacity="0.15"/>
<path d="M34 0H108C110.209 0 112 1.79086 112 4V10H34V0Z" fill="#222529"/>
<path d="M34 64H112V70C112 72.2091 110.209 74 108 74H34V64Z" fill="black" fill-opacity="0.04"/>
<rect x="0.5" y="0.5" width="111" height="73" rx="3.5" stroke="black" stroke-opacity="0.04"/>
</svg>
